M48
INCH,LZ
;FILE_FORMAT=2:4
;TYPE=PLATED
;Layer: PTH_Through_Via
;EasyEDA v6.5.20, 2022-11-28 03:27:33
;a67cddfb3fce44daa9051d46cbbcc19f,10
;Gerber Generator version 0.2
;Holesize 1 = 0.0120 inch
T01C0.0120
%
G05
G90
T01
X032000Y022000
X036000Y023000
X018500Y031500
X047500Y015000
X047500Y011500
X048000Y011000
X048500Y008500
X049000Y008000
X032000Y016500
X032500Y021000
X032500Y015500
X033000Y020000
X033000Y016000
X033500Y019000
X033500Y017000
X044500Y017000
X044500Y016000
X036000Y014500
X039500Y015500
X044000Y016000
X044000Y017500
X019000Y029500
X019500Y028500
X020000Y027500
X020500Y026500
X021000Y025500
X019500Y021000
X019000Y022000
X020000Y020000
X020500Y019500
X021000Y019000
X027000Y022500
X026500Y023500
X026000Y024500
X025500Y025500
X025500Y029000
X026000Y028000
X026500Y027000
X027000Y026000
X024000Y028500
X024000Y023000
X024500Y027500
X024500Y024000
X025000Y026500
X025000Y025000
X023500Y026500
X023500Y030000
X023000Y027500
X023000Y030500
X021000Y028500
X021000Y030000
X028500Y030500
X028500Y026000
X029000Y031000
X029000Y027000
X029500Y031500
X029500Y028000
X045000Y029500
X045000Y023000
X044500Y028500
X044500Y024000
X044000Y027000
X044000Y025000
X043500Y027500
X043500Y022000
X033500Y020000
X033500Y025000
X043500Y020000
X043500Y021000
X034000Y021000
X034000Y026000
X044000Y021000
X044000Y024000
X039000Y023500
X039000Y025500
X036000Y025500
X036000Y027000
X041500Y024500
X041500Y025500
X051500Y017500
X052000Y020000
X052000Y015500
X052500Y021000
X052500Y013500
X053000Y022000
X053000Y012500
X053500Y023000
X053500Y011500
X054000Y024000
X054000Y010500
X054500Y008500
X056500Y026000
X056500Y007500
X049000Y018000
X048000Y016000
X048500Y017000
X051500Y019000
X024000Y017000
X024000Y013500
X020000Y015500
X020000Y017000
X047000Y012500
X054500Y025000
X047000Y030000
X055000Y018500
X055000Y009000
X046500Y009000
X046500Y027000
X051500Y016500
X056000Y016500
X056000Y020500
X031500Y009000
X031500Y017000
X041000Y011500
X041000Y030000
X023000Y024500
X023000Y005500
X019500Y016500
X019500Y012500
X030000Y014500
X029500Y024000
X019500Y002500
X051500Y012000
X042000Y029000
X042000Y028000
X038500Y028000
X038500Y030500
X022000Y010500
X031000Y010500
X039000Y017000
X038500Y010500
X038500Y001500
X042000Y026000
X055500Y021500
X055500Y022500
X055500Y023500
X055500Y024500
X047500Y024500
X049000Y024500
X047500Y019500
X049000Y019500
X024000Y022000
X025000Y022000
X026000Y022000
X023000Y017000
X038500Y027000
X039194Y027000
X000422Y034948
X000422Y032948
X000422Y030948
X000422Y028948
X000422Y026948
X000422Y024948
X000422Y022948
X000422Y020948
X000422Y018948
X000422Y016948
X000422Y014948
X000422Y012948
X000422Y010948
X000422Y008948
X000422Y006948
X000422Y004948
X002422Y034948
X002422Y032948
X002422Y030948
X002422Y028948
X002422Y026948
X002422Y024948
X002422Y022948
X002422Y020948
X002422Y018948
X002422Y016948
X002422Y014948
X002422Y012948
X002422Y010948
X002422Y008948
X002422Y006948
X002422Y004948
X004422Y038948
X004422Y036948
X004422Y034948
X004422Y032948
X004422Y012948
X004422Y010948
X004422Y008948
X004422Y006948
X004422Y004948
X004422Y002948
X004422Y000948
X006422Y038948
X006422Y036948
X006422Y034948
X006422Y032948
X006422Y030948
X006422Y028948
X006422Y026948
X006422Y024948
X006422Y022948
X006422Y020948
X006422Y018948
X006422Y016948
X006422Y014948
X006422Y012948
X006422Y010948
X006422Y008948
X006422Y006948
X006422Y004948
X006422Y002948
X006422Y000948
X008422Y038948
X008422Y036948
X008422Y034948
X008422Y032948
X008422Y030948
X008422Y028948
X008422Y026948
X008422Y024948
X008422Y022948
X008422Y020948
X008422Y018948
X008422Y016948
X008422Y014948
X008422Y012948
X008422Y010948
X008422Y008948
X008422Y006948
X008422Y004948
X008422Y002948
X008422Y000948
X010422Y038948
X010422Y036948
X010422Y034948
X010422Y032948
X010422Y010948
X010422Y008948
X010422Y006948
X010422Y000948
X012422Y038948
X012422Y036948
X012422Y034948
X012422Y032948
X012422Y030948
X012422Y028948
X012422Y026948
X012422Y024948
X012422Y022948
X012422Y020948
X012422Y018948
X012422Y016948
X012422Y014948
X012422Y012948
X012422Y008948
X012422Y006948
X012422Y000948
X014422Y038948
X014422Y036948
X014422Y034948
X014422Y032948
X014422Y030948
X014422Y028948
X014422Y026948
X014422Y024948
X014422Y022948
X014422Y020948
X014422Y018948
X014422Y016948
X014422Y014948
X014422Y012948
X014422Y008948
X014422Y006948
X014422Y000948
X016422Y038948
X016422Y036948
X016422Y034948
X016422Y032948
X016422Y030948
X016422Y028948
X016422Y026948
X016422Y024948
X016422Y022948
X016422Y020948
X016422Y018948
X016422Y016948
X016422Y014948
X016422Y012948
X016422Y008948
X016422Y006948
X016422Y000948
X018422Y038948
X018422Y036948
X018422Y034948
X018422Y032948
X018422Y020948
X018422Y018948
X018422Y016948
X018422Y014948
X018422Y012948
X018422Y008948
X018422Y006948
X018422Y004948
X018422Y002948
X018422Y000948
X020422Y038948
X020422Y036948
X020422Y034948
X020422Y030948
X020422Y000948
X022422Y038948
X022422Y036948
X022422Y032948
X022422Y008948
X022422Y006948
X022422Y004948
X022422Y002948
X022422Y000948
X024422Y038948
X024422Y036948
X024422Y032948
X024422Y012948
X024422Y008948
X024422Y006948
X024422Y004948
X024422Y002948
X024422Y000948
X026422Y038948
X026422Y036948
X026422Y032948
X026422Y012948
X026422Y008948
X026422Y006948
X026422Y004948
X026422Y002948
X026422Y000948
X028422Y038948
X028422Y036948
X028422Y032948
X028422Y012948
X028422Y008948
X028422Y006948
X028422Y004948
X028422Y002948
X028422Y000948
X030422Y038948
X030422Y036948
X030422Y032948
X030422Y030948
X030422Y012948
X030422Y008948
X030422Y006948
X030422Y002948
X030422Y000948
X032422Y038948
X032422Y032948
X032422Y030948
X032422Y014948
X032422Y012948
X032422Y006948
X032422Y004948
X032422Y002948
X032422Y000948
X034422Y038948
X034422Y036948
X034422Y032948
X034422Y030948
X034422Y012948
X034422Y006948
X034422Y004948
X034422Y002948
X034422Y000948
X036422Y038948
X036422Y036948
X036422Y032948
X036422Y030948
X036422Y012948
X036422Y006948
X036422Y004948
X036422Y002948
X038422Y038948
X038422Y036948
X040422Y038948
X040422Y036948
X040422Y012948
X040422Y010948
X040422Y006948
X040422Y004948
X040422Y002948
X040422Y000948
X042422Y038948
X042422Y036948
X042422Y032948
X042422Y030948
X042422Y012948
X042422Y010948
X042422Y006948
X042422Y004948
X042422Y002948
X042422Y000948
X044422Y038948
X044422Y036948
X044422Y032948
X044422Y030948
X044422Y012948
X044422Y010948
X044422Y006948
X044422Y004948
X044422Y002948
X044422Y000948
X046422Y038948
X046422Y036948
X046422Y034948
X046422Y006948
X046422Y004948
X046422Y002948
X046422Y000948
X048422Y038948
X048422Y036948
X048422Y034948
X048422Y032948
X048422Y030948
X048422Y006948
X048422Y004948
X048422Y002948
X048422Y000948
X050422Y038948
X050422Y036948
X050422Y034948
X050422Y032948
X050422Y030948
X050422Y028948
X050422Y004948
X050422Y002948
X050422Y000948
X052422Y038948
X052422Y036948
X052422Y034948
X052422Y032948
X052422Y012948
X052422Y010948
X052422Y004948
X052422Y002948
X052422Y000948
X054422Y038948
X054422Y036948
X054422Y034948
X054422Y004948
X054422Y002948
X054422Y000948
X056422Y034948
X056422Y032948
X056422Y006948
X056422Y004948
X058422Y034948
X058422Y032948
X058422Y030948
X058422Y028948
X058422Y006948
X058422Y004948
M30
