G04 Layer: TopSolderMaskLayer*
G04 EasyEDA v6.5.20, 2022-11-28 03:27:33*
G04 a67cddfb3fce44daa9051d46cbbcc19f,10*
G04 Gerber Generator version 0.2*
G04 Scale: 100 percent, Rotated: No, Reflected: No *
G04 Dimensions in inches *
G04 leading zeros omitted , absolute positions ,3 integer and 6 decimal *
%FSLAX36Y36*%
%MOIN*%

%AMMACRO1*1,1,$1,$2,$3*1,1,$1,$4,$5*1,1,$1,0-$2,0-$3*1,1,$1,0-$4,0-$5*20,1,$1,$2,$3,$4,$5,0*20,1,$1,$4,$5,0-$2,0-$3,0*20,1,$1,0-$2,0-$3,0-$4,0-$5,0*20,1,$1,0-$4,0-$5,$2,$3,0*4,1,4,$2,$3,$4,$5,0-$2,0-$3,0-$4,0-$5,$2,$3,0*%
%AMMACRO2*4,1,4,-0.065,-0.0335,-0.065,0.0335,0.065,0.0335,0.065,-0.0335,-0.065,-0.0335,0*%
%ADD10MACRO1,0.004X-0.0278X-0.0266X-0.0278X0.0266*%
%ADD11MACRO1,0.004X0.0278X-0.0266X0.0278X0.0266*%
%ADD12MACRO1,0.004X0.0278X0.0266X0.0278X-0.0266*%
%ADD13MACRO1,0.004X-0.0278X0.0266X-0.0278X-0.0266*%
%ADD14MACRO1,0.004X0.0266X-0.0278X-0.0266X-0.0278*%
%ADD15MACRO1,0.004X0.0266X0.0278X-0.0266X0.0278*%
%ADD16C,0.0906*%
%ADD17MACRO1,0.004X0.0256X-0.0276X-0.0256X-0.0276*%
%ADD18MACRO1,0.004X0.0223X0.0271X0.0223X-0.0271*%
%ADD19MACRO1,0.004X-0.0223X0.0271X-0.0223X-0.0271*%
%ADD20MACRO2*%
%ADD21MACRO1,0.004X0.0271X-0.0223X-0.0271X-0.0223*%
%ADD22MACRO1,0.004X0.0271X0.0223X-0.0271X0.0223*%
%ADD23MACRO1,0.004X0.0275X-0.0275X-0.0275X-0.0275*%
%ADD24C,0.0590*%
%ADD25C,0.0670*%
%ADD26MACRO1,0.004X0.0315X0.0315X0.0315X-0.0315*%
%ADD27O,0.072898X0.059118000000000004*%
%ADD28C,0.0749*%
%ADD29MACRO1,0.004X-0.0354X-0.0354X-0.0354X0.0354*%
%ADD30MACRO1,0.004X0.0354X0.0354X0.0354X-0.0354*%
%ADD31C,0.0192*%

%LPD*%
D10*
G01*
X3919371Y2700000D03*
D11*
G01*
X3840628Y2700000D03*
D12*
G01*
X2100628Y1540000D03*
D13*
G01*
X2179371Y1540000D03*
D14*
G01*
X3090000Y1489371D03*
D15*
G01*
X3090000Y1410628D03*
D14*
G01*
X1020000Y1329371D03*
D15*
G01*
X1020000Y1250628D03*
D16*
G01*
X3196099Y3500000D03*
G01*
X2703900Y3500000D03*
G01*
X3196099Y3700000D03*
G01*
X2703900Y3700000D03*
D17*
G01*
X541349Y2650000D03*
G01*
X458650Y2650000D03*
G01*
X541349Y2550000D03*
G01*
X458650Y2550000D03*
G01*
X541349Y2450000D03*
G01*
X458650Y2450000D03*
G01*
X541349Y2350000D03*
G01*
X458650Y2350000D03*
G01*
X541349Y2250000D03*
G01*
X458650Y2250000D03*
G01*
X541349Y2150000D03*
G01*
X458650Y2150000D03*
G01*
X541349Y2050000D03*
G01*
X458650Y2050000D03*
G01*
X541349Y1950000D03*
G01*
X458650Y1950000D03*
G01*
X541349Y1850000D03*
G01*
X458650Y1850000D03*
G01*
X541349Y1750000D03*
G01*
X458650Y1750000D03*
G01*
X541349Y1650000D03*
G01*
X458650Y1650000D03*
G01*
X541349Y1550000D03*
G01*
X458650Y1550000D03*
D18*
G01*
X960628Y2650000D03*
D19*
G01*
X1039371Y2650000D03*
D18*
G01*
X960628Y2550000D03*
D19*
G01*
X1039371Y2550000D03*
D18*
G01*
X960628Y2450000D03*
D19*
G01*
X1039371Y2450000D03*
D18*
G01*
X960628Y2350000D03*
D19*
G01*
X1039371Y2350000D03*
D18*
G01*
X960628Y2250000D03*
D19*
G01*
X1039371Y2250000D03*
D18*
G01*
X960628Y2150000D03*
D19*
G01*
X1039371Y2150000D03*
D18*
G01*
X960628Y2050000D03*
D19*
G01*
X1039371Y2050000D03*
D18*
G01*
X960628Y1950000D03*
D19*
G01*
X1039371Y1950000D03*
D18*
G01*
X960628Y1850000D03*
D19*
G01*
X1039371Y1850000D03*
D18*
G01*
X960628Y1750000D03*
D19*
G01*
X1039371Y1750000D03*
D18*
G01*
X960628Y1650000D03*
D19*
G01*
X1039371Y1650000D03*
D18*
G01*
X960628Y1550000D03*
D19*
G01*
X1039371Y1550000D03*
G36*
X5743400Y2616500D02*
G01*
X5739499Y2616700D01*
X5735500Y2617500D01*
X5731599Y2618699D01*
X5727900Y2620300D01*
X5724499Y2622399D01*
X5721300Y2624899D01*
X5718400Y2627800D01*
X5715900Y2630999D01*
X5713800Y2634400D01*
X5712200Y2638099D01*
X5711000Y2641999D01*
X5710299Y2645999D01*
X5710000Y2650000D01*
X5710299Y2654000D01*
X5711000Y2658000D01*
X5712200Y2661900D01*
X5713800Y2665599D01*
X5715900Y2669000D01*
X5718400Y2672199D01*
X5721300Y2675100D01*
X5724499Y2677600D01*
X5727900Y2679699D01*
X5731599Y2681300D01*
X5735500Y2682500D01*
X5739499Y2683200D01*
X5743400Y2683499D01*
X5806599Y2683499D01*
X5810500Y2683200D01*
X5814499Y2682500D01*
X5818400Y2681300D01*
X5822100Y2679699D01*
X5825500Y2677600D01*
X5828699Y2675100D01*
X5831599Y2672199D01*
X5834099Y2669000D01*
X5836199Y2665599D01*
X5837799Y2661900D01*
X5838999Y2658000D01*
X5839700Y2654000D01*
X5840000Y2650000D01*
X5839700Y2645999D01*
X5838999Y2641999D01*
X5837799Y2638099D01*
X5836199Y2634400D01*
X5834099Y2630999D01*
X5831599Y2627800D01*
X5828699Y2624899D01*
X5825500Y2622399D01*
X5822100Y2620300D01*
X5818400Y2618699D01*
X5814499Y2617500D01*
X5810500Y2616700D01*
X5806599Y2616500D01*
G37*
G36*
X5743400Y2516500D02*
G01*
X5739499Y2516700D01*
X5735500Y2517500D01*
X5731599Y2518699D01*
X5727900Y2520300D01*
X5724499Y2522399D01*
X5721300Y2524899D01*
X5718400Y2527800D01*
X5715900Y2530999D01*
X5713800Y2534400D01*
X5712200Y2538099D01*
X5711000Y2541999D01*
X5710299Y2545999D01*
X5710000Y2550000D01*
X5710299Y2554000D01*
X5711000Y2558000D01*
X5712200Y2561900D01*
X5713800Y2565599D01*
X5715900Y2569000D01*
X5718400Y2572199D01*
X5721300Y2575100D01*
X5724499Y2577600D01*
X5727900Y2579699D01*
X5731599Y2581300D01*
X5735500Y2582500D01*
X5739499Y2583200D01*
X5743400Y2583499D01*
X5806599Y2583499D01*
X5810500Y2583200D01*
X5814499Y2582500D01*
X5818400Y2581300D01*
X5822100Y2579699D01*
X5825500Y2577600D01*
X5828699Y2575100D01*
X5831599Y2572199D01*
X5834099Y2569000D01*
X5836199Y2565599D01*
X5837799Y2561900D01*
X5838999Y2558000D01*
X5839700Y2554000D01*
X5840000Y2550000D01*
X5839700Y2545999D01*
X5838999Y2541999D01*
X5837799Y2538099D01*
X5836199Y2534400D01*
X5834099Y2530999D01*
X5831599Y2527800D01*
X5828699Y2524899D01*
X5825500Y2522399D01*
X5822100Y2520300D01*
X5818400Y2518699D01*
X5814499Y2517500D01*
X5810500Y2516700D01*
X5806599Y2516500D01*
G37*
D20*
G01*
X5775000Y2450000D03*
G36*
X5743400Y2316500D02*
G01*
X5739499Y2316700D01*
X5735500Y2317500D01*
X5731599Y2318699D01*
X5727900Y2320300D01*
X5724499Y2322399D01*
X5721300Y2324899D01*
X5718400Y2327800D01*
X5715900Y2330999D01*
X5713800Y2334400D01*
X5712200Y2338099D01*
X5711000Y2341999D01*
X5710299Y2345999D01*
X5710000Y2350000D01*
X5710299Y2354000D01*
X5711000Y2358000D01*
X5712200Y2361900D01*
X5713800Y2365599D01*
X5715900Y2369000D01*
X5718400Y2372199D01*
X5721300Y2375100D01*
X5724499Y2377600D01*
X5727900Y2379699D01*
X5731599Y2381300D01*
X5735500Y2382500D01*
X5739499Y2383299D01*
X5743400Y2383499D01*
X5806599Y2383499D01*
X5810500Y2383299D01*
X5814499Y2382500D01*
X5818400Y2381300D01*
X5822100Y2379699D01*
X5825500Y2377600D01*
X5828699Y2375100D01*
X5831599Y2372199D01*
X5834099Y2369000D01*
X5836199Y2365599D01*
X5837799Y2361900D01*
X5838999Y2358000D01*
X5839700Y2354000D01*
X5840000Y2350000D01*
X5839700Y2345999D01*
X5838999Y2341999D01*
X5837799Y2338099D01*
X5836199Y2334400D01*
X5834099Y2330999D01*
X5831599Y2327800D01*
X5828699Y2324899D01*
X5825500Y2322399D01*
X5822100Y2320300D01*
X5818400Y2318699D01*
X5814499Y2317500D01*
X5810500Y2316700D01*
X5806599Y2316500D01*
G37*
G36*
X5743400Y2216500D02*
G01*
X5739499Y2216700D01*
X5735500Y2217500D01*
X5731599Y2218699D01*
X5727900Y2220300D01*
X5724499Y2222399D01*
X5721300Y2224899D01*
X5718400Y2227800D01*
X5715900Y2230999D01*
X5713800Y2234400D01*
X5712200Y2238099D01*
X5711000Y2241999D01*
X5710299Y2245999D01*
X5710000Y2250000D01*
X5710299Y2254000D01*
X5711000Y2258000D01*
X5712200Y2261900D01*
X5713800Y2265599D01*
X5715900Y2269000D01*
X5718400Y2272199D01*
X5721300Y2275100D01*
X5724499Y2277600D01*
X5727900Y2279699D01*
X5731599Y2281300D01*
X5735500Y2282500D01*
X5739499Y2283299D01*
X5743400Y2283499D01*
X5806599Y2283499D01*
X5810500Y2283299D01*
X5814499Y2282500D01*
X5818400Y2281300D01*
X5822100Y2279699D01*
X5825500Y2277600D01*
X5828699Y2275100D01*
X5831599Y2272199D01*
X5834099Y2269000D01*
X5836199Y2265599D01*
X5837799Y2261900D01*
X5838999Y2258000D01*
X5839700Y2254000D01*
X5840000Y2250000D01*
X5839700Y2245999D01*
X5838999Y2241999D01*
X5837799Y2238099D01*
X5836199Y2234400D01*
X5834099Y2230999D01*
X5831599Y2227800D01*
X5828699Y2224899D01*
X5825500Y2222399D01*
X5822100Y2220300D01*
X5818400Y2218699D01*
X5814499Y2217500D01*
X5810500Y2216700D01*
X5806599Y2216500D01*
G37*
G36*
X5743400Y2116500D02*
G01*
X5739499Y2116700D01*
X5735500Y2117500D01*
X5731599Y2118699D01*
X5727900Y2120300D01*
X5724499Y2122399D01*
X5721300Y2124899D01*
X5718400Y2127800D01*
X5715900Y2130999D01*
X5713800Y2134400D01*
X5712200Y2138099D01*
X5711000Y2141999D01*
X5710299Y2145999D01*
X5710000Y2150000D01*
X5710299Y2154000D01*
X5711000Y2158000D01*
X5712200Y2161900D01*
X5713800Y2165599D01*
X5715900Y2169000D01*
X5718400Y2172199D01*
X5721300Y2175100D01*
X5724499Y2177600D01*
X5727900Y2179699D01*
X5731599Y2181300D01*
X5735500Y2182500D01*
X5739499Y2183299D01*
X5743400Y2183499D01*
X5806599Y2183499D01*
X5810500Y2183299D01*
X5814499Y2182500D01*
X5818400Y2181300D01*
X5822100Y2179699D01*
X5825500Y2177600D01*
X5828699Y2175100D01*
X5831599Y2172199D01*
X5834099Y2169000D01*
X5836199Y2165599D01*
X5837799Y2161900D01*
X5838999Y2158000D01*
X5839700Y2154000D01*
X5840000Y2150000D01*
X5839700Y2145999D01*
X5838999Y2141999D01*
X5837799Y2138099D01*
X5836199Y2134400D01*
X5834099Y2130999D01*
X5831599Y2127800D01*
X5828699Y2124899D01*
X5825500Y2122399D01*
X5822100Y2120300D01*
X5818400Y2118699D01*
X5814499Y2117500D01*
X5810500Y2116700D01*
X5806599Y2116500D01*
G37*
G36*
X5743400Y2016500D02*
G01*
X5739499Y2016700D01*
X5735500Y2017500D01*
X5731599Y2018699D01*
X5727900Y2020300D01*
X5724499Y2022399D01*
X5721300Y2024899D01*
X5718400Y2027800D01*
X5715900Y2030999D01*
X5713800Y2034400D01*
X5712200Y2038099D01*
X5711000Y2041999D01*
X5710299Y2045999D01*
X5710000Y2050000D01*
X5710299Y2054000D01*
X5711000Y2058000D01*
X5712200Y2061900D01*
X5713800Y2065599D01*
X5715900Y2069000D01*
X5718400Y2072199D01*
X5721300Y2075100D01*
X5724499Y2077600D01*
X5727900Y2079699D01*
X5731599Y2081300D01*
X5735500Y2082500D01*
X5739499Y2083299D01*
X5743400Y2083499D01*
X5806599Y2083499D01*
X5810500Y2083299D01*
X5814499Y2082500D01*
X5818400Y2081300D01*
X5822100Y2079699D01*
X5825500Y2077600D01*
X5828699Y2075100D01*
X5831599Y2072199D01*
X5834099Y2069000D01*
X5836199Y2065599D01*
X5837799Y2061900D01*
X5838999Y2058000D01*
X5839700Y2054000D01*
X5840000Y2050000D01*
X5839700Y2045999D01*
X5838999Y2041999D01*
X5837799Y2038099D01*
X5836199Y2034400D01*
X5834099Y2030999D01*
X5831599Y2027800D01*
X5828699Y2024899D01*
X5825500Y2022399D01*
X5822100Y2020300D01*
X5818400Y2018699D01*
X5814499Y2017500D01*
X5810500Y2016700D01*
X5806599Y2016500D01*
G37*
G01*
X5775000Y1950000D03*
G36*
X5743400Y1816500D02*
G01*
X5739499Y1816700D01*
X5735500Y1817500D01*
X5731599Y1818699D01*
X5727900Y1820300D01*
X5724499Y1822399D01*
X5721300Y1824899D01*
X5718400Y1827800D01*
X5715900Y1830999D01*
X5713800Y1834400D01*
X5712200Y1838099D01*
X5711000Y1841999D01*
X5710299Y1845999D01*
X5710000Y1850000D01*
X5710299Y1854000D01*
X5711000Y1858000D01*
X5712200Y1861900D01*
X5713800Y1865599D01*
X5715900Y1869000D01*
X5718400Y1872199D01*
X5721300Y1875100D01*
X5724499Y1877600D01*
X5727900Y1879699D01*
X5731599Y1881300D01*
X5735500Y1882500D01*
X5739499Y1883299D01*
X5743400Y1883499D01*
X5806599Y1883499D01*
X5810500Y1883299D01*
X5814499Y1882500D01*
X5818400Y1881300D01*
X5822100Y1879699D01*
X5825500Y1877600D01*
X5828699Y1875100D01*
X5831599Y1872199D01*
X5834099Y1869000D01*
X5836199Y1865599D01*
X5837799Y1861900D01*
X5838999Y1858000D01*
X5839700Y1854000D01*
X5840000Y1850000D01*
X5839700Y1845999D01*
X5838999Y1841999D01*
X5837799Y1838099D01*
X5836199Y1834400D01*
X5834099Y1830999D01*
X5831599Y1827800D01*
X5828699Y1824899D01*
X5825500Y1822399D01*
X5822100Y1820300D01*
X5818400Y1818699D01*
X5814499Y1817500D01*
X5810500Y1816700D01*
X5806599Y1816500D01*
G37*
G36*
X5743400Y1716500D02*
G01*
X5739499Y1716700D01*
X5735500Y1717500D01*
X5731599Y1718699D01*
X5727900Y1720300D01*
X5724499Y1722399D01*
X5721300Y1724899D01*
X5718400Y1727800D01*
X5715900Y1730999D01*
X5713800Y1734400D01*
X5712200Y1738099D01*
X5711000Y1741999D01*
X5710299Y1745999D01*
X5710000Y1750000D01*
X5710299Y1754000D01*
X5711000Y1758000D01*
X5712200Y1761900D01*
X5713800Y1765599D01*
X5715900Y1769000D01*
X5718400Y1772199D01*
X5721300Y1775100D01*
X5724499Y1777600D01*
X5727900Y1779699D01*
X5731599Y1781300D01*
X5735500Y1782500D01*
X5739499Y1783299D01*
X5743400Y1783499D01*
X5806599Y1783499D01*
X5810500Y1783299D01*
X5814499Y1782500D01*
X5818400Y1781300D01*
X5822100Y1779699D01*
X5825500Y1777600D01*
X5828699Y1775100D01*
X5831599Y1772199D01*
X5834099Y1769000D01*
X5836199Y1765599D01*
X5837799Y1761900D01*
X5838999Y1758000D01*
X5839700Y1754000D01*
X5840000Y1750000D01*
X5839700Y1745999D01*
X5838999Y1741999D01*
X5837799Y1738099D01*
X5836199Y1734400D01*
X5834099Y1730999D01*
X5831599Y1727800D01*
X5828699Y1724899D01*
X5825500Y1722399D01*
X5822100Y1720300D01*
X5818400Y1718699D01*
X5814499Y1717500D01*
X5810500Y1716700D01*
X5806599Y1716500D01*
G37*
G36*
X5743400Y1616500D02*
G01*
X5739499Y1616700D01*
X5735500Y1617500D01*
X5731599Y1618699D01*
X5727900Y1620300D01*
X5724499Y1622399D01*
X5721300Y1624899D01*
X5718400Y1627800D01*
X5715900Y1630999D01*
X5713800Y1634400D01*
X5712200Y1638099D01*
X5711000Y1641999D01*
X5710299Y1645999D01*
X5710000Y1650000D01*
X5710299Y1654000D01*
X5711000Y1658000D01*
X5712200Y1661900D01*
X5713800Y1665599D01*
X5715900Y1669000D01*
X5718400Y1672199D01*
X5721300Y1675100D01*
X5724499Y1677600D01*
X5727900Y1679699D01*
X5731599Y1681300D01*
X5735500Y1682500D01*
X5739499Y1683299D01*
X5743400Y1683499D01*
X5806599Y1683499D01*
X5810500Y1683299D01*
X5814499Y1682500D01*
X5818400Y1681300D01*
X5822100Y1679699D01*
X5825500Y1677600D01*
X5828699Y1675100D01*
X5831599Y1672199D01*
X5834099Y1669000D01*
X5836199Y1665599D01*
X5837799Y1661900D01*
X5838999Y1658000D01*
X5839700Y1654000D01*
X5840000Y1650000D01*
X5839700Y1645999D01*
X5838999Y1641999D01*
X5837799Y1638099D01*
X5836199Y1634400D01*
X5834099Y1630999D01*
X5831599Y1627800D01*
X5828699Y1624899D01*
X5825500Y1622399D01*
X5822100Y1620300D01*
X5818400Y1618699D01*
X5814499Y1617500D01*
X5810500Y1616700D01*
X5806599Y1616500D01*
G37*
G36*
X5743400Y1516500D02*
G01*
X5739499Y1516700D01*
X5735500Y1517500D01*
X5731599Y1518699D01*
X5727900Y1520300D01*
X5724499Y1522399D01*
X5721300Y1524899D01*
X5718400Y1527800D01*
X5715900Y1530999D01*
X5713800Y1534400D01*
X5712200Y1538099D01*
X5711000Y1541999D01*
X5710299Y1545999D01*
X5710000Y1550000D01*
X5710299Y1554000D01*
X5711000Y1558000D01*
X5712200Y1561900D01*
X5713800Y1565599D01*
X5715900Y1569000D01*
X5718400Y1572199D01*
X5721300Y1575100D01*
X5724499Y1577600D01*
X5727900Y1579699D01*
X5731599Y1581300D01*
X5735500Y1582500D01*
X5739499Y1583299D01*
X5743400Y1583499D01*
X5806599Y1583499D01*
X5810500Y1583299D01*
X5814499Y1582500D01*
X5818400Y1581300D01*
X5822100Y1579699D01*
X5825500Y1577600D01*
X5828699Y1575100D01*
X5831599Y1572199D01*
X5834099Y1569000D01*
X5836199Y1565599D01*
X5837799Y1561900D01*
X5838999Y1558000D01*
X5839700Y1554000D01*
X5840000Y1550000D01*
X5839700Y1545999D01*
X5838999Y1541999D01*
X5837799Y1538099D01*
X5836199Y1534400D01*
X5834099Y1530999D01*
X5831599Y1527800D01*
X5828699Y1524899D01*
X5825500Y1522399D01*
X5822100Y1520300D01*
X5818400Y1518699D01*
X5814499Y1517500D01*
X5810500Y1516700D01*
X5806599Y1516500D01*
G37*
G01*
X5775000Y1450000D03*
G36*
X5743400Y1316500D02*
G01*
X5739499Y1316700D01*
X5735500Y1317500D01*
X5731599Y1318699D01*
X5727900Y1320300D01*
X5724499Y1322399D01*
X5721300Y1324899D01*
X5718400Y1327800D01*
X5715900Y1330999D01*
X5713800Y1334400D01*
X5712200Y1338099D01*
X5711000Y1341999D01*
X5710299Y1345999D01*
X5710000Y1350000D01*
X5710299Y1354000D01*
X5711000Y1358000D01*
X5712200Y1361900D01*
X5713800Y1365599D01*
X5715900Y1369000D01*
X5718400Y1372199D01*
X5721300Y1375100D01*
X5724499Y1377600D01*
X5727900Y1379699D01*
X5731599Y1381300D01*
X5735500Y1382500D01*
X5739499Y1383299D01*
X5743400Y1383499D01*
X5806599Y1383499D01*
X5810500Y1383299D01*
X5814499Y1382500D01*
X5818400Y1381300D01*
X5822100Y1379699D01*
X5825500Y1377600D01*
X5828699Y1375100D01*
X5831599Y1372199D01*
X5834099Y1369000D01*
X5836199Y1365599D01*
X5837799Y1361900D01*
X5838999Y1358000D01*
X5839700Y1354000D01*
X5840000Y1350000D01*
X5839700Y1345999D01*
X5838999Y1341999D01*
X5837799Y1338099D01*
X5836199Y1334400D01*
X5834099Y1330999D01*
X5831599Y1327800D01*
X5828699Y1324899D01*
X5825500Y1322399D01*
X5822100Y1320300D01*
X5818400Y1318699D01*
X5814499Y1317500D01*
X5810500Y1316700D01*
X5806599Y1316500D01*
G37*
G36*
X5743400Y1216500D02*
G01*
X5739499Y1216700D01*
X5735500Y1217500D01*
X5731599Y1218699D01*
X5727900Y1220300D01*
X5724499Y1222399D01*
X5721300Y1224899D01*
X5718400Y1227800D01*
X5715900Y1230999D01*
X5713800Y1234400D01*
X5712200Y1238099D01*
X5711000Y1241999D01*
X5710299Y1245999D01*
X5710000Y1250000D01*
X5710299Y1254000D01*
X5711000Y1258000D01*
X5712200Y1261900D01*
X5713800Y1265599D01*
X5715900Y1269000D01*
X5718400Y1272199D01*
X5721300Y1275100D01*
X5724499Y1277600D01*
X5727900Y1279699D01*
X5731599Y1281300D01*
X5735500Y1282500D01*
X5739499Y1283299D01*
X5743400Y1283499D01*
X5806599Y1283499D01*
X5810500Y1283299D01*
X5814499Y1282500D01*
X5818400Y1281300D01*
X5822100Y1279699D01*
X5825500Y1277600D01*
X5828699Y1275100D01*
X5831599Y1272199D01*
X5834099Y1269000D01*
X5836199Y1265599D01*
X5837799Y1261900D01*
X5838999Y1258000D01*
X5839700Y1254000D01*
X5840000Y1250000D01*
X5839700Y1245999D01*
X5838999Y1241999D01*
X5837799Y1238099D01*
X5836199Y1234400D01*
X5834099Y1230999D01*
X5831599Y1227800D01*
X5828699Y1224899D01*
X5825500Y1222399D01*
X5822100Y1220300D01*
X5818400Y1218699D01*
X5814499Y1217500D01*
X5810500Y1216700D01*
X5806599Y1216500D01*
G37*
G36*
X5743400Y1116500D02*
G01*
X5739499Y1116700D01*
X5735500Y1117500D01*
X5731599Y1118699D01*
X5727900Y1120300D01*
X5724499Y1122399D01*
X5721300Y1124899D01*
X5718400Y1127800D01*
X5715900Y1130999D01*
X5713800Y1134400D01*
X5712200Y1138099D01*
X5711000Y1141999D01*
X5710299Y1145999D01*
X5710000Y1150000D01*
X5710299Y1154000D01*
X5711000Y1158000D01*
X5712200Y1161900D01*
X5713800Y1165599D01*
X5715900Y1169000D01*
X5718400Y1172199D01*
X5721300Y1175100D01*
X5724499Y1177600D01*
X5727900Y1179699D01*
X5731599Y1181300D01*
X5735500Y1182500D01*
X5739499Y1183299D01*
X5743400Y1183499D01*
X5806599Y1183499D01*
X5810500Y1183299D01*
X5814499Y1182500D01*
X5818400Y1181300D01*
X5822100Y1179699D01*
X5825500Y1177600D01*
X5828699Y1175100D01*
X5831599Y1172199D01*
X5834099Y1169000D01*
X5836199Y1165599D01*
X5837799Y1161900D01*
X5838999Y1158000D01*
X5839700Y1154000D01*
X5840000Y1150000D01*
X5839700Y1145999D01*
X5838999Y1141999D01*
X5837799Y1138099D01*
X5836199Y1134400D01*
X5834099Y1130999D01*
X5831599Y1127800D01*
X5828699Y1124899D01*
X5825500Y1122399D01*
X5822100Y1120300D01*
X5818400Y1118699D01*
X5814499Y1117500D01*
X5810500Y1116700D01*
X5806599Y1116500D01*
G37*
G36*
X5743400Y1016500D02*
G01*
X5739499Y1016700D01*
X5735500Y1017500D01*
X5731599Y1018699D01*
X5727900Y1020300D01*
X5724499Y1022399D01*
X5721300Y1024899D01*
X5718400Y1027800D01*
X5715900Y1030999D01*
X5713800Y1034400D01*
X5712200Y1038099D01*
X5711000Y1041999D01*
X5710299Y1045999D01*
X5710000Y1050000D01*
X5710299Y1054000D01*
X5711000Y1058000D01*
X5712200Y1061900D01*
X5713800Y1065599D01*
X5715900Y1069000D01*
X5718400Y1072199D01*
X5721300Y1075100D01*
X5724499Y1077600D01*
X5727900Y1079699D01*
X5731599Y1081300D01*
X5735500Y1082500D01*
X5739499Y1083299D01*
X5743400Y1083499D01*
X5806599Y1083499D01*
X5810500Y1083299D01*
X5814499Y1082500D01*
X5818400Y1081300D01*
X5822100Y1079699D01*
X5825500Y1077600D01*
X5828699Y1075100D01*
X5831599Y1072199D01*
X5834099Y1069000D01*
X5836199Y1065599D01*
X5837799Y1061900D01*
X5838999Y1058000D01*
X5839700Y1054000D01*
X5840000Y1050000D01*
X5839700Y1045999D01*
X5838999Y1041999D01*
X5837799Y1038099D01*
X5836199Y1034400D01*
X5834099Y1030999D01*
X5831599Y1027800D01*
X5828699Y1024899D01*
X5825500Y1022399D01*
X5822100Y1020300D01*
X5818400Y1018699D01*
X5814499Y1017500D01*
X5810500Y1016700D01*
X5806599Y1016500D01*
G37*
G01*
X5775000Y950000D03*
G36*
X5743400Y816500D02*
G01*
X5739499Y816799D01*
X5735500Y817500D01*
X5731599Y818699D01*
X5727900Y820300D01*
X5724499Y822399D01*
X5721300Y824899D01*
X5718400Y827800D01*
X5715900Y830999D01*
X5713800Y834400D01*
X5712200Y838099D01*
X5711000Y841999D01*
X5710299Y845999D01*
X5710000Y850000D01*
X5710299Y854000D01*
X5711000Y858000D01*
X5712200Y861900D01*
X5713800Y865599D01*
X5715900Y869000D01*
X5718400Y872199D01*
X5721300Y875100D01*
X5724499Y877600D01*
X5727900Y879699D01*
X5731599Y881300D01*
X5735500Y882500D01*
X5739499Y883299D01*
X5743400Y883499D01*
X5806599Y883499D01*
X5810500Y883299D01*
X5814499Y882500D01*
X5818400Y881300D01*
X5822100Y879699D01*
X5825500Y877600D01*
X5828699Y875100D01*
X5831599Y872199D01*
X5834099Y869000D01*
X5836199Y865599D01*
X5837799Y861900D01*
X5838999Y858000D01*
X5839700Y854000D01*
X5840000Y850000D01*
X5839700Y845999D01*
X5838999Y841999D01*
X5837799Y838099D01*
X5836199Y834400D01*
X5834099Y830999D01*
X5831599Y827800D01*
X5828699Y824899D01*
X5825500Y822399D01*
X5822100Y820300D01*
X5818400Y818699D01*
X5814499Y817500D01*
X5810500Y816799D01*
X5806599Y816500D01*
G37*
G36*
X5743400Y716500D02*
G01*
X5739499Y716799D01*
X5735500Y717500D01*
X5731599Y718699D01*
X5727900Y720300D01*
X5724499Y722399D01*
X5721300Y724899D01*
X5718400Y727800D01*
X5715900Y730999D01*
X5713800Y734400D01*
X5712200Y738099D01*
X5711000Y741999D01*
X5710299Y745999D01*
X5710000Y750000D01*
X5710299Y754000D01*
X5711000Y758000D01*
X5712200Y761900D01*
X5713800Y765599D01*
X5715900Y769000D01*
X5718400Y772199D01*
X5721300Y775100D01*
X5724499Y777600D01*
X5727900Y779699D01*
X5731599Y781300D01*
X5735500Y782500D01*
X5739499Y783299D01*
X5743400Y783499D01*
X5806599Y783499D01*
X5810500Y783299D01*
X5814499Y782500D01*
X5818400Y781300D01*
X5822100Y779699D01*
X5825500Y777600D01*
X5828699Y775100D01*
X5831599Y772199D01*
X5834099Y769000D01*
X5836199Y765599D01*
X5837799Y761900D01*
X5838999Y758000D01*
X5839700Y754000D01*
X5840000Y750000D01*
X5839700Y745999D01*
X5838999Y741999D01*
X5837799Y738099D01*
X5836199Y734400D01*
X5834099Y730999D01*
X5831599Y727800D01*
X5828699Y724899D01*
X5825500Y722399D01*
X5822100Y720300D01*
X5818400Y718699D01*
X5814499Y717500D01*
X5810500Y716799D01*
X5806599Y716500D01*
G37*
G36*
X4993400Y716500D02*
G01*
X4989499Y716799D01*
X4985500Y717500D01*
X4981599Y718699D01*
X4977900Y720300D01*
X4974499Y722399D01*
X4971300Y724899D01*
X4968400Y727800D01*
X4965900Y730999D01*
X4963800Y734400D01*
X4962200Y738099D01*
X4961000Y741999D01*
X4960299Y745999D01*
X4960000Y750000D01*
X4960299Y754000D01*
X4961000Y758000D01*
X4962200Y761900D01*
X4963800Y765599D01*
X4965900Y769000D01*
X4968400Y772199D01*
X4971300Y775100D01*
X4974499Y777600D01*
X4977900Y779699D01*
X4981599Y781300D01*
X4985500Y782500D01*
X4989499Y783299D01*
X4993400Y783499D01*
X5056599Y783499D01*
X5060500Y783299D01*
X5064499Y782500D01*
X5068400Y781300D01*
X5072100Y779699D01*
X5075500Y777600D01*
X5078699Y775100D01*
X5081599Y772199D01*
X5084099Y769000D01*
X5086199Y765599D01*
X5087799Y761900D01*
X5088999Y758000D01*
X5089700Y754000D01*
X5090000Y750000D01*
X5089700Y745999D01*
X5088999Y741999D01*
X5087799Y738099D01*
X5086199Y734400D01*
X5084099Y730999D01*
X5081599Y727800D01*
X5078699Y724899D01*
X5075500Y722399D01*
X5072100Y720300D01*
X5068400Y718699D01*
X5064499Y717500D01*
X5060500Y716799D01*
X5056599Y716500D01*
G37*
G36*
X4993400Y816500D02*
G01*
X4989499Y816799D01*
X4985500Y817500D01*
X4981599Y818699D01*
X4977900Y820300D01*
X4974499Y822399D01*
X4971300Y824899D01*
X4968400Y827800D01*
X4965900Y830999D01*
X4963800Y834400D01*
X4962200Y838099D01*
X4961000Y841999D01*
X4960299Y845999D01*
X4960000Y850000D01*
X4960299Y854000D01*
X4961000Y858000D01*
X4962200Y861900D01*
X4963800Y865599D01*
X4965900Y869000D01*
X4968400Y872199D01*
X4971300Y875100D01*
X4974499Y877600D01*
X4977900Y879699D01*
X4981599Y881300D01*
X4985500Y882500D01*
X4989499Y883299D01*
X4993400Y883499D01*
X5056599Y883499D01*
X5060500Y883299D01*
X5064499Y882500D01*
X5068400Y881300D01*
X5072100Y879699D01*
X5075500Y877600D01*
X5078699Y875100D01*
X5081599Y872199D01*
X5084099Y869000D01*
X5086199Y865599D01*
X5087799Y861900D01*
X5088999Y858000D01*
X5089700Y854000D01*
X5090000Y850000D01*
X5089700Y845999D01*
X5088999Y841999D01*
X5087799Y838099D01*
X5086199Y834400D01*
X5084099Y830999D01*
X5081599Y827800D01*
X5078699Y824899D01*
X5075500Y822399D01*
X5072100Y820300D01*
X5068400Y818699D01*
X5064499Y817500D01*
X5060500Y816799D01*
X5056599Y816500D01*
G37*
G01*
X5025000Y950000D03*
G36*
X4993400Y1016500D02*
G01*
X4989499Y1016700D01*
X4985500Y1017500D01*
X4981599Y1018699D01*
X4977900Y1020300D01*
X4974499Y1022399D01*
X4971300Y1024899D01*
X4968400Y1027800D01*
X4965900Y1030999D01*
X4963800Y1034400D01*
X4962200Y1038099D01*
X4961000Y1041999D01*
X4960299Y1045999D01*
X4960000Y1050000D01*
X4960299Y1054000D01*
X4961000Y1058000D01*
X4962200Y1061900D01*
X4963800Y1065599D01*
X4965900Y1069000D01*
X4968400Y1072199D01*
X4971300Y1075100D01*
X4974499Y1077600D01*
X4977900Y1079699D01*
X4981599Y1081300D01*
X4985500Y1082500D01*
X4989499Y1083299D01*
X4993400Y1083499D01*
X5056599Y1083499D01*
X5060500Y1083299D01*
X5064499Y1082500D01*
X5068400Y1081300D01*
X5072100Y1079699D01*
X5075500Y1077600D01*
X5078699Y1075100D01*
X5081599Y1072199D01*
X5084099Y1069000D01*
X5086199Y1065599D01*
X5087799Y1061900D01*
X5088999Y1058000D01*
X5089700Y1054000D01*
X5090000Y1050000D01*
X5089700Y1045999D01*
X5088999Y1041999D01*
X5087799Y1038099D01*
X5086199Y1034400D01*
X5084099Y1030999D01*
X5081599Y1027800D01*
X5078699Y1024899D01*
X5075500Y1022399D01*
X5072100Y1020300D01*
X5068400Y1018699D01*
X5064499Y1017500D01*
X5060500Y1016700D01*
X5056599Y1016500D01*
G37*
G36*
X4993400Y1116500D02*
G01*
X4989499Y1116700D01*
X4985500Y1117500D01*
X4981599Y1118699D01*
X4977900Y1120300D01*
X4974499Y1122399D01*
X4971300Y1124899D01*
X4968400Y1127800D01*
X4965900Y1130999D01*
X4963800Y1134400D01*
X4962200Y1138099D01*
X4961000Y1141999D01*
X4960299Y1145999D01*
X4960000Y1150000D01*
X4960299Y1154000D01*
X4961000Y1158000D01*
X4962200Y1161900D01*
X4963800Y1165599D01*
X4965900Y1169000D01*
X4968400Y1172199D01*
X4971300Y1175100D01*
X4974499Y1177600D01*
X4977900Y1179699D01*
X4981599Y1181300D01*
X4985500Y1182500D01*
X4989499Y1183299D01*
X4993400Y1183499D01*
X5056599Y1183499D01*
X5060500Y1183299D01*
X5064499Y1182500D01*
X5068400Y1181300D01*
X5072100Y1179699D01*
X5075500Y1177600D01*
X5078699Y1175100D01*
X5081599Y1172199D01*
X5084099Y1169000D01*
X5086199Y1165599D01*
X5087799Y1161900D01*
X5088999Y1158000D01*
X5089700Y1154000D01*
X5090000Y1150000D01*
X5089700Y1145999D01*
X5088999Y1141999D01*
X5087799Y1138099D01*
X5086199Y1134400D01*
X5084099Y1130999D01*
X5081599Y1127800D01*
X5078699Y1124899D01*
X5075500Y1122399D01*
X5072100Y1120300D01*
X5068400Y1118699D01*
X5064499Y1117500D01*
X5060500Y1116700D01*
X5056599Y1116500D01*
G37*
G36*
X4993400Y1216500D02*
G01*
X4989499Y1216700D01*
X4985500Y1217500D01*
X4981599Y1218699D01*
X4977900Y1220300D01*
X4974499Y1222399D01*
X4971300Y1224899D01*
X4968400Y1227800D01*
X4965900Y1230999D01*
X4963800Y1234400D01*
X4962200Y1238099D01*
X4961000Y1241999D01*
X4960299Y1245999D01*
X4960000Y1250000D01*
X4960299Y1254000D01*
X4961000Y1258000D01*
X4962200Y1261900D01*
X4963800Y1265599D01*
X4965900Y1269000D01*
X4968400Y1272199D01*
X4971300Y1275100D01*
X4974499Y1277600D01*
X4977900Y1279699D01*
X4981599Y1281300D01*
X4985500Y1282500D01*
X4989499Y1283299D01*
X4993400Y1283499D01*
X5056599Y1283499D01*
X5060500Y1283299D01*
X5064499Y1282500D01*
X5068400Y1281300D01*
X5072100Y1279699D01*
X5075500Y1277600D01*
X5078699Y1275100D01*
X5081599Y1272199D01*
X5084099Y1269000D01*
X5086199Y1265599D01*
X5087799Y1261900D01*
X5088999Y1258000D01*
X5089700Y1254000D01*
X5090000Y1250000D01*
X5089700Y1245999D01*
X5088999Y1241999D01*
X5087799Y1238099D01*
X5086199Y1234400D01*
X5084099Y1230999D01*
X5081599Y1227800D01*
X5078699Y1224899D01*
X5075500Y1222399D01*
X5072100Y1220300D01*
X5068400Y1218699D01*
X5064499Y1217500D01*
X5060500Y1216700D01*
X5056599Y1216500D01*
G37*
G36*
X4993400Y1316500D02*
G01*
X4989499Y1316700D01*
X4985500Y1317500D01*
X4981599Y1318699D01*
X4977900Y1320300D01*
X4974499Y1322399D01*
X4971300Y1324899D01*
X4968400Y1327800D01*
X4965900Y1330999D01*
X4963800Y1334400D01*
X4962200Y1338099D01*
X4961000Y1341999D01*
X4960299Y1345999D01*
X4960000Y1350000D01*
X4960299Y1354000D01*
X4961000Y1358000D01*
X4962200Y1361900D01*
X4963800Y1365599D01*
X4965900Y1369000D01*
X4968400Y1372199D01*
X4971300Y1375100D01*
X4974499Y1377600D01*
X4977900Y1379699D01*
X4981599Y1381300D01*
X4985500Y1382500D01*
X4989499Y1383299D01*
X4993400Y1383499D01*
X5056599Y1383499D01*
X5060500Y1383299D01*
X5064499Y1382500D01*
X5068400Y1381300D01*
X5072100Y1379699D01*
X5075500Y1377600D01*
X5078699Y1375100D01*
X5081599Y1372199D01*
X5084099Y1369000D01*
X5086199Y1365599D01*
X5087799Y1361900D01*
X5088999Y1358000D01*
X5089700Y1354000D01*
X5090000Y1350000D01*
X5089700Y1345999D01*
X5088999Y1341999D01*
X5087799Y1338099D01*
X5086199Y1334400D01*
X5084099Y1330999D01*
X5081599Y1327800D01*
X5078699Y1324899D01*
X5075500Y1322399D01*
X5072100Y1320300D01*
X5068400Y1318699D01*
X5064499Y1317500D01*
X5060500Y1316700D01*
X5056599Y1316500D01*
G37*
G01*
X5025000Y1450000D03*
G36*
X4993400Y1516500D02*
G01*
X4989499Y1516700D01*
X4985500Y1517500D01*
X4981599Y1518699D01*
X4977900Y1520300D01*
X4974499Y1522399D01*
X4971300Y1524899D01*
X4968400Y1527800D01*
X4965900Y1530999D01*
X4963800Y1534400D01*
X4962200Y1538099D01*
X4961000Y1541999D01*
X4960299Y1545999D01*
X4960000Y1550000D01*
X4960299Y1554000D01*
X4961000Y1558000D01*
X4962200Y1561900D01*
X4963800Y1565599D01*
X4965900Y1569000D01*
X4968400Y1572199D01*
X4971300Y1575100D01*
X4974499Y1577600D01*
X4977900Y1579699D01*
X4981599Y1581300D01*
X4985500Y1582500D01*
X4989499Y1583299D01*
X4993400Y1583499D01*
X5056599Y1583499D01*
X5060500Y1583299D01*
X5064499Y1582500D01*
X5068400Y1581300D01*
X5072100Y1579699D01*
X5075500Y1577600D01*
X5078699Y1575100D01*
X5081599Y1572199D01*
X5084099Y1569000D01*
X5086199Y1565599D01*
X5087799Y1561900D01*
X5088999Y1558000D01*
X5089700Y1554000D01*
X5090000Y1550000D01*
X5089700Y1545999D01*
X5088999Y1541999D01*
X5087799Y1538099D01*
X5086199Y1534400D01*
X5084099Y1530999D01*
X5081599Y1527800D01*
X5078699Y1524899D01*
X5075500Y1522399D01*
X5072100Y1520300D01*
X5068400Y1518699D01*
X5064499Y1517500D01*
X5060500Y1516700D01*
X5056599Y1516500D01*
G37*
G36*
X4993400Y1616500D02*
G01*
X4989499Y1616700D01*
X4985500Y1617500D01*
X4981599Y1618699D01*
X4977900Y1620300D01*
X4974499Y1622399D01*
X4971300Y1624899D01*
X4968400Y1627800D01*
X4965900Y1630999D01*
X4963800Y1634400D01*
X4962200Y1638099D01*
X4961000Y1641999D01*
X4960299Y1645999D01*
X4960000Y1650000D01*
X4960299Y1654000D01*
X4961000Y1658000D01*
X4962200Y1661900D01*
X4963800Y1665599D01*
X4965900Y1669000D01*
X4968400Y1672199D01*
X4971300Y1675100D01*
X4974499Y1677600D01*
X4977900Y1679699D01*
X4981599Y1681300D01*
X4985500Y1682500D01*
X4989499Y1683299D01*
X4993400Y1683499D01*
X5056599Y1683499D01*
X5060500Y1683299D01*
X5064499Y1682500D01*
X5068400Y1681300D01*
X5072100Y1679699D01*
X5075500Y1677600D01*
X5078699Y1675100D01*
X5081599Y1672199D01*
X5084099Y1669000D01*
X5086199Y1665599D01*
X5087799Y1661900D01*
X5088999Y1658000D01*
X5089700Y1654000D01*
X5090000Y1650000D01*
X5089700Y1645999D01*
X5088999Y1641999D01*
X5087799Y1638099D01*
X5086199Y1634400D01*
X5084099Y1630999D01*
X5081599Y1627800D01*
X5078699Y1624899D01*
X5075500Y1622399D01*
X5072100Y1620300D01*
X5068400Y1618699D01*
X5064499Y1617500D01*
X5060500Y1616700D01*
X5056599Y1616500D01*
G37*
G36*
X4993400Y1716500D02*
G01*
X4989499Y1716700D01*
X4985500Y1717500D01*
X4981599Y1718699D01*
X4977900Y1720300D01*
X4974499Y1722399D01*
X4971300Y1724899D01*
X4968400Y1727800D01*
X4965900Y1730999D01*
X4963800Y1734400D01*
X4962200Y1738099D01*
X4961000Y1741999D01*
X4960299Y1745999D01*
X4960000Y1750000D01*
X4960299Y1754000D01*
X4961000Y1758000D01*
X4962200Y1761900D01*
X4963800Y1765599D01*
X4965900Y1769000D01*
X4968400Y1772199D01*
X4971300Y1775100D01*
X4974499Y1777600D01*
X4977900Y1779699D01*
X4981599Y1781300D01*
X4985500Y1782500D01*
X4989499Y1783299D01*
X4993400Y1783499D01*
X5056599Y1783499D01*
X5060500Y1783299D01*
X5064499Y1782500D01*
X5068400Y1781300D01*
X5072100Y1779699D01*
X5075500Y1777600D01*
X5078699Y1775100D01*
X5081599Y1772199D01*
X5084099Y1769000D01*
X5086199Y1765599D01*
X5087799Y1761900D01*
X5088999Y1758000D01*
X5089700Y1754000D01*
X5090000Y1750000D01*
X5089700Y1745999D01*
X5088999Y1741999D01*
X5087799Y1738099D01*
X5086199Y1734400D01*
X5084099Y1730999D01*
X5081599Y1727800D01*
X5078699Y1724899D01*
X5075500Y1722399D01*
X5072100Y1720300D01*
X5068400Y1718699D01*
X5064499Y1717500D01*
X5060500Y1716700D01*
X5056599Y1716500D01*
G37*
G36*
X4993400Y1816500D02*
G01*
X4989499Y1816700D01*
X4985500Y1817500D01*
X4981599Y1818699D01*
X4977900Y1820300D01*
X4974499Y1822399D01*
X4971300Y1824899D01*
X4968400Y1827800D01*
X4965900Y1830999D01*
X4963800Y1834400D01*
X4962200Y1838099D01*
X4961000Y1841999D01*
X4960299Y1845999D01*
X4960000Y1850000D01*
X4960299Y1854000D01*
X4961000Y1858000D01*
X4962200Y1861900D01*
X4963800Y1865599D01*
X4965900Y1869000D01*
X4968400Y1872199D01*
X4971300Y1875100D01*
X4974499Y1877600D01*
X4977900Y1879699D01*
X4981599Y1881300D01*
X4985500Y1882500D01*
X4989499Y1883299D01*
X4993400Y1883499D01*
X5056599Y1883499D01*
X5060500Y1883299D01*
X5064499Y1882500D01*
X5068400Y1881300D01*
X5072100Y1879699D01*
X5075500Y1877600D01*
X5078699Y1875100D01*
X5081599Y1872199D01*
X5084099Y1869000D01*
X5086199Y1865599D01*
X5087799Y1861900D01*
X5088999Y1858000D01*
X5089700Y1854000D01*
X5090000Y1850000D01*
X5089700Y1845999D01*
X5088999Y1841999D01*
X5087799Y1838099D01*
X5086199Y1834400D01*
X5084099Y1830999D01*
X5081599Y1827800D01*
X5078699Y1824899D01*
X5075500Y1822399D01*
X5072100Y1820300D01*
X5068400Y1818699D01*
X5064499Y1817500D01*
X5060500Y1816700D01*
X5056599Y1816500D01*
G37*
G01*
X5025000Y1950000D03*
G36*
X4993400Y2016500D02*
G01*
X4989499Y2016700D01*
X4985500Y2017500D01*
X4981599Y2018699D01*
X4977900Y2020300D01*
X4974499Y2022399D01*
X4971300Y2024899D01*
X4968400Y2027800D01*
X4965900Y2030999D01*
X4963800Y2034400D01*
X4962200Y2038099D01*
X4961000Y2041999D01*
X4960299Y2045999D01*
X4960000Y2050000D01*
X4960299Y2054000D01*
X4961000Y2058000D01*
X4962200Y2061900D01*
X4963800Y2065599D01*
X4965900Y2069000D01*
X4968400Y2072199D01*
X4971300Y2075100D01*
X4974499Y2077600D01*
X4977900Y2079699D01*
X4981599Y2081300D01*
X4985500Y2082500D01*
X4989499Y2083299D01*
X4993400Y2083499D01*
X5056599Y2083499D01*
X5060500Y2083299D01*
X5064499Y2082500D01*
X5068400Y2081300D01*
X5072100Y2079699D01*
X5075500Y2077600D01*
X5078699Y2075100D01*
X5081599Y2072199D01*
X5084099Y2069000D01*
X5086199Y2065599D01*
X5087799Y2061900D01*
X5088999Y2058000D01*
X5089700Y2054000D01*
X5090000Y2050000D01*
X5089700Y2045999D01*
X5088999Y2041999D01*
X5087799Y2038099D01*
X5086199Y2034400D01*
X5084099Y2030999D01*
X5081599Y2027800D01*
X5078699Y2024899D01*
X5075500Y2022399D01*
X5072100Y2020300D01*
X5068400Y2018699D01*
X5064499Y2017500D01*
X5060500Y2016700D01*
X5056599Y2016500D01*
G37*
G36*
X4993400Y2116500D02*
G01*
X4989499Y2116700D01*
X4985500Y2117500D01*
X4981599Y2118699D01*
X4977900Y2120300D01*
X4974499Y2122399D01*
X4971300Y2124899D01*
X4968400Y2127800D01*
X4965900Y2130999D01*
X4963800Y2134400D01*
X4962200Y2138099D01*
X4961000Y2141999D01*
X4960299Y2145999D01*
X4960000Y2150000D01*
X4960299Y2154000D01*
X4961000Y2158000D01*
X4962200Y2161900D01*
X4963800Y2165599D01*
X4965900Y2169000D01*
X4968400Y2172199D01*
X4971300Y2175100D01*
X4974499Y2177600D01*
X4977900Y2179699D01*
X4981599Y2181300D01*
X4985500Y2182500D01*
X4989499Y2183299D01*
X4993400Y2183499D01*
X5056599Y2183499D01*
X5060500Y2183299D01*
X5064499Y2182500D01*
X5068400Y2181300D01*
X5072100Y2179699D01*
X5075500Y2177600D01*
X5078699Y2175100D01*
X5081599Y2172199D01*
X5084099Y2169000D01*
X5086199Y2165599D01*
X5087799Y2161900D01*
X5088999Y2158000D01*
X5089700Y2154000D01*
X5090000Y2150000D01*
X5089700Y2145999D01*
X5088999Y2141999D01*
X5087799Y2138099D01*
X5086199Y2134400D01*
X5084099Y2130999D01*
X5081599Y2127800D01*
X5078699Y2124899D01*
X5075500Y2122399D01*
X5072100Y2120300D01*
X5068400Y2118699D01*
X5064499Y2117500D01*
X5060500Y2116700D01*
X5056599Y2116500D01*
G37*
G36*
X4993400Y2216500D02*
G01*
X4989499Y2216700D01*
X4985500Y2217500D01*
X4981599Y2218699D01*
X4977900Y2220300D01*
X4974499Y2222399D01*
X4971300Y2224899D01*
X4968400Y2227800D01*
X4965900Y2230999D01*
X4963800Y2234400D01*
X4962200Y2238099D01*
X4961000Y2241999D01*
X4960299Y2245999D01*
X4960000Y2250000D01*
X4960299Y2254000D01*
X4961000Y2258000D01*
X4962200Y2261900D01*
X4963800Y2265599D01*
X4965900Y2269000D01*
X4968400Y2272199D01*
X4971300Y2275100D01*
X4974499Y2277600D01*
X4977900Y2279699D01*
X4981599Y2281300D01*
X4985500Y2282500D01*
X4989499Y2283299D01*
X4993400Y2283499D01*
X5056599Y2283499D01*
X5060500Y2283299D01*
X5064499Y2282500D01*
X5068400Y2281300D01*
X5072100Y2279699D01*
X5075500Y2277600D01*
X5078699Y2275100D01*
X5081599Y2272199D01*
X5084099Y2269000D01*
X5086199Y2265599D01*
X5087799Y2261900D01*
X5088999Y2258000D01*
X5089700Y2254000D01*
X5090000Y2250000D01*
X5089700Y2245999D01*
X5088999Y2241999D01*
X5087799Y2238099D01*
X5086199Y2234400D01*
X5084099Y2230999D01*
X5081599Y2227800D01*
X5078699Y2224899D01*
X5075500Y2222399D01*
X5072100Y2220300D01*
X5068400Y2218699D01*
X5064499Y2217500D01*
X5060500Y2216700D01*
X5056599Y2216500D01*
G37*
G36*
X4993400Y2316500D02*
G01*
X4989499Y2316700D01*
X4985500Y2317500D01*
X4981599Y2318699D01*
X4977900Y2320300D01*
X4974499Y2322399D01*
X4971300Y2324899D01*
X4968400Y2327800D01*
X4965900Y2330999D01*
X4963800Y2334400D01*
X4962200Y2338099D01*
X4961000Y2341999D01*
X4960299Y2345999D01*
X4960000Y2350000D01*
X4960299Y2354000D01*
X4961000Y2358000D01*
X4962200Y2361900D01*
X4963800Y2365599D01*
X4965900Y2369000D01*
X4968400Y2372199D01*
X4971300Y2375100D01*
X4974499Y2377600D01*
X4977900Y2379699D01*
X4981599Y2381300D01*
X4985500Y2382500D01*
X4989499Y2383299D01*
X4993400Y2383499D01*
X5056599Y2383499D01*
X5060500Y2383299D01*
X5064499Y2382500D01*
X5068400Y2381300D01*
X5072100Y2379699D01*
X5075500Y2377600D01*
X5078699Y2375100D01*
X5081599Y2372199D01*
X5084099Y2369000D01*
X5086199Y2365599D01*
X5087799Y2361900D01*
X5088999Y2358000D01*
X5089700Y2354000D01*
X5090000Y2350000D01*
X5089700Y2345999D01*
X5088999Y2341999D01*
X5087799Y2338099D01*
X5086199Y2334400D01*
X5084099Y2330999D01*
X5081599Y2327800D01*
X5078699Y2324899D01*
X5075500Y2322399D01*
X5072100Y2320300D01*
X5068400Y2318699D01*
X5064499Y2317500D01*
X5060500Y2316700D01*
X5056599Y2316500D01*
G37*
G01*
X5025000Y2450000D03*
G36*
X4993400Y2516500D02*
G01*
X4989499Y2516700D01*
X4985500Y2517500D01*
X4981599Y2518699D01*
X4977900Y2520300D01*
X4974499Y2522399D01*
X4971300Y2524899D01*
X4968400Y2527800D01*
X4965900Y2530999D01*
X4963800Y2534400D01*
X4962200Y2538099D01*
X4961000Y2541999D01*
X4960299Y2545999D01*
X4960000Y2550000D01*
X4960299Y2554000D01*
X4961000Y2558000D01*
X4962200Y2561900D01*
X4963800Y2565599D01*
X4965900Y2569000D01*
X4968400Y2572199D01*
X4971300Y2575100D01*
X4974499Y2577600D01*
X4977900Y2579699D01*
X4981599Y2581300D01*
X4985500Y2582500D01*
X4989499Y2583200D01*
X4993400Y2583499D01*
X5056599Y2583499D01*
X5060500Y2583200D01*
X5064499Y2582500D01*
X5068400Y2581300D01*
X5072100Y2579699D01*
X5075500Y2577600D01*
X5078699Y2575100D01*
X5081599Y2572199D01*
X5084099Y2569000D01*
X5086199Y2565599D01*
X5087799Y2561900D01*
X5088999Y2558000D01*
X5089700Y2554000D01*
X5090000Y2550000D01*
X5089700Y2545999D01*
X5088999Y2541999D01*
X5087799Y2538099D01*
X5086199Y2534400D01*
X5084099Y2530999D01*
X5081599Y2527800D01*
X5078699Y2524899D01*
X5075500Y2522399D01*
X5072100Y2520300D01*
X5068400Y2518699D01*
X5064499Y2517500D01*
X5060500Y2516700D01*
X5056599Y2516500D01*
G37*
G36*
X4993400Y2616500D02*
G01*
X4989499Y2616700D01*
X4985500Y2617500D01*
X4981599Y2618699D01*
X4977900Y2620300D01*
X4974499Y2622399D01*
X4971300Y2624899D01*
X4968400Y2627800D01*
X4965900Y2630999D01*
X4963800Y2634400D01*
X4962200Y2638099D01*
X4961000Y2641999D01*
X4960299Y2645999D01*
X4960000Y2650000D01*
X4960299Y2654000D01*
X4961000Y2658000D01*
X4962200Y2661900D01*
X4963800Y2665599D01*
X4965900Y2669000D01*
X4968400Y2672199D01*
X4971300Y2675100D01*
X4974499Y2677600D01*
X4977900Y2679699D01*
X4981599Y2681300D01*
X4985500Y2682500D01*
X4989499Y2683200D01*
X4993400Y2683499D01*
X5056599Y2683499D01*
X5060500Y2683200D01*
X5064499Y2682500D01*
X5068400Y2681300D01*
X5072100Y2679699D01*
X5075500Y2677600D01*
X5078699Y2675100D01*
X5081599Y2672199D01*
X5084099Y2669000D01*
X5086199Y2665599D01*
X5087799Y2661900D01*
X5088999Y2658000D01*
X5089700Y2654000D01*
X5090000Y2650000D01*
X5089700Y2645999D01*
X5088999Y2641999D01*
X5087799Y2638099D01*
X5086199Y2634400D01*
X5084099Y2630999D01*
X5081599Y2627800D01*
X5078699Y2624899D01*
X5075500Y2622399D01*
X5072100Y2620300D01*
X5068400Y2618699D01*
X5064499Y2617500D01*
X5060500Y2616700D01*
X5056599Y2616500D01*
G37*
G36*
X5400000Y685000D02*
G01*
X5396000Y685300D01*
X5391999Y685999D01*
X5388100Y687199D01*
X5384399Y688800D01*
X5381000Y690900D01*
X5377799Y693400D01*
X5374899Y696300D01*
X5372399Y699499D01*
X5370299Y702899D01*
X5368699Y706599D01*
X5367500Y710500D01*
X5366700Y714499D01*
X5366499Y718400D01*
X5366499Y781599D01*
X5366700Y785500D01*
X5367500Y789499D01*
X5368699Y793400D01*
X5370299Y797100D01*
X5372399Y800500D01*
X5374899Y803699D01*
X5377799Y806599D01*
X5381000Y809099D01*
X5384399Y811199D01*
X5388100Y812800D01*
X5391999Y814000D01*
X5396000Y814699D01*
X5400000Y815000D01*
X5403999Y814699D01*
X5408000Y814000D01*
X5411899Y812800D01*
X5415600Y811199D01*
X5418999Y809099D01*
X5422200Y806599D01*
X5425100Y803699D01*
X5427600Y800500D01*
X5429700Y797100D01*
X5431300Y793400D01*
X5432500Y789499D01*
X5433299Y785500D01*
X5433500Y781599D01*
X5433500Y718400D01*
X5433299Y714499D01*
X5432500Y710500D01*
X5431300Y706599D01*
X5429700Y702899D01*
X5427600Y699499D01*
X5425100Y696300D01*
X5422200Y693400D01*
X5418999Y690900D01*
X5415600Y688800D01*
X5411899Y687199D01*
X5408000Y685999D01*
X5403999Y685300D01*
G37*
G36*
X5300000Y685000D02*
G01*
X5296000Y685300D01*
X5291999Y685999D01*
X5288100Y687199D01*
X5284399Y688800D01*
X5281000Y690900D01*
X5277799Y693400D01*
X5274899Y696300D01*
X5272399Y699499D01*
X5270299Y702899D01*
X5268699Y706599D01*
X5267500Y710500D01*
X5266700Y714499D01*
X5266499Y718400D01*
X5266499Y781599D01*
X5266700Y785500D01*
X5267500Y789499D01*
X5268699Y793400D01*
X5270299Y797100D01*
X5272399Y800500D01*
X5274899Y803699D01*
X5277799Y806599D01*
X5281000Y809099D01*
X5284399Y811199D01*
X5288100Y812800D01*
X5291999Y814000D01*
X5296000Y814699D01*
X5300000Y815000D01*
X5303999Y814699D01*
X5308000Y814000D01*
X5311899Y812800D01*
X5315600Y811199D01*
X5318999Y809099D01*
X5322200Y806599D01*
X5325100Y803699D01*
X5327600Y800500D01*
X5329700Y797100D01*
X5331300Y793400D01*
X5332500Y789499D01*
X5333299Y785500D01*
X5333500Y781599D01*
X5333500Y718400D01*
X5333299Y714499D01*
X5332500Y710500D01*
X5331300Y706599D01*
X5329700Y702899D01*
X5327600Y699499D01*
X5325100Y696300D01*
X5322200Y693400D01*
X5318999Y690900D01*
X5315600Y688800D01*
X5311899Y687199D01*
X5308000Y685999D01*
X5303999Y685300D01*
G37*
G36*
X5500000Y685000D02*
G01*
X5496000Y685300D01*
X5491999Y685999D01*
X5488100Y687199D01*
X5484399Y688800D01*
X5481000Y690900D01*
X5477799Y693400D01*
X5474899Y696300D01*
X5472399Y699499D01*
X5470299Y702899D01*
X5468699Y706599D01*
X5467500Y710500D01*
X5466700Y714499D01*
X5466499Y718400D01*
X5466499Y781599D01*
X5466700Y785500D01*
X5467500Y789499D01*
X5468699Y793400D01*
X5470299Y797100D01*
X5472399Y800500D01*
X5474899Y803699D01*
X5477799Y806599D01*
X5481000Y809099D01*
X5484399Y811199D01*
X5488100Y812800D01*
X5491999Y814000D01*
X5496000Y814699D01*
X5500000Y815000D01*
X5503999Y814699D01*
X5508000Y814000D01*
X5511899Y812800D01*
X5515600Y811199D01*
X5518999Y809099D01*
X5522200Y806599D01*
X5525100Y803699D01*
X5527600Y800500D01*
X5529700Y797100D01*
X5531300Y793400D01*
X5532500Y789499D01*
X5533299Y785500D01*
X5533500Y781599D01*
X5533500Y718400D01*
X5533299Y714499D01*
X5532500Y710500D01*
X5531300Y706599D01*
X5529700Y702899D01*
X5527600Y699499D01*
X5525100Y696300D01*
X5522200Y693400D01*
X5518999Y690900D01*
X5515600Y688800D01*
X5511899Y687199D01*
X5508000Y685999D01*
X5503999Y685300D01*
G37*
D17*
G01*
X541349Y3050000D03*
G01*
X458650Y3050000D03*
G01*
X541349Y2950000D03*
G01*
X458650Y2950000D03*
G01*
X541349Y2850000D03*
G01*
X458650Y2850000D03*
G01*
X541349Y2750000D03*
G01*
X458650Y2750000D03*
D18*
G01*
X960628Y3050000D03*
D19*
G01*
X1039371Y3050000D03*
D18*
G01*
X960628Y2950000D03*
D19*
G01*
X1039371Y2950000D03*
D18*
G01*
X960628Y2850000D03*
D19*
G01*
X1039371Y2850000D03*
D18*
G01*
X960628Y2750000D03*
D19*
G01*
X1039371Y2750000D03*
D14*
G01*
X3950000Y3589371D03*
D15*
G01*
X3950000Y3510628D03*
D18*
G01*
X3810628Y3200000D03*
D19*
G01*
X3889371Y3200000D03*
D21*
G01*
X3810000Y3499372D03*
D22*
G01*
X3810000Y3420627D03*
D23*
G01*
X3500000Y450000D03*
D24*
G01*
X3400000Y450000D03*
G01*
X3300000Y450000D03*
G01*
X3200000Y450000D03*
G01*
X3100000Y450000D03*
G01*
X3000000Y450000D03*
G01*
X2900000Y450000D03*
G01*
X2900000Y150000D03*
G01*
X3000000Y150000D03*
G01*
X3100000Y150000D03*
G01*
X3200000Y150000D03*
G01*
X3300000Y150000D03*
G01*
X3400000Y150000D03*
G01*
X3500000Y150000D03*
D25*
G01*
X4600000Y2400000D03*
G01*
X4600000Y2300000D03*
G01*
X4600000Y2200000D03*
G01*
X4600000Y2500000D03*
G01*
X4600000Y2600000D03*
G01*
X4600000Y2100000D03*
G01*
X4600000Y2700000D03*
G01*
X4600000Y2000000D03*
G01*
X4600000Y2800000D03*
G01*
X4600000Y1900000D03*
G01*
X4600000Y1800000D03*
G01*
X4600000Y1700000D03*
G01*
X4600000Y2900000D03*
G01*
X4600000Y3000000D03*
G01*
X4600000Y1600000D03*
G01*
X4600000Y1500000D03*
G01*
X4600000Y1400000D03*
G01*
X4600000Y3100000D03*
G01*
X4600000Y3200000D03*
G01*
X4600000Y3300000D03*
G01*
X4000000Y2400000D03*
D26*
G01*
X4000000Y3300000D03*
D25*
G01*
X4000000Y3200000D03*
G01*
X4000000Y3100000D03*
G01*
X4000000Y3000000D03*
G01*
X4000000Y2900000D03*
G01*
X4000000Y2800000D03*
G01*
X4000000Y2700000D03*
G01*
X4000000Y2600000D03*
G01*
X4000000Y2500000D03*
G01*
X4000000Y2300000D03*
G01*
X4000000Y2200000D03*
G01*
X4000000Y2100000D03*
G01*
X4000000Y2000000D03*
G01*
X4000000Y1900000D03*
G01*
X4000000Y1800000D03*
G01*
X4000000Y1700000D03*
G01*
X4000000Y1600000D03*
G01*
X4000000Y1500000D03*
G01*
X4000000Y1400000D03*
D27*
G01*
X2800000Y1649989D03*
G01*
X2200000Y1649989D03*
G01*
X2800000Y1749989D03*
G01*
X2200000Y1749989D03*
G01*
X2800000Y1849989D03*
G01*
X2200000Y1849989D03*
G01*
X2800000Y1949989D03*
G01*
X2200000Y1949989D03*
G01*
X2800000Y2049989D03*
G01*
X2200000Y2049989D03*
G01*
X2800000Y2149989D03*
G01*
X2200000Y2149989D03*
G01*
X2800000Y2249989D03*
G01*
X2200000Y2249989D03*
G01*
X2800000Y2349989D03*
G01*
X2200000Y2349989D03*
G01*
X2800000Y2449989D03*
G01*
X2200000Y2449989D03*
G01*
X2800000Y2549989D03*
G01*
X2200000Y2549989D03*
G01*
X2800000Y2649989D03*
G01*
X2200000Y2649989D03*
G01*
X2800000Y2749989D03*
G01*
X2200000Y2749989D03*
G01*
X2800000Y2849989D03*
G01*
X2200000Y2849989D03*
G01*
X2800000Y2949989D03*
G01*
X2200000Y2949989D03*
D28*
G01*
X3092910Y1600000D03*
G01*
X3092910Y1700000D03*
G01*
X3092910Y1800000D03*
G01*
X3092910Y1900000D03*
G01*
X3092910Y2000000D03*
G01*
X3092910Y2100000D03*
G01*
X3092910Y2200000D03*
G01*
X3092910Y2300000D03*
G01*
X3092910Y2400000D03*
G01*
X3092910Y2500000D03*
G01*
X3092910Y2600000D03*
G01*
X3092910Y2700000D03*
G01*
X3092910Y2800000D03*
G01*
X3092910Y2900000D03*
G01*
X3707089Y2900000D03*
G01*
X3707089Y2800000D03*
G01*
X3707089Y2700000D03*
G01*
X3707089Y2600000D03*
G01*
X3707089Y2500000D03*
G01*
X3707089Y2400000D03*
G01*
X3707089Y2300000D03*
G01*
X3707089Y2100000D03*
G01*
X3707089Y2000000D03*
G01*
X3707089Y1900000D03*
G01*
X3707089Y1800000D03*
G01*
X3707089Y1700000D03*
G01*
X3707089Y2200000D03*
D29*
G01*
X3707088Y1600000D03*
D28*
G01*
X1150000Y1350000D03*
G01*
X1150000Y1550000D03*
G01*
X1150000Y1450000D03*
G01*
X1150000Y1950000D03*
G01*
X1150000Y2350000D03*
G01*
X1150000Y2450000D03*
G01*
X1150000Y2550000D03*
G01*
X1150000Y2650000D03*
G01*
X1150000Y2750000D03*
G01*
X1150000Y2850000D03*
G01*
X1150000Y2950000D03*
G01*
X1150000Y3050000D03*
D30*
G01*
X1150000Y3150000D03*
D28*
G01*
X1150000Y2250000D03*
G01*
X1150000Y2050000D03*
G01*
X1150000Y2150000D03*
G01*
X1150000Y1850000D03*
G01*
X1150000Y1650000D03*
G01*
X1150000Y1750000D03*
G01*
X1150000Y1250000D03*
G01*
X1750000Y3050000D03*
G01*
X1750000Y3150000D03*
G01*
X1750000Y2950000D03*
G01*
X1750000Y2850000D03*
G01*
X1750000Y1650000D03*
G01*
X1750000Y1750000D03*
G01*
X1750000Y1850000D03*
G01*
X1750000Y1950000D03*
G01*
X1750000Y1550000D03*
G01*
X1750000Y1450000D03*
G01*
X1750000Y1350000D03*
G01*
X1750000Y1250000D03*
G01*
X1750000Y2350000D03*
G01*
X1750000Y2250000D03*
G01*
X1750000Y2150000D03*
G01*
X1750000Y2050000D03*
G01*
X1750000Y2450000D03*
G01*
X1750000Y2550000D03*
G01*
X1750000Y2650000D03*
G01*
X1750000Y2750000D03*
M02*
