G04 Layer: TopPasteMaskLayer*
G04 EasyEDA v6.5.20, 2022-11-28 03:27:33*
G04 a67cddfb3fce44daa9051d46cbbcc19f,10*
G04 Gerber Generator version 0.2*
G04 Scale: 100 percent, Rotated: No, Reflected: No *
G04 Dimensions in inches *
G04 leading zeros omitted , absolute positions ,3 integer and 6 decimal *
%FSLAX36Y36*%
%MOIN*%

%AMMACRO1*4,1,4,-0.063,-0.0315,-0.063,0.0315,0.063,0.0315,0.063,-0.0315,-0.063,-0.0315,0*%
%ADD10R,0.0512X0.0551*%
%ADD11MACRO1*%

%LPD*%
G36*
X3816019Y2727960D02*
G01*
X3814060Y2725980D01*
X3814060Y2675600D01*
X3816019Y2673620D01*
X3861300Y2673620D01*
X3863260Y2675600D01*
X3863080Y2692120D01*
X3845740Y2692120D01*
X3845740Y2709840D01*
X3863460Y2709840D01*
X3863260Y2725980D01*
X3861300Y2727960D01*
G37*
G36*
X3900659Y2727960D02*
G01*
X3898700Y2725980D01*
X3898900Y2709840D01*
X3916220Y2709840D01*
X3916220Y2692120D01*
X3898700Y2692120D01*
X3898700Y2675600D01*
X3900659Y2673620D01*
X3945940Y2673620D01*
X3947919Y2675600D01*
X3947919Y2725980D01*
X3945940Y2727960D01*
G37*
G36*
X2158700Y1566380D02*
G01*
X2156740Y1564400D01*
X2156920Y1547880D01*
X2174260Y1547880D01*
X2174260Y1530160D01*
X2156540Y1530160D01*
X2156740Y1514019D01*
X2158700Y1512040D01*
X2203980Y1512040D01*
X2205940Y1514019D01*
X2205940Y1564400D01*
X2203980Y1566380D01*
G37*
G36*
X2074060Y1566380D02*
G01*
X2072080Y1564400D01*
X2072080Y1514019D01*
X2074060Y1512040D01*
X2119340Y1512040D01*
X2121300Y1514019D01*
X2121100Y1530160D01*
X2103780Y1530160D01*
X2103780Y1547880D01*
X2121300Y1547880D01*
X2121300Y1564400D01*
X2119340Y1566380D01*
G37*
G36*
X3080160Y1433460D02*
G01*
X3064020Y1433260D01*
X3062040Y1431300D01*
X3062040Y1386020D01*
X3064020Y1384060D01*
X3114400Y1384060D01*
X3116380Y1386020D01*
X3116380Y1431300D01*
X3114400Y1433260D01*
X3097880Y1433080D01*
X3097880Y1415740D01*
X3080160Y1415740D01*
G37*
G36*
X3064020Y1517920D02*
G01*
X3062040Y1515940D01*
X3062040Y1470660D01*
X3064020Y1468700D01*
X3080160Y1468899D01*
X3080160Y1486220D01*
X3097880Y1486220D01*
X3097880Y1468700D01*
X3114400Y1468700D01*
X3116380Y1470660D01*
X3116380Y1515940D01*
X3114400Y1517920D01*
G37*
G36*
X1010160Y1273460D02*
G01*
X994020Y1273260D01*
X992039Y1271300D01*
X992039Y1226020D01*
X994020Y1224060D01*
X1044400Y1224060D01*
X1046380Y1226020D01*
X1046380Y1271300D01*
X1044400Y1273260D01*
X1027880Y1273080D01*
X1027880Y1255740D01*
X1010160Y1255740D01*
G37*
G36*
X994020Y1357920D02*
G01*
X992039Y1355940D01*
X992039Y1310660D01*
X994020Y1308700D01*
X1010160Y1308899D01*
X1010160Y1326220D01*
X1027880Y1326220D01*
X1027880Y1308700D01*
X1044400Y1308700D01*
X1046380Y1310660D01*
X1046380Y1355940D01*
X1044400Y1357920D01*
G37*
G36*
X1019680Y2677160D02*
G01*
X1017720Y2675200D01*
X1017920Y2658660D01*
X1035240Y2658660D01*
X1035240Y2640940D01*
X1017520Y2640940D01*
X1017720Y2624800D01*
X1019680Y2622840D01*
X1064960Y2622840D01*
X1066940Y2624800D01*
X1066940Y2675200D01*
X1064960Y2677160D01*
G37*
G36*
X935040Y2677160D02*
G01*
X933080Y2675200D01*
X933080Y2624800D01*
X935040Y2622840D01*
X980320Y2622840D01*
X982280Y2624800D01*
X982080Y2640940D01*
X964760Y2640940D01*
X964760Y2658660D01*
X982280Y2658660D01*
X982280Y2675200D01*
X980320Y2677160D01*
G37*
G36*
X1019680Y2577160D02*
G01*
X1017720Y2575200D01*
X1017920Y2558660D01*
X1035240Y2558660D01*
X1035240Y2540940D01*
X1017520Y2540940D01*
X1017720Y2524800D01*
X1019680Y2522840D01*
X1064960Y2522840D01*
X1066940Y2524800D01*
X1066940Y2575200D01*
X1064960Y2577160D01*
G37*
G36*
X935040Y2577160D02*
G01*
X933080Y2575200D01*
X933080Y2524800D01*
X935040Y2522840D01*
X980320Y2522840D01*
X982280Y2524800D01*
X982080Y2540940D01*
X964760Y2540940D01*
X964760Y2558660D01*
X982280Y2558660D01*
X982280Y2575200D01*
X980320Y2577160D01*
G37*
G36*
X1019680Y2477160D02*
G01*
X1017720Y2475200D01*
X1017920Y2458660D01*
X1035240Y2458660D01*
X1035240Y2440940D01*
X1017520Y2440940D01*
X1017720Y2424800D01*
X1019680Y2422840D01*
X1064960Y2422840D01*
X1066940Y2424800D01*
X1066940Y2475200D01*
X1064960Y2477160D01*
G37*
G36*
X935040Y2477160D02*
G01*
X933080Y2475200D01*
X933080Y2424800D01*
X935040Y2422840D01*
X980320Y2422840D01*
X982280Y2424800D01*
X982080Y2440940D01*
X964760Y2440940D01*
X964760Y2458660D01*
X982280Y2458660D01*
X982280Y2475200D01*
X980320Y2477160D01*
G37*
G36*
X1019680Y2377160D02*
G01*
X1017720Y2375200D01*
X1017920Y2358660D01*
X1035240Y2358660D01*
X1035240Y2340940D01*
X1017520Y2340940D01*
X1017720Y2324800D01*
X1019680Y2322840D01*
X1064960Y2322840D01*
X1066940Y2324800D01*
X1066940Y2375200D01*
X1064960Y2377160D01*
G37*
G36*
X935040Y2377160D02*
G01*
X933080Y2375200D01*
X933080Y2324800D01*
X935040Y2322840D01*
X980320Y2322840D01*
X982280Y2324800D01*
X982080Y2340940D01*
X964760Y2340940D01*
X964760Y2358660D01*
X982280Y2358660D01*
X982280Y2375200D01*
X980320Y2377160D01*
G37*
G36*
X1019680Y2277160D02*
G01*
X1017720Y2275200D01*
X1017920Y2258660D01*
X1035240Y2258660D01*
X1035240Y2240940D01*
X1017520Y2240940D01*
X1017720Y2224800D01*
X1019680Y2222840D01*
X1064960Y2222840D01*
X1066940Y2224800D01*
X1066940Y2275200D01*
X1064960Y2277160D01*
G37*
G36*
X935040Y2277160D02*
G01*
X933080Y2275200D01*
X933080Y2224800D01*
X935040Y2222840D01*
X980320Y2222840D01*
X982280Y2224800D01*
X982080Y2240940D01*
X964760Y2240940D01*
X964760Y2258660D01*
X982280Y2258660D01*
X982280Y2275200D01*
X980320Y2277160D01*
G37*
G36*
X1019680Y2177160D02*
G01*
X1017720Y2175200D01*
X1017920Y2158660D01*
X1035240Y2158660D01*
X1035240Y2140940D01*
X1017520Y2140940D01*
X1017720Y2124800D01*
X1019680Y2122840D01*
X1064960Y2122840D01*
X1066940Y2124800D01*
X1066940Y2175200D01*
X1064960Y2177160D01*
G37*
G36*
X935040Y2177160D02*
G01*
X933080Y2175200D01*
X933080Y2124800D01*
X935040Y2122840D01*
X980320Y2122840D01*
X982280Y2124800D01*
X982080Y2140940D01*
X964760Y2140940D01*
X964760Y2158660D01*
X982280Y2158660D01*
X982280Y2175200D01*
X980320Y2177160D01*
G37*
G36*
X1019680Y2077160D02*
G01*
X1017720Y2075200D01*
X1017920Y2058660D01*
X1035240Y2058660D01*
X1035240Y2040940D01*
X1017520Y2040940D01*
X1017720Y2024800D01*
X1019680Y2022840D01*
X1064960Y2022840D01*
X1066940Y2024800D01*
X1066940Y2075200D01*
X1064960Y2077160D01*
G37*
G36*
X935040Y2077160D02*
G01*
X933080Y2075200D01*
X933080Y2024800D01*
X935040Y2022840D01*
X980320Y2022840D01*
X982280Y2024800D01*
X982080Y2040940D01*
X964760Y2040940D01*
X964760Y2058660D01*
X982280Y2058660D01*
X982280Y2075200D01*
X980320Y2077160D01*
G37*
G36*
X1019680Y1977160D02*
G01*
X1017720Y1975200D01*
X1017920Y1958660D01*
X1035240Y1958660D01*
X1035240Y1940940D01*
X1017520Y1940940D01*
X1017720Y1924800D01*
X1019680Y1922840D01*
X1064960Y1922840D01*
X1066940Y1924800D01*
X1066940Y1975200D01*
X1064960Y1977160D01*
G37*
G36*
X935040Y1977160D02*
G01*
X933080Y1975200D01*
X933080Y1924800D01*
X935040Y1922840D01*
X980320Y1922840D01*
X982280Y1924800D01*
X982080Y1940940D01*
X964760Y1940940D01*
X964760Y1958660D01*
X982280Y1958660D01*
X982280Y1975200D01*
X980320Y1977160D01*
G37*
G36*
X1019680Y1877160D02*
G01*
X1017720Y1875200D01*
X1017920Y1858660D01*
X1035240Y1858660D01*
X1035240Y1840940D01*
X1017520Y1840940D01*
X1017720Y1824800D01*
X1019680Y1822840D01*
X1064960Y1822840D01*
X1066940Y1824800D01*
X1066940Y1875200D01*
X1064960Y1877160D01*
G37*
G36*
X935040Y1877160D02*
G01*
X933080Y1875200D01*
X933080Y1824800D01*
X935040Y1822840D01*
X980320Y1822840D01*
X982280Y1824800D01*
X982080Y1840940D01*
X964760Y1840940D01*
X964760Y1858660D01*
X982280Y1858660D01*
X982280Y1875200D01*
X980320Y1877160D01*
G37*
G36*
X1019680Y1777160D02*
G01*
X1017720Y1775200D01*
X1017920Y1758660D01*
X1035240Y1758660D01*
X1035240Y1740940D01*
X1017520Y1740940D01*
X1017720Y1724800D01*
X1019680Y1722840D01*
X1064960Y1722840D01*
X1066940Y1724800D01*
X1066940Y1775200D01*
X1064960Y1777160D01*
G37*
G36*
X935040Y1777160D02*
G01*
X933080Y1775200D01*
X933080Y1724800D01*
X935040Y1722840D01*
X980320Y1722840D01*
X982280Y1724800D01*
X982080Y1740940D01*
X964760Y1740940D01*
X964760Y1758660D01*
X982280Y1758660D01*
X982280Y1775200D01*
X980320Y1777160D01*
G37*
G36*
X1019680Y1677160D02*
G01*
X1017720Y1675200D01*
X1017920Y1658660D01*
X1035240Y1658660D01*
X1035240Y1640940D01*
X1017520Y1640940D01*
X1017720Y1624800D01*
X1019680Y1622840D01*
X1064960Y1622840D01*
X1066940Y1624800D01*
X1066940Y1675200D01*
X1064960Y1677160D01*
G37*
G36*
X935040Y1677160D02*
G01*
X933080Y1675200D01*
X933080Y1624800D01*
X935040Y1622840D01*
X980320Y1622840D01*
X982280Y1624800D01*
X982080Y1640940D01*
X964760Y1640940D01*
X964760Y1658660D01*
X982280Y1658660D01*
X982280Y1675200D01*
X980320Y1677160D01*
G37*
G36*
X1019680Y1577160D02*
G01*
X1017720Y1575200D01*
X1017920Y1558660D01*
X1035240Y1558660D01*
X1035240Y1540940D01*
X1017520Y1540940D01*
X1017720Y1524800D01*
X1019680Y1522840D01*
X1064960Y1522840D01*
X1066940Y1524800D01*
X1066940Y1575200D01*
X1064960Y1577160D01*
G37*
G36*
X935040Y1577160D02*
G01*
X933080Y1575200D01*
X933080Y1524800D01*
X935040Y1522840D01*
X980320Y1522840D01*
X982280Y1524800D01*
X982080Y1540940D01*
X964760Y1540940D01*
X964760Y1558660D01*
X982280Y1558660D01*
X982280Y1575200D01*
X980320Y1577160D01*
G37*
G36*
X1019680Y3077160D02*
G01*
X1017720Y3075200D01*
X1017920Y3058660D01*
X1035240Y3058660D01*
X1035240Y3040940D01*
X1017520Y3040940D01*
X1017720Y3024800D01*
X1019680Y3022840D01*
X1064960Y3022840D01*
X1066940Y3024800D01*
X1066940Y3075200D01*
X1064960Y3077160D01*
G37*
G36*
X935040Y3077160D02*
G01*
X933080Y3075200D01*
X933080Y3024800D01*
X935040Y3022840D01*
X980320Y3022840D01*
X982280Y3024800D01*
X982080Y3040940D01*
X964760Y3040940D01*
X964760Y3058660D01*
X982280Y3058660D01*
X982280Y3075200D01*
X980320Y3077160D01*
G37*
G36*
X1019680Y2977160D02*
G01*
X1017720Y2975200D01*
X1017920Y2958660D01*
X1035240Y2958660D01*
X1035240Y2940940D01*
X1017520Y2940940D01*
X1017720Y2924800D01*
X1019680Y2922840D01*
X1064960Y2922840D01*
X1066940Y2924800D01*
X1066940Y2975200D01*
X1064960Y2977160D01*
G37*
G36*
X935040Y2977160D02*
G01*
X933080Y2975200D01*
X933080Y2924800D01*
X935040Y2922840D01*
X980320Y2922840D01*
X982280Y2924800D01*
X982080Y2940940D01*
X964760Y2940940D01*
X964760Y2958660D01*
X982280Y2958660D01*
X982280Y2975200D01*
X980320Y2977160D01*
G37*
G36*
X1019680Y2877160D02*
G01*
X1017720Y2875200D01*
X1017920Y2858660D01*
X1035240Y2858660D01*
X1035240Y2840940D01*
X1017520Y2840940D01*
X1017720Y2824800D01*
X1019680Y2822840D01*
X1064960Y2822840D01*
X1066940Y2824800D01*
X1066940Y2875200D01*
X1064960Y2877160D01*
G37*
G36*
X935040Y2877160D02*
G01*
X933080Y2875200D01*
X933080Y2824800D01*
X935040Y2822840D01*
X980320Y2822840D01*
X982280Y2824800D01*
X982080Y2840940D01*
X964760Y2840940D01*
X964760Y2858660D01*
X982280Y2858660D01*
X982280Y2875200D01*
X980320Y2877160D01*
G37*
G36*
X1019680Y2777160D02*
G01*
X1017720Y2775200D01*
X1017920Y2758660D01*
X1035240Y2758660D01*
X1035240Y2740940D01*
X1017520Y2740940D01*
X1017720Y2724800D01*
X1019680Y2722840D01*
X1064960Y2722840D01*
X1066940Y2724800D01*
X1066940Y2775200D01*
X1064960Y2777160D01*
G37*
G36*
X935040Y2777160D02*
G01*
X933080Y2775200D01*
X933080Y2724800D01*
X935040Y2722840D01*
X980320Y2722840D01*
X982280Y2724800D01*
X982080Y2740940D01*
X964760Y2740940D01*
X964760Y2758660D01*
X982280Y2758660D01*
X982280Y2775200D01*
X980320Y2777160D01*
G37*
G36*
X3940160Y3533460D02*
G01*
X3924020Y3533260D01*
X3922040Y3531300D01*
X3922040Y3486019D01*
X3924020Y3484060D01*
X3974400Y3484060D01*
X3976380Y3486019D01*
X3976380Y3531300D01*
X3974400Y3533260D01*
X3957880Y3533080D01*
X3957880Y3515740D01*
X3940160Y3515740D01*
G37*
G36*
X3924020Y3617919D02*
G01*
X3922040Y3615940D01*
X3922040Y3570659D01*
X3924020Y3568700D01*
X3940160Y3568900D01*
X3940160Y3586220D01*
X3957880Y3586220D01*
X3957880Y3568700D01*
X3974400Y3568700D01*
X3976380Y3570659D01*
X3976380Y3615940D01*
X3974400Y3617919D01*
G37*
G36*
X3869680Y3227160D02*
G01*
X3867720Y3225200D01*
X3867919Y3208660D01*
X3885240Y3208660D01*
X3885240Y3190940D01*
X3867520Y3190940D01*
X3867720Y3174800D01*
X3869680Y3172840D01*
X3914960Y3172840D01*
X3916940Y3174800D01*
X3916940Y3225200D01*
X3914960Y3227160D01*
G37*
G36*
X3785040Y3227160D02*
G01*
X3783080Y3225200D01*
X3783080Y3174800D01*
X3785040Y3172840D01*
X3830320Y3172840D01*
X3832280Y3174800D01*
X3832080Y3190940D01*
X3814760Y3190940D01*
X3814760Y3208660D01*
X3832280Y3208660D01*
X3832280Y3225200D01*
X3830320Y3227160D01*
G37*
G36*
X3800940Y3442480D02*
G01*
X3784800Y3442280D01*
X3782840Y3440320D01*
X3782840Y3395040D01*
X3784800Y3393060D01*
X3835200Y3393060D01*
X3837160Y3395040D01*
X3837160Y3440320D01*
X3835200Y3442280D01*
X3818660Y3442080D01*
X3818660Y3424760D01*
X3800940Y3424760D01*
G37*
G36*
X3784800Y3526920D02*
G01*
X3782840Y3524960D01*
X3782840Y3479680D01*
X3784800Y3477720D01*
X3800940Y3477919D01*
X3800940Y3495240D01*
X3818660Y3495240D01*
X3818660Y3477720D01*
X3835200Y3477720D01*
X3837160Y3479680D01*
X3837160Y3524960D01*
X3835200Y3526920D01*
G37*
D10*
G01*
X541350Y2650000D03*
G01*
X458649Y2650000D03*
G01*
X541350Y2550000D03*
G01*
X458649Y2550000D03*
G01*
X541350Y2450000D03*
G01*
X458649Y2450000D03*
G01*
X541350Y2350000D03*
G01*
X458649Y2350000D03*
G01*
X541350Y2250000D03*
G01*
X458649Y2250000D03*
G01*
X541350Y2150000D03*
G01*
X458649Y2150000D03*
G01*
X541350Y2050000D03*
G01*
X458649Y2050000D03*
G01*
X541350Y1950000D03*
G01*
X458649Y1950000D03*
G01*
X541350Y1850000D03*
G01*
X458649Y1850000D03*
G01*
X541350Y1750000D03*
G01*
X458649Y1750000D03*
G01*
X541350Y1650000D03*
G01*
X458649Y1650000D03*
G01*
X541350Y1550000D03*
G01*
X458649Y1550000D03*
G36*
X5743500Y2618499D02*
G01*
X5739709Y2618730D01*
X5735969Y2619420D01*
X5732330Y2620549D01*
X5728869Y2622109D01*
X5725609Y2624079D01*
X5722619Y2626419D01*
X5719930Y2629109D01*
X5717579Y2632109D01*
X5715609Y2635359D01*
X5714049Y2638829D01*
X5712920Y2642460D01*
X5712240Y2646199D01*
X5712010Y2650000D01*
X5712240Y2653789D01*
X5712920Y2657539D01*
X5714049Y2661170D01*
X5715609Y2664640D01*
X5717579Y2667890D01*
X5719930Y2670880D01*
X5722619Y2673569D01*
X5725609Y2675920D01*
X5728869Y2677890D01*
X5732330Y2679450D01*
X5735969Y2680580D01*
X5739709Y2681260D01*
X5743500Y2681489D01*
X5806499Y2681489D01*
X5810290Y2681260D01*
X5814030Y2680580D01*
X5817659Y2679450D01*
X5821130Y2677890D01*
X5824390Y2675920D01*
X5827380Y2673569D01*
X5830069Y2670880D01*
X5832420Y2667890D01*
X5834380Y2664640D01*
X5835940Y2661170D01*
X5837079Y2657539D01*
X5837759Y2653789D01*
X5837990Y2650000D01*
X5837759Y2646199D01*
X5837079Y2642460D01*
X5835940Y2638829D01*
X5834380Y2635359D01*
X5832420Y2632109D01*
X5830069Y2629109D01*
X5827380Y2626419D01*
X5824390Y2624079D01*
X5821130Y2622109D01*
X5817659Y2620549D01*
X5814030Y2619420D01*
X5810290Y2618730D01*
X5806499Y2618499D01*
G37*
G36*
X5743500Y2518499D02*
G01*
X5739709Y2518730D01*
X5735969Y2519420D01*
X5732330Y2520549D01*
X5728869Y2522109D01*
X5725609Y2524079D01*
X5722619Y2526419D01*
X5719930Y2529109D01*
X5717579Y2532109D01*
X5715609Y2535359D01*
X5714049Y2538829D01*
X5712920Y2542460D01*
X5712240Y2546199D01*
X5712010Y2550000D01*
X5712240Y2553789D01*
X5712920Y2557539D01*
X5714049Y2561170D01*
X5715609Y2564640D01*
X5717579Y2567890D01*
X5719930Y2570880D01*
X5722619Y2573569D01*
X5725609Y2575920D01*
X5728869Y2577890D01*
X5732330Y2579450D01*
X5735969Y2580580D01*
X5739709Y2581260D01*
X5743500Y2581489D01*
X5806499Y2581489D01*
X5810290Y2581260D01*
X5814030Y2580580D01*
X5817659Y2579450D01*
X5821130Y2577890D01*
X5824390Y2575920D01*
X5827380Y2573569D01*
X5830069Y2570880D01*
X5832420Y2567890D01*
X5834380Y2564640D01*
X5835940Y2561170D01*
X5837079Y2557539D01*
X5837759Y2553789D01*
X5837990Y2550000D01*
X5837759Y2546199D01*
X5837079Y2542460D01*
X5835940Y2538829D01*
X5834380Y2535359D01*
X5832420Y2532109D01*
X5830069Y2529109D01*
X5827380Y2526419D01*
X5824390Y2524079D01*
X5821130Y2522109D01*
X5817659Y2520549D01*
X5814030Y2519420D01*
X5810290Y2518730D01*
X5806499Y2518499D01*
G37*
D11*
G01*
X5775000Y2449994D03*
G36*
X5743500Y2318499D02*
G01*
X5739709Y2318730D01*
X5735969Y2319420D01*
X5732330Y2320549D01*
X5728869Y2322109D01*
X5725609Y2324079D01*
X5722619Y2326419D01*
X5719930Y2329109D01*
X5717579Y2332109D01*
X5715609Y2335359D01*
X5714049Y2338829D01*
X5712920Y2342460D01*
X5712240Y2346199D01*
X5712010Y2350000D01*
X5712240Y2353800D01*
X5712920Y2357539D01*
X5714049Y2361170D01*
X5715609Y2364640D01*
X5717579Y2367890D01*
X5719930Y2370880D01*
X5722619Y2373569D01*
X5725609Y2375920D01*
X5728869Y2377890D01*
X5732330Y2379450D01*
X5735969Y2380580D01*
X5739709Y2381269D01*
X5743500Y2381489D01*
X5806499Y2381489D01*
X5810290Y2381269D01*
X5814030Y2380580D01*
X5817659Y2379450D01*
X5821130Y2377890D01*
X5824390Y2375920D01*
X5827380Y2373569D01*
X5830069Y2370880D01*
X5832420Y2367890D01*
X5834380Y2364640D01*
X5835940Y2361170D01*
X5837079Y2357539D01*
X5837759Y2353800D01*
X5837990Y2350000D01*
X5837759Y2346199D01*
X5837079Y2342460D01*
X5835940Y2338829D01*
X5834380Y2335359D01*
X5832420Y2332109D01*
X5830069Y2329109D01*
X5827380Y2326419D01*
X5824390Y2324079D01*
X5821130Y2322109D01*
X5817659Y2320549D01*
X5814030Y2319420D01*
X5810290Y2318730D01*
X5806499Y2318499D01*
G37*
G36*
X5743500Y2218499D02*
G01*
X5739709Y2218730D01*
X5735969Y2219420D01*
X5732330Y2220549D01*
X5728869Y2222109D01*
X5725609Y2224079D01*
X5722619Y2226419D01*
X5719930Y2229109D01*
X5717579Y2232109D01*
X5715609Y2235359D01*
X5714049Y2238829D01*
X5712920Y2242460D01*
X5712240Y2246199D01*
X5712010Y2250000D01*
X5712240Y2253800D01*
X5712920Y2257539D01*
X5714049Y2261170D01*
X5715609Y2264640D01*
X5717579Y2267890D01*
X5719930Y2270880D01*
X5722619Y2273569D01*
X5725609Y2275920D01*
X5728869Y2277890D01*
X5732330Y2279450D01*
X5735969Y2280580D01*
X5739709Y2281269D01*
X5743500Y2281489D01*
X5806499Y2281489D01*
X5810290Y2281269D01*
X5814030Y2280580D01*
X5817659Y2279450D01*
X5821130Y2277890D01*
X5824390Y2275920D01*
X5827380Y2273569D01*
X5830069Y2270880D01*
X5832420Y2267890D01*
X5834380Y2264640D01*
X5835940Y2261170D01*
X5837079Y2257539D01*
X5837759Y2253800D01*
X5837990Y2250000D01*
X5837759Y2246199D01*
X5837079Y2242460D01*
X5835940Y2238829D01*
X5834380Y2235359D01*
X5832420Y2232109D01*
X5830069Y2229109D01*
X5827380Y2226419D01*
X5824390Y2224079D01*
X5821130Y2222109D01*
X5817659Y2220549D01*
X5814030Y2219420D01*
X5810290Y2218730D01*
X5806499Y2218499D01*
G37*
G36*
X5743500Y2118499D02*
G01*
X5739709Y2118730D01*
X5735969Y2119420D01*
X5732330Y2120549D01*
X5728869Y2122109D01*
X5725609Y2124079D01*
X5722619Y2126419D01*
X5719930Y2129109D01*
X5717579Y2132109D01*
X5715609Y2135359D01*
X5714049Y2138829D01*
X5712920Y2142460D01*
X5712240Y2146199D01*
X5712010Y2150000D01*
X5712240Y2153800D01*
X5712920Y2157539D01*
X5714049Y2161170D01*
X5715609Y2164640D01*
X5717579Y2167890D01*
X5719930Y2170880D01*
X5722619Y2173569D01*
X5725609Y2175920D01*
X5728869Y2177890D01*
X5732330Y2179450D01*
X5735969Y2180580D01*
X5739709Y2181269D01*
X5743500Y2181500D01*
X5806499Y2181500D01*
X5810290Y2181269D01*
X5814030Y2180580D01*
X5817659Y2179450D01*
X5821130Y2177890D01*
X5824390Y2175920D01*
X5827380Y2173569D01*
X5830069Y2170880D01*
X5832420Y2167890D01*
X5834380Y2164640D01*
X5835940Y2161170D01*
X5837079Y2157539D01*
X5837759Y2153800D01*
X5837990Y2150000D01*
X5837759Y2146199D01*
X5837079Y2142460D01*
X5835940Y2138829D01*
X5834380Y2135359D01*
X5832420Y2132109D01*
X5830069Y2129109D01*
X5827380Y2126419D01*
X5824390Y2124079D01*
X5821130Y2122109D01*
X5817659Y2120549D01*
X5814030Y2119420D01*
X5810290Y2118730D01*
X5806499Y2118499D01*
G37*
G36*
X5743500Y2018499D02*
G01*
X5739709Y2018730D01*
X5735969Y2019420D01*
X5732330Y2020549D01*
X5728869Y2022109D01*
X5725609Y2024079D01*
X5722619Y2026419D01*
X5719930Y2029109D01*
X5717579Y2032109D01*
X5715609Y2035359D01*
X5714049Y2038829D01*
X5712920Y2042460D01*
X5712240Y2046199D01*
X5712010Y2050000D01*
X5712240Y2053800D01*
X5712920Y2057539D01*
X5714049Y2061170D01*
X5715609Y2064640D01*
X5717579Y2067890D01*
X5719930Y2070890D01*
X5722619Y2073569D01*
X5725609Y2075920D01*
X5728869Y2077890D01*
X5732330Y2079450D01*
X5735969Y2080580D01*
X5739709Y2081269D01*
X5743500Y2081500D01*
X5806499Y2081500D01*
X5810290Y2081269D01*
X5814030Y2080580D01*
X5817659Y2079450D01*
X5821130Y2077890D01*
X5824390Y2075920D01*
X5827380Y2073569D01*
X5830069Y2070890D01*
X5832420Y2067890D01*
X5834380Y2064640D01*
X5835940Y2061170D01*
X5837079Y2057539D01*
X5837759Y2053800D01*
X5837990Y2050000D01*
X5837759Y2046199D01*
X5837079Y2042460D01*
X5835940Y2038829D01*
X5834380Y2035359D01*
X5832420Y2032109D01*
X5830069Y2029109D01*
X5827380Y2026419D01*
X5824390Y2024079D01*
X5821130Y2022109D01*
X5817659Y2020549D01*
X5814030Y2019420D01*
X5810290Y2018730D01*
X5806499Y2018499D01*
G37*
G01*
X5775000Y1950000D03*
G36*
X5743500Y1818499D02*
G01*
X5739709Y1818730D01*
X5735969Y1819420D01*
X5732330Y1820549D01*
X5728869Y1822109D01*
X5725609Y1824079D01*
X5722619Y1826419D01*
X5719930Y1829109D01*
X5717579Y1832109D01*
X5715609Y1835359D01*
X5714049Y1838829D01*
X5712920Y1842460D01*
X5712240Y1846199D01*
X5712010Y1850000D01*
X5712240Y1853800D01*
X5712920Y1857539D01*
X5714049Y1861170D01*
X5715609Y1864640D01*
X5717579Y1867890D01*
X5719930Y1870890D01*
X5722619Y1873569D01*
X5725609Y1875920D01*
X5728869Y1877890D01*
X5732330Y1879450D01*
X5735969Y1880580D01*
X5739709Y1881269D01*
X5743500Y1881500D01*
X5806499Y1881500D01*
X5810290Y1881269D01*
X5814030Y1880580D01*
X5817659Y1879450D01*
X5821130Y1877890D01*
X5824390Y1875920D01*
X5827380Y1873569D01*
X5830069Y1870890D01*
X5832420Y1867890D01*
X5834380Y1864640D01*
X5835940Y1861170D01*
X5837079Y1857539D01*
X5837759Y1853800D01*
X5837990Y1850000D01*
X5837759Y1846199D01*
X5837079Y1842460D01*
X5835940Y1838829D01*
X5834380Y1835359D01*
X5832420Y1832109D01*
X5830069Y1829109D01*
X5827380Y1826419D01*
X5824390Y1824079D01*
X5821130Y1822109D01*
X5817659Y1820549D01*
X5814030Y1819420D01*
X5810290Y1818730D01*
X5806499Y1818499D01*
G37*
G36*
X5743500Y1718499D02*
G01*
X5739709Y1718730D01*
X5735969Y1719420D01*
X5732330Y1720549D01*
X5728869Y1722109D01*
X5725609Y1724079D01*
X5722619Y1726419D01*
X5719930Y1729109D01*
X5717579Y1732109D01*
X5715609Y1735359D01*
X5714049Y1738829D01*
X5712920Y1742460D01*
X5712240Y1746199D01*
X5712010Y1750000D01*
X5712240Y1753800D01*
X5712920Y1757539D01*
X5714049Y1761170D01*
X5715609Y1764640D01*
X5717579Y1767890D01*
X5719930Y1770890D01*
X5722619Y1773569D01*
X5725609Y1775920D01*
X5728869Y1777890D01*
X5732330Y1779450D01*
X5735969Y1780580D01*
X5739709Y1781269D01*
X5743500Y1781500D01*
X5806499Y1781500D01*
X5810290Y1781269D01*
X5814030Y1780580D01*
X5817659Y1779450D01*
X5821130Y1777890D01*
X5824390Y1775920D01*
X5827380Y1773569D01*
X5830069Y1770890D01*
X5832420Y1767890D01*
X5834380Y1764640D01*
X5835940Y1761170D01*
X5837079Y1757539D01*
X5837759Y1753800D01*
X5837990Y1750000D01*
X5837759Y1746199D01*
X5837079Y1742460D01*
X5835940Y1738829D01*
X5834380Y1735359D01*
X5832420Y1732109D01*
X5830069Y1729109D01*
X5827380Y1726419D01*
X5824390Y1724079D01*
X5821130Y1722109D01*
X5817659Y1720549D01*
X5814030Y1719420D01*
X5810290Y1718730D01*
X5806499Y1718499D01*
G37*
G36*
X5743500Y1618499D02*
G01*
X5739709Y1618730D01*
X5735969Y1619420D01*
X5732330Y1620549D01*
X5728869Y1622109D01*
X5725609Y1624079D01*
X5722619Y1626430D01*
X5719930Y1629109D01*
X5717579Y1632109D01*
X5715609Y1635359D01*
X5714049Y1638829D01*
X5712920Y1642460D01*
X5712240Y1646199D01*
X5712010Y1650000D01*
X5712240Y1653800D01*
X5712920Y1657539D01*
X5714049Y1661170D01*
X5715609Y1664640D01*
X5717579Y1667890D01*
X5719930Y1670890D01*
X5722619Y1673580D01*
X5725609Y1675920D01*
X5728869Y1677890D01*
X5732330Y1679450D01*
X5735969Y1680580D01*
X5739709Y1681269D01*
X5743500Y1681500D01*
X5806499Y1681500D01*
X5810290Y1681269D01*
X5814030Y1680580D01*
X5817659Y1679450D01*
X5821130Y1677890D01*
X5824390Y1675920D01*
X5827380Y1673580D01*
X5830069Y1670890D01*
X5832420Y1667890D01*
X5834380Y1664640D01*
X5835940Y1661170D01*
X5837079Y1657539D01*
X5837759Y1653800D01*
X5837990Y1650000D01*
X5837759Y1646199D01*
X5837079Y1642460D01*
X5835940Y1638829D01*
X5834380Y1635359D01*
X5832420Y1632109D01*
X5830069Y1629109D01*
X5827380Y1626430D01*
X5824390Y1624079D01*
X5821130Y1622109D01*
X5817659Y1620549D01*
X5814030Y1619420D01*
X5810290Y1618730D01*
X5806499Y1618499D01*
G37*
G36*
X5743500Y1518499D02*
G01*
X5739709Y1518730D01*
X5735969Y1519420D01*
X5732330Y1520549D01*
X5728869Y1522109D01*
X5725609Y1524079D01*
X5722619Y1526430D01*
X5719930Y1529109D01*
X5717579Y1532109D01*
X5715609Y1535359D01*
X5714049Y1538829D01*
X5712920Y1542460D01*
X5712240Y1546199D01*
X5712010Y1550000D01*
X5712240Y1553800D01*
X5712920Y1557539D01*
X5714049Y1561170D01*
X5715609Y1564640D01*
X5717579Y1567890D01*
X5719930Y1570890D01*
X5722619Y1573580D01*
X5725609Y1575920D01*
X5728869Y1577890D01*
X5732330Y1579450D01*
X5735969Y1580580D01*
X5739709Y1581269D01*
X5743500Y1581500D01*
X5806499Y1581500D01*
X5810290Y1581269D01*
X5814030Y1580580D01*
X5817659Y1579450D01*
X5821130Y1577890D01*
X5824390Y1575920D01*
X5827380Y1573580D01*
X5830069Y1570890D01*
X5832420Y1567890D01*
X5834380Y1564640D01*
X5835940Y1561170D01*
X5837079Y1557539D01*
X5837759Y1553800D01*
X5837990Y1550000D01*
X5837759Y1546199D01*
X5837079Y1542460D01*
X5835940Y1538829D01*
X5834380Y1535359D01*
X5832420Y1532109D01*
X5830069Y1529109D01*
X5827380Y1526430D01*
X5824390Y1524079D01*
X5821130Y1522109D01*
X5817659Y1520549D01*
X5814030Y1519420D01*
X5810290Y1518730D01*
X5806499Y1518499D01*
G37*
G01*
X5775000Y1450000D03*
G36*
X5743500Y1318499D02*
G01*
X5739709Y1318730D01*
X5735969Y1319420D01*
X5732330Y1320549D01*
X5728869Y1322109D01*
X5725609Y1324079D01*
X5722619Y1326430D01*
X5719930Y1329109D01*
X5717579Y1332109D01*
X5715609Y1335359D01*
X5714049Y1338829D01*
X5712920Y1342460D01*
X5712240Y1346199D01*
X5712010Y1350000D01*
X5712240Y1353800D01*
X5712920Y1357539D01*
X5714049Y1361170D01*
X5715609Y1364640D01*
X5717579Y1367890D01*
X5719930Y1370890D01*
X5722619Y1373580D01*
X5725609Y1375920D01*
X5728869Y1377890D01*
X5732330Y1379450D01*
X5735969Y1380580D01*
X5739709Y1381269D01*
X5743500Y1381500D01*
X5806499Y1381500D01*
X5810290Y1381269D01*
X5814030Y1380580D01*
X5817659Y1379450D01*
X5821130Y1377890D01*
X5824390Y1375920D01*
X5827380Y1373580D01*
X5830069Y1370890D01*
X5832420Y1367890D01*
X5834380Y1364640D01*
X5835940Y1361170D01*
X5837079Y1357539D01*
X5837759Y1353800D01*
X5837990Y1350000D01*
X5837759Y1346199D01*
X5837079Y1342460D01*
X5835940Y1338829D01*
X5834380Y1335359D01*
X5832420Y1332109D01*
X5830069Y1329109D01*
X5827380Y1326430D01*
X5824390Y1324079D01*
X5821130Y1322109D01*
X5817659Y1320549D01*
X5814030Y1319420D01*
X5810290Y1318730D01*
X5806499Y1318499D01*
G37*
G36*
X5743500Y1218499D02*
G01*
X5739709Y1218730D01*
X5735969Y1219420D01*
X5732330Y1220549D01*
X5728869Y1222109D01*
X5725609Y1224079D01*
X5722619Y1226430D01*
X5719930Y1229119D01*
X5717579Y1232109D01*
X5715609Y1235359D01*
X5714049Y1238829D01*
X5712920Y1242460D01*
X5712240Y1246199D01*
X5712010Y1250000D01*
X5712240Y1253800D01*
X5712920Y1257539D01*
X5714049Y1261170D01*
X5715609Y1264640D01*
X5717579Y1267890D01*
X5719930Y1270890D01*
X5722619Y1273580D01*
X5725609Y1275920D01*
X5728869Y1277890D01*
X5732330Y1279450D01*
X5735969Y1280580D01*
X5739709Y1281269D01*
X5743500Y1281500D01*
X5806499Y1281500D01*
X5810290Y1281269D01*
X5814030Y1280580D01*
X5817659Y1279450D01*
X5821130Y1277890D01*
X5824390Y1275920D01*
X5827380Y1273580D01*
X5830069Y1270890D01*
X5832420Y1267890D01*
X5834380Y1264640D01*
X5835940Y1261170D01*
X5837079Y1257539D01*
X5837759Y1253800D01*
X5837990Y1250000D01*
X5837759Y1246199D01*
X5837079Y1242460D01*
X5835940Y1238829D01*
X5834380Y1235359D01*
X5832420Y1232109D01*
X5830069Y1229119D01*
X5827380Y1226430D01*
X5824390Y1224079D01*
X5821130Y1222109D01*
X5817659Y1220549D01*
X5814030Y1219420D01*
X5810290Y1218730D01*
X5806499Y1218499D01*
G37*
G36*
X5743500Y1118510D02*
G01*
X5739709Y1118730D01*
X5735969Y1119420D01*
X5732330Y1120549D01*
X5728869Y1122109D01*
X5725609Y1124079D01*
X5722619Y1126430D01*
X5719930Y1129119D01*
X5717579Y1132109D01*
X5715609Y1135359D01*
X5714049Y1138829D01*
X5712920Y1142460D01*
X5712240Y1146199D01*
X5712010Y1150000D01*
X5712240Y1153800D01*
X5712920Y1157539D01*
X5714049Y1161170D01*
X5715609Y1164640D01*
X5717579Y1167890D01*
X5719930Y1170890D01*
X5722619Y1173580D01*
X5725609Y1175920D01*
X5728869Y1177890D01*
X5732330Y1179450D01*
X5735969Y1180580D01*
X5739709Y1181269D01*
X5743500Y1181500D01*
X5806499Y1181500D01*
X5810290Y1181269D01*
X5814030Y1180580D01*
X5817659Y1179450D01*
X5821130Y1177890D01*
X5824390Y1175920D01*
X5827380Y1173580D01*
X5830069Y1170890D01*
X5832420Y1167890D01*
X5834380Y1164640D01*
X5835940Y1161170D01*
X5837079Y1157539D01*
X5837759Y1153800D01*
X5837990Y1150000D01*
X5837759Y1146199D01*
X5837079Y1142460D01*
X5835940Y1138829D01*
X5834380Y1135359D01*
X5832420Y1132109D01*
X5830069Y1129119D01*
X5827380Y1126430D01*
X5824390Y1124079D01*
X5821130Y1122109D01*
X5817659Y1120549D01*
X5814030Y1119420D01*
X5810290Y1118730D01*
X5806499Y1118510D01*
G37*
G36*
X5743500Y1018510D02*
G01*
X5739709Y1018730D01*
X5735969Y1019420D01*
X5732330Y1020549D01*
X5728869Y1022109D01*
X5725609Y1024079D01*
X5722619Y1026430D01*
X5719930Y1029119D01*
X5717579Y1032109D01*
X5715609Y1035359D01*
X5714049Y1038829D01*
X5712920Y1042460D01*
X5712240Y1046199D01*
X5712010Y1050000D01*
X5712240Y1053800D01*
X5712920Y1057539D01*
X5714049Y1061170D01*
X5715609Y1064640D01*
X5717579Y1067890D01*
X5719930Y1070890D01*
X5722619Y1073580D01*
X5725609Y1075920D01*
X5728869Y1077890D01*
X5732330Y1079450D01*
X5735969Y1080580D01*
X5739709Y1081269D01*
X5743500Y1081500D01*
X5806499Y1081500D01*
X5810290Y1081269D01*
X5814030Y1080580D01*
X5817659Y1079450D01*
X5821130Y1077890D01*
X5824390Y1075920D01*
X5827380Y1073580D01*
X5830069Y1070890D01*
X5832420Y1067890D01*
X5834380Y1064640D01*
X5835940Y1061170D01*
X5837079Y1057539D01*
X5837759Y1053800D01*
X5837990Y1050000D01*
X5837759Y1046199D01*
X5837079Y1042460D01*
X5835940Y1038829D01*
X5834380Y1035359D01*
X5832420Y1032109D01*
X5830069Y1029119D01*
X5827380Y1026430D01*
X5824390Y1024079D01*
X5821130Y1022109D01*
X5817659Y1020549D01*
X5814030Y1019420D01*
X5810290Y1018730D01*
X5806499Y1018510D01*
G37*
G01*
X5775000Y950005D03*
G36*
X5743500Y818510D02*
G01*
X5739709Y818739D01*
X5735969Y819420D01*
X5732330Y820549D01*
X5728869Y822109D01*
X5725609Y824079D01*
X5722619Y826430D01*
X5719930Y829119D01*
X5717579Y832109D01*
X5715609Y835359D01*
X5714049Y838829D01*
X5712920Y842460D01*
X5712240Y846210D01*
X5712010Y850000D01*
X5712240Y853800D01*
X5712920Y857539D01*
X5714049Y861170D01*
X5715609Y864640D01*
X5717579Y867890D01*
X5719930Y870890D01*
X5722619Y873580D01*
X5725609Y875920D01*
X5728869Y877890D01*
X5732330Y879450D01*
X5735969Y880579D01*
X5739709Y881269D01*
X5743500Y881500D01*
X5806499Y881500D01*
X5810290Y881269D01*
X5814030Y880579D01*
X5817659Y879450D01*
X5821130Y877890D01*
X5824390Y875920D01*
X5827380Y873580D01*
X5830069Y870890D01*
X5832420Y867890D01*
X5834380Y864640D01*
X5835940Y861170D01*
X5837079Y857539D01*
X5837759Y853800D01*
X5837990Y850000D01*
X5837759Y846210D01*
X5837079Y842460D01*
X5835940Y838829D01*
X5834380Y835359D01*
X5832420Y832109D01*
X5830069Y829119D01*
X5827380Y826430D01*
X5824390Y824079D01*
X5821130Y822109D01*
X5817659Y820549D01*
X5814030Y819420D01*
X5810290Y818739D01*
X5806499Y818510D01*
G37*
G36*
X5743500Y718510D02*
G01*
X5739709Y718739D01*
X5735969Y719420D01*
X5732330Y720549D01*
X5728869Y722109D01*
X5725609Y724079D01*
X5722619Y726430D01*
X5719930Y729119D01*
X5717579Y732109D01*
X5715609Y735359D01*
X5714049Y738829D01*
X5712920Y742460D01*
X5712240Y746210D01*
X5712010Y750000D01*
X5712240Y753800D01*
X5712920Y757539D01*
X5714049Y761170D01*
X5715609Y764640D01*
X5717579Y767890D01*
X5719930Y770890D01*
X5722619Y773580D01*
X5725609Y775920D01*
X5728869Y777890D01*
X5732330Y779450D01*
X5735969Y780579D01*
X5739709Y781269D01*
X5743500Y781500D01*
X5806499Y781500D01*
X5810290Y781269D01*
X5814030Y780579D01*
X5817659Y779450D01*
X5821130Y777890D01*
X5824390Y775920D01*
X5827380Y773580D01*
X5830069Y770890D01*
X5832420Y767890D01*
X5834380Y764640D01*
X5835940Y761170D01*
X5837079Y757539D01*
X5837759Y753800D01*
X5837990Y750000D01*
X5837759Y746210D01*
X5837079Y742460D01*
X5835940Y738829D01*
X5834380Y735359D01*
X5832420Y732109D01*
X5830069Y729119D01*
X5827380Y726430D01*
X5824390Y724079D01*
X5821130Y722109D01*
X5817659Y720549D01*
X5814030Y719420D01*
X5810290Y718739D01*
X5806499Y718510D01*
G37*
G36*
X4993500Y718510D02*
G01*
X4989709Y718739D01*
X4985969Y719420D01*
X4982340Y720549D01*
X4978869Y722109D01*
X4975609Y724079D01*
X4972619Y726430D01*
X4969930Y729119D01*
X4967579Y732109D01*
X4965619Y735359D01*
X4964059Y738829D01*
X4962920Y742460D01*
X4962240Y746210D01*
X4962010Y750000D01*
X4962240Y753800D01*
X4962920Y757539D01*
X4964059Y761170D01*
X4965619Y764640D01*
X4967579Y767890D01*
X4969930Y770890D01*
X4972619Y773580D01*
X4975609Y775920D01*
X4978869Y777890D01*
X4982340Y779450D01*
X4985969Y780579D01*
X4989709Y781269D01*
X4993500Y781500D01*
X5056499Y781500D01*
X5060290Y781269D01*
X5064030Y780579D01*
X5067669Y779450D01*
X5071130Y777890D01*
X5074390Y775920D01*
X5077380Y773580D01*
X5080069Y770890D01*
X5082420Y767890D01*
X5084390Y764640D01*
X5085950Y761170D01*
X5087079Y757539D01*
X5087759Y753800D01*
X5087990Y750000D01*
X5087759Y746210D01*
X5087079Y742460D01*
X5085950Y738829D01*
X5084390Y735359D01*
X5082420Y732109D01*
X5080069Y729119D01*
X5077380Y726430D01*
X5074390Y724079D01*
X5071130Y722109D01*
X5067669Y720549D01*
X5064030Y719420D01*
X5060290Y718739D01*
X5056499Y718510D01*
G37*
G36*
X4993500Y818510D02*
G01*
X4989709Y818739D01*
X4985969Y819420D01*
X4982340Y820549D01*
X4978869Y822109D01*
X4975609Y824079D01*
X4972619Y826430D01*
X4969930Y829119D01*
X4967579Y832109D01*
X4965619Y835359D01*
X4964059Y838829D01*
X4962920Y842460D01*
X4962240Y846210D01*
X4962010Y850000D01*
X4962240Y853800D01*
X4962920Y857539D01*
X4964059Y861170D01*
X4965619Y864640D01*
X4967579Y867890D01*
X4969930Y870890D01*
X4972619Y873580D01*
X4975609Y875920D01*
X4978869Y877890D01*
X4982340Y879450D01*
X4985969Y880579D01*
X4989709Y881269D01*
X4993500Y881500D01*
X5056499Y881500D01*
X5060290Y881269D01*
X5064030Y880579D01*
X5067669Y879450D01*
X5071130Y877890D01*
X5074390Y875920D01*
X5077380Y873580D01*
X5080069Y870890D01*
X5082420Y867890D01*
X5084390Y864640D01*
X5085950Y861170D01*
X5087079Y857539D01*
X5087759Y853800D01*
X5087990Y850000D01*
X5087759Y846210D01*
X5087079Y842460D01*
X5085950Y838829D01*
X5084390Y835359D01*
X5082420Y832109D01*
X5080069Y829119D01*
X5077380Y826430D01*
X5074390Y824079D01*
X5071130Y822109D01*
X5067669Y820549D01*
X5064030Y819420D01*
X5060290Y818739D01*
X5056499Y818510D01*
G37*
G01*
X5025000Y950005D03*
G36*
X4993500Y1018510D02*
G01*
X4989709Y1018730D01*
X4985969Y1019420D01*
X4982340Y1020549D01*
X4978869Y1022109D01*
X4975609Y1024079D01*
X4972619Y1026430D01*
X4969930Y1029119D01*
X4967579Y1032109D01*
X4965619Y1035359D01*
X4964059Y1038829D01*
X4962920Y1042460D01*
X4962240Y1046199D01*
X4962010Y1050000D01*
X4962240Y1053800D01*
X4962920Y1057539D01*
X4964059Y1061170D01*
X4965619Y1064640D01*
X4967579Y1067890D01*
X4969930Y1070890D01*
X4972619Y1073580D01*
X4975609Y1075920D01*
X4978869Y1077890D01*
X4982340Y1079450D01*
X4985969Y1080580D01*
X4989709Y1081269D01*
X4993500Y1081500D01*
X5056499Y1081500D01*
X5060290Y1081269D01*
X5064030Y1080580D01*
X5067669Y1079450D01*
X5071130Y1077890D01*
X5074390Y1075920D01*
X5077380Y1073580D01*
X5080069Y1070890D01*
X5082420Y1067890D01*
X5084390Y1064640D01*
X5085950Y1061170D01*
X5087079Y1057539D01*
X5087759Y1053800D01*
X5087990Y1050000D01*
X5087759Y1046199D01*
X5087079Y1042460D01*
X5085950Y1038829D01*
X5084390Y1035359D01*
X5082420Y1032109D01*
X5080069Y1029119D01*
X5077380Y1026430D01*
X5074390Y1024079D01*
X5071130Y1022109D01*
X5067669Y1020549D01*
X5064030Y1019420D01*
X5060290Y1018730D01*
X5056499Y1018510D01*
G37*
G36*
X4993500Y1118510D02*
G01*
X4989709Y1118730D01*
X4985969Y1119420D01*
X4982340Y1120549D01*
X4978869Y1122109D01*
X4975609Y1124079D01*
X4972619Y1126430D01*
X4969930Y1129119D01*
X4967579Y1132109D01*
X4965619Y1135359D01*
X4964059Y1138829D01*
X4962920Y1142460D01*
X4962240Y1146199D01*
X4962010Y1150000D01*
X4962240Y1153800D01*
X4962920Y1157539D01*
X4964059Y1161170D01*
X4965619Y1164640D01*
X4967579Y1167890D01*
X4969930Y1170890D01*
X4972619Y1173580D01*
X4975609Y1175920D01*
X4978869Y1177890D01*
X4982340Y1179450D01*
X4985969Y1180580D01*
X4989709Y1181269D01*
X4993500Y1181500D01*
X5056499Y1181500D01*
X5060290Y1181269D01*
X5064030Y1180580D01*
X5067669Y1179450D01*
X5071130Y1177890D01*
X5074390Y1175920D01*
X5077380Y1173580D01*
X5080069Y1170890D01*
X5082420Y1167890D01*
X5084390Y1164640D01*
X5085950Y1161170D01*
X5087079Y1157539D01*
X5087759Y1153800D01*
X5087990Y1150000D01*
X5087759Y1146199D01*
X5087079Y1142460D01*
X5085950Y1138829D01*
X5084390Y1135359D01*
X5082420Y1132109D01*
X5080069Y1129119D01*
X5077380Y1126430D01*
X5074390Y1124079D01*
X5071130Y1122109D01*
X5067669Y1120549D01*
X5064030Y1119420D01*
X5060290Y1118730D01*
X5056499Y1118510D01*
G37*
G36*
X4993500Y1218499D02*
G01*
X4989709Y1218730D01*
X4985969Y1219420D01*
X4982340Y1220549D01*
X4978869Y1222109D01*
X4975609Y1224079D01*
X4972619Y1226430D01*
X4969930Y1229119D01*
X4967579Y1232109D01*
X4965619Y1235359D01*
X4964059Y1238829D01*
X4962920Y1242460D01*
X4962240Y1246199D01*
X4962010Y1250000D01*
X4962240Y1253800D01*
X4962920Y1257539D01*
X4964059Y1261170D01*
X4965619Y1264640D01*
X4967579Y1267890D01*
X4969930Y1270890D01*
X4972619Y1273580D01*
X4975609Y1275920D01*
X4978869Y1277890D01*
X4982340Y1279450D01*
X4985969Y1280580D01*
X4989709Y1281269D01*
X4993500Y1281500D01*
X5056499Y1281500D01*
X5060290Y1281269D01*
X5064030Y1280580D01*
X5067669Y1279450D01*
X5071130Y1277890D01*
X5074390Y1275920D01*
X5077380Y1273580D01*
X5080069Y1270890D01*
X5082420Y1267890D01*
X5084390Y1264640D01*
X5085950Y1261170D01*
X5087079Y1257539D01*
X5087759Y1253800D01*
X5087990Y1250000D01*
X5087759Y1246199D01*
X5087079Y1242460D01*
X5085950Y1238829D01*
X5084390Y1235359D01*
X5082420Y1232109D01*
X5080069Y1229119D01*
X5077380Y1226430D01*
X5074390Y1224079D01*
X5071130Y1222109D01*
X5067669Y1220549D01*
X5064030Y1219420D01*
X5060290Y1218730D01*
X5056499Y1218499D01*
G37*
G36*
X4993500Y1318499D02*
G01*
X4989709Y1318730D01*
X4985969Y1319420D01*
X4982340Y1320549D01*
X4978869Y1322109D01*
X4975609Y1324079D01*
X4972619Y1326430D01*
X4969930Y1329109D01*
X4967579Y1332109D01*
X4965619Y1335359D01*
X4964059Y1338829D01*
X4962920Y1342460D01*
X4962240Y1346199D01*
X4962010Y1350000D01*
X4962240Y1353800D01*
X4962920Y1357539D01*
X4964059Y1361170D01*
X4965619Y1364640D01*
X4967579Y1367890D01*
X4969930Y1370890D01*
X4972619Y1373580D01*
X4975609Y1375920D01*
X4978869Y1377890D01*
X4982340Y1379450D01*
X4985969Y1380580D01*
X4989709Y1381269D01*
X4993500Y1381500D01*
X5056499Y1381500D01*
X5060290Y1381269D01*
X5064030Y1380580D01*
X5067669Y1379450D01*
X5071130Y1377890D01*
X5074390Y1375920D01*
X5077380Y1373580D01*
X5080069Y1370890D01*
X5082420Y1367890D01*
X5084390Y1364640D01*
X5085950Y1361170D01*
X5087079Y1357539D01*
X5087759Y1353800D01*
X5087990Y1350000D01*
X5087759Y1346199D01*
X5087079Y1342460D01*
X5085950Y1338829D01*
X5084390Y1335359D01*
X5082420Y1332109D01*
X5080069Y1329109D01*
X5077380Y1326430D01*
X5074390Y1324079D01*
X5071130Y1322109D01*
X5067669Y1320549D01*
X5064030Y1319420D01*
X5060290Y1318730D01*
X5056499Y1318499D01*
G37*
G01*
X5025000Y1450000D03*
G36*
X4993500Y1518499D02*
G01*
X4989709Y1518730D01*
X4985969Y1519420D01*
X4982340Y1520549D01*
X4978869Y1522109D01*
X4975609Y1524079D01*
X4972619Y1526430D01*
X4969930Y1529109D01*
X4967579Y1532109D01*
X4965619Y1535359D01*
X4964059Y1538829D01*
X4962920Y1542460D01*
X4962240Y1546199D01*
X4962010Y1550000D01*
X4962240Y1553800D01*
X4962920Y1557539D01*
X4964059Y1561170D01*
X4965619Y1564640D01*
X4967579Y1567890D01*
X4969930Y1570890D01*
X4972619Y1573580D01*
X4975609Y1575920D01*
X4978869Y1577890D01*
X4982340Y1579450D01*
X4985969Y1580580D01*
X4989709Y1581269D01*
X4993500Y1581500D01*
X5056499Y1581500D01*
X5060290Y1581269D01*
X5064030Y1580580D01*
X5067669Y1579450D01*
X5071130Y1577890D01*
X5074390Y1575920D01*
X5077380Y1573580D01*
X5080069Y1570890D01*
X5082420Y1567890D01*
X5084390Y1564640D01*
X5085950Y1561170D01*
X5087079Y1557539D01*
X5087759Y1553800D01*
X5087990Y1550000D01*
X5087759Y1546199D01*
X5087079Y1542460D01*
X5085950Y1538829D01*
X5084390Y1535359D01*
X5082420Y1532109D01*
X5080069Y1529109D01*
X5077380Y1526430D01*
X5074390Y1524079D01*
X5071130Y1522109D01*
X5067669Y1520549D01*
X5064030Y1519420D01*
X5060290Y1518730D01*
X5056499Y1518499D01*
G37*
G36*
X4993500Y1618499D02*
G01*
X4989709Y1618730D01*
X4985969Y1619420D01*
X4982340Y1620549D01*
X4978869Y1622109D01*
X4975609Y1624079D01*
X4972619Y1626430D01*
X4969930Y1629109D01*
X4967579Y1632109D01*
X4965619Y1635359D01*
X4964059Y1638829D01*
X4962920Y1642460D01*
X4962240Y1646199D01*
X4962010Y1650000D01*
X4962240Y1653800D01*
X4962920Y1657539D01*
X4964059Y1661170D01*
X4965619Y1664640D01*
X4967579Y1667890D01*
X4969930Y1670890D01*
X4972619Y1673580D01*
X4975609Y1675920D01*
X4978869Y1677890D01*
X4982340Y1679450D01*
X4985969Y1680580D01*
X4989709Y1681269D01*
X4993500Y1681500D01*
X5056499Y1681500D01*
X5060290Y1681269D01*
X5064030Y1680580D01*
X5067669Y1679450D01*
X5071130Y1677890D01*
X5074390Y1675920D01*
X5077380Y1673580D01*
X5080069Y1670890D01*
X5082420Y1667890D01*
X5084390Y1664640D01*
X5085950Y1661170D01*
X5087079Y1657539D01*
X5087759Y1653800D01*
X5087990Y1650000D01*
X5087759Y1646199D01*
X5087079Y1642460D01*
X5085950Y1638829D01*
X5084390Y1635359D01*
X5082420Y1632109D01*
X5080069Y1629109D01*
X5077380Y1626430D01*
X5074390Y1624079D01*
X5071130Y1622109D01*
X5067669Y1620549D01*
X5064030Y1619420D01*
X5060290Y1618730D01*
X5056499Y1618499D01*
G37*
G36*
X4993500Y1718499D02*
G01*
X4989709Y1718730D01*
X4985969Y1719420D01*
X4982340Y1720549D01*
X4978869Y1722109D01*
X4975609Y1724079D01*
X4972619Y1726419D01*
X4969930Y1729109D01*
X4967579Y1732109D01*
X4965619Y1735359D01*
X4964059Y1738829D01*
X4962920Y1742460D01*
X4962240Y1746199D01*
X4962010Y1750000D01*
X4962240Y1753800D01*
X4962920Y1757539D01*
X4964059Y1761170D01*
X4965619Y1764640D01*
X4967579Y1767890D01*
X4969930Y1770890D01*
X4972619Y1773569D01*
X4975609Y1775920D01*
X4978869Y1777890D01*
X4982340Y1779450D01*
X4985969Y1780580D01*
X4989709Y1781269D01*
X4993500Y1781500D01*
X5056499Y1781500D01*
X5060290Y1781269D01*
X5064030Y1780580D01*
X5067669Y1779450D01*
X5071130Y1777890D01*
X5074390Y1775920D01*
X5077380Y1773569D01*
X5080069Y1770890D01*
X5082420Y1767890D01*
X5084390Y1764640D01*
X5085950Y1761170D01*
X5087079Y1757539D01*
X5087759Y1753800D01*
X5087990Y1750000D01*
X5087759Y1746199D01*
X5087079Y1742460D01*
X5085950Y1738829D01*
X5084390Y1735359D01*
X5082420Y1732109D01*
X5080069Y1729109D01*
X5077380Y1726419D01*
X5074390Y1724079D01*
X5071130Y1722109D01*
X5067669Y1720549D01*
X5064030Y1719420D01*
X5060290Y1718730D01*
X5056499Y1718499D01*
G37*
G36*
X4993500Y1818499D02*
G01*
X4989709Y1818730D01*
X4985969Y1819420D01*
X4982340Y1820549D01*
X4978869Y1822109D01*
X4975609Y1824079D01*
X4972619Y1826419D01*
X4969930Y1829109D01*
X4967579Y1832109D01*
X4965619Y1835359D01*
X4964059Y1838829D01*
X4962920Y1842460D01*
X4962240Y1846199D01*
X4962010Y1850000D01*
X4962240Y1853800D01*
X4962920Y1857539D01*
X4964059Y1861170D01*
X4965619Y1864640D01*
X4967579Y1867890D01*
X4969930Y1870890D01*
X4972619Y1873569D01*
X4975609Y1875920D01*
X4978869Y1877890D01*
X4982340Y1879450D01*
X4985969Y1880580D01*
X4989709Y1881269D01*
X4993500Y1881500D01*
X5056499Y1881500D01*
X5060290Y1881269D01*
X5064030Y1880580D01*
X5067669Y1879450D01*
X5071130Y1877890D01*
X5074390Y1875920D01*
X5077380Y1873569D01*
X5080069Y1870890D01*
X5082420Y1867890D01*
X5084390Y1864640D01*
X5085950Y1861170D01*
X5087079Y1857539D01*
X5087759Y1853800D01*
X5087990Y1850000D01*
X5087759Y1846199D01*
X5087079Y1842460D01*
X5085950Y1838829D01*
X5084390Y1835359D01*
X5082420Y1832109D01*
X5080069Y1829109D01*
X5077380Y1826419D01*
X5074390Y1824079D01*
X5071130Y1822109D01*
X5067669Y1820549D01*
X5064030Y1819420D01*
X5060290Y1818730D01*
X5056499Y1818499D01*
G37*
G01*
X5025000Y1950000D03*
G36*
X4993500Y2018499D02*
G01*
X4989709Y2018730D01*
X4985969Y2019420D01*
X4982340Y2020549D01*
X4978869Y2022109D01*
X4975609Y2024079D01*
X4972619Y2026419D01*
X4969930Y2029109D01*
X4967579Y2032109D01*
X4965619Y2035359D01*
X4964059Y2038829D01*
X4962920Y2042460D01*
X4962240Y2046199D01*
X4962010Y2050000D01*
X4962240Y2053800D01*
X4962920Y2057539D01*
X4964059Y2061170D01*
X4965619Y2064640D01*
X4967579Y2067890D01*
X4969930Y2070890D01*
X4972619Y2073569D01*
X4975609Y2075920D01*
X4978869Y2077890D01*
X4982340Y2079450D01*
X4985969Y2080580D01*
X4989709Y2081269D01*
X4993500Y2081500D01*
X5056499Y2081500D01*
X5060290Y2081269D01*
X5064030Y2080580D01*
X5067669Y2079450D01*
X5071130Y2077890D01*
X5074390Y2075920D01*
X5077380Y2073569D01*
X5080069Y2070890D01*
X5082420Y2067890D01*
X5084390Y2064640D01*
X5085950Y2061170D01*
X5087079Y2057539D01*
X5087759Y2053800D01*
X5087990Y2050000D01*
X5087759Y2046199D01*
X5087079Y2042460D01*
X5085950Y2038829D01*
X5084390Y2035359D01*
X5082420Y2032109D01*
X5080069Y2029109D01*
X5077380Y2026419D01*
X5074390Y2024079D01*
X5071130Y2022109D01*
X5067669Y2020549D01*
X5064030Y2019420D01*
X5060290Y2018730D01*
X5056499Y2018499D01*
G37*
G36*
X4993500Y2118499D02*
G01*
X4989709Y2118730D01*
X4985969Y2119420D01*
X4982340Y2120549D01*
X4978869Y2122109D01*
X4975609Y2124079D01*
X4972619Y2126419D01*
X4969930Y2129109D01*
X4967579Y2132109D01*
X4965619Y2135359D01*
X4964059Y2138829D01*
X4962920Y2142460D01*
X4962240Y2146199D01*
X4962010Y2150000D01*
X4962240Y2153800D01*
X4962920Y2157539D01*
X4964059Y2161170D01*
X4965619Y2164640D01*
X4967579Y2167890D01*
X4969930Y2170880D01*
X4972619Y2173569D01*
X4975609Y2175920D01*
X4978869Y2177890D01*
X4982340Y2179450D01*
X4985969Y2180580D01*
X4989709Y2181269D01*
X4993500Y2181500D01*
X5056499Y2181500D01*
X5060290Y2181269D01*
X5064030Y2180580D01*
X5067669Y2179450D01*
X5071130Y2177890D01*
X5074390Y2175920D01*
X5077380Y2173569D01*
X5080069Y2170880D01*
X5082420Y2167890D01*
X5084390Y2164640D01*
X5085950Y2161170D01*
X5087079Y2157539D01*
X5087759Y2153800D01*
X5087990Y2150000D01*
X5087759Y2146199D01*
X5087079Y2142460D01*
X5085950Y2138829D01*
X5084390Y2135359D01*
X5082420Y2132109D01*
X5080069Y2129109D01*
X5077380Y2126419D01*
X5074390Y2124079D01*
X5071130Y2122109D01*
X5067669Y2120549D01*
X5064030Y2119420D01*
X5060290Y2118730D01*
X5056499Y2118499D01*
G37*
G36*
X4993500Y2218499D02*
G01*
X4989709Y2218730D01*
X4985969Y2219420D01*
X4982340Y2220549D01*
X4978869Y2222109D01*
X4975609Y2224079D01*
X4972619Y2226419D01*
X4969930Y2229109D01*
X4967579Y2232109D01*
X4965619Y2235359D01*
X4964059Y2238829D01*
X4962920Y2242460D01*
X4962240Y2246199D01*
X4962010Y2250000D01*
X4962240Y2253800D01*
X4962920Y2257539D01*
X4964059Y2261170D01*
X4965619Y2264640D01*
X4967579Y2267890D01*
X4969930Y2270880D01*
X4972619Y2273569D01*
X4975609Y2275920D01*
X4978869Y2277890D01*
X4982340Y2279450D01*
X4985969Y2280580D01*
X4989709Y2281269D01*
X4993500Y2281489D01*
X5056499Y2281489D01*
X5060290Y2281269D01*
X5064030Y2280580D01*
X5067669Y2279450D01*
X5071130Y2277890D01*
X5074390Y2275920D01*
X5077380Y2273569D01*
X5080069Y2270880D01*
X5082420Y2267890D01*
X5084390Y2264640D01*
X5085950Y2261170D01*
X5087079Y2257539D01*
X5087759Y2253800D01*
X5087990Y2250000D01*
X5087759Y2246199D01*
X5087079Y2242460D01*
X5085950Y2238829D01*
X5084390Y2235359D01*
X5082420Y2232109D01*
X5080069Y2229109D01*
X5077380Y2226419D01*
X5074390Y2224079D01*
X5071130Y2222109D01*
X5067669Y2220549D01*
X5064030Y2219420D01*
X5060290Y2218730D01*
X5056499Y2218499D01*
G37*
G36*
X4993500Y2318499D02*
G01*
X4989709Y2318730D01*
X4985969Y2319420D01*
X4982340Y2320549D01*
X4978869Y2322109D01*
X4975609Y2324079D01*
X4972619Y2326419D01*
X4969930Y2329109D01*
X4967579Y2332109D01*
X4965619Y2335359D01*
X4964059Y2338829D01*
X4962920Y2342460D01*
X4962240Y2346199D01*
X4962010Y2350000D01*
X4962240Y2353800D01*
X4962920Y2357539D01*
X4964059Y2361170D01*
X4965619Y2364640D01*
X4967579Y2367890D01*
X4969930Y2370880D01*
X4972619Y2373569D01*
X4975609Y2375920D01*
X4978869Y2377890D01*
X4982340Y2379450D01*
X4985969Y2380580D01*
X4989709Y2381269D01*
X4993500Y2381489D01*
X5056499Y2381489D01*
X5060290Y2381269D01*
X5064030Y2380580D01*
X5067669Y2379450D01*
X5071130Y2377890D01*
X5074390Y2375920D01*
X5077380Y2373569D01*
X5080069Y2370880D01*
X5082420Y2367890D01*
X5084390Y2364640D01*
X5085950Y2361170D01*
X5087079Y2357539D01*
X5087759Y2353800D01*
X5087990Y2350000D01*
X5087759Y2346199D01*
X5087079Y2342460D01*
X5085950Y2338829D01*
X5084390Y2335359D01*
X5082420Y2332109D01*
X5080069Y2329109D01*
X5077380Y2326419D01*
X5074390Y2324079D01*
X5071130Y2322109D01*
X5067669Y2320549D01*
X5064030Y2319420D01*
X5060290Y2318730D01*
X5056499Y2318499D01*
G37*
G01*
X5025000Y2449994D03*
G36*
X4993500Y2518499D02*
G01*
X4989709Y2518730D01*
X4985969Y2519420D01*
X4982340Y2520549D01*
X4978869Y2522109D01*
X4975609Y2524079D01*
X4972619Y2526419D01*
X4969930Y2529109D01*
X4967579Y2532109D01*
X4965619Y2535359D01*
X4964059Y2538829D01*
X4962920Y2542460D01*
X4962240Y2546199D01*
X4962010Y2550000D01*
X4962240Y2553789D01*
X4962920Y2557539D01*
X4964059Y2561170D01*
X4965619Y2564640D01*
X4967579Y2567890D01*
X4969930Y2570880D01*
X4972619Y2573569D01*
X4975609Y2575920D01*
X4978869Y2577890D01*
X4982340Y2579450D01*
X4985969Y2580580D01*
X4989709Y2581260D01*
X4993500Y2581489D01*
X5056499Y2581489D01*
X5060290Y2581260D01*
X5064030Y2580580D01*
X5067669Y2579450D01*
X5071130Y2577890D01*
X5074390Y2575920D01*
X5077380Y2573569D01*
X5080069Y2570880D01*
X5082420Y2567890D01*
X5084390Y2564640D01*
X5085950Y2561170D01*
X5087079Y2557539D01*
X5087759Y2553789D01*
X5087990Y2550000D01*
X5087759Y2546199D01*
X5087079Y2542460D01*
X5085950Y2538829D01*
X5084390Y2535359D01*
X5082420Y2532109D01*
X5080069Y2529109D01*
X5077380Y2526419D01*
X5074390Y2524079D01*
X5071130Y2522109D01*
X5067669Y2520549D01*
X5064030Y2519420D01*
X5060290Y2518730D01*
X5056499Y2518499D01*
G37*
G36*
X4993500Y2618499D02*
G01*
X4989709Y2618730D01*
X4985969Y2619420D01*
X4982340Y2620549D01*
X4978869Y2622109D01*
X4975609Y2624079D01*
X4972619Y2626419D01*
X4969930Y2629109D01*
X4967579Y2632109D01*
X4965619Y2635359D01*
X4964059Y2638829D01*
X4962920Y2642460D01*
X4962240Y2646199D01*
X4962010Y2650000D01*
X4962240Y2653789D01*
X4962920Y2657539D01*
X4964059Y2661170D01*
X4965619Y2664640D01*
X4967579Y2667890D01*
X4969930Y2670880D01*
X4972619Y2673569D01*
X4975609Y2675920D01*
X4978869Y2677890D01*
X4982340Y2679450D01*
X4985969Y2680580D01*
X4989709Y2681260D01*
X4993500Y2681489D01*
X5056499Y2681489D01*
X5060290Y2681260D01*
X5064030Y2680580D01*
X5067669Y2679450D01*
X5071130Y2677890D01*
X5074390Y2675920D01*
X5077380Y2673569D01*
X5080069Y2670880D01*
X5082420Y2667890D01*
X5084390Y2664640D01*
X5085950Y2661170D01*
X5087079Y2657539D01*
X5087759Y2653789D01*
X5087990Y2650000D01*
X5087759Y2646199D01*
X5087079Y2642460D01*
X5085950Y2638829D01*
X5084390Y2635359D01*
X5082420Y2632109D01*
X5080069Y2629109D01*
X5077380Y2626419D01*
X5074390Y2624079D01*
X5071130Y2622109D01*
X5067669Y2620549D01*
X5064030Y2619420D01*
X5060290Y2618730D01*
X5056499Y2618499D01*
G37*
G36*
X5368500Y781500D02*
G01*
X5368729Y785290D01*
X5369420Y789040D01*
X5370550Y792669D01*
X5372110Y796129D01*
X5374080Y799389D01*
X5376419Y802379D01*
X5379110Y805070D01*
X5382110Y807420D01*
X5385360Y809389D01*
X5388829Y810949D01*
X5392460Y812080D01*
X5396199Y812759D01*
X5400000Y812990D01*
X5403800Y812759D01*
X5407539Y812080D01*
X5411170Y810949D01*
X5414639Y809389D01*
X5417889Y807420D01*
X5420889Y805070D01*
X5423580Y802379D01*
X5425919Y799389D01*
X5427889Y796129D01*
X5429449Y792669D01*
X5430580Y789040D01*
X5431270Y785290D01*
X5431499Y781500D01*
X5431499Y718510D01*
X5431270Y714709D01*
X5430580Y710970D01*
X5429449Y707339D01*
X5427889Y703870D01*
X5425919Y700610D01*
X5423580Y697620D01*
X5420889Y694929D01*
X5417889Y692590D01*
X5414639Y690619D01*
X5411170Y689059D01*
X5407539Y687929D01*
X5403800Y687240D01*
X5400000Y687009D01*
X5396199Y687240D01*
X5392460Y687929D01*
X5388829Y689059D01*
X5385360Y690619D01*
X5382110Y692590D01*
X5379110Y694929D01*
X5376419Y697620D01*
X5374080Y700610D01*
X5372110Y703870D01*
X5370550Y707339D01*
X5369420Y710970D01*
X5368729Y714709D01*
X5368500Y718510D01*
G37*
G36*
X5268500Y781500D02*
G01*
X5268729Y785290D01*
X5269420Y789040D01*
X5270550Y792669D01*
X5272110Y796129D01*
X5274080Y799389D01*
X5276430Y802379D01*
X5279110Y805070D01*
X5282110Y807420D01*
X5285360Y809389D01*
X5288829Y810949D01*
X5292460Y812080D01*
X5296199Y812759D01*
X5300000Y812990D01*
X5303800Y812759D01*
X5307539Y812080D01*
X5311170Y810949D01*
X5314639Y809389D01*
X5317889Y807420D01*
X5320889Y805070D01*
X5323580Y802379D01*
X5325919Y799389D01*
X5327889Y796129D01*
X5329449Y792669D01*
X5330580Y789040D01*
X5331270Y785290D01*
X5331499Y781500D01*
X5331499Y718510D01*
X5331270Y714709D01*
X5330580Y710970D01*
X5329449Y707339D01*
X5327889Y703870D01*
X5325919Y700610D01*
X5323580Y697620D01*
X5320889Y694929D01*
X5317889Y692590D01*
X5314639Y690619D01*
X5311170Y689059D01*
X5307539Y687929D01*
X5303800Y687240D01*
X5300000Y687009D01*
X5296199Y687240D01*
X5292460Y687929D01*
X5288829Y689059D01*
X5285360Y690619D01*
X5282110Y692590D01*
X5279110Y694929D01*
X5276430Y697620D01*
X5274080Y700610D01*
X5272110Y703870D01*
X5270550Y707339D01*
X5269420Y710970D01*
X5268729Y714709D01*
X5268500Y718510D01*
G37*
G36*
X5468500Y781500D02*
G01*
X5468729Y785290D01*
X5469420Y789040D01*
X5470550Y792669D01*
X5472110Y796129D01*
X5474080Y799389D01*
X5476419Y802379D01*
X5479110Y805070D01*
X5482110Y807420D01*
X5485360Y809389D01*
X5488829Y810949D01*
X5492460Y812080D01*
X5496199Y812759D01*
X5500000Y812990D01*
X5503800Y812759D01*
X5507539Y812080D01*
X5511170Y810949D01*
X5514639Y809389D01*
X5517889Y807420D01*
X5520889Y805070D01*
X5523570Y802379D01*
X5525919Y799389D01*
X5527889Y796129D01*
X5529449Y792669D01*
X5530580Y789040D01*
X5531270Y785290D01*
X5531499Y781500D01*
X5531499Y718510D01*
X5531270Y714709D01*
X5530580Y710970D01*
X5529449Y707339D01*
X5527889Y703870D01*
X5525919Y700610D01*
X5523570Y697620D01*
X5520889Y694929D01*
X5517889Y692590D01*
X5514639Y690619D01*
X5511170Y689059D01*
X5507539Y687929D01*
X5503800Y687240D01*
X5500000Y687009D01*
X5496199Y687240D01*
X5492460Y687929D01*
X5488829Y689059D01*
X5485360Y690619D01*
X5482110Y692590D01*
X5479110Y694929D01*
X5476419Y697620D01*
X5474080Y700610D01*
X5472110Y703870D01*
X5470550Y707339D01*
X5469420Y710970D01*
X5468729Y714709D01*
X5468500Y718510D01*
G37*
D10*
G01*
X541350Y3050000D03*
G01*
X458649Y3050000D03*
G01*
X541350Y2950000D03*
G01*
X458649Y2950000D03*
G01*
X541350Y2850000D03*
G01*
X458649Y2850000D03*
G01*
X541350Y2750000D03*
G01*
X458649Y2750000D03*
M02*
