M48
INCH,LZ
;FILE_FORMAT=2:4
;TYPE=PLATED
;Layer: PTH_Through
;EasyEDA v6.5.20, 2022-11-29 04:13:21
;a67cddfb3fce44daa9051d46cbbcc19f,10
;Gerber Generator version 0.2
;Holesize 1 = 0.0280 inch
T01C0.0280
;Holesize 2 = 0.0320 inch
T02C0.0320
;Holesize 3 = 0.0350 inch
T03C0.0350
;Holesize 4 = 0.0390 inch
T04C0.0390
;Holesize 5 = 0.0470 inch
T05C0.0470
;Holesize 6 = 0.0590 inch
T06C0.0590
;Holesize 7 = 0.0790 inch
T07C0.0790
%
G05
G90
T01
X035000Y004500
X034000Y004500
X033000Y004500
X032000Y004500
X031000Y004500
X030000Y004500
X029000Y004500
X029000Y001500
X030000Y001500
X031000Y001500
X032000Y001500
X033000Y001500
X034000Y001500
X035000Y001500
T02
X028000Y016500
X022000Y016500
X028000Y017500
X022000Y017500
X028000Y018500
X022000Y018500
X028000Y019500
X022000Y019500
X028000Y020500
X022000Y020500
X028000Y021500
X022000Y021500
X028000Y022500
X022000Y022500
X028000Y023500
X022000Y023500
X028000Y024500
X022000Y024500
X028000Y025500
X022000Y025500
X028000Y026500
X022000Y026500
X028000Y027500
X022000Y027500
X028000Y028500
X022000Y028500
X028000Y029500
X022000Y029500
T03
X046000Y024000
X046000Y023000
X046000Y022000
X046000Y025000
X046000Y026000
X046000Y021000
X046000Y027000
X046000Y020000
X046000Y028000
X046000Y019000
X046000Y018000
X046000Y017000
X046000Y029000
X046000Y030000
X046000Y016000
X046000Y015000
X046000Y014000
X046000Y031000
X046000Y032000
X046000Y033000
X040000Y024000
X040000Y033000
X040000Y032000
X040000Y031000
X040000Y030000
X040000Y029000
X040000Y028000
X040000Y027000
X040000Y026000
X040000Y025000
X040000Y023000
X040000Y022000
X040000Y021000
X040000Y020000
X040000Y019000
X040000Y018000
X040000Y017000
X040000Y016000
X040000Y015000
X040000Y014000
T04
X011500Y013500
X011500Y015500
X011500Y014500
X011500Y019500
X011500Y023500
X011500Y024500
X011500Y025500
X011500Y026500
X011500Y027500
X011500Y028500
X011500Y029500
X011500Y030500
X011500Y031500
X011500Y022500
X011500Y020500
X011500Y021500
X011500Y018500
X011500Y016500
X011500Y017500
X011500Y012500
X017500Y030500
X017500Y031500
X017500Y029500
X017500Y028500
X017500Y016500
X017500Y017500
X017500Y018500
X017500Y019500
X017500Y015500
X017500Y014500
X017500Y013500
X017500Y012500
X017500Y023500
X017500Y022500
X017500Y021500
X017500Y020500
X017500Y024500
X017500Y025500
X017500Y026500
X017500Y027500
T05
X030929Y016000
X030929Y017000
X030929Y018000
X030929Y019000
X030929Y020000
X030929Y021000
X030929Y022000
X030929Y023000
X030929Y024000
X030929Y025000
X030929Y026000
X030929Y027000
X030929Y028000
X030929Y029000
X037071Y029000
X037071Y028000
X037071Y027000
X037071Y026000
X037071Y025000
X037071Y024000
X037071Y023000
X037071Y021000
X037071Y020000
X037071Y019000
X037071Y018000
X037071Y017000
X037071Y022000
X037071Y016000
T06
X031961Y035000
X027039Y035000
X031961Y037000
X027039Y037000
T07
X047500Y038000
X043500Y038000
M30
