G04 Layer: TopPasteMaskLayer*
G04 EasyEDA v6.5.20, 2022-11-29 04:13:21*
G04 a67cddfb3fce44daa9051d46cbbcc19f,10*
G04 Gerber Generator version 0.2*
G04 Scale: 100 percent, Rotated: No, Reflected: No *
G04 Dimensions in inches *
G04 leading zeros omitted , absolute positions ,3 integer and 6 decimal *
%FSLAX36Y36*%
%MOIN*%

%AMMACRO1*4,1,4,-0.063,-0.0315,-0.063,0.0315,0.063,0.0315,0.063,-0.0315,-0.063,-0.0315,0*%
%ADD10R,0.0315X0.0394*%
%ADD11R,0.0512X0.0551*%
%ADD12MACRO1*%

%LPD*%
G36*
X6269680Y877159D02*
G01*
X6267720Y875200D01*
X6267920Y858660D01*
X6285240Y858660D01*
X6285240Y840939D01*
X6267519Y840939D01*
X6267720Y824800D01*
X6269680Y822840D01*
X6314960Y822840D01*
X6316940Y824800D01*
X6316940Y875200D01*
X6314960Y877159D01*
G37*
G36*
X6185040Y877159D02*
G01*
X6183080Y875200D01*
X6183080Y824800D01*
X6185040Y822840D01*
X6230320Y822840D01*
X6232279Y824800D01*
X6232080Y840939D01*
X6214760Y840939D01*
X6214760Y858660D01*
X6232279Y858660D01*
X6232279Y875200D01*
X6230320Y877159D01*
G37*
G36*
X4169680Y1077160D02*
G01*
X4167720Y1075200D01*
X4167919Y1058660D01*
X4185240Y1058660D01*
X4185240Y1040939D01*
X4167520Y1040939D01*
X4167720Y1024800D01*
X4169680Y1022840D01*
X4214960Y1022840D01*
X4216940Y1024800D01*
X4216940Y1075200D01*
X4214960Y1077160D01*
G37*
G36*
X4085040Y1077160D02*
G01*
X4083080Y1075200D01*
X4083080Y1024800D01*
X4085040Y1022840D01*
X4130320Y1022840D01*
X4132280Y1024800D01*
X4132080Y1040939D01*
X4114760Y1040939D01*
X4114760Y1058660D01*
X4132280Y1058660D01*
X4132280Y1075200D01*
X4130320Y1077160D01*
G37*
G36*
X4469680Y927159D02*
G01*
X4467720Y925200D01*
X4467920Y908660D01*
X4485240Y908660D01*
X4485240Y890939D01*
X4467520Y890939D01*
X4467720Y874800D01*
X4469680Y872840D01*
X4514960Y872840D01*
X4516940Y874800D01*
X4516940Y925200D01*
X4514960Y927159D01*
G37*
G36*
X4385040Y927159D02*
G01*
X4383080Y925200D01*
X4383080Y874800D01*
X4385040Y872840D01*
X4430320Y872840D01*
X4432280Y874800D01*
X4432080Y890939D01*
X4414760Y890939D01*
X4414760Y908660D01*
X4432280Y908660D01*
X4432280Y925200D01*
X4430320Y927159D01*
G37*
G36*
X5320940Y462480D02*
G01*
X5304800Y462280D01*
X5302840Y460319D01*
X5302840Y415040D01*
X5304800Y413060D01*
X5355200Y413060D01*
X5357160Y415040D01*
X5357160Y460319D01*
X5355200Y462280D01*
X5338660Y462080D01*
X5338660Y444760D01*
X5320940Y444760D01*
G37*
G36*
X5304800Y546920D02*
G01*
X5302840Y544960D01*
X5302840Y499680D01*
X5304800Y497720D01*
X5320940Y497920D01*
X5320940Y515240D01*
X5338660Y515240D01*
X5338660Y497720D01*
X5355200Y497720D01*
X5357160Y499680D01*
X5357160Y544960D01*
X5355200Y546920D01*
G37*
G36*
X4685040Y2677160D02*
G01*
X4683060Y2675200D01*
X4683060Y2624800D01*
X4685040Y2622840D01*
X4730320Y2622840D01*
X4732280Y2624800D01*
X4732080Y2641340D01*
X4714760Y2641340D01*
X4714760Y2659060D01*
X4732480Y2659060D01*
X4732280Y2675200D01*
X4730320Y2677160D01*
G37*
G36*
X4769680Y2677160D02*
G01*
X4767720Y2675200D01*
X4767920Y2659060D01*
X4785240Y2659060D01*
X4785240Y2641340D01*
X4767720Y2641340D01*
X4767720Y2624800D01*
X4769680Y2622840D01*
X4814960Y2622840D01*
X4816920Y2624800D01*
X4816920Y2675200D01*
X4814960Y2677160D01*
G37*
G36*
X4685040Y2577160D02*
G01*
X4683060Y2575200D01*
X4683060Y2524800D01*
X4685040Y2522840D01*
X4730320Y2522840D01*
X4732280Y2524800D01*
X4732080Y2541340D01*
X4714760Y2541340D01*
X4714760Y2559060D01*
X4732480Y2559060D01*
X4732280Y2575200D01*
X4730320Y2577160D01*
G37*
G36*
X4769680Y2577160D02*
G01*
X4767720Y2575200D01*
X4767920Y2559060D01*
X4785240Y2559060D01*
X4785240Y2541340D01*
X4767720Y2541340D01*
X4767720Y2524800D01*
X4769680Y2522840D01*
X4814960Y2522840D01*
X4816920Y2524800D01*
X4816920Y2575200D01*
X4814960Y2577160D01*
G37*
G36*
X4685040Y2377160D02*
G01*
X4683060Y2375200D01*
X4683060Y2324800D01*
X4685040Y2322840D01*
X4730320Y2322840D01*
X4732280Y2324800D01*
X4732080Y2341340D01*
X4714760Y2341340D01*
X4714760Y2359060D01*
X4732480Y2359060D01*
X4732280Y2375200D01*
X4730320Y2377160D01*
G37*
G36*
X4769680Y2377160D02*
G01*
X4767720Y2375200D01*
X4767920Y2359060D01*
X4785240Y2359060D01*
X4785240Y2341340D01*
X4767720Y2341340D01*
X4767720Y2324800D01*
X4769680Y2322840D01*
X4814960Y2322840D01*
X4816920Y2324800D01*
X4816920Y2375200D01*
X4814960Y2377160D01*
G37*
G36*
X4685040Y2277160D02*
G01*
X4683060Y2275200D01*
X4683060Y2224800D01*
X4685040Y2222840D01*
X4730320Y2222840D01*
X4732280Y2224800D01*
X4732080Y2241340D01*
X4714760Y2241340D01*
X4714760Y2259060D01*
X4732480Y2259060D01*
X4732280Y2275200D01*
X4730320Y2277160D01*
G37*
G36*
X4769680Y2277160D02*
G01*
X4767720Y2275200D01*
X4767920Y2259060D01*
X4785240Y2259060D01*
X4785240Y2241340D01*
X4767720Y2241340D01*
X4767720Y2224800D01*
X4769680Y2222840D01*
X4814960Y2222840D01*
X4816920Y2224800D01*
X4816920Y2275200D01*
X4814960Y2277160D01*
G37*
G36*
X4685040Y2177160D02*
G01*
X4683060Y2175200D01*
X4683060Y2124800D01*
X4685040Y2122840D01*
X4730320Y2122840D01*
X4732280Y2124800D01*
X4732080Y2141340D01*
X4714760Y2141340D01*
X4714760Y2159060D01*
X4732480Y2159060D01*
X4732280Y2175200D01*
X4730320Y2177160D01*
G37*
G36*
X4769680Y2177160D02*
G01*
X4767720Y2175200D01*
X4767920Y2159060D01*
X4785240Y2159060D01*
X4785240Y2141340D01*
X4767720Y2141340D01*
X4767720Y2124800D01*
X4769680Y2122840D01*
X4814960Y2122840D01*
X4816920Y2124800D01*
X4816920Y2175200D01*
X4814960Y2177160D01*
G37*
G36*
X4685040Y2077160D02*
G01*
X4683060Y2075200D01*
X4683060Y2024800D01*
X4685040Y2022840D01*
X4730320Y2022840D01*
X4732280Y2024800D01*
X4732080Y2041339D01*
X4714760Y2041339D01*
X4714760Y2059060D01*
X4732480Y2059060D01*
X4732280Y2075200D01*
X4730320Y2077160D01*
G37*
G36*
X4769680Y2077160D02*
G01*
X4767720Y2075200D01*
X4767920Y2059060D01*
X4785240Y2059060D01*
X4785240Y2041339D01*
X4767720Y2041339D01*
X4767720Y2024800D01*
X4769680Y2022840D01*
X4814960Y2022840D01*
X4816920Y2024800D01*
X4816920Y2075200D01*
X4814960Y2077160D01*
G37*
G36*
X4685040Y1877160D02*
G01*
X4683060Y1875200D01*
X4683060Y1824800D01*
X4685040Y1822840D01*
X4730320Y1822840D01*
X4732280Y1824800D01*
X4732080Y1841339D01*
X4714760Y1841339D01*
X4714760Y1859060D01*
X4732480Y1859060D01*
X4732280Y1875200D01*
X4730320Y1877160D01*
G37*
G36*
X4769680Y1877160D02*
G01*
X4767720Y1875200D01*
X4767920Y1859060D01*
X4785240Y1859060D01*
X4785240Y1841339D01*
X4767720Y1841339D01*
X4767720Y1824800D01*
X4769680Y1822840D01*
X4814960Y1822840D01*
X4816920Y1824800D01*
X4816920Y1875200D01*
X4814960Y1877160D01*
G37*
G36*
X4685040Y1777160D02*
G01*
X4683060Y1775200D01*
X4683060Y1724800D01*
X4685040Y1722840D01*
X4730320Y1722840D01*
X4732280Y1724800D01*
X4732080Y1741339D01*
X4714760Y1741339D01*
X4714760Y1759060D01*
X4732480Y1759060D01*
X4732280Y1775200D01*
X4730320Y1777160D01*
G37*
G36*
X4769680Y1777160D02*
G01*
X4767720Y1775200D01*
X4767920Y1759060D01*
X4785240Y1759060D01*
X4785240Y1741339D01*
X4767720Y1741339D01*
X4767720Y1724800D01*
X4769680Y1722840D01*
X4814960Y1722840D01*
X4816920Y1724800D01*
X4816920Y1775200D01*
X4814960Y1777160D01*
G37*
G36*
X4685040Y1677160D02*
G01*
X4683060Y1675200D01*
X4683060Y1624800D01*
X4685040Y1622840D01*
X4730320Y1622840D01*
X4732280Y1624800D01*
X4732080Y1641339D01*
X4714760Y1641339D01*
X4714760Y1659060D01*
X4732480Y1659060D01*
X4732280Y1675200D01*
X4730320Y1677160D01*
G37*
G36*
X4769680Y1677160D02*
G01*
X4767720Y1675200D01*
X4767920Y1659060D01*
X4785240Y1659060D01*
X4785240Y1641339D01*
X4767720Y1641339D01*
X4767720Y1624800D01*
X4769680Y1622840D01*
X4814960Y1622840D01*
X4816920Y1624800D01*
X4816920Y1675200D01*
X4814960Y1677160D01*
G37*
G36*
X4685040Y1577160D02*
G01*
X4683060Y1575200D01*
X4683060Y1524800D01*
X4685040Y1522840D01*
X4730320Y1522840D01*
X4732280Y1524800D01*
X4732080Y1541339D01*
X4714760Y1541339D01*
X4714760Y1559060D01*
X4732480Y1559060D01*
X4732280Y1575200D01*
X4730320Y1577160D01*
G37*
G36*
X4769680Y1577160D02*
G01*
X4767720Y1575200D01*
X4767920Y1559060D01*
X4785240Y1559060D01*
X4785240Y1541339D01*
X4767720Y1541339D01*
X4767720Y1524800D01*
X4769680Y1522840D01*
X4814960Y1522840D01*
X4816920Y1524800D01*
X4816920Y1575200D01*
X4814960Y1577160D01*
G37*
G36*
X4685040Y1477160D02*
G01*
X4683060Y1475200D01*
X4683060Y1424800D01*
X4685040Y1422840D01*
X4730320Y1422840D01*
X4732280Y1424800D01*
X4732080Y1441339D01*
X4714760Y1441339D01*
X4714760Y1459060D01*
X4732480Y1459060D01*
X4732280Y1475200D01*
X4730320Y1477160D01*
G37*
G36*
X4769680Y1477160D02*
G01*
X4767720Y1475200D01*
X4767920Y1459060D01*
X4785240Y1459060D01*
X4785240Y1441339D01*
X4767720Y1441339D01*
X4767720Y1424800D01*
X4769680Y1422840D01*
X4814960Y1422840D01*
X4816920Y1424800D01*
X4816920Y1475200D01*
X4814960Y1477160D01*
G37*
G36*
X4685040Y1377160D02*
G01*
X4683060Y1375200D01*
X4683060Y1324800D01*
X4685040Y1322840D01*
X4730320Y1322840D01*
X4732280Y1324800D01*
X4732080Y1341339D01*
X4714760Y1341339D01*
X4714760Y1359060D01*
X4732480Y1359060D01*
X4732280Y1375200D01*
X4730320Y1377160D01*
G37*
G36*
X4769680Y1377160D02*
G01*
X4767720Y1375200D01*
X4767920Y1359060D01*
X4785240Y1359060D01*
X4785240Y1341339D01*
X4767720Y1341339D01*
X4767720Y1324800D01*
X4769680Y1322840D01*
X4814960Y1322840D01*
X4816920Y1324800D01*
X4816920Y1375200D01*
X4814960Y1377160D01*
G37*
G36*
X4785040Y1177160D02*
G01*
X4783060Y1175200D01*
X4783060Y1124800D01*
X4785040Y1122840D01*
X4830320Y1122840D01*
X4832280Y1124800D01*
X4832080Y1141340D01*
X4814760Y1141340D01*
X4814760Y1159060D01*
X4832480Y1159060D01*
X4832280Y1175200D01*
X4830320Y1177160D01*
G37*
G36*
X4869680Y1177160D02*
G01*
X4867720Y1175200D01*
X4867920Y1159060D01*
X4885240Y1159060D01*
X4885240Y1141340D01*
X4867720Y1141340D01*
X4867720Y1124800D01*
X4869680Y1122840D01*
X4914960Y1122840D01*
X4916920Y1124800D01*
X4916920Y1175200D01*
X4914960Y1177160D01*
G37*
G36*
X4785040Y1077160D02*
G01*
X4783060Y1075200D01*
X4783060Y1024800D01*
X4785040Y1022840D01*
X4830320Y1022840D01*
X4832280Y1024800D01*
X4832080Y1041340D01*
X4814760Y1041340D01*
X4814760Y1059060D01*
X4832480Y1059060D01*
X4832280Y1075200D01*
X4830320Y1077160D01*
G37*
G36*
X4869680Y1077160D02*
G01*
X4867720Y1075200D01*
X4867920Y1059060D01*
X4885240Y1059060D01*
X4885240Y1041340D01*
X4867720Y1041340D01*
X4867720Y1024800D01*
X4869680Y1022840D01*
X4914960Y1022840D01*
X4916920Y1024800D01*
X4916920Y1075200D01*
X4914960Y1077160D01*
G37*
G36*
X4795040Y877159D02*
G01*
X4793060Y875200D01*
X4793060Y824800D01*
X4795040Y822840D01*
X4840320Y822840D01*
X4842280Y824800D01*
X4842080Y841340D01*
X4824760Y841340D01*
X4824760Y859060D01*
X4842480Y859060D01*
X4842280Y875200D01*
X4840320Y877159D01*
G37*
G36*
X4879680Y877159D02*
G01*
X4877720Y875200D01*
X4877920Y859060D01*
X4895240Y859060D01*
X4895240Y841340D01*
X4877720Y841340D01*
X4877720Y824800D01*
X4879680Y822840D01*
X4924960Y822840D01*
X4926920Y824800D01*
X4926920Y875200D01*
X4924960Y877159D01*
G37*
G36*
X4874800Y696940D02*
G01*
X4872840Y694960D01*
X4872840Y649680D01*
X4874800Y647720D01*
X4891340Y647920D01*
X4891340Y665240D01*
X4909060Y665240D01*
X4909060Y647520D01*
X4925200Y647720D01*
X4927160Y649680D01*
X4927160Y694960D01*
X4925200Y696940D01*
G37*
G36*
X4874800Y612280D02*
G01*
X4872840Y610320D01*
X4872840Y565040D01*
X4874800Y563080D01*
X4925200Y563080D01*
X4927160Y565040D01*
X4927160Y610320D01*
X4925200Y612280D01*
X4909060Y612080D01*
X4909060Y594760D01*
X4891340Y594760D01*
X4891340Y612280D01*
G37*
G36*
X4805040Y227160D02*
G01*
X4803060Y225200D01*
X4803060Y174800D01*
X4805040Y172840D01*
X4850320Y172840D01*
X4852280Y174800D01*
X4852080Y191340D01*
X4834760Y191340D01*
X4834760Y209060D01*
X4852480Y209060D01*
X4852280Y225200D01*
X4850320Y227160D01*
G37*
G36*
X4889680Y227160D02*
G01*
X4887720Y225200D01*
X4887920Y209060D01*
X4905240Y209060D01*
X4905240Y191340D01*
X4887720Y191340D01*
X4887720Y174800D01*
X4889680Y172840D01*
X4934960Y172840D01*
X4936920Y174800D01*
X4936920Y225200D01*
X4934960Y227160D01*
G37*
G36*
X4805040Y327160D02*
G01*
X4803060Y325200D01*
X4803060Y274800D01*
X4805040Y272840D01*
X4850320Y272840D01*
X4852280Y274800D01*
X4852080Y291340D01*
X4834760Y291340D01*
X4834760Y309060D01*
X4852480Y309060D01*
X4852280Y325200D01*
X4850320Y327160D01*
G37*
G36*
X4889680Y327160D02*
G01*
X4887720Y325200D01*
X4887920Y309060D01*
X4905240Y309060D01*
X4905240Y291340D01*
X4887720Y291340D01*
X4887720Y274800D01*
X4889680Y272840D01*
X4934960Y272840D01*
X4936920Y274800D01*
X4936920Y325200D01*
X4934960Y327160D01*
G37*
G36*
X4805040Y427160D02*
G01*
X4803060Y425200D01*
X4803060Y374799D01*
X4805040Y372840D01*
X4850320Y372840D01*
X4852280Y374799D01*
X4852080Y391340D01*
X4834760Y391340D01*
X4834760Y409060D01*
X4852480Y409060D01*
X4852280Y425200D01*
X4850320Y427160D01*
G37*
G36*
X4889680Y427160D02*
G01*
X4887720Y425200D01*
X4887920Y409060D01*
X4905240Y409060D01*
X4905240Y391340D01*
X4887720Y391340D01*
X4887720Y374799D01*
X4889680Y372840D01*
X4934960Y372840D01*
X4936920Y374799D01*
X4936920Y425200D01*
X4934960Y427160D01*
G37*
G36*
X4805040Y527160D02*
G01*
X4803060Y525200D01*
X4803060Y474799D01*
X4805040Y472840D01*
X4850320Y472840D01*
X4852280Y474799D01*
X4852080Y491340D01*
X4834760Y491340D01*
X4834760Y509060D01*
X4852480Y509060D01*
X4852280Y525200D01*
X4850320Y527160D01*
G37*
G36*
X4889680Y527160D02*
G01*
X4887720Y525200D01*
X4887920Y509060D01*
X4905240Y509060D01*
X4905240Y491340D01*
X4887720Y491340D01*
X4887720Y474799D01*
X4889680Y472840D01*
X4934960Y472840D01*
X4936920Y474799D01*
X4936920Y525200D01*
X4934960Y527160D01*
G37*
G36*
X4805040Y117160D02*
G01*
X4803060Y115200D01*
X4803060Y64800D01*
X4805040Y62840D01*
X4850320Y62840D01*
X4852280Y64800D01*
X4852080Y81340D01*
X4834760Y81340D01*
X4834760Y99060D01*
X4852480Y99060D01*
X4852280Y115200D01*
X4850320Y117160D01*
G37*
G36*
X4889680Y117160D02*
G01*
X4887720Y115200D01*
X4887920Y99060D01*
X4905240Y99060D01*
X4905240Y81340D01*
X4887720Y81340D01*
X4887720Y64800D01*
X4889680Y62840D01*
X4934960Y62840D01*
X4936920Y64800D01*
X4936920Y115200D01*
X4934960Y117160D01*
G37*
G36*
X5105040Y1477160D02*
G01*
X5103060Y1475200D01*
X5103060Y1424800D01*
X5105040Y1422840D01*
X5150320Y1422840D01*
X5152279Y1424800D01*
X5152080Y1441339D01*
X5134760Y1441339D01*
X5134760Y1459060D01*
X5152480Y1459060D01*
X5152279Y1475200D01*
X5150320Y1477160D01*
G37*
G36*
X5189680Y1477160D02*
G01*
X5187720Y1475200D01*
X5187920Y1459060D01*
X5205240Y1459060D01*
X5205240Y1441339D01*
X5187720Y1441339D01*
X5187720Y1424800D01*
X5189680Y1422840D01*
X5234960Y1422840D01*
X5236920Y1424800D01*
X5236920Y1475200D01*
X5234960Y1477160D01*
G37*
G36*
X5105040Y1627160D02*
G01*
X5103060Y1625200D01*
X5103060Y1574800D01*
X5105040Y1572840D01*
X5150320Y1572840D01*
X5152279Y1574800D01*
X5152080Y1591339D01*
X5134760Y1591339D01*
X5134760Y1609060D01*
X5152480Y1609060D01*
X5152279Y1625200D01*
X5150320Y1627160D01*
G37*
G36*
X5189680Y1627160D02*
G01*
X5187720Y1625200D01*
X5187920Y1609060D01*
X5205240Y1609060D01*
X5205240Y1591339D01*
X5187720Y1591339D01*
X5187720Y1574800D01*
X5189680Y1572840D01*
X5234960Y1572840D01*
X5236920Y1574800D01*
X5236920Y1625200D01*
X5234960Y1627160D01*
G37*
G36*
X5105040Y1727160D02*
G01*
X5103060Y1725200D01*
X5103060Y1674800D01*
X5105040Y1672840D01*
X5150320Y1672840D01*
X5152279Y1674800D01*
X5152080Y1691339D01*
X5134760Y1691339D01*
X5134760Y1709060D01*
X5152480Y1709060D01*
X5152279Y1725200D01*
X5150320Y1727160D01*
G37*
G36*
X5189680Y1727160D02*
G01*
X5187720Y1725200D01*
X5187920Y1709060D01*
X5205240Y1709060D01*
X5205240Y1691339D01*
X5187720Y1691339D01*
X5187720Y1674800D01*
X5189680Y1672840D01*
X5234960Y1672840D01*
X5236920Y1674800D01*
X5236920Y1725200D01*
X5234960Y1727160D01*
G37*
G36*
X6269680Y1977160D02*
G01*
X6267720Y1975200D01*
X6267920Y1958660D01*
X6285240Y1958660D01*
X6285240Y1940940D01*
X6267519Y1940940D01*
X6267720Y1924800D01*
X6269680Y1922840D01*
X6314960Y1922840D01*
X6316940Y1924800D01*
X6316940Y1975200D01*
X6314960Y1977160D01*
G37*
G36*
X6185040Y1977160D02*
G01*
X6183080Y1975200D01*
X6183080Y1924800D01*
X6185040Y1922840D01*
X6230320Y1922840D01*
X6232279Y1924800D01*
X6232080Y1940940D01*
X6214760Y1940940D01*
X6214760Y1958660D01*
X6232279Y1958660D01*
X6232279Y1975200D01*
X6230320Y1977160D01*
G37*
G36*
X6269680Y2177160D02*
G01*
X6267720Y2175200D01*
X6267920Y2158660D01*
X6285240Y2158660D01*
X6285240Y2140940D01*
X6267519Y2140940D01*
X6267720Y2124800D01*
X6269680Y2122840D01*
X6314960Y2122840D01*
X6316940Y2124800D01*
X6316940Y2175200D01*
X6314960Y2177160D01*
G37*
G36*
X6185040Y2177160D02*
G01*
X6183080Y2175200D01*
X6183080Y2124800D01*
X6185040Y2122840D01*
X6230320Y2122840D01*
X6232279Y2124800D01*
X6232080Y2140940D01*
X6214760Y2140940D01*
X6214760Y2158660D01*
X6232279Y2158660D01*
X6232279Y2175200D01*
X6230320Y2177160D01*
G37*
G36*
X6269680Y2277160D02*
G01*
X6267720Y2275200D01*
X6267920Y2258660D01*
X6285240Y2258660D01*
X6285240Y2240940D01*
X6267519Y2240940D01*
X6267720Y2224800D01*
X6269680Y2222840D01*
X6314960Y2222840D01*
X6316940Y2224800D01*
X6316940Y2275200D01*
X6314960Y2277160D01*
G37*
G36*
X6185040Y2277160D02*
G01*
X6183080Y2275200D01*
X6183080Y2224800D01*
X6185040Y2222840D01*
X6230320Y2222840D01*
X6232279Y2224800D01*
X6232080Y2240940D01*
X6214760Y2240940D01*
X6214760Y2258660D01*
X6232279Y2258660D01*
X6232279Y2275200D01*
X6230320Y2277160D01*
G37*
G36*
X6269680Y2377160D02*
G01*
X6267720Y2375200D01*
X6267920Y2358660D01*
X6285240Y2358660D01*
X6285240Y2340940D01*
X6267519Y2340940D01*
X6267720Y2324800D01*
X6269680Y2322840D01*
X6314960Y2322840D01*
X6316940Y2324800D01*
X6316940Y2375200D01*
X6314960Y2377160D01*
G37*
G36*
X6185040Y2377160D02*
G01*
X6183080Y2375200D01*
X6183080Y2324800D01*
X6185040Y2322840D01*
X6230320Y2322840D01*
X6232279Y2324800D01*
X6232080Y2340940D01*
X6214760Y2340940D01*
X6214760Y2358660D01*
X6232279Y2358660D01*
X6232279Y2375200D01*
X6230320Y2377160D01*
G37*
G36*
X6269680Y2447160D02*
G01*
X6267720Y2445200D01*
X6267920Y2428660D01*
X6285240Y2428660D01*
X6285240Y2410940D01*
X6267519Y2410940D01*
X6267720Y2394800D01*
X6269680Y2392840D01*
X6314960Y2392840D01*
X6316940Y2394800D01*
X6316940Y2445200D01*
X6314960Y2447160D01*
G37*
G36*
X6185040Y2447160D02*
G01*
X6183080Y2445200D01*
X6183080Y2394800D01*
X6185040Y2392840D01*
X6230320Y2392840D01*
X6232279Y2394800D01*
X6232080Y2410940D01*
X6214760Y2410940D01*
X6214760Y2428660D01*
X6232279Y2428660D01*
X6232279Y2445200D01*
X6230320Y2447160D01*
G37*
G36*
X6269680Y2527160D02*
G01*
X6267720Y2525200D01*
X6267920Y2508660D01*
X6285240Y2508660D01*
X6285240Y2490940D01*
X6267519Y2490940D01*
X6267720Y2474800D01*
X6269680Y2472840D01*
X6314960Y2472840D01*
X6316940Y2474800D01*
X6316940Y2525200D01*
X6314960Y2527160D01*
G37*
G36*
X6185040Y2527160D02*
G01*
X6183080Y2525200D01*
X6183080Y2474800D01*
X6185040Y2472840D01*
X6230320Y2472840D01*
X6232279Y2474800D01*
X6232080Y2490940D01*
X6214760Y2490940D01*
X6214760Y2508660D01*
X6232279Y2508660D01*
X6232279Y2525200D01*
X6230320Y2527160D01*
G37*
G36*
X4985040Y2777160D02*
G01*
X4983060Y2775200D01*
X4983060Y2724800D01*
X4985040Y2722840D01*
X5030320Y2722840D01*
X5032280Y2724800D01*
X5032080Y2741340D01*
X5014760Y2741340D01*
X5014760Y2759060D01*
X5032480Y2759060D01*
X5032280Y2775200D01*
X5030320Y2777160D01*
G37*
G36*
X5069680Y2777160D02*
G01*
X5067720Y2775200D01*
X5067920Y2759060D01*
X5085240Y2759060D01*
X5085240Y2741340D01*
X5067720Y2741340D01*
X5067720Y2724800D01*
X5069680Y2722840D01*
X5114960Y2722840D01*
X5116920Y2724800D01*
X5116920Y2775200D01*
X5114960Y2777160D01*
G37*
G36*
X6269680Y777159D02*
G01*
X6267720Y775200D01*
X6267920Y758660D01*
X6285240Y758660D01*
X6285240Y740939D01*
X6267519Y740939D01*
X6267720Y724800D01*
X6269680Y722840D01*
X6314960Y722840D01*
X6316940Y724800D01*
X6316940Y775200D01*
X6314960Y777159D01*
G37*
G36*
X6185040Y777159D02*
G01*
X6183080Y775200D01*
X6183080Y724800D01*
X6185040Y722840D01*
X6230320Y722840D01*
X6232279Y724800D01*
X6232080Y740939D01*
X6214760Y740939D01*
X6214760Y758660D01*
X6232279Y758660D01*
X6232279Y775200D01*
X6230320Y777159D01*
G37*
G36*
X6269680Y1077160D02*
G01*
X6267720Y1075200D01*
X6267920Y1058660D01*
X6285240Y1058660D01*
X6285240Y1040939D01*
X6267519Y1040939D01*
X6267720Y1024800D01*
X6269680Y1022840D01*
X6314960Y1022840D01*
X6316940Y1024800D01*
X6316940Y1075200D01*
X6314960Y1077160D01*
G37*
G36*
X6185040Y1077160D02*
G01*
X6183080Y1075200D01*
X6183080Y1024800D01*
X6185040Y1022840D01*
X6230320Y1022840D01*
X6232279Y1024800D01*
X6232080Y1040939D01*
X6214760Y1040939D01*
X6214760Y1058660D01*
X6232279Y1058660D01*
X6232279Y1075200D01*
X6230320Y1077160D01*
G37*
G36*
X6269680Y1177160D02*
G01*
X6267720Y1175200D01*
X6267920Y1158660D01*
X6285240Y1158660D01*
X6285240Y1140940D01*
X6267519Y1140940D01*
X6267720Y1124800D01*
X6269680Y1122840D01*
X6314960Y1122840D01*
X6316940Y1124800D01*
X6316940Y1175200D01*
X6314960Y1177160D01*
G37*
G36*
X6185040Y1177160D02*
G01*
X6183080Y1175200D01*
X6183080Y1124800D01*
X6185040Y1122840D01*
X6230320Y1122840D01*
X6232279Y1124800D01*
X6232080Y1140940D01*
X6214760Y1140940D01*
X6214760Y1158660D01*
X6232279Y1158660D01*
X6232279Y1175200D01*
X6230320Y1177160D01*
G37*
G36*
X6269680Y1277160D02*
G01*
X6267720Y1275200D01*
X6267920Y1258660D01*
X6285240Y1258660D01*
X6285240Y1240940D01*
X6267519Y1240940D01*
X6267720Y1224800D01*
X6269680Y1222840D01*
X6314960Y1222840D01*
X6316940Y1224800D01*
X6316940Y1275200D01*
X6314960Y1277160D01*
G37*
G36*
X6185040Y1277160D02*
G01*
X6183080Y1275200D01*
X6183080Y1224800D01*
X6185040Y1222840D01*
X6230320Y1222840D01*
X6232279Y1224800D01*
X6232080Y1240940D01*
X6214760Y1240940D01*
X6214760Y1258660D01*
X6232279Y1258660D01*
X6232279Y1275200D01*
X6230320Y1277160D01*
G37*
G36*
X6269680Y1377160D02*
G01*
X6267720Y1375200D01*
X6267920Y1358660D01*
X6285240Y1358660D01*
X6285240Y1340940D01*
X6267519Y1340940D01*
X6267720Y1324800D01*
X6269680Y1322840D01*
X6314960Y1322840D01*
X6316940Y1324800D01*
X6316940Y1375200D01*
X6314960Y1377160D01*
G37*
G36*
X6185040Y1377160D02*
G01*
X6183080Y1375200D01*
X6183080Y1324800D01*
X6185040Y1322840D01*
X6230320Y1322840D01*
X6232279Y1324800D01*
X6232080Y1340940D01*
X6214760Y1340940D01*
X6214760Y1358660D01*
X6232279Y1358660D01*
X6232279Y1375200D01*
X6230320Y1377160D01*
G37*
G36*
X6269680Y1577160D02*
G01*
X6267720Y1575200D01*
X6267920Y1558660D01*
X6285240Y1558660D01*
X6285240Y1540940D01*
X6267519Y1540940D01*
X6267720Y1524800D01*
X6269680Y1522840D01*
X6314960Y1522840D01*
X6316940Y1524800D01*
X6316940Y1575200D01*
X6314960Y1577160D01*
G37*
G36*
X6185040Y1577160D02*
G01*
X6183080Y1575200D01*
X6183080Y1524800D01*
X6185040Y1522840D01*
X6230320Y1522840D01*
X6232279Y1524800D01*
X6232080Y1540940D01*
X6214760Y1540940D01*
X6214760Y1558660D01*
X6232279Y1558660D01*
X6232279Y1575200D01*
X6230320Y1577160D01*
G37*
G36*
X6269680Y1777160D02*
G01*
X6267720Y1775200D01*
X6267920Y1758660D01*
X6285240Y1758660D01*
X6285240Y1740940D01*
X6267519Y1740940D01*
X6267720Y1724800D01*
X6269680Y1722840D01*
X6314960Y1722840D01*
X6316940Y1724800D01*
X6316940Y1775200D01*
X6314960Y1777160D01*
G37*
G36*
X6185040Y1777160D02*
G01*
X6183080Y1775200D01*
X6183080Y1724800D01*
X6185040Y1722840D01*
X6230320Y1722840D01*
X6232279Y1724800D01*
X6232080Y1740940D01*
X6214760Y1740940D01*
X6214760Y1758660D01*
X6232279Y1758660D01*
X6232279Y1775200D01*
X6230320Y1777160D01*
G37*
G36*
X6269680Y1877160D02*
G01*
X6267720Y1875200D01*
X6267920Y1858660D01*
X6285240Y1858660D01*
X6285240Y1840940D01*
X6267519Y1840940D01*
X6267720Y1824800D01*
X6269680Y1822840D01*
X6314960Y1822840D01*
X6316940Y1824800D01*
X6316940Y1875200D01*
X6314960Y1877160D01*
G37*
G36*
X6185040Y1877160D02*
G01*
X6183080Y1875200D01*
X6183080Y1824800D01*
X6185040Y1822840D01*
X6230320Y1822840D01*
X6232279Y1824800D01*
X6232080Y1840940D01*
X6214760Y1840940D01*
X6214760Y1858660D01*
X6232279Y1858660D01*
X6232279Y1875200D01*
X6230320Y1877160D01*
G37*
G36*
X6269680Y2077160D02*
G01*
X6267720Y2075200D01*
X6267920Y2058660D01*
X6285240Y2058660D01*
X6285240Y2040940D01*
X6267519Y2040940D01*
X6267720Y2024800D01*
X6269680Y2022840D01*
X6314960Y2022840D01*
X6316940Y2024800D01*
X6316940Y2075200D01*
X6314960Y2077160D01*
G37*
G36*
X6185040Y2077160D02*
G01*
X6183080Y2075200D01*
X6183080Y2024800D01*
X6185040Y2022840D01*
X6230320Y2022840D01*
X6232279Y2024800D01*
X6232080Y2040940D01*
X6214760Y2040940D01*
X6214760Y2058660D01*
X6232279Y2058660D01*
X6232279Y2075200D01*
X6230320Y2077160D01*
G37*
G36*
X5069680Y2627160D02*
G01*
X5067720Y2625200D01*
X5067920Y2608660D01*
X5085240Y2608660D01*
X5085240Y2590940D01*
X5067520Y2590940D01*
X5067720Y2574800D01*
X5069680Y2572840D01*
X5114960Y2572840D01*
X5116940Y2574800D01*
X5116940Y2625200D01*
X5114960Y2627160D01*
G37*
G36*
X4985040Y2627160D02*
G01*
X4983080Y2625200D01*
X4983080Y2574800D01*
X4985040Y2572840D01*
X5030320Y2572840D01*
X5032280Y2574800D01*
X5032080Y2590940D01*
X5014760Y2590940D01*
X5014760Y2608660D01*
X5032280Y2608660D01*
X5032280Y2625200D01*
X5030320Y2627160D01*
G37*
G36*
X5069680Y2527160D02*
G01*
X5067720Y2525200D01*
X5067920Y2508660D01*
X5085240Y2508660D01*
X5085240Y2490940D01*
X5067520Y2490940D01*
X5067720Y2474800D01*
X5069680Y2472840D01*
X5114960Y2472840D01*
X5116940Y2474800D01*
X5116940Y2525200D01*
X5114960Y2527160D01*
G37*
G36*
X4985040Y2527160D02*
G01*
X4983080Y2525200D01*
X4983080Y2474800D01*
X4985040Y2472840D01*
X5030320Y2472840D01*
X5032280Y2474800D01*
X5032080Y2490940D01*
X5014760Y2490940D01*
X5014760Y2508660D01*
X5032280Y2508660D01*
X5032280Y2525200D01*
X5030320Y2527160D01*
G37*
G36*
X5069680Y2427160D02*
G01*
X5067720Y2425200D01*
X5067920Y2408660D01*
X5085240Y2408660D01*
X5085240Y2390940D01*
X5067520Y2390940D01*
X5067720Y2374800D01*
X5069680Y2372840D01*
X5114960Y2372840D01*
X5116940Y2374800D01*
X5116940Y2425200D01*
X5114960Y2427160D01*
G37*
G36*
X4985040Y2427160D02*
G01*
X4983080Y2425200D01*
X4983080Y2374800D01*
X4985040Y2372840D01*
X5030320Y2372840D01*
X5032280Y2374800D01*
X5032080Y2390940D01*
X5014760Y2390940D01*
X5014760Y2408660D01*
X5032280Y2408660D01*
X5032280Y2425200D01*
X5030320Y2427160D01*
G37*
G36*
X5069680Y2327160D02*
G01*
X5067720Y2325200D01*
X5067920Y2308660D01*
X5085240Y2308660D01*
X5085240Y2290940D01*
X5067520Y2290940D01*
X5067720Y2274800D01*
X5069680Y2272840D01*
X5114960Y2272840D01*
X5116940Y2274800D01*
X5116940Y2325200D01*
X5114960Y2327160D01*
G37*
G36*
X4985040Y2327160D02*
G01*
X4983080Y2325200D01*
X4983080Y2274800D01*
X4985040Y2272840D01*
X5030320Y2272840D01*
X5032280Y2274800D01*
X5032080Y2290940D01*
X5014760Y2290940D01*
X5014760Y2308660D01*
X5032280Y2308660D01*
X5032280Y2325200D01*
X5030320Y2327160D01*
G37*
G36*
X5069680Y2227160D02*
G01*
X5067720Y2225200D01*
X5067920Y2208660D01*
X5085240Y2208660D01*
X5085240Y2190940D01*
X5067520Y2190940D01*
X5067720Y2174800D01*
X5069680Y2172840D01*
X5114960Y2172840D01*
X5116940Y2174800D01*
X5116940Y2225200D01*
X5114960Y2227160D01*
G37*
G36*
X4985040Y2227160D02*
G01*
X4983080Y2225200D01*
X4983080Y2174800D01*
X4985040Y2172840D01*
X5030320Y2172840D01*
X5032280Y2174800D01*
X5032080Y2190940D01*
X5014760Y2190940D01*
X5014760Y2208660D01*
X5032280Y2208660D01*
X5032280Y2225200D01*
X5030320Y2227160D01*
G37*
G36*
X5069680Y2127160D02*
G01*
X5067720Y2125200D01*
X5067920Y2108660D01*
X5085240Y2108660D01*
X5085240Y2090940D01*
X5067520Y2090940D01*
X5067720Y2074800D01*
X5069680Y2072840D01*
X5114960Y2072840D01*
X5116940Y2074800D01*
X5116940Y2125200D01*
X5114960Y2127160D01*
G37*
G36*
X4985040Y2127160D02*
G01*
X4983080Y2125200D01*
X4983080Y2074800D01*
X4985040Y2072840D01*
X5030320Y2072840D01*
X5032280Y2074800D01*
X5032080Y2090940D01*
X5014760Y2090940D01*
X5014760Y2108660D01*
X5032280Y2108660D01*
X5032280Y2125200D01*
X5030320Y2127160D01*
G37*
G36*
X5069680Y2027160D02*
G01*
X5067720Y2025200D01*
X5067920Y2008660D01*
X5085240Y2008660D01*
X5085240Y1990940D01*
X5067520Y1990940D01*
X5067720Y1974800D01*
X5069680Y1972840D01*
X5114960Y1972840D01*
X5116940Y1974800D01*
X5116940Y2025200D01*
X5114960Y2027160D01*
G37*
G36*
X4985040Y2027160D02*
G01*
X4983080Y2025200D01*
X4983080Y1974800D01*
X4985040Y1972840D01*
X5030320Y1972840D01*
X5032280Y1974800D01*
X5032080Y1990940D01*
X5014760Y1990940D01*
X5014760Y2008660D01*
X5032280Y2008660D01*
X5032280Y2025200D01*
X5030320Y2027160D01*
G37*
G36*
X5069680Y1927160D02*
G01*
X5067720Y1925200D01*
X5067920Y1908660D01*
X5085240Y1908660D01*
X5085240Y1890940D01*
X5067520Y1890940D01*
X5067720Y1874800D01*
X5069680Y1872840D01*
X5114960Y1872840D01*
X5116940Y1874800D01*
X5116940Y1925200D01*
X5114960Y1927160D01*
G37*
G36*
X4985040Y1927160D02*
G01*
X4983080Y1925200D01*
X4983080Y1874800D01*
X4985040Y1872840D01*
X5030320Y1872840D01*
X5032280Y1874800D01*
X5032080Y1890940D01*
X5014760Y1890940D01*
X5014760Y1908660D01*
X5032280Y1908660D01*
X5032280Y1925200D01*
X5030320Y1927160D01*
G37*
G36*
X3816019Y2727960D02*
G01*
X3814060Y2725980D01*
X3814060Y2675600D01*
X3816019Y2673620D01*
X3861300Y2673620D01*
X3863260Y2675600D01*
X3863080Y2692120D01*
X3845740Y2692120D01*
X3845740Y2709840D01*
X3863460Y2709840D01*
X3863260Y2725980D01*
X3861300Y2727960D01*
G37*
G36*
X3900659Y2727960D02*
G01*
X3898700Y2725980D01*
X3898900Y2709840D01*
X3916220Y2709840D01*
X3916220Y2692120D01*
X3898700Y2692120D01*
X3898700Y2675600D01*
X3900659Y2673620D01*
X3945940Y2673620D01*
X3947919Y2675600D01*
X3947919Y2725980D01*
X3945940Y2727960D01*
G37*
G36*
X2128700Y1536380D02*
G01*
X2126740Y1534400D01*
X2126920Y1517880D01*
X2144260Y1517880D01*
X2144260Y1500160D01*
X2126540Y1500160D01*
X2126740Y1484019D01*
X2128700Y1482040D01*
X2173980Y1482040D01*
X2175940Y1484019D01*
X2175940Y1534400D01*
X2173980Y1536380D01*
G37*
G36*
X2044060Y1536380D02*
G01*
X2042080Y1534400D01*
X2042080Y1484019D01*
X2044060Y1482040D01*
X2089340Y1482040D01*
X2091300Y1484019D01*
X2091100Y1500160D01*
X2073779Y1500160D01*
X2073779Y1517880D01*
X2091300Y1517880D01*
X2091300Y1534400D01*
X2089340Y1536380D01*
G37*
G36*
X3065600Y1475940D02*
G01*
X3063620Y1473980D01*
X3063620Y1428700D01*
X3065600Y1426740D01*
X3082120Y1426920D01*
X3082120Y1444259D01*
X3099840Y1444259D01*
X3099840Y1426540D01*
X3115980Y1426740D01*
X3117960Y1428700D01*
X3117960Y1473980D01*
X3115980Y1475940D01*
G37*
G36*
X3065600Y1391300D02*
G01*
X3063620Y1389340D01*
X3063620Y1344060D01*
X3065600Y1342080D01*
X3115980Y1342080D01*
X3117960Y1344060D01*
X3117960Y1389340D01*
X3115980Y1391300D01*
X3099840Y1391100D01*
X3099840Y1373779D01*
X3082120Y1373779D01*
X3082120Y1391300D01*
G37*
G36*
X1010160Y1273460D02*
G01*
X994020Y1273260D01*
X992039Y1271300D01*
X992039Y1226020D01*
X994020Y1224060D01*
X1044400Y1224060D01*
X1046380Y1226020D01*
X1046380Y1271300D01*
X1044400Y1273260D01*
X1027880Y1273080D01*
X1027880Y1255740D01*
X1010160Y1255740D01*
G37*
G36*
X994020Y1357920D02*
G01*
X992039Y1355940D01*
X992039Y1310660D01*
X994020Y1308700D01*
X1010160Y1308899D01*
X1010160Y1326220D01*
X1027880Y1326220D01*
X1027880Y1308700D01*
X1044400Y1308700D01*
X1046380Y1310660D01*
X1046380Y1355940D01*
X1044400Y1357920D01*
G37*
G36*
X1019680Y2677160D02*
G01*
X1017720Y2675200D01*
X1017920Y2658660D01*
X1035240Y2658660D01*
X1035240Y2640940D01*
X1017520Y2640940D01*
X1017720Y2624800D01*
X1019680Y2622840D01*
X1064960Y2622840D01*
X1066940Y2624800D01*
X1066940Y2675200D01*
X1064960Y2677160D01*
G37*
G36*
X935040Y2677160D02*
G01*
X933080Y2675200D01*
X933080Y2624800D01*
X935040Y2622840D01*
X980320Y2622840D01*
X982280Y2624800D01*
X982080Y2640940D01*
X964760Y2640940D01*
X964760Y2658660D01*
X982280Y2658660D01*
X982280Y2675200D01*
X980320Y2677160D01*
G37*
G36*
X1019680Y2577160D02*
G01*
X1017720Y2575200D01*
X1017920Y2558660D01*
X1035240Y2558660D01*
X1035240Y2540940D01*
X1017520Y2540940D01*
X1017720Y2524800D01*
X1019680Y2522840D01*
X1064960Y2522840D01*
X1066940Y2524800D01*
X1066940Y2575200D01*
X1064960Y2577160D01*
G37*
G36*
X935040Y2577160D02*
G01*
X933080Y2575200D01*
X933080Y2524800D01*
X935040Y2522840D01*
X980320Y2522840D01*
X982280Y2524800D01*
X982080Y2540940D01*
X964760Y2540940D01*
X964760Y2558660D01*
X982280Y2558660D01*
X982280Y2575200D01*
X980320Y2577160D01*
G37*
G36*
X1019680Y2477160D02*
G01*
X1017720Y2475200D01*
X1017920Y2458660D01*
X1035240Y2458660D01*
X1035240Y2440940D01*
X1017520Y2440940D01*
X1017720Y2424800D01*
X1019680Y2422840D01*
X1064960Y2422840D01*
X1066940Y2424800D01*
X1066940Y2475200D01*
X1064960Y2477160D01*
G37*
G36*
X935040Y2477160D02*
G01*
X933080Y2475200D01*
X933080Y2424800D01*
X935040Y2422840D01*
X980320Y2422840D01*
X982280Y2424800D01*
X982080Y2440940D01*
X964760Y2440940D01*
X964760Y2458660D01*
X982280Y2458660D01*
X982280Y2475200D01*
X980320Y2477160D01*
G37*
G36*
X1019680Y2377160D02*
G01*
X1017720Y2375200D01*
X1017920Y2358660D01*
X1035240Y2358660D01*
X1035240Y2340940D01*
X1017520Y2340940D01*
X1017720Y2324800D01*
X1019680Y2322840D01*
X1064960Y2322840D01*
X1066940Y2324800D01*
X1066940Y2375200D01*
X1064960Y2377160D01*
G37*
G36*
X935040Y2377160D02*
G01*
X933080Y2375200D01*
X933080Y2324800D01*
X935040Y2322840D01*
X980320Y2322840D01*
X982280Y2324800D01*
X982080Y2340940D01*
X964760Y2340940D01*
X964760Y2358660D01*
X982280Y2358660D01*
X982280Y2375200D01*
X980320Y2377160D01*
G37*
G36*
X1019680Y2277160D02*
G01*
X1017720Y2275200D01*
X1017920Y2258660D01*
X1035240Y2258660D01*
X1035240Y2240940D01*
X1017520Y2240940D01*
X1017720Y2224800D01*
X1019680Y2222840D01*
X1064960Y2222840D01*
X1066940Y2224800D01*
X1066940Y2275200D01*
X1064960Y2277160D01*
G37*
G36*
X935040Y2277160D02*
G01*
X933080Y2275200D01*
X933080Y2224800D01*
X935040Y2222840D01*
X980320Y2222840D01*
X982280Y2224800D01*
X982080Y2240940D01*
X964760Y2240940D01*
X964760Y2258660D01*
X982280Y2258660D01*
X982280Y2275200D01*
X980320Y2277160D01*
G37*
G36*
X1019680Y2177160D02*
G01*
X1017720Y2175200D01*
X1017920Y2158660D01*
X1035240Y2158660D01*
X1035240Y2140940D01*
X1017520Y2140940D01*
X1017720Y2124800D01*
X1019680Y2122840D01*
X1064960Y2122840D01*
X1066940Y2124800D01*
X1066940Y2175200D01*
X1064960Y2177160D01*
G37*
G36*
X935040Y2177160D02*
G01*
X933080Y2175200D01*
X933080Y2124800D01*
X935040Y2122840D01*
X980320Y2122840D01*
X982280Y2124800D01*
X982080Y2140940D01*
X964760Y2140940D01*
X964760Y2158660D01*
X982280Y2158660D01*
X982280Y2175200D01*
X980320Y2177160D01*
G37*
G36*
X1019680Y2077160D02*
G01*
X1017720Y2075200D01*
X1017920Y2058660D01*
X1035240Y2058660D01*
X1035240Y2040940D01*
X1017520Y2040940D01*
X1017720Y2024800D01*
X1019680Y2022840D01*
X1064960Y2022840D01*
X1066940Y2024800D01*
X1066940Y2075200D01*
X1064960Y2077160D01*
G37*
G36*
X935040Y2077160D02*
G01*
X933080Y2075200D01*
X933080Y2024800D01*
X935040Y2022840D01*
X980320Y2022840D01*
X982280Y2024800D01*
X982080Y2040940D01*
X964760Y2040940D01*
X964760Y2058660D01*
X982280Y2058660D01*
X982280Y2075200D01*
X980320Y2077160D01*
G37*
G36*
X1019680Y1977160D02*
G01*
X1017720Y1975200D01*
X1017920Y1958660D01*
X1035240Y1958660D01*
X1035240Y1940940D01*
X1017520Y1940940D01*
X1017720Y1924800D01*
X1019680Y1922840D01*
X1064960Y1922840D01*
X1066940Y1924800D01*
X1066940Y1975200D01*
X1064960Y1977160D01*
G37*
G36*
X935040Y1977160D02*
G01*
X933080Y1975200D01*
X933080Y1924800D01*
X935040Y1922840D01*
X980320Y1922840D01*
X982280Y1924800D01*
X982080Y1940940D01*
X964760Y1940940D01*
X964760Y1958660D01*
X982280Y1958660D01*
X982280Y1975200D01*
X980320Y1977160D01*
G37*
G36*
X1019680Y1877160D02*
G01*
X1017720Y1875200D01*
X1017920Y1858660D01*
X1035240Y1858660D01*
X1035240Y1840940D01*
X1017520Y1840940D01*
X1017720Y1824800D01*
X1019680Y1822840D01*
X1064960Y1822840D01*
X1066940Y1824800D01*
X1066940Y1875200D01*
X1064960Y1877160D01*
G37*
G36*
X935040Y1877160D02*
G01*
X933080Y1875200D01*
X933080Y1824800D01*
X935040Y1822840D01*
X980320Y1822840D01*
X982280Y1824800D01*
X982080Y1840940D01*
X964760Y1840940D01*
X964760Y1858660D01*
X982280Y1858660D01*
X982280Y1875200D01*
X980320Y1877160D01*
G37*
G36*
X1019680Y1777160D02*
G01*
X1017720Y1775200D01*
X1017920Y1758660D01*
X1035240Y1758660D01*
X1035240Y1740940D01*
X1017520Y1740940D01*
X1017720Y1724800D01*
X1019680Y1722840D01*
X1064960Y1722840D01*
X1066940Y1724800D01*
X1066940Y1775200D01*
X1064960Y1777160D01*
G37*
G36*
X935040Y1777160D02*
G01*
X933080Y1775200D01*
X933080Y1724800D01*
X935040Y1722840D01*
X980320Y1722840D01*
X982280Y1724800D01*
X982080Y1740940D01*
X964760Y1740940D01*
X964760Y1758660D01*
X982280Y1758660D01*
X982280Y1775200D01*
X980320Y1777160D01*
G37*
G36*
X1019680Y1677160D02*
G01*
X1017720Y1675200D01*
X1017920Y1658660D01*
X1035240Y1658660D01*
X1035240Y1640940D01*
X1017520Y1640940D01*
X1017720Y1624800D01*
X1019680Y1622840D01*
X1064960Y1622840D01*
X1066940Y1624800D01*
X1066940Y1675200D01*
X1064960Y1677160D01*
G37*
G36*
X935040Y1677160D02*
G01*
X933080Y1675200D01*
X933080Y1624800D01*
X935040Y1622840D01*
X980320Y1622840D01*
X982280Y1624800D01*
X982080Y1640940D01*
X964760Y1640940D01*
X964760Y1658660D01*
X982280Y1658660D01*
X982280Y1675200D01*
X980320Y1677160D01*
G37*
G36*
X1019680Y1577160D02*
G01*
X1017720Y1575200D01*
X1017920Y1558660D01*
X1035240Y1558660D01*
X1035240Y1540940D01*
X1017520Y1540940D01*
X1017720Y1524800D01*
X1019680Y1522840D01*
X1064960Y1522840D01*
X1066940Y1524800D01*
X1066940Y1575200D01*
X1064960Y1577160D01*
G37*
G36*
X935040Y1577160D02*
G01*
X933080Y1575200D01*
X933080Y1524800D01*
X935040Y1522840D01*
X980320Y1522840D01*
X982280Y1524800D01*
X982080Y1540940D01*
X964760Y1540940D01*
X964760Y1558660D01*
X982280Y1558660D01*
X982280Y1575200D01*
X980320Y1577160D01*
G37*
G36*
X1019680Y3077160D02*
G01*
X1017720Y3075200D01*
X1017920Y3058660D01*
X1035240Y3058660D01*
X1035240Y3040940D01*
X1017520Y3040940D01*
X1017720Y3024800D01*
X1019680Y3022840D01*
X1064960Y3022840D01*
X1066940Y3024800D01*
X1066940Y3075200D01*
X1064960Y3077160D01*
G37*
G36*
X935040Y3077160D02*
G01*
X933080Y3075200D01*
X933080Y3024800D01*
X935040Y3022840D01*
X980320Y3022840D01*
X982280Y3024800D01*
X982080Y3040940D01*
X964760Y3040940D01*
X964760Y3058660D01*
X982280Y3058660D01*
X982280Y3075200D01*
X980320Y3077160D01*
G37*
G36*
X1019680Y2977160D02*
G01*
X1017720Y2975200D01*
X1017920Y2958660D01*
X1035240Y2958660D01*
X1035240Y2940940D01*
X1017520Y2940940D01*
X1017720Y2924800D01*
X1019680Y2922840D01*
X1064960Y2922840D01*
X1066940Y2924800D01*
X1066940Y2975200D01*
X1064960Y2977160D01*
G37*
G36*
X935040Y2977160D02*
G01*
X933080Y2975200D01*
X933080Y2924800D01*
X935040Y2922840D01*
X980320Y2922840D01*
X982280Y2924800D01*
X982080Y2940940D01*
X964760Y2940940D01*
X964760Y2958660D01*
X982280Y2958660D01*
X982280Y2975200D01*
X980320Y2977160D01*
G37*
G36*
X1019680Y2877160D02*
G01*
X1017720Y2875200D01*
X1017920Y2858660D01*
X1035240Y2858660D01*
X1035240Y2840940D01*
X1017520Y2840940D01*
X1017720Y2824800D01*
X1019680Y2822840D01*
X1064960Y2822840D01*
X1066940Y2824800D01*
X1066940Y2875200D01*
X1064960Y2877160D01*
G37*
G36*
X935040Y2877160D02*
G01*
X933080Y2875200D01*
X933080Y2824800D01*
X935040Y2822840D01*
X980320Y2822840D01*
X982280Y2824800D01*
X982080Y2840940D01*
X964760Y2840940D01*
X964760Y2858660D01*
X982280Y2858660D01*
X982280Y2875200D01*
X980320Y2877160D01*
G37*
G36*
X1019680Y2777160D02*
G01*
X1017720Y2775200D01*
X1017920Y2758660D01*
X1035240Y2758660D01*
X1035240Y2740940D01*
X1017520Y2740940D01*
X1017720Y2724800D01*
X1019680Y2722840D01*
X1064960Y2722840D01*
X1066940Y2724800D01*
X1066940Y2775200D01*
X1064960Y2777160D01*
G37*
G36*
X935040Y2777160D02*
G01*
X933080Y2775200D01*
X933080Y2724800D01*
X935040Y2722840D01*
X980320Y2722840D01*
X982280Y2724800D01*
X982080Y2740940D01*
X964760Y2740940D01*
X964760Y2758660D01*
X982280Y2758660D01*
X982280Y2775200D01*
X980320Y2777160D01*
G37*
G36*
X3940160Y3533460D02*
G01*
X3924020Y3533260D01*
X3922040Y3531300D01*
X3922040Y3486019D01*
X3924020Y3484060D01*
X3974400Y3484060D01*
X3976380Y3486019D01*
X3976380Y3531300D01*
X3974400Y3533260D01*
X3957880Y3533080D01*
X3957880Y3515740D01*
X3940160Y3515740D01*
G37*
G36*
X3924020Y3617919D02*
G01*
X3922040Y3615940D01*
X3922040Y3570659D01*
X3924020Y3568700D01*
X3940160Y3568900D01*
X3940160Y3586220D01*
X3957880Y3586220D01*
X3957880Y3568700D01*
X3974400Y3568700D01*
X3976380Y3570659D01*
X3976380Y3615940D01*
X3974400Y3617919D01*
G37*
G36*
X3869680Y3227160D02*
G01*
X3867720Y3225200D01*
X3867919Y3208660D01*
X3885240Y3208660D01*
X3885240Y3190940D01*
X3867520Y3190940D01*
X3867720Y3174800D01*
X3869680Y3172840D01*
X3914960Y3172840D01*
X3916940Y3174800D01*
X3916940Y3225200D01*
X3914960Y3227160D01*
G37*
G36*
X3785040Y3227160D02*
G01*
X3783080Y3225200D01*
X3783080Y3174800D01*
X3785040Y3172840D01*
X3830320Y3172840D01*
X3832280Y3174800D01*
X3832080Y3190940D01*
X3814760Y3190940D01*
X3814760Y3208660D01*
X3832280Y3208660D01*
X3832280Y3225200D01*
X3830320Y3227160D01*
G37*
G36*
X3800940Y3442480D02*
G01*
X3784800Y3442280D01*
X3782840Y3440320D01*
X3782840Y3395040D01*
X3784800Y3393060D01*
X3835200Y3393060D01*
X3837160Y3395040D01*
X3837160Y3440320D01*
X3835200Y3442280D01*
X3818660Y3442080D01*
X3818660Y3424760D01*
X3800940Y3424760D01*
G37*
G36*
X3784800Y3526920D02*
G01*
X3782840Y3524960D01*
X3782840Y3479680D01*
X3784800Y3477720D01*
X3800940Y3477919D01*
X3800940Y3495240D01*
X3818660Y3495240D01*
X3818660Y3477720D01*
X3835200Y3477720D01*
X3837160Y3479680D01*
X3837160Y3524960D01*
X3835200Y3526920D01*
G37*
D10*
G01*
X4362597Y1145273D03*
G01*
X4399997Y1054724D03*
G01*
X4437398Y1145273D03*
D11*
G01*
X541350Y2650000D03*
G01*
X458649Y2650000D03*
G01*
X541350Y2550000D03*
G01*
X458649Y2550000D03*
G01*
X541350Y2450000D03*
G01*
X458649Y2450000D03*
G01*
X541350Y2350000D03*
G01*
X458649Y2350000D03*
G01*
X541350Y2250000D03*
G01*
X458649Y2250000D03*
G01*
X541350Y2150000D03*
G01*
X458649Y2150000D03*
G01*
X541350Y2050000D03*
G01*
X458649Y2050000D03*
G01*
X541350Y1950000D03*
G01*
X458649Y1950000D03*
G01*
X541350Y1850000D03*
G01*
X458649Y1850000D03*
G01*
X541350Y1750000D03*
G01*
X458649Y1750000D03*
G01*
X541350Y1650000D03*
G01*
X458649Y1650000D03*
G01*
X541350Y1550000D03*
G01*
X458649Y1550000D03*
G36*
X6043500Y2618499D02*
G01*
X6039709Y2618730D01*
X6035969Y2619420D01*
X6032330Y2620549D01*
X6028869Y2622109D01*
X6025609Y2624079D01*
X6022619Y2626419D01*
X6019930Y2629109D01*
X6017579Y2632109D01*
X6015609Y2635359D01*
X6014049Y2638829D01*
X6012920Y2642460D01*
X6012240Y2646199D01*
X6012010Y2650000D01*
X6012240Y2653789D01*
X6012920Y2657539D01*
X6014049Y2661170D01*
X6015609Y2664640D01*
X6017579Y2667890D01*
X6019930Y2670880D01*
X6022619Y2673569D01*
X6025609Y2675920D01*
X6028869Y2677890D01*
X6032330Y2679450D01*
X6035969Y2680580D01*
X6039709Y2681260D01*
X6043500Y2681489D01*
X6106499Y2681489D01*
X6110290Y2681260D01*
X6114030Y2680580D01*
X6117659Y2679450D01*
X6121130Y2677890D01*
X6124390Y2675920D01*
X6127380Y2673569D01*
X6130069Y2670880D01*
X6132420Y2667890D01*
X6134380Y2664640D01*
X6135940Y2661170D01*
X6137079Y2657539D01*
X6137759Y2653789D01*
X6137990Y2650000D01*
X6137759Y2646199D01*
X6137079Y2642460D01*
X6135940Y2638829D01*
X6134380Y2635359D01*
X6132420Y2632109D01*
X6130069Y2629109D01*
X6127380Y2626419D01*
X6124390Y2624079D01*
X6121130Y2622109D01*
X6117659Y2620549D01*
X6114030Y2619420D01*
X6110290Y2618730D01*
X6106499Y2618499D01*
G37*
G36*
X6043500Y2518499D02*
G01*
X6039709Y2518730D01*
X6035969Y2519420D01*
X6032330Y2520549D01*
X6028869Y2522109D01*
X6025609Y2524079D01*
X6022619Y2526419D01*
X6019930Y2529109D01*
X6017579Y2532109D01*
X6015609Y2535359D01*
X6014049Y2538829D01*
X6012920Y2542460D01*
X6012240Y2546199D01*
X6012010Y2550000D01*
X6012240Y2553789D01*
X6012920Y2557539D01*
X6014049Y2561170D01*
X6015609Y2564640D01*
X6017579Y2567890D01*
X6019930Y2570880D01*
X6022619Y2573569D01*
X6025609Y2575920D01*
X6028869Y2577890D01*
X6032330Y2579450D01*
X6035969Y2580580D01*
X6039709Y2581260D01*
X6043500Y2581489D01*
X6106499Y2581489D01*
X6110290Y2581260D01*
X6114030Y2580580D01*
X6117659Y2579450D01*
X6121130Y2577890D01*
X6124390Y2575920D01*
X6127380Y2573569D01*
X6130069Y2570880D01*
X6132420Y2567890D01*
X6134380Y2564640D01*
X6135940Y2561170D01*
X6137079Y2557539D01*
X6137759Y2553789D01*
X6137990Y2550000D01*
X6137759Y2546199D01*
X6137079Y2542460D01*
X6135940Y2538829D01*
X6134380Y2535359D01*
X6132420Y2532109D01*
X6130069Y2529109D01*
X6127380Y2526419D01*
X6124390Y2524079D01*
X6121130Y2522109D01*
X6117659Y2520549D01*
X6114030Y2519420D01*
X6110290Y2518730D01*
X6106499Y2518499D01*
G37*
D12*
G01*
X6075000Y2449994D03*
G36*
X6043500Y2318499D02*
G01*
X6039709Y2318730D01*
X6035969Y2319420D01*
X6032330Y2320549D01*
X6028869Y2322109D01*
X6025609Y2324079D01*
X6022619Y2326419D01*
X6019930Y2329109D01*
X6017579Y2332109D01*
X6015609Y2335359D01*
X6014049Y2338829D01*
X6012920Y2342460D01*
X6012240Y2346199D01*
X6012010Y2350000D01*
X6012240Y2353800D01*
X6012920Y2357539D01*
X6014049Y2361170D01*
X6015609Y2364640D01*
X6017579Y2367890D01*
X6019930Y2370880D01*
X6022619Y2373569D01*
X6025609Y2375920D01*
X6028869Y2377890D01*
X6032330Y2379450D01*
X6035969Y2380580D01*
X6039709Y2381269D01*
X6043500Y2381489D01*
X6106499Y2381489D01*
X6110290Y2381269D01*
X6114030Y2380580D01*
X6117659Y2379450D01*
X6121130Y2377890D01*
X6124390Y2375920D01*
X6127380Y2373569D01*
X6130069Y2370880D01*
X6132420Y2367890D01*
X6134380Y2364640D01*
X6135940Y2361170D01*
X6137079Y2357539D01*
X6137759Y2353800D01*
X6137990Y2350000D01*
X6137759Y2346199D01*
X6137079Y2342460D01*
X6135940Y2338829D01*
X6134380Y2335359D01*
X6132420Y2332109D01*
X6130069Y2329109D01*
X6127380Y2326419D01*
X6124390Y2324079D01*
X6121130Y2322109D01*
X6117659Y2320549D01*
X6114030Y2319420D01*
X6110290Y2318730D01*
X6106499Y2318499D01*
G37*
G36*
X6043500Y2218499D02*
G01*
X6039709Y2218730D01*
X6035969Y2219420D01*
X6032330Y2220549D01*
X6028869Y2222109D01*
X6025609Y2224079D01*
X6022619Y2226419D01*
X6019930Y2229109D01*
X6017579Y2232109D01*
X6015609Y2235359D01*
X6014049Y2238829D01*
X6012920Y2242460D01*
X6012240Y2246199D01*
X6012010Y2250000D01*
X6012240Y2253800D01*
X6012920Y2257539D01*
X6014049Y2261170D01*
X6015609Y2264640D01*
X6017579Y2267890D01*
X6019930Y2270880D01*
X6022619Y2273569D01*
X6025609Y2275920D01*
X6028869Y2277890D01*
X6032330Y2279450D01*
X6035969Y2280580D01*
X6039709Y2281269D01*
X6043500Y2281489D01*
X6106499Y2281489D01*
X6110290Y2281269D01*
X6114030Y2280580D01*
X6117659Y2279450D01*
X6121130Y2277890D01*
X6124390Y2275920D01*
X6127380Y2273569D01*
X6130069Y2270880D01*
X6132420Y2267890D01*
X6134380Y2264640D01*
X6135940Y2261170D01*
X6137079Y2257539D01*
X6137759Y2253800D01*
X6137990Y2250000D01*
X6137759Y2246199D01*
X6137079Y2242460D01*
X6135940Y2238829D01*
X6134380Y2235359D01*
X6132420Y2232109D01*
X6130069Y2229109D01*
X6127380Y2226419D01*
X6124390Y2224079D01*
X6121130Y2222109D01*
X6117659Y2220549D01*
X6114030Y2219420D01*
X6110290Y2218730D01*
X6106499Y2218499D01*
G37*
G36*
X6043500Y2118499D02*
G01*
X6039709Y2118730D01*
X6035969Y2119420D01*
X6032330Y2120549D01*
X6028869Y2122109D01*
X6025609Y2124079D01*
X6022619Y2126419D01*
X6019930Y2129109D01*
X6017579Y2132109D01*
X6015609Y2135359D01*
X6014049Y2138829D01*
X6012920Y2142460D01*
X6012240Y2146199D01*
X6012010Y2150000D01*
X6012240Y2153800D01*
X6012920Y2157539D01*
X6014049Y2161170D01*
X6015609Y2164640D01*
X6017579Y2167890D01*
X6019930Y2170880D01*
X6022619Y2173569D01*
X6025609Y2175920D01*
X6028869Y2177890D01*
X6032330Y2179450D01*
X6035969Y2180580D01*
X6039709Y2181269D01*
X6043500Y2181500D01*
X6106499Y2181500D01*
X6110290Y2181269D01*
X6114030Y2180580D01*
X6117659Y2179450D01*
X6121130Y2177890D01*
X6124390Y2175920D01*
X6127380Y2173569D01*
X6130069Y2170880D01*
X6132420Y2167890D01*
X6134380Y2164640D01*
X6135940Y2161170D01*
X6137079Y2157539D01*
X6137759Y2153800D01*
X6137990Y2150000D01*
X6137759Y2146199D01*
X6137079Y2142460D01*
X6135940Y2138829D01*
X6134380Y2135359D01*
X6132420Y2132109D01*
X6130069Y2129109D01*
X6127380Y2126419D01*
X6124390Y2124079D01*
X6121130Y2122109D01*
X6117659Y2120549D01*
X6114030Y2119420D01*
X6110290Y2118730D01*
X6106499Y2118499D01*
G37*
G36*
X6043500Y2018499D02*
G01*
X6039709Y2018730D01*
X6035969Y2019420D01*
X6032330Y2020549D01*
X6028869Y2022109D01*
X6025609Y2024079D01*
X6022619Y2026419D01*
X6019930Y2029109D01*
X6017579Y2032109D01*
X6015609Y2035359D01*
X6014049Y2038829D01*
X6012920Y2042460D01*
X6012240Y2046199D01*
X6012010Y2050000D01*
X6012240Y2053800D01*
X6012920Y2057539D01*
X6014049Y2061170D01*
X6015609Y2064640D01*
X6017579Y2067890D01*
X6019930Y2070890D01*
X6022619Y2073569D01*
X6025609Y2075920D01*
X6028869Y2077890D01*
X6032330Y2079450D01*
X6035969Y2080580D01*
X6039709Y2081269D01*
X6043500Y2081500D01*
X6106499Y2081500D01*
X6110290Y2081269D01*
X6114030Y2080580D01*
X6117659Y2079450D01*
X6121130Y2077890D01*
X6124390Y2075920D01*
X6127380Y2073569D01*
X6130069Y2070890D01*
X6132420Y2067890D01*
X6134380Y2064640D01*
X6135940Y2061170D01*
X6137079Y2057539D01*
X6137759Y2053800D01*
X6137990Y2050000D01*
X6137759Y2046199D01*
X6137079Y2042460D01*
X6135940Y2038829D01*
X6134380Y2035359D01*
X6132420Y2032109D01*
X6130069Y2029109D01*
X6127380Y2026419D01*
X6124390Y2024079D01*
X6121130Y2022109D01*
X6117659Y2020549D01*
X6114030Y2019420D01*
X6110290Y2018730D01*
X6106499Y2018499D01*
G37*
G01*
X6075000Y1950000D03*
G36*
X6043500Y1818499D02*
G01*
X6039709Y1818730D01*
X6035969Y1819420D01*
X6032330Y1820549D01*
X6028869Y1822109D01*
X6025609Y1824079D01*
X6022619Y1826419D01*
X6019930Y1829109D01*
X6017579Y1832109D01*
X6015609Y1835359D01*
X6014049Y1838829D01*
X6012920Y1842460D01*
X6012240Y1846199D01*
X6012010Y1850000D01*
X6012240Y1853800D01*
X6012920Y1857539D01*
X6014049Y1861170D01*
X6015609Y1864640D01*
X6017579Y1867890D01*
X6019930Y1870890D01*
X6022619Y1873569D01*
X6025609Y1875920D01*
X6028869Y1877890D01*
X6032330Y1879450D01*
X6035969Y1880580D01*
X6039709Y1881269D01*
X6043500Y1881500D01*
X6106499Y1881500D01*
X6110290Y1881269D01*
X6114030Y1880580D01*
X6117659Y1879450D01*
X6121130Y1877890D01*
X6124390Y1875920D01*
X6127380Y1873569D01*
X6130069Y1870890D01*
X6132420Y1867890D01*
X6134380Y1864640D01*
X6135940Y1861170D01*
X6137079Y1857539D01*
X6137759Y1853800D01*
X6137990Y1850000D01*
X6137759Y1846199D01*
X6137079Y1842460D01*
X6135940Y1838829D01*
X6134380Y1835359D01*
X6132420Y1832109D01*
X6130069Y1829109D01*
X6127380Y1826419D01*
X6124390Y1824079D01*
X6121130Y1822109D01*
X6117659Y1820549D01*
X6114030Y1819420D01*
X6110290Y1818730D01*
X6106499Y1818499D01*
G37*
G36*
X6043500Y1718499D02*
G01*
X6039709Y1718730D01*
X6035969Y1719420D01*
X6032330Y1720549D01*
X6028869Y1722109D01*
X6025609Y1724079D01*
X6022619Y1726419D01*
X6019930Y1729109D01*
X6017579Y1732109D01*
X6015609Y1735359D01*
X6014049Y1738829D01*
X6012920Y1742460D01*
X6012240Y1746199D01*
X6012010Y1750000D01*
X6012240Y1753800D01*
X6012920Y1757539D01*
X6014049Y1761170D01*
X6015609Y1764640D01*
X6017579Y1767890D01*
X6019930Y1770890D01*
X6022619Y1773569D01*
X6025609Y1775920D01*
X6028869Y1777890D01*
X6032330Y1779450D01*
X6035969Y1780580D01*
X6039709Y1781269D01*
X6043500Y1781500D01*
X6106499Y1781500D01*
X6110290Y1781269D01*
X6114030Y1780580D01*
X6117659Y1779450D01*
X6121130Y1777890D01*
X6124390Y1775920D01*
X6127380Y1773569D01*
X6130069Y1770890D01*
X6132420Y1767890D01*
X6134380Y1764640D01*
X6135940Y1761170D01*
X6137079Y1757539D01*
X6137759Y1753800D01*
X6137990Y1750000D01*
X6137759Y1746199D01*
X6137079Y1742460D01*
X6135940Y1738829D01*
X6134380Y1735359D01*
X6132420Y1732109D01*
X6130069Y1729109D01*
X6127380Y1726419D01*
X6124390Y1724079D01*
X6121130Y1722109D01*
X6117659Y1720549D01*
X6114030Y1719420D01*
X6110290Y1718730D01*
X6106499Y1718499D01*
G37*
G36*
X6043500Y1618499D02*
G01*
X6039709Y1618730D01*
X6035969Y1619420D01*
X6032330Y1620549D01*
X6028869Y1622109D01*
X6025609Y1624079D01*
X6022619Y1626430D01*
X6019930Y1629109D01*
X6017579Y1632109D01*
X6015609Y1635359D01*
X6014049Y1638829D01*
X6012920Y1642460D01*
X6012240Y1646199D01*
X6012010Y1650000D01*
X6012240Y1653800D01*
X6012920Y1657539D01*
X6014049Y1661170D01*
X6015609Y1664640D01*
X6017579Y1667890D01*
X6019930Y1670890D01*
X6022619Y1673580D01*
X6025609Y1675920D01*
X6028869Y1677890D01*
X6032330Y1679450D01*
X6035969Y1680580D01*
X6039709Y1681269D01*
X6043500Y1681500D01*
X6106499Y1681500D01*
X6110290Y1681269D01*
X6114030Y1680580D01*
X6117659Y1679450D01*
X6121130Y1677890D01*
X6124390Y1675920D01*
X6127380Y1673580D01*
X6130069Y1670890D01*
X6132420Y1667890D01*
X6134380Y1664640D01*
X6135940Y1661170D01*
X6137079Y1657539D01*
X6137759Y1653800D01*
X6137990Y1650000D01*
X6137759Y1646199D01*
X6137079Y1642460D01*
X6135940Y1638829D01*
X6134380Y1635359D01*
X6132420Y1632109D01*
X6130069Y1629109D01*
X6127380Y1626430D01*
X6124390Y1624079D01*
X6121130Y1622109D01*
X6117659Y1620549D01*
X6114030Y1619420D01*
X6110290Y1618730D01*
X6106499Y1618499D01*
G37*
G36*
X6043500Y1518499D02*
G01*
X6039709Y1518730D01*
X6035969Y1519420D01*
X6032330Y1520549D01*
X6028869Y1522109D01*
X6025609Y1524079D01*
X6022619Y1526430D01*
X6019930Y1529109D01*
X6017579Y1532109D01*
X6015609Y1535359D01*
X6014049Y1538829D01*
X6012920Y1542460D01*
X6012240Y1546199D01*
X6012010Y1550000D01*
X6012240Y1553800D01*
X6012920Y1557539D01*
X6014049Y1561170D01*
X6015609Y1564640D01*
X6017579Y1567890D01*
X6019930Y1570890D01*
X6022619Y1573580D01*
X6025609Y1575920D01*
X6028869Y1577890D01*
X6032330Y1579450D01*
X6035969Y1580580D01*
X6039709Y1581269D01*
X6043500Y1581500D01*
X6106499Y1581500D01*
X6110290Y1581269D01*
X6114030Y1580580D01*
X6117659Y1579450D01*
X6121130Y1577890D01*
X6124390Y1575920D01*
X6127380Y1573580D01*
X6130069Y1570890D01*
X6132420Y1567890D01*
X6134380Y1564640D01*
X6135940Y1561170D01*
X6137079Y1557539D01*
X6137759Y1553800D01*
X6137990Y1550000D01*
X6137759Y1546199D01*
X6137079Y1542460D01*
X6135940Y1538829D01*
X6134380Y1535359D01*
X6132420Y1532109D01*
X6130069Y1529109D01*
X6127380Y1526430D01*
X6124390Y1524079D01*
X6121130Y1522109D01*
X6117659Y1520549D01*
X6114030Y1519420D01*
X6110290Y1518730D01*
X6106499Y1518499D01*
G37*
G01*
X6075000Y1450000D03*
G36*
X6043500Y1318499D02*
G01*
X6039709Y1318730D01*
X6035969Y1319420D01*
X6032330Y1320549D01*
X6028869Y1322109D01*
X6025609Y1324079D01*
X6022619Y1326430D01*
X6019930Y1329109D01*
X6017579Y1332109D01*
X6015609Y1335359D01*
X6014049Y1338829D01*
X6012920Y1342460D01*
X6012240Y1346199D01*
X6012010Y1350000D01*
X6012240Y1353800D01*
X6012920Y1357539D01*
X6014049Y1361170D01*
X6015609Y1364640D01*
X6017579Y1367890D01*
X6019930Y1370890D01*
X6022619Y1373580D01*
X6025609Y1375920D01*
X6028869Y1377890D01*
X6032330Y1379450D01*
X6035969Y1380580D01*
X6039709Y1381269D01*
X6043500Y1381500D01*
X6106499Y1381500D01*
X6110290Y1381269D01*
X6114030Y1380580D01*
X6117659Y1379450D01*
X6121130Y1377890D01*
X6124390Y1375920D01*
X6127380Y1373580D01*
X6130069Y1370890D01*
X6132420Y1367890D01*
X6134380Y1364640D01*
X6135940Y1361170D01*
X6137079Y1357539D01*
X6137759Y1353800D01*
X6137990Y1350000D01*
X6137759Y1346199D01*
X6137079Y1342460D01*
X6135940Y1338829D01*
X6134380Y1335359D01*
X6132420Y1332109D01*
X6130069Y1329109D01*
X6127380Y1326430D01*
X6124390Y1324079D01*
X6121130Y1322109D01*
X6117659Y1320549D01*
X6114030Y1319420D01*
X6110290Y1318730D01*
X6106499Y1318499D01*
G37*
G36*
X6043500Y1218499D02*
G01*
X6039709Y1218730D01*
X6035969Y1219420D01*
X6032330Y1220549D01*
X6028869Y1222109D01*
X6025609Y1224079D01*
X6022619Y1226430D01*
X6019930Y1229119D01*
X6017579Y1232109D01*
X6015609Y1235359D01*
X6014049Y1238829D01*
X6012920Y1242460D01*
X6012240Y1246199D01*
X6012010Y1250000D01*
X6012240Y1253800D01*
X6012920Y1257539D01*
X6014049Y1261170D01*
X6015609Y1264640D01*
X6017579Y1267890D01*
X6019930Y1270890D01*
X6022619Y1273580D01*
X6025609Y1275920D01*
X6028869Y1277890D01*
X6032330Y1279450D01*
X6035969Y1280580D01*
X6039709Y1281269D01*
X6043500Y1281500D01*
X6106499Y1281500D01*
X6110290Y1281269D01*
X6114030Y1280580D01*
X6117659Y1279450D01*
X6121130Y1277890D01*
X6124390Y1275920D01*
X6127380Y1273580D01*
X6130069Y1270890D01*
X6132420Y1267890D01*
X6134380Y1264640D01*
X6135940Y1261170D01*
X6137079Y1257539D01*
X6137759Y1253800D01*
X6137990Y1250000D01*
X6137759Y1246199D01*
X6137079Y1242460D01*
X6135940Y1238829D01*
X6134380Y1235359D01*
X6132420Y1232109D01*
X6130069Y1229119D01*
X6127380Y1226430D01*
X6124390Y1224079D01*
X6121130Y1222109D01*
X6117659Y1220549D01*
X6114030Y1219420D01*
X6110290Y1218730D01*
X6106499Y1218499D01*
G37*
G36*
X6043500Y1118510D02*
G01*
X6039709Y1118730D01*
X6035969Y1119420D01*
X6032330Y1120549D01*
X6028869Y1122109D01*
X6025609Y1124079D01*
X6022619Y1126430D01*
X6019930Y1129119D01*
X6017579Y1132109D01*
X6015609Y1135359D01*
X6014049Y1138829D01*
X6012920Y1142460D01*
X6012240Y1146199D01*
X6012010Y1150000D01*
X6012240Y1153800D01*
X6012920Y1157539D01*
X6014049Y1161170D01*
X6015609Y1164640D01*
X6017579Y1167890D01*
X6019930Y1170890D01*
X6022619Y1173580D01*
X6025609Y1175920D01*
X6028869Y1177890D01*
X6032330Y1179450D01*
X6035969Y1180580D01*
X6039709Y1181269D01*
X6043500Y1181500D01*
X6106499Y1181500D01*
X6110290Y1181269D01*
X6114030Y1180580D01*
X6117659Y1179450D01*
X6121130Y1177890D01*
X6124390Y1175920D01*
X6127380Y1173580D01*
X6130069Y1170890D01*
X6132420Y1167890D01*
X6134380Y1164640D01*
X6135940Y1161170D01*
X6137079Y1157539D01*
X6137759Y1153800D01*
X6137990Y1150000D01*
X6137759Y1146199D01*
X6137079Y1142460D01*
X6135940Y1138829D01*
X6134380Y1135359D01*
X6132420Y1132109D01*
X6130069Y1129119D01*
X6127380Y1126430D01*
X6124390Y1124079D01*
X6121130Y1122109D01*
X6117659Y1120549D01*
X6114030Y1119420D01*
X6110290Y1118730D01*
X6106499Y1118510D01*
G37*
G36*
X6043500Y1018510D02*
G01*
X6039709Y1018730D01*
X6035969Y1019420D01*
X6032330Y1020549D01*
X6028869Y1022109D01*
X6025609Y1024079D01*
X6022619Y1026430D01*
X6019930Y1029119D01*
X6017579Y1032109D01*
X6015609Y1035359D01*
X6014049Y1038829D01*
X6012920Y1042460D01*
X6012240Y1046199D01*
X6012010Y1050000D01*
X6012240Y1053800D01*
X6012920Y1057539D01*
X6014049Y1061170D01*
X6015609Y1064640D01*
X6017579Y1067890D01*
X6019930Y1070890D01*
X6022619Y1073580D01*
X6025609Y1075920D01*
X6028869Y1077890D01*
X6032330Y1079450D01*
X6035969Y1080580D01*
X6039709Y1081269D01*
X6043500Y1081500D01*
X6106499Y1081500D01*
X6110290Y1081269D01*
X6114030Y1080580D01*
X6117659Y1079450D01*
X6121130Y1077890D01*
X6124390Y1075920D01*
X6127380Y1073580D01*
X6130069Y1070890D01*
X6132420Y1067890D01*
X6134380Y1064640D01*
X6135940Y1061170D01*
X6137079Y1057539D01*
X6137759Y1053800D01*
X6137990Y1050000D01*
X6137759Y1046199D01*
X6137079Y1042460D01*
X6135940Y1038829D01*
X6134380Y1035359D01*
X6132420Y1032109D01*
X6130069Y1029119D01*
X6127380Y1026430D01*
X6124390Y1024079D01*
X6121130Y1022109D01*
X6117659Y1020549D01*
X6114030Y1019420D01*
X6110290Y1018730D01*
X6106499Y1018510D01*
G37*
G01*
X6075000Y950005D03*
G36*
X6043500Y818510D02*
G01*
X6039709Y818739D01*
X6035969Y819420D01*
X6032330Y820549D01*
X6028869Y822109D01*
X6025609Y824079D01*
X6022619Y826430D01*
X6019930Y829119D01*
X6017579Y832109D01*
X6015609Y835359D01*
X6014049Y838829D01*
X6012920Y842460D01*
X6012240Y846210D01*
X6012010Y850000D01*
X6012240Y853800D01*
X6012920Y857539D01*
X6014049Y861170D01*
X6015609Y864640D01*
X6017579Y867890D01*
X6019930Y870890D01*
X6022619Y873580D01*
X6025609Y875920D01*
X6028869Y877890D01*
X6032330Y879450D01*
X6035969Y880579D01*
X6039709Y881269D01*
X6043500Y881500D01*
X6106499Y881500D01*
X6110290Y881269D01*
X6114030Y880579D01*
X6117659Y879450D01*
X6121130Y877890D01*
X6124390Y875920D01*
X6127380Y873580D01*
X6130069Y870890D01*
X6132420Y867890D01*
X6134380Y864640D01*
X6135940Y861170D01*
X6137079Y857539D01*
X6137759Y853800D01*
X6137990Y850000D01*
X6137759Y846210D01*
X6137079Y842460D01*
X6135940Y838829D01*
X6134380Y835359D01*
X6132420Y832109D01*
X6130069Y829119D01*
X6127380Y826430D01*
X6124390Y824079D01*
X6121130Y822109D01*
X6117659Y820549D01*
X6114030Y819420D01*
X6110290Y818739D01*
X6106499Y818510D01*
G37*
G36*
X6043500Y718510D02*
G01*
X6039709Y718739D01*
X6035969Y719420D01*
X6032330Y720549D01*
X6028869Y722109D01*
X6025609Y724079D01*
X6022619Y726430D01*
X6019930Y729119D01*
X6017579Y732109D01*
X6015609Y735359D01*
X6014049Y738829D01*
X6012920Y742460D01*
X6012240Y746210D01*
X6012010Y750000D01*
X6012240Y753800D01*
X6012920Y757539D01*
X6014049Y761170D01*
X6015609Y764640D01*
X6017579Y767890D01*
X6019930Y770890D01*
X6022619Y773580D01*
X6025609Y775920D01*
X6028869Y777890D01*
X6032330Y779450D01*
X6035969Y780579D01*
X6039709Y781269D01*
X6043500Y781500D01*
X6106499Y781500D01*
X6110290Y781269D01*
X6114030Y780579D01*
X6117659Y779450D01*
X6121130Y777890D01*
X6124390Y775920D01*
X6127380Y773580D01*
X6130069Y770890D01*
X6132420Y767890D01*
X6134380Y764640D01*
X6135940Y761170D01*
X6137079Y757539D01*
X6137759Y753800D01*
X6137990Y750000D01*
X6137759Y746210D01*
X6137079Y742460D01*
X6135940Y738829D01*
X6134380Y735359D01*
X6132420Y732109D01*
X6130069Y729119D01*
X6127380Y726430D01*
X6124390Y724079D01*
X6121130Y722109D01*
X6117659Y720549D01*
X6114030Y719420D01*
X6110290Y718739D01*
X6106499Y718510D01*
G37*
G36*
X5293500Y718510D02*
G01*
X5289709Y718739D01*
X5285969Y719420D01*
X5282340Y720549D01*
X5278869Y722109D01*
X5275609Y724079D01*
X5272619Y726430D01*
X5269930Y729119D01*
X5267579Y732109D01*
X5265619Y735359D01*
X5264059Y738829D01*
X5262920Y742460D01*
X5262240Y746210D01*
X5262010Y750000D01*
X5262240Y753800D01*
X5262920Y757539D01*
X5264059Y761170D01*
X5265619Y764640D01*
X5267579Y767890D01*
X5269930Y770890D01*
X5272619Y773580D01*
X5275609Y775920D01*
X5278869Y777890D01*
X5282340Y779450D01*
X5285969Y780579D01*
X5289709Y781269D01*
X5293500Y781500D01*
X5356499Y781500D01*
X5360290Y781269D01*
X5364030Y780579D01*
X5367669Y779450D01*
X5371130Y777890D01*
X5374390Y775920D01*
X5377380Y773580D01*
X5380069Y770890D01*
X5382420Y767890D01*
X5384390Y764640D01*
X5385950Y761170D01*
X5387079Y757539D01*
X5387759Y753800D01*
X5387990Y750000D01*
X5387759Y746210D01*
X5387079Y742460D01*
X5385950Y738829D01*
X5384390Y735359D01*
X5382420Y732109D01*
X5380069Y729119D01*
X5377380Y726430D01*
X5374390Y724079D01*
X5371130Y722109D01*
X5367669Y720549D01*
X5364030Y719420D01*
X5360290Y718739D01*
X5356499Y718510D01*
G37*
G36*
X5293500Y818510D02*
G01*
X5289709Y818739D01*
X5285969Y819420D01*
X5282340Y820549D01*
X5278869Y822109D01*
X5275609Y824079D01*
X5272619Y826430D01*
X5269930Y829119D01*
X5267579Y832109D01*
X5265619Y835359D01*
X5264059Y838829D01*
X5262920Y842460D01*
X5262240Y846210D01*
X5262010Y850000D01*
X5262240Y853800D01*
X5262920Y857539D01*
X5264059Y861170D01*
X5265619Y864640D01*
X5267579Y867890D01*
X5269930Y870890D01*
X5272619Y873580D01*
X5275609Y875920D01*
X5278869Y877890D01*
X5282340Y879450D01*
X5285969Y880579D01*
X5289709Y881269D01*
X5293500Y881500D01*
X5356499Y881500D01*
X5360290Y881269D01*
X5364030Y880579D01*
X5367669Y879450D01*
X5371130Y877890D01*
X5374390Y875920D01*
X5377380Y873580D01*
X5380069Y870890D01*
X5382420Y867890D01*
X5384390Y864640D01*
X5385950Y861170D01*
X5387079Y857539D01*
X5387759Y853800D01*
X5387990Y850000D01*
X5387759Y846210D01*
X5387079Y842460D01*
X5385950Y838829D01*
X5384390Y835359D01*
X5382420Y832109D01*
X5380069Y829119D01*
X5377380Y826430D01*
X5374390Y824079D01*
X5371130Y822109D01*
X5367669Y820549D01*
X5364030Y819420D01*
X5360290Y818739D01*
X5356499Y818510D01*
G37*
G01*
X5325000Y950005D03*
G36*
X5293500Y1018510D02*
G01*
X5289709Y1018730D01*
X5285969Y1019420D01*
X5282340Y1020549D01*
X5278869Y1022109D01*
X5275609Y1024079D01*
X5272619Y1026430D01*
X5269930Y1029119D01*
X5267579Y1032109D01*
X5265619Y1035359D01*
X5264059Y1038829D01*
X5262920Y1042460D01*
X5262240Y1046199D01*
X5262010Y1050000D01*
X5262240Y1053800D01*
X5262920Y1057539D01*
X5264059Y1061170D01*
X5265619Y1064640D01*
X5267579Y1067890D01*
X5269930Y1070890D01*
X5272619Y1073580D01*
X5275609Y1075920D01*
X5278869Y1077890D01*
X5282340Y1079450D01*
X5285969Y1080580D01*
X5289709Y1081269D01*
X5293500Y1081500D01*
X5356499Y1081500D01*
X5360290Y1081269D01*
X5364030Y1080580D01*
X5367669Y1079450D01*
X5371130Y1077890D01*
X5374390Y1075920D01*
X5377380Y1073580D01*
X5380069Y1070890D01*
X5382420Y1067890D01*
X5384390Y1064640D01*
X5385950Y1061170D01*
X5387079Y1057539D01*
X5387759Y1053800D01*
X5387990Y1050000D01*
X5387759Y1046199D01*
X5387079Y1042460D01*
X5385950Y1038829D01*
X5384390Y1035359D01*
X5382420Y1032109D01*
X5380069Y1029119D01*
X5377380Y1026430D01*
X5374390Y1024079D01*
X5371130Y1022109D01*
X5367669Y1020549D01*
X5364030Y1019420D01*
X5360290Y1018730D01*
X5356499Y1018510D01*
G37*
G36*
X5293500Y1118510D02*
G01*
X5289709Y1118730D01*
X5285969Y1119420D01*
X5282340Y1120549D01*
X5278869Y1122109D01*
X5275609Y1124079D01*
X5272619Y1126430D01*
X5269930Y1129119D01*
X5267579Y1132109D01*
X5265619Y1135359D01*
X5264059Y1138829D01*
X5262920Y1142460D01*
X5262240Y1146199D01*
X5262010Y1150000D01*
X5262240Y1153800D01*
X5262920Y1157539D01*
X5264059Y1161170D01*
X5265619Y1164640D01*
X5267579Y1167890D01*
X5269930Y1170890D01*
X5272619Y1173580D01*
X5275609Y1175920D01*
X5278869Y1177890D01*
X5282340Y1179450D01*
X5285969Y1180580D01*
X5289709Y1181269D01*
X5293500Y1181500D01*
X5356499Y1181500D01*
X5360290Y1181269D01*
X5364030Y1180580D01*
X5367669Y1179450D01*
X5371130Y1177890D01*
X5374390Y1175920D01*
X5377380Y1173580D01*
X5380069Y1170890D01*
X5382420Y1167890D01*
X5384390Y1164640D01*
X5385950Y1161170D01*
X5387079Y1157539D01*
X5387759Y1153800D01*
X5387990Y1150000D01*
X5387759Y1146199D01*
X5387079Y1142460D01*
X5385950Y1138829D01*
X5384390Y1135359D01*
X5382420Y1132109D01*
X5380069Y1129119D01*
X5377380Y1126430D01*
X5374390Y1124079D01*
X5371130Y1122109D01*
X5367669Y1120549D01*
X5364030Y1119420D01*
X5360290Y1118730D01*
X5356499Y1118510D01*
G37*
G36*
X5293500Y1218499D02*
G01*
X5289709Y1218730D01*
X5285969Y1219420D01*
X5282340Y1220549D01*
X5278869Y1222109D01*
X5275609Y1224079D01*
X5272619Y1226430D01*
X5269930Y1229119D01*
X5267579Y1232109D01*
X5265619Y1235359D01*
X5264059Y1238829D01*
X5262920Y1242460D01*
X5262240Y1246199D01*
X5262010Y1250000D01*
X5262240Y1253800D01*
X5262920Y1257539D01*
X5264059Y1261170D01*
X5265619Y1264640D01*
X5267579Y1267890D01*
X5269930Y1270890D01*
X5272619Y1273580D01*
X5275609Y1275920D01*
X5278869Y1277890D01*
X5282340Y1279450D01*
X5285969Y1280580D01*
X5289709Y1281269D01*
X5293500Y1281500D01*
X5356499Y1281500D01*
X5360290Y1281269D01*
X5364030Y1280580D01*
X5367669Y1279450D01*
X5371130Y1277890D01*
X5374390Y1275920D01*
X5377380Y1273580D01*
X5380069Y1270890D01*
X5382420Y1267890D01*
X5384390Y1264640D01*
X5385950Y1261170D01*
X5387079Y1257539D01*
X5387759Y1253800D01*
X5387990Y1250000D01*
X5387759Y1246199D01*
X5387079Y1242460D01*
X5385950Y1238829D01*
X5384390Y1235359D01*
X5382420Y1232109D01*
X5380069Y1229119D01*
X5377380Y1226430D01*
X5374390Y1224079D01*
X5371130Y1222109D01*
X5367669Y1220549D01*
X5364030Y1219420D01*
X5360290Y1218730D01*
X5356499Y1218499D01*
G37*
G36*
X5293500Y1318499D02*
G01*
X5289709Y1318730D01*
X5285969Y1319420D01*
X5282340Y1320549D01*
X5278869Y1322109D01*
X5275609Y1324079D01*
X5272619Y1326430D01*
X5269930Y1329109D01*
X5267579Y1332109D01*
X5265619Y1335359D01*
X5264059Y1338829D01*
X5262920Y1342460D01*
X5262240Y1346199D01*
X5262010Y1350000D01*
X5262240Y1353800D01*
X5262920Y1357539D01*
X5264059Y1361170D01*
X5265619Y1364640D01*
X5267579Y1367890D01*
X5269930Y1370890D01*
X5272619Y1373580D01*
X5275609Y1375920D01*
X5278869Y1377890D01*
X5282340Y1379450D01*
X5285969Y1380580D01*
X5289709Y1381269D01*
X5293500Y1381500D01*
X5356499Y1381500D01*
X5360290Y1381269D01*
X5364030Y1380580D01*
X5367669Y1379450D01*
X5371130Y1377890D01*
X5374390Y1375920D01*
X5377380Y1373580D01*
X5380069Y1370890D01*
X5382420Y1367890D01*
X5384390Y1364640D01*
X5385950Y1361170D01*
X5387079Y1357539D01*
X5387759Y1353800D01*
X5387990Y1350000D01*
X5387759Y1346199D01*
X5387079Y1342460D01*
X5385950Y1338829D01*
X5384390Y1335359D01*
X5382420Y1332109D01*
X5380069Y1329109D01*
X5377380Y1326430D01*
X5374390Y1324079D01*
X5371130Y1322109D01*
X5367669Y1320549D01*
X5364030Y1319420D01*
X5360290Y1318730D01*
X5356499Y1318499D01*
G37*
G01*
X5325000Y1450000D03*
G36*
X5293500Y1518499D02*
G01*
X5289709Y1518730D01*
X5285969Y1519420D01*
X5282340Y1520549D01*
X5278869Y1522109D01*
X5275609Y1524079D01*
X5272619Y1526430D01*
X5269930Y1529109D01*
X5267579Y1532109D01*
X5265619Y1535359D01*
X5264059Y1538829D01*
X5262920Y1542460D01*
X5262240Y1546199D01*
X5262010Y1550000D01*
X5262240Y1553800D01*
X5262920Y1557539D01*
X5264059Y1561170D01*
X5265619Y1564640D01*
X5267579Y1567890D01*
X5269930Y1570890D01*
X5272619Y1573580D01*
X5275609Y1575920D01*
X5278869Y1577890D01*
X5282340Y1579450D01*
X5285969Y1580580D01*
X5289709Y1581269D01*
X5293500Y1581500D01*
X5356499Y1581500D01*
X5360290Y1581269D01*
X5364030Y1580580D01*
X5367669Y1579450D01*
X5371130Y1577890D01*
X5374390Y1575920D01*
X5377380Y1573580D01*
X5380069Y1570890D01*
X5382420Y1567890D01*
X5384390Y1564640D01*
X5385950Y1561170D01*
X5387079Y1557539D01*
X5387759Y1553800D01*
X5387990Y1550000D01*
X5387759Y1546199D01*
X5387079Y1542460D01*
X5385950Y1538829D01*
X5384390Y1535359D01*
X5382420Y1532109D01*
X5380069Y1529109D01*
X5377380Y1526430D01*
X5374390Y1524079D01*
X5371130Y1522109D01*
X5367669Y1520549D01*
X5364030Y1519420D01*
X5360290Y1518730D01*
X5356499Y1518499D01*
G37*
G36*
X5293500Y1618499D02*
G01*
X5289709Y1618730D01*
X5285969Y1619420D01*
X5282340Y1620549D01*
X5278869Y1622109D01*
X5275609Y1624079D01*
X5272619Y1626430D01*
X5269930Y1629109D01*
X5267579Y1632109D01*
X5265619Y1635359D01*
X5264059Y1638829D01*
X5262920Y1642460D01*
X5262240Y1646199D01*
X5262010Y1650000D01*
X5262240Y1653800D01*
X5262920Y1657539D01*
X5264059Y1661170D01*
X5265619Y1664640D01*
X5267579Y1667890D01*
X5269930Y1670890D01*
X5272619Y1673580D01*
X5275609Y1675920D01*
X5278869Y1677890D01*
X5282340Y1679450D01*
X5285969Y1680580D01*
X5289709Y1681269D01*
X5293500Y1681500D01*
X5356499Y1681500D01*
X5360290Y1681269D01*
X5364030Y1680580D01*
X5367669Y1679450D01*
X5371130Y1677890D01*
X5374390Y1675920D01*
X5377380Y1673580D01*
X5380069Y1670890D01*
X5382420Y1667890D01*
X5384390Y1664640D01*
X5385950Y1661170D01*
X5387079Y1657539D01*
X5387759Y1653800D01*
X5387990Y1650000D01*
X5387759Y1646199D01*
X5387079Y1642460D01*
X5385950Y1638829D01*
X5384390Y1635359D01*
X5382420Y1632109D01*
X5380069Y1629109D01*
X5377380Y1626430D01*
X5374390Y1624079D01*
X5371130Y1622109D01*
X5367669Y1620549D01*
X5364030Y1619420D01*
X5360290Y1618730D01*
X5356499Y1618499D01*
G37*
G36*
X5293500Y1718499D02*
G01*
X5289709Y1718730D01*
X5285969Y1719420D01*
X5282340Y1720549D01*
X5278869Y1722109D01*
X5275609Y1724079D01*
X5272619Y1726419D01*
X5269930Y1729109D01*
X5267579Y1732109D01*
X5265619Y1735359D01*
X5264059Y1738829D01*
X5262920Y1742460D01*
X5262240Y1746199D01*
X5262010Y1750000D01*
X5262240Y1753800D01*
X5262920Y1757539D01*
X5264059Y1761170D01*
X5265619Y1764640D01*
X5267579Y1767890D01*
X5269930Y1770890D01*
X5272619Y1773569D01*
X5275609Y1775920D01*
X5278869Y1777890D01*
X5282340Y1779450D01*
X5285969Y1780580D01*
X5289709Y1781269D01*
X5293500Y1781500D01*
X5356499Y1781500D01*
X5360290Y1781269D01*
X5364030Y1780580D01*
X5367669Y1779450D01*
X5371130Y1777890D01*
X5374390Y1775920D01*
X5377380Y1773569D01*
X5380069Y1770890D01*
X5382420Y1767890D01*
X5384390Y1764640D01*
X5385950Y1761170D01*
X5387079Y1757539D01*
X5387759Y1753800D01*
X5387990Y1750000D01*
X5387759Y1746199D01*
X5387079Y1742460D01*
X5385950Y1738829D01*
X5384390Y1735359D01*
X5382420Y1732109D01*
X5380069Y1729109D01*
X5377380Y1726419D01*
X5374390Y1724079D01*
X5371130Y1722109D01*
X5367669Y1720549D01*
X5364030Y1719420D01*
X5360290Y1718730D01*
X5356499Y1718499D01*
G37*
G36*
X5293500Y1818499D02*
G01*
X5289709Y1818730D01*
X5285969Y1819420D01*
X5282340Y1820549D01*
X5278869Y1822109D01*
X5275609Y1824079D01*
X5272619Y1826419D01*
X5269930Y1829109D01*
X5267579Y1832109D01*
X5265619Y1835359D01*
X5264059Y1838829D01*
X5262920Y1842460D01*
X5262240Y1846199D01*
X5262010Y1850000D01*
X5262240Y1853800D01*
X5262920Y1857539D01*
X5264059Y1861170D01*
X5265619Y1864640D01*
X5267579Y1867890D01*
X5269930Y1870890D01*
X5272619Y1873569D01*
X5275609Y1875920D01*
X5278869Y1877890D01*
X5282340Y1879450D01*
X5285969Y1880580D01*
X5289709Y1881269D01*
X5293500Y1881500D01*
X5356499Y1881500D01*
X5360290Y1881269D01*
X5364030Y1880580D01*
X5367669Y1879450D01*
X5371130Y1877890D01*
X5374390Y1875920D01*
X5377380Y1873569D01*
X5380069Y1870890D01*
X5382420Y1867890D01*
X5384390Y1864640D01*
X5385950Y1861170D01*
X5387079Y1857539D01*
X5387759Y1853800D01*
X5387990Y1850000D01*
X5387759Y1846199D01*
X5387079Y1842460D01*
X5385950Y1838829D01*
X5384390Y1835359D01*
X5382420Y1832109D01*
X5380069Y1829109D01*
X5377380Y1826419D01*
X5374390Y1824079D01*
X5371130Y1822109D01*
X5367669Y1820549D01*
X5364030Y1819420D01*
X5360290Y1818730D01*
X5356499Y1818499D01*
G37*
G01*
X5325000Y1950000D03*
G36*
X5293500Y2018499D02*
G01*
X5289709Y2018730D01*
X5285969Y2019420D01*
X5282340Y2020549D01*
X5278869Y2022109D01*
X5275609Y2024079D01*
X5272619Y2026419D01*
X5269930Y2029109D01*
X5267579Y2032109D01*
X5265619Y2035359D01*
X5264059Y2038829D01*
X5262920Y2042460D01*
X5262240Y2046199D01*
X5262010Y2050000D01*
X5262240Y2053800D01*
X5262920Y2057539D01*
X5264059Y2061170D01*
X5265619Y2064640D01*
X5267579Y2067890D01*
X5269930Y2070890D01*
X5272619Y2073569D01*
X5275609Y2075920D01*
X5278869Y2077890D01*
X5282340Y2079450D01*
X5285969Y2080580D01*
X5289709Y2081269D01*
X5293500Y2081500D01*
X5356499Y2081500D01*
X5360290Y2081269D01*
X5364030Y2080580D01*
X5367669Y2079450D01*
X5371130Y2077890D01*
X5374390Y2075920D01*
X5377380Y2073569D01*
X5380069Y2070890D01*
X5382420Y2067890D01*
X5384390Y2064640D01*
X5385950Y2061170D01*
X5387079Y2057539D01*
X5387759Y2053800D01*
X5387990Y2050000D01*
X5387759Y2046199D01*
X5387079Y2042460D01*
X5385950Y2038829D01*
X5384390Y2035359D01*
X5382420Y2032109D01*
X5380069Y2029109D01*
X5377380Y2026419D01*
X5374390Y2024079D01*
X5371130Y2022109D01*
X5367669Y2020549D01*
X5364030Y2019420D01*
X5360290Y2018730D01*
X5356499Y2018499D01*
G37*
G36*
X5293500Y2118499D02*
G01*
X5289709Y2118730D01*
X5285969Y2119420D01*
X5282340Y2120549D01*
X5278869Y2122109D01*
X5275609Y2124079D01*
X5272619Y2126419D01*
X5269930Y2129109D01*
X5267579Y2132109D01*
X5265619Y2135359D01*
X5264059Y2138829D01*
X5262920Y2142460D01*
X5262240Y2146199D01*
X5262010Y2150000D01*
X5262240Y2153800D01*
X5262920Y2157539D01*
X5264059Y2161170D01*
X5265619Y2164640D01*
X5267579Y2167890D01*
X5269930Y2170880D01*
X5272619Y2173569D01*
X5275609Y2175920D01*
X5278869Y2177890D01*
X5282340Y2179450D01*
X5285969Y2180580D01*
X5289709Y2181269D01*
X5293500Y2181500D01*
X5356499Y2181500D01*
X5360290Y2181269D01*
X5364030Y2180580D01*
X5367669Y2179450D01*
X5371130Y2177890D01*
X5374390Y2175920D01*
X5377380Y2173569D01*
X5380069Y2170880D01*
X5382420Y2167890D01*
X5384390Y2164640D01*
X5385950Y2161170D01*
X5387079Y2157539D01*
X5387759Y2153800D01*
X5387990Y2150000D01*
X5387759Y2146199D01*
X5387079Y2142460D01*
X5385950Y2138829D01*
X5384390Y2135359D01*
X5382420Y2132109D01*
X5380069Y2129109D01*
X5377380Y2126419D01*
X5374390Y2124079D01*
X5371130Y2122109D01*
X5367669Y2120549D01*
X5364030Y2119420D01*
X5360290Y2118730D01*
X5356499Y2118499D01*
G37*
G36*
X5293500Y2218499D02*
G01*
X5289709Y2218730D01*
X5285969Y2219420D01*
X5282340Y2220549D01*
X5278869Y2222109D01*
X5275609Y2224079D01*
X5272619Y2226419D01*
X5269930Y2229109D01*
X5267579Y2232109D01*
X5265619Y2235359D01*
X5264059Y2238829D01*
X5262920Y2242460D01*
X5262240Y2246199D01*
X5262010Y2250000D01*
X5262240Y2253800D01*
X5262920Y2257539D01*
X5264059Y2261170D01*
X5265619Y2264640D01*
X5267579Y2267890D01*
X5269930Y2270880D01*
X5272619Y2273569D01*
X5275609Y2275920D01*
X5278869Y2277890D01*
X5282340Y2279450D01*
X5285969Y2280580D01*
X5289709Y2281269D01*
X5293500Y2281489D01*
X5356499Y2281489D01*
X5360290Y2281269D01*
X5364030Y2280580D01*
X5367669Y2279450D01*
X5371130Y2277890D01*
X5374390Y2275920D01*
X5377380Y2273569D01*
X5380069Y2270880D01*
X5382420Y2267890D01*
X5384390Y2264640D01*
X5385950Y2261170D01*
X5387079Y2257539D01*
X5387759Y2253800D01*
X5387990Y2250000D01*
X5387759Y2246199D01*
X5387079Y2242460D01*
X5385950Y2238829D01*
X5384390Y2235359D01*
X5382420Y2232109D01*
X5380069Y2229109D01*
X5377380Y2226419D01*
X5374390Y2224079D01*
X5371130Y2222109D01*
X5367669Y2220549D01*
X5364030Y2219420D01*
X5360290Y2218730D01*
X5356499Y2218499D01*
G37*
G36*
X5293500Y2318499D02*
G01*
X5289709Y2318730D01*
X5285969Y2319420D01*
X5282340Y2320549D01*
X5278869Y2322109D01*
X5275609Y2324079D01*
X5272619Y2326419D01*
X5269930Y2329109D01*
X5267579Y2332109D01*
X5265619Y2335359D01*
X5264059Y2338829D01*
X5262920Y2342460D01*
X5262240Y2346199D01*
X5262010Y2350000D01*
X5262240Y2353800D01*
X5262920Y2357539D01*
X5264059Y2361170D01*
X5265619Y2364640D01*
X5267579Y2367890D01*
X5269930Y2370880D01*
X5272619Y2373569D01*
X5275609Y2375920D01*
X5278869Y2377890D01*
X5282340Y2379450D01*
X5285969Y2380580D01*
X5289709Y2381269D01*
X5293500Y2381489D01*
X5356499Y2381489D01*
X5360290Y2381269D01*
X5364030Y2380580D01*
X5367669Y2379450D01*
X5371130Y2377890D01*
X5374390Y2375920D01*
X5377380Y2373569D01*
X5380069Y2370880D01*
X5382420Y2367890D01*
X5384390Y2364640D01*
X5385950Y2361170D01*
X5387079Y2357539D01*
X5387759Y2353800D01*
X5387990Y2350000D01*
X5387759Y2346199D01*
X5387079Y2342460D01*
X5385950Y2338829D01*
X5384390Y2335359D01*
X5382420Y2332109D01*
X5380069Y2329109D01*
X5377380Y2326419D01*
X5374390Y2324079D01*
X5371130Y2322109D01*
X5367669Y2320549D01*
X5364030Y2319420D01*
X5360290Y2318730D01*
X5356499Y2318499D01*
G37*
G01*
X5325000Y2449994D03*
G36*
X5293500Y2518499D02*
G01*
X5289709Y2518730D01*
X5285969Y2519420D01*
X5282340Y2520549D01*
X5278869Y2522109D01*
X5275609Y2524079D01*
X5272619Y2526419D01*
X5269930Y2529109D01*
X5267579Y2532109D01*
X5265619Y2535359D01*
X5264059Y2538829D01*
X5262920Y2542460D01*
X5262240Y2546199D01*
X5262010Y2550000D01*
X5262240Y2553789D01*
X5262920Y2557539D01*
X5264059Y2561170D01*
X5265619Y2564640D01*
X5267579Y2567890D01*
X5269930Y2570880D01*
X5272619Y2573569D01*
X5275609Y2575920D01*
X5278869Y2577890D01*
X5282340Y2579450D01*
X5285969Y2580580D01*
X5289709Y2581260D01*
X5293500Y2581489D01*
X5356499Y2581489D01*
X5360290Y2581260D01*
X5364030Y2580580D01*
X5367669Y2579450D01*
X5371130Y2577890D01*
X5374390Y2575920D01*
X5377380Y2573569D01*
X5380069Y2570880D01*
X5382420Y2567890D01*
X5384390Y2564640D01*
X5385950Y2561170D01*
X5387079Y2557539D01*
X5387759Y2553789D01*
X5387990Y2550000D01*
X5387759Y2546199D01*
X5387079Y2542460D01*
X5385950Y2538829D01*
X5384390Y2535359D01*
X5382420Y2532109D01*
X5380069Y2529109D01*
X5377380Y2526419D01*
X5374390Y2524079D01*
X5371130Y2522109D01*
X5367669Y2520549D01*
X5364030Y2519420D01*
X5360290Y2518730D01*
X5356499Y2518499D01*
G37*
G36*
X5293500Y2618499D02*
G01*
X5289709Y2618730D01*
X5285969Y2619420D01*
X5282340Y2620549D01*
X5278869Y2622109D01*
X5275609Y2624079D01*
X5272619Y2626419D01*
X5269930Y2629109D01*
X5267579Y2632109D01*
X5265619Y2635359D01*
X5264059Y2638829D01*
X5262920Y2642460D01*
X5262240Y2646199D01*
X5262010Y2650000D01*
X5262240Y2653789D01*
X5262920Y2657539D01*
X5264059Y2661170D01*
X5265619Y2664640D01*
X5267579Y2667890D01*
X5269930Y2670880D01*
X5272619Y2673569D01*
X5275609Y2675920D01*
X5278869Y2677890D01*
X5282340Y2679450D01*
X5285969Y2680580D01*
X5289709Y2681260D01*
X5293500Y2681489D01*
X5356499Y2681489D01*
X5360290Y2681260D01*
X5364030Y2680580D01*
X5367669Y2679450D01*
X5371130Y2677890D01*
X5374390Y2675920D01*
X5377380Y2673569D01*
X5380069Y2670880D01*
X5382420Y2667890D01*
X5384390Y2664640D01*
X5385950Y2661170D01*
X5387079Y2657539D01*
X5387759Y2653789D01*
X5387990Y2650000D01*
X5387759Y2646199D01*
X5387079Y2642460D01*
X5385950Y2638829D01*
X5384390Y2635359D01*
X5382420Y2632109D01*
X5380069Y2629109D01*
X5377380Y2626419D01*
X5374390Y2624079D01*
X5371130Y2622109D01*
X5367669Y2620549D01*
X5364030Y2619420D01*
X5360290Y2618730D01*
X5356499Y2618499D01*
G37*
G36*
X5668500Y781500D02*
G01*
X5668729Y785290D01*
X5669420Y789040D01*
X5670550Y792669D01*
X5672110Y796129D01*
X5674080Y799389D01*
X5676419Y802379D01*
X5679110Y805070D01*
X5682110Y807420D01*
X5685360Y809389D01*
X5688829Y810949D01*
X5692460Y812080D01*
X5696199Y812759D01*
X5700000Y812990D01*
X5703800Y812759D01*
X5707539Y812080D01*
X5711170Y810949D01*
X5714639Y809389D01*
X5717889Y807420D01*
X5720889Y805070D01*
X5723580Y802379D01*
X5725919Y799389D01*
X5727889Y796129D01*
X5729449Y792669D01*
X5730580Y789040D01*
X5731270Y785290D01*
X5731499Y781500D01*
X5731499Y718510D01*
X5731270Y714709D01*
X5730580Y710970D01*
X5729449Y707339D01*
X5727889Y703870D01*
X5725919Y700610D01*
X5723580Y697620D01*
X5720889Y694929D01*
X5717889Y692590D01*
X5714639Y690619D01*
X5711170Y689059D01*
X5707539Y687929D01*
X5703800Y687240D01*
X5700000Y687009D01*
X5696199Y687240D01*
X5692460Y687929D01*
X5688829Y689059D01*
X5685360Y690619D01*
X5682110Y692590D01*
X5679110Y694929D01*
X5676419Y697620D01*
X5674080Y700610D01*
X5672110Y703870D01*
X5670550Y707339D01*
X5669420Y710970D01*
X5668729Y714709D01*
X5668500Y718510D01*
G37*
G36*
X5568500Y781500D02*
G01*
X5568729Y785290D01*
X5569420Y789040D01*
X5570550Y792669D01*
X5572110Y796129D01*
X5574080Y799389D01*
X5576430Y802379D01*
X5579110Y805070D01*
X5582110Y807420D01*
X5585360Y809389D01*
X5588829Y810949D01*
X5592460Y812080D01*
X5596199Y812759D01*
X5600000Y812990D01*
X5603800Y812759D01*
X5607539Y812080D01*
X5611170Y810949D01*
X5614639Y809389D01*
X5617889Y807420D01*
X5620889Y805070D01*
X5623580Y802379D01*
X5625919Y799389D01*
X5627889Y796129D01*
X5629449Y792669D01*
X5630580Y789040D01*
X5631270Y785290D01*
X5631499Y781500D01*
X5631499Y718510D01*
X5631270Y714709D01*
X5630580Y710970D01*
X5629449Y707339D01*
X5627889Y703870D01*
X5625919Y700610D01*
X5623580Y697620D01*
X5620889Y694929D01*
X5617889Y692590D01*
X5614639Y690619D01*
X5611170Y689059D01*
X5607539Y687929D01*
X5603800Y687240D01*
X5600000Y687009D01*
X5596199Y687240D01*
X5592460Y687929D01*
X5588829Y689059D01*
X5585360Y690619D01*
X5582110Y692590D01*
X5579110Y694929D01*
X5576430Y697620D01*
X5574080Y700610D01*
X5572110Y703870D01*
X5570550Y707339D01*
X5569420Y710970D01*
X5568729Y714709D01*
X5568500Y718510D01*
G37*
G36*
X5768500Y781500D02*
G01*
X5768729Y785290D01*
X5769420Y789040D01*
X5770550Y792669D01*
X5772110Y796129D01*
X5774080Y799389D01*
X5776419Y802379D01*
X5779110Y805070D01*
X5782110Y807420D01*
X5785360Y809389D01*
X5788829Y810949D01*
X5792460Y812080D01*
X5796199Y812759D01*
X5800000Y812990D01*
X5803800Y812759D01*
X5807539Y812080D01*
X5811170Y810949D01*
X5814639Y809389D01*
X5817889Y807420D01*
X5820889Y805070D01*
X5823570Y802379D01*
X5825919Y799389D01*
X5827889Y796129D01*
X5829449Y792669D01*
X5830580Y789040D01*
X5831270Y785290D01*
X5831499Y781500D01*
X5831499Y718510D01*
X5831270Y714709D01*
X5830580Y710970D01*
X5829449Y707339D01*
X5827889Y703870D01*
X5825919Y700610D01*
X5823570Y697620D01*
X5820889Y694929D01*
X5817889Y692590D01*
X5814639Y690619D01*
X5811170Y689059D01*
X5807539Y687929D01*
X5803800Y687240D01*
X5800000Y687009D01*
X5796199Y687240D01*
X5792460Y687929D01*
X5788829Y689059D01*
X5785360Y690619D01*
X5782110Y692590D01*
X5779110Y694929D01*
X5776419Y697620D01*
X5774080Y700610D01*
X5772110Y703870D01*
X5770550Y707339D01*
X5769420Y710970D01*
X5768729Y714709D01*
X5768500Y718510D01*
G37*
D11*
G01*
X541350Y3050000D03*
G01*
X458649Y3050000D03*
G01*
X541350Y2950000D03*
G01*
X458649Y2950000D03*
G01*
X541350Y2850000D03*
G01*
X458649Y2850000D03*
G01*
X541350Y2750000D03*
G01*
X458649Y2750000D03*
M02*
