G04 Layer: TopSilkscreenLayer*
G04 EasyEDA v6.5.20, 2022-11-29 04:13:21*
G04 a67cddfb3fce44daa9051d46cbbcc19f,10*
G04 Gerber Generator version 0.2*
G04 Scale: 100 percent, Rotated: No, Reflected: No *
G04 Dimensions in inches *
G04 leading zeros omitted , absolute positions ,3 integer and 6 decimal *
%FSLAX36Y36*%
%MOIN*%

%ADD10C,0.0080*%
%ADD11C,0.0060*%
%ADD12C,0.0100*%
%ADD13C,0.0079*%
%ADD14C,0.0050*%
%ADD15C,0.0090*%
%ADD16C,0.0059*%
%ADD17C,0.0197*%
%ADD18C,0.0157*%
%ADD19C,0.0198*%

%LPD*%
D10*
X4254549Y3442500D02*
G01*
X4250950Y3449800D01*
X4243649Y3457100D01*
X4236350Y3460700D01*
X4221850Y3460700D01*
X4214549Y3457100D01*
X4207250Y3449800D01*
X4203649Y3442500D01*
X4200050Y3431599D01*
X4200050Y3413499D01*
X4203649Y3402500D01*
X4207250Y3395300D01*
X4214549Y3388000D01*
X4221850Y3384400D01*
X4236350Y3384400D01*
X4243649Y3388000D01*
X4250950Y3395300D01*
X4254549Y3402500D01*
X4278549Y3460700D02*
G01*
X4278549Y3384400D01*
X4278549Y3460700D02*
G01*
X4311250Y3460700D01*
X4322150Y3457100D01*
X4325850Y3453499D01*
X4329449Y3446199D01*
X4329449Y3435300D01*
X4325850Y3428000D01*
X4322150Y3424400D01*
X4311250Y3420700D01*
X4278549Y3420700D01*
X4353450Y3460700D02*
G01*
X4353450Y3406199D01*
X4357049Y3395300D01*
X4364350Y3388000D01*
X4375249Y3384400D01*
X4382550Y3384400D01*
X4393450Y3388000D01*
X4400749Y3395300D01*
X4404350Y3406199D01*
X4404350Y3460700D01*
X2310900Y3139850D02*
G01*
X2303599Y3147049D01*
X2292700Y3150749D01*
X2278199Y3150749D01*
X2267299Y3147049D01*
X2260000Y3139850D01*
X2260000Y3132550D01*
X2263599Y3125250D01*
X2267299Y3121649D01*
X2274499Y3117950D01*
X2296400Y3110749D01*
X2303599Y3107049D01*
X2307299Y3103449D01*
X2310900Y3096149D01*
X2310900Y3085250D01*
X2303599Y3077950D01*
X2292700Y3074349D01*
X2278199Y3074349D01*
X2267299Y3077950D01*
X2260000Y3085250D01*
X2334899Y3150749D02*
G01*
X2334899Y3074349D01*
X2334899Y3150749D02*
G01*
X2367600Y3150749D01*
X2378500Y3147049D01*
X2382200Y3143449D01*
X2385799Y3136149D01*
X2385799Y3128950D01*
X2382200Y3121649D01*
X2378500Y3117950D01*
X2367600Y3114349D01*
X2334899Y3114349D01*
X2360399Y3114349D02*
G01*
X2385799Y3074349D01*
X2438900Y3150749D02*
G01*
X2409799Y3074349D01*
X2438900Y3150749D02*
G01*
X2468000Y3074349D01*
X2420699Y3099850D02*
G01*
X2457100Y3099850D01*
X2491999Y3150749D02*
G01*
X2491999Y3074349D01*
X2491999Y3150749D02*
G01*
X2521099Y3074349D01*
X2550200Y3150749D02*
G01*
X2521099Y3074349D01*
X2550200Y3150749D02*
G01*
X2550200Y3074349D01*
X3180050Y3090749D02*
G01*
X3180050Y3014349D01*
X3180050Y3090749D02*
G01*
X3227250Y3090749D01*
X3180050Y3054349D02*
G01*
X3209049Y3054349D01*
X3180050Y3014349D02*
G01*
X3227250Y3014349D01*
X3251250Y3090749D02*
G01*
X3251250Y3014349D01*
X3251250Y3090749D02*
G01*
X3298549Y3090749D01*
X3251250Y3054349D02*
G01*
X3280349Y3054349D01*
X3251250Y3014349D02*
G01*
X3298549Y3014349D01*
X3322550Y3090749D02*
G01*
X3322550Y3014349D01*
X3322550Y3090749D02*
G01*
X3355249Y3090749D01*
X3366149Y3087049D01*
X3369849Y3083449D01*
X3373450Y3076149D01*
X3373450Y3065250D01*
X3369849Y3057950D01*
X3366149Y3054349D01*
X3355249Y3050749D01*
X3322550Y3050749D01*
X3397449Y3090749D02*
G01*
X3397449Y3014349D01*
X3397449Y3090749D02*
G01*
X3430150Y3090749D01*
X3441049Y3087049D01*
X3444750Y3083449D01*
X3448350Y3076149D01*
X3448350Y3068950D01*
X3444750Y3061649D01*
X3441049Y3057950D01*
X3430150Y3054349D01*
X3397449Y3054349D01*
X3422950Y3054349D02*
G01*
X3448350Y3014349D01*
X3494149Y3090749D02*
G01*
X3486949Y3087049D01*
X3479650Y3079850D01*
X3475950Y3072550D01*
X3472349Y3061649D01*
X3472349Y3043449D01*
X3475950Y3032550D01*
X3479650Y3025250D01*
X3486949Y3017950D01*
X3494149Y3014349D01*
X3508750Y3014349D01*
X3515950Y3017950D01*
X3523249Y3025250D01*
X3526949Y3032550D01*
X3530550Y3043449D01*
X3530550Y3061649D01*
X3526949Y3072550D01*
X3523249Y3079850D01*
X3515950Y3087049D01*
X3508750Y3090749D01*
X3494149Y3090749D01*
X3554549Y3090749D02*
G01*
X3554549Y3014349D01*
X3554549Y3090749D02*
G01*
X3583649Y3014349D01*
X3612749Y3090749D02*
G01*
X3583649Y3014349D01*
X3612749Y3090749D02*
G01*
X3612749Y3014349D01*
X1280000Y3610700D02*
G01*
X1309099Y3534400D01*
X1338199Y3610700D02*
G01*
X1309099Y3534400D01*
X1362200Y3563499D02*
G01*
X1405799Y3563499D01*
X1405799Y3570700D01*
X1402200Y3578000D01*
X1398500Y3581599D01*
X1391300Y3585300D01*
X1380399Y3585300D01*
X1373100Y3581599D01*
X1365799Y3574400D01*
X1362200Y3563499D01*
X1362200Y3556199D01*
X1365799Y3545300D01*
X1373100Y3538000D01*
X1380399Y3534400D01*
X1391300Y3534400D01*
X1398500Y3538000D01*
X1405799Y3545300D01*
X1429799Y3585300D02*
G01*
X1429799Y3534400D01*
X1429799Y3563499D02*
G01*
X1433500Y3574400D01*
X1440699Y3581599D01*
X1448000Y3585300D01*
X1458900Y3585300D01*
X1522899Y3574400D02*
G01*
X1519300Y3581599D01*
X1508400Y3585300D01*
X1497500Y3585300D01*
X1486499Y3581599D01*
X1482899Y3574400D01*
X1486499Y3567100D01*
X1493800Y3563499D01*
X1511999Y3559800D01*
X1519300Y3556199D01*
X1522899Y3548899D01*
X1522899Y3545300D01*
X1519300Y3538000D01*
X1508400Y3534400D01*
X1497500Y3534400D01*
X1486499Y3538000D01*
X1482899Y3545300D01*
X1590500Y3585300D02*
G01*
X1590500Y3534400D01*
X1590500Y3574400D02*
G01*
X1583299Y3581599D01*
X1576000Y3585300D01*
X1565100Y3585300D01*
X1557799Y3581599D01*
X1550500Y3574400D01*
X1546899Y3563499D01*
X1546899Y3556199D01*
X1550500Y3545300D01*
X1557799Y3538000D01*
X1565100Y3534400D01*
X1576000Y3534400D01*
X1583299Y3538000D01*
X1590500Y3545300D01*
X1625500Y3610700D02*
G01*
X1625500Y3548899D01*
X1629099Y3538000D01*
X1636400Y3534400D01*
X1643599Y3534400D01*
X1614499Y3585300D02*
G01*
X1640000Y3585300D01*
X1667600Y3610700D02*
G01*
X1671300Y3607100D01*
X1674899Y3610700D01*
X1671300Y3614400D01*
X1667600Y3610700D01*
X1671300Y3585300D02*
G01*
X1671300Y3534400D01*
X1698900Y3610700D02*
G01*
X1698900Y3534400D01*
X1722899Y3563499D02*
G01*
X1766499Y3563499D01*
X1766499Y3570700D01*
X1762899Y3578000D01*
X1759300Y3581599D01*
X1751999Y3585300D01*
X1741099Y3585300D01*
X1733800Y3581599D01*
X1726499Y3574400D01*
X1722899Y3563499D01*
X1722899Y3556199D01*
X1726499Y3545300D01*
X1733800Y3538000D01*
X1741099Y3534400D01*
X1751999Y3534400D01*
X1759300Y3538000D01*
X1766499Y3545300D01*
X1280000Y3490700D02*
G01*
X1280000Y3414400D01*
X1303999Y3465300D02*
G01*
X1303999Y3414400D01*
X1303999Y3450700D02*
G01*
X1314899Y3461599D01*
X1322200Y3465300D01*
X1333100Y3465300D01*
X1340399Y3461599D01*
X1343999Y3450700D01*
X1343999Y3414400D01*
X1378900Y3490700D02*
G01*
X1378900Y3428899D01*
X1382500Y3418000D01*
X1389799Y3414400D01*
X1397100Y3414400D01*
X1368000Y3465300D02*
G01*
X1393500Y3465300D01*
X1421099Y3443499D02*
G01*
X1464700Y3443499D01*
X1464700Y3450700D01*
X1461099Y3458000D01*
X1457500Y3461599D01*
X1450200Y3465300D01*
X1439300Y3465300D01*
X1431999Y3461599D01*
X1424700Y3454400D01*
X1421099Y3443499D01*
X1421099Y3436199D01*
X1424700Y3425300D01*
X1431999Y3418000D01*
X1439300Y3414400D01*
X1450200Y3414400D01*
X1457500Y3418000D01*
X1464700Y3425300D01*
X1488699Y3465300D02*
G01*
X1488699Y3414400D01*
X1488699Y3443499D02*
G01*
X1492399Y3454400D01*
X1499600Y3461599D01*
X1506899Y3465300D01*
X1517799Y3465300D01*
X1570900Y3490700D02*
G01*
X1563599Y3490700D01*
X1556400Y3487100D01*
X1552700Y3476199D01*
X1552700Y3414400D01*
X1541800Y3465300D02*
G01*
X1567299Y3465300D01*
X1638500Y3465300D02*
G01*
X1638500Y3414400D01*
X1638500Y3454400D02*
G01*
X1631300Y3461599D01*
X1623999Y3465300D01*
X1613100Y3465300D01*
X1605799Y3461599D01*
X1598500Y3454400D01*
X1594899Y3443499D01*
X1594899Y3436199D01*
X1598500Y3425300D01*
X1605799Y3418000D01*
X1613100Y3414400D01*
X1623999Y3414400D01*
X1631300Y3418000D01*
X1638500Y3425300D01*
X1706199Y3454400D02*
G01*
X1698900Y3461599D01*
X1691599Y3465300D01*
X1680699Y3465300D01*
X1673500Y3461599D01*
X1666199Y3454400D01*
X1662500Y3443499D01*
X1662500Y3436199D01*
X1666199Y3425300D01*
X1673500Y3418000D01*
X1680699Y3414400D01*
X1691599Y3414400D01*
X1698900Y3418000D01*
X1706199Y3425300D01*
X1730200Y3443499D02*
G01*
X1773800Y3443499D01*
X1773800Y3450700D01*
X1770200Y3458000D01*
X1766499Y3461599D01*
X1759300Y3465300D01*
X1748400Y3465300D01*
X1741099Y3461599D01*
X1733800Y3454400D01*
X1730200Y3443499D01*
X1730200Y3436199D01*
X1733800Y3425300D01*
X1741099Y3418000D01*
X1748400Y3414400D01*
X1759300Y3414400D01*
X1766499Y3418000D01*
X1773800Y3425300D01*
X1309099Y3370700D02*
G01*
X1280000Y3294400D01*
X1309099Y3370700D02*
G01*
X1338199Y3294400D01*
X1290900Y3319800D02*
G01*
X1327299Y3319800D01*
X1405799Y3370700D02*
G01*
X1405799Y3294400D01*
X1405799Y3334400D02*
G01*
X1398500Y3341599D01*
X1391300Y3345300D01*
X1380399Y3345300D01*
X1373100Y3341599D01*
X1365799Y3334400D01*
X1362200Y3323499D01*
X1362200Y3316199D01*
X1365799Y3305300D01*
X1373100Y3298000D01*
X1380399Y3294400D01*
X1391300Y3294400D01*
X1398500Y3298000D01*
X1405799Y3305300D01*
X1473500Y3345300D02*
G01*
X1473500Y3294400D01*
X1473500Y3334400D02*
G01*
X1466199Y3341599D01*
X1458900Y3345300D01*
X1448000Y3345300D01*
X1440699Y3341599D01*
X1433500Y3334400D01*
X1429799Y3323499D01*
X1429799Y3316199D01*
X1433500Y3305300D01*
X1440699Y3298000D01*
X1448000Y3294400D01*
X1458900Y3294400D01*
X1466199Y3298000D01*
X1473500Y3305300D01*
X1497500Y3345300D02*
G01*
X1497500Y3268899D01*
X1497500Y3334400D02*
G01*
X1504700Y3341599D01*
X1511999Y3345300D01*
X1522899Y3345300D01*
X1530200Y3341599D01*
X1537500Y3334400D01*
X1541099Y3323499D01*
X1541099Y3316199D01*
X1537500Y3305300D01*
X1530200Y3298000D01*
X1522899Y3294400D01*
X1511999Y3294400D01*
X1504700Y3298000D01*
X1497500Y3305300D01*
X1576000Y3370700D02*
G01*
X1576000Y3308899D01*
X1579600Y3298000D01*
X1586899Y3294400D01*
X1594200Y3294400D01*
X1565100Y3345300D02*
G01*
X1590500Y3345300D01*
X1618199Y3323499D02*
G01*
X1661800Y3323499D01*
X1661800Y3330700D01*
X1658199Y3338000D01*
X1654499Y3341599D01*
X1647299Y3345300D01*
X1636400Y3345300D01*
X1629099Y3341599D01*
X1621800Y3334400D01*
X1618199Y3323499D01*
X1618199Y3316199D01*
X1621800Y3305300D01*
X1629099Y3298000D01*
X1636400Y3294400D01*
X1647299Y3294400D01*
X1654499Y3298000D01*
X1661800Y3305300D01*
X1685799Y3345300D02*
G01*
X1685799Y3294400D01*
X1685799Y3323499D02*
G01*
X1689499Y3334400D01*
X1696700Y3341599D01*
X1703999Y3345300D01*
X1714899Y3345300D01*
X3600000Y280749D02*
G01*
X3600000Y204349D01*
X3600000Y280749D02*
G01*
X3650900Y204349D01*
X3650900Y280749D02*
G01*
X3650900Y204349D01*
X3703999Y280749D02*
G01*
X3674899Y204349D01*
X3703999Y280749D02*
G01*
X3733100Y204349D01*
X3685799Y229850D02*
G01*
X3722200Y229850D01*
X3757100Y280749D02*
G01*
X3757100Y204349D01*
X3757100Y280749D02*
G01*
X3808000Y204349D01*
X3808000Y280749D02*
G01*
X3808000Y204349D01*
X3831999Y280749D02*
G01*
X3831999Y204349D01*
X3831999Y280749D02*
G01*
X3857500Y280749D01*
X3868400Y277049D01*
X3875600Y269850D01*
X3879300Y262550D01*
X3882899Y251649D01*
X3882899Y233449D01*
X3879300Y222550D01*
X3875600Y215250D01*
X3868400Y207950D01*
X3857500Y204349D01*
X3831999Y204349D01*
X4006499Y255250D02*
G01*
X4006499Y197049D01*
X4002899Y186149D01*
X3999300Y182550D01*
X3991999Y178949D01*
X3981099Y178949D01*
X3973800Y182550D01*
X4006499Y244349D02*
G01*
X3999300Y251649D01*
X3991999Y255250D01*
X3981099Y255250D01*
X3973800Y251649D01*
X3966499Y244349D01*
X3962899Y233449D01*
X3962899Y226149D01*
X3966499Y215250D01*
X3973800Y207950D01*
X3981099Y204349D01*
X3991999Y204349D01*
X3999300Y207950D01*
X4006499Y215250D01*
X4074200Y255250D02*
G01*
X4074200Y204349D01*
X4074200Y244349D02*
G01*
X4066899Y251649D01*
X4059600Y255250D01*
X4048699Y255250D01*
X4041499Y251649D01*
X4034200Y244349D01*
X4030500Y233449D01*
X4030500Y226149D01*
X4034200Y215250D01*
X4041499Y207950D01*
X4048699Y204349D01*
X4059600Y204349D01*
X4066899Y207950D01*
X4074200Y215250D01*
X4109099Y280749D02*
G01*
X4109099Y218949D01*
X4112700Y207950D01*
X4120000Y204349D01*
X4127299Y204349D01*
X4098199Y255250D02*
G01*
X4123599Y255250D01*
X4151300Y233449D02*
G01*
X4194899Y233449D01*
X4194899Y240749D01*
X4191300Y247950D01*
X4187600Y251649D01*
X4180399Y255250D01*
X4169499Y255250D01*
X4162200Y251649D01*
X4154899Y244349D01*
X4151300Y233449D01*
X4151300Y226149D01*
X4154899Y215250D01*
X4162200Y207950D01*
X4169499Y204349D01*
X4180399Y204349D01*
X4187600Y207950D01*
X4194899Y215250D01*
X100000Y3075399D02*
G01*
X100000Y3032500D01*
X100000Y3075399D02*
G01*
X118400Y3075399D01*
X124499Y3073400D01*
X126599Y3071300D01*
X128600Y3067199D01*
X128600Y3061100D01*
X126599Y3056999D01*
X124499Y3055000D01*
X118400Y3052899D01*
X100000Y3052899D01*
X158499Y3075399D02*
G01*
X142100Y3032500D01*
X158499Y3075399D02*
G01*
X174899Y3032500D01*
X148299Y3046799D02*
G01*
X168699Y3046799D01*
X200599Y3075399D02*
G01*
X194499Y3073400D01*
X190399Y3067199D01*
X188400Y3056999D01*
X188400Y3050900D01*
X190399Y3040599D01*
X194499Y3034499D01*
X200599Y3032500D01*
X204699Y3032500D01*
X210900Y3034499D01*
X215000Y3040599D01*
X216999Y3050900D01*
X216999Y3056999D01*
X215000Y3067199D01*
X210900Y3073400D01*
X204699Y3075399D01*
X200599Y3075399D01*
X100000Y2975399D02*
G01*
X100000Y2932500D01*
X100000Y2975399D02*
G01*
X118400Y2975399D01*
X124499Y2973400D01*
X126599Y2971300D01*
X128600Y2967199D01*
X128600Y2961100D01*
X126599Y2956999D01*
X124499Y2955000D01*
X118400Y2952899D01*
X100000Y2952899D01*
X158499Y2975399D02*
G01*
X142100Y2932500D01*
X158499Y2975399D02*
G01*
X174899Y2932500D01*
X148299Y2946799D02*
G01*
X168699Y2946799D01*
X188400Y2967199D02*
G01*
X192500Y2969299D01*
X198600Y2975399D01*
X198600Y2932500D01*
X100000Y2775399D02*
G01*
X100000Y2732500D01*
X100000Y2775399D02*
G01*
X118400Y2775399D01*
X124499Y2773400D01*
X126599Y2771300D01*
X128600Y2767199D01*
X128600Y2761100D01*
X126599Y2756999D01*
X124499Y2755000D01*
X118400Y2752899D01*
X100000Y2752899D01*
X158499Y2775399D02*
G01*
X142100Y2732500D01*
X158499Y2775399D02*
G01*
X174899Y2732500D01*
X148299Y2746799D02*
G01*
X168699Y2746799D01*
X192500Y2775399D02*
G01*
X215000Y2775399D01*
X202699Y2759000D01*
X208800Y2759000D01*
X212899Y2756999D01*
X215000Y2755000D01*
X216999Y2748800D01*
X216999Y2744699D01*
X215000Y2738600D01*
X210900Y2734499D01*
X204699Y2732500D01*
X198600Y2732500D01*
X192500Y2734499D01*
X190399Y2736500D01*
X188400Y2740599D01*
X100000Y2875399D02*
G01*
X100000Y2832500D01*
X100000Y2875399D02*
G01*
X118400Y2875399D01*
X124499Y2873400D01*
X126599Y2871300D01*
X128600Y2867199D01*
X128600Y2861100D01*
X126599Y2856999D01*
X124499Y2855000D01*
X118400Y2852899D01*
X100000Y2852899D01*
X158499Y2875399D02*
G01*
X142100Y2832500D01*
X158499Y2875399D02*
G01*
X174899Y2832500D01*
X148299Y2846799D02*
G01*
X168699Y2846799D01*
X190399Y2865200D02*
G01*
X190399Y2867199D01*
X192500Y2871300D01*
X194499Y2873400D01*
X198600Y2875399D01*
X206799Y2875399D01*
X210900Y2873400D01*
X212899Y2871300D01*
X215000Y2867199D01*
X215000Y2863099D01*
X212899Y2859000D01*
X208800Y2852899D01*
X188400Y2832500D01*
X216999Y2832500D01*
X100000Y2475399D02*
G01*
X100000Y2432500D01*
X100000Y2475399D02*
G01*
X118400Y2475399D01*
X124499Y2473400D01*
X126599Y2471300D01*
X128600Y2467199D01*
X128600Y2461100D01*
X126599Y2456999D01*
X124499Y2455000D01*
X118400Y2452899D01*
X100000Y2452899D01*
X158499Y2475399D02*
G01*
X142100Y2432500D01*
X158499Y2475399D02*
G01*
X174899Y2432500D01*
X148299Y2446799D02*
G01*
X168699Y2446799D01*
X212899Y2469299D02*
G01*
X210900Y2473400D01*
X204699Y2475399D01*
X200599Y2475399D01*
X194499Y2473400D01*
X190399Y2467199D01*
X188400Y2456999D01*
X188400Y2446799D01*
X190399Y2438600D01*
X194499Y2434499D01*
X200599Y2432500D01*
X202699Y2432500D01*
X208800Y2434499D01*
X212899Y2438600D01*
X215000Y2444699D01*
X215000Y2446799D01*
X212899Y2452899D01*
X208800Y2456999D01*
X202699Y2459000D01*
X200599Y2459000D01*
X194499Y2456999D01*
X190399Y2452899D01*
X188400Y2446799D01*
X100000Y2375399D02*
G01*
X100000Y2332500D01*
X100000Y2375399D02*
G01*
X118400Y2375399D01*
X124499Y2373400D01*
X126599Y2371300D01*
X128600Y2367199D01*
X128600Y2361100D01*
X126599Y2356999D01*
X124499Y2355000D01*
X118400Y2352899D01*
X100000Y2352899D01*
X158499Y2375399D02*
G01*
X142100Y2332500D01*
X158499Y2375399D02*
G01*
X174899Y2332500D01*
X148299Y2346799D02*
G01*
X168699Y2346799D01*
X216999Y2375399D02*
G01*
X196500Y2332500D01*
X188400Y2375399D02*
G01*
X216999Y2375399D01*
X100000Y2575399D02*
G01*
X100000Y2532500D01*
X100000Y2575399D02*
G01*
X118400Y2575399D01*
X124499Y2573400D01*
X126599Y2571300D01*
X128600Y2567199D01*
X128600Y2561100D01*
X126599Y2556999D01*
X124499Y2555000D01*
X118400Y2552899D01*
X100000Y2552899D01*
X158499Y2575399D02*
G01*
X142100Y2532500D01*
X158499Y2575399D02*
G01*
X174899Y2532500D01*
X148299Y2546799D02*
G01*
X168699Y2546799D01*
X212899Y2575399D02*
G01*
X192500Y2575399D01*
X190399Y2556999D01*
X192500Y2559000D01*
X198600Y2561100D01*
X204699Y2561100D01*
X210900Y2559000D01*
X215000Y2555000D01*
X216999Y2548800D01*
X216999Y2544699D01*
X215000Y2538600D01*
X210900Y2534499D01*
X204699Y2532500D01*
X198600Y2532500D01*
X192500Y2534499D01*
X190399Y2536500D01*
X188400Y2540599D01*
X100000Y2675399D02*
G01*
X100000Y2632500D01*
X100000Y2675399D02*
G01*
X118400Y2675399D01*
X124499Y2673400D01*
X126599Y2671300D01*
X128600Y2667199D01*
X128600Y2661100D01*
X126599Y2656999D01*
X124499Y2655000D01*
X118400Y2652899D01*
X100000Y2652899D01*
X158499Y2675399D02*
G01*
X142100Y2632500D01*
X158499Y2675399D02*
G01*
X174899Y2632500D01*
X148299Y2646799D02*
G01*
X168699Y2646799D01*
X208800Y2675399D02*
G01*
X188400Y2646799D01*
X219000Y2646799D01*
X208800Y2675399D02*
G01*
X208800Y2632500D01*
X100000Y2075399D02*
G01*
X100000Y2032500D01*
X100000Y2075399D02*
G01*
X118400Y2075399D01*
X124499Y2073400D01*
X126599Y2071300D01*
X128600Y2067199D01*
X128600Y2061100D01*
X126599Y2056999D01*
X124499Y2055000D01*
X118400Y2052899D01*
X100000Y2052899D01*
X142100Y2075399D02*
G01*
X142100Y2032500D01*
X142100Y2075399D02*
G01*
X160500Y2075399D01*
X166700Y2073400D01*
X168699Y2071300D01*
X170799Y2067199D01*
X170799Y2063099D01*
X168699Y2059000D01*
X166700Y2056999D01*
X160500Y2055000D01*
X142100Y2055000D02*
G01*
X160500Y2055000D01*
X166700Y2052899D01*
X168699Y2050900D01*
X170799Y2046799D01*
X170799Y2040599D01*
X168699Y2036500D01*
X166700Y2034499D01*
X160500Y2032500D01*
X142100Y2032500D01*
X186300Y2065199D02*
G01*
X186300Y2067199D01*
X188400Y2071300D01*
X190399Y2073400D01*
X194499Y2075399D01*
X202699Y2075399D01*
X206799Y2073400D01*
X208800Y2071300D01*
X210900Y2067199D01*
X210900Y2063099D01*
X208800Y2059000D01*
X204699Y2052899D01*
X184299Y2032500D01*
X212899Y2032500D01*
X100000Y1975399D02*
G01*
X100000Y1932500D01*
X100000Y1975399D02*
G01*
X118400Y1975399D01*
X124499Y1973400D01*
X126599Y1971300D01*
X128600Y1967199D01*
X128600Y1961100D01*
X126599Y1956999D01*
X124499Y1955000D01*
X118400Y1952899D01*
X100000Y1952899D01*
X142100Y1975399D02*
G01*
X142100Y1932500D01*
X142100Y1975399D02*
G01*
X160500Y1975399D01*
X166700Y1973400D01*
X168699Y1971300D01*
X170799Y1967199D01*
X170799Y1963099D01*
X168699Y1959000D01*
X166700Y1956999D01*
X160500Y1955000D01*
X142100Y1955000D02*
G01*
X160500Y1955000D01*
X166700Y1952899D01*
X168699Y1950900D01*
X170799Y1946799D01*
X170799Y1940599D01*
X168699Y1936500D01*
X166700Y1934499D01*
X160500Y1932500D01*
X142100Y1932500D01*
X188400Y1975399D02*
G01*
X210900Y1975399D01*
X198600Y1959000D01*
X204699Y1959000D01*
X208800Y1956999D01*
X210900Y1955000D01*
X212899Y1948800D01*
X212899Y1944699D01*
X210900Y1938600D01*
X206799Y1934499D01*
X200599Y1932500D01*
X194499Y1932500D01*
X188400Y1934499D01*
X186300Y1936500D01*
X184299Y1940599D01*
X100000Y2175399D02*
G01*
X100000Y2132500D01*
X100000Y2175399D02*
G01*
X118400Y2175399D01*
X124499Y2173400D01*
X126599Y2171300D01*
X128600Y2167199D01*
X128600Y2161100D01*
X126599Y2156999D01*
X124499Y2155000D01*
X118400Y2152899D01*
X100000Y2152899D01*
X142100Y2175399D02*
G01*
X142100Y2132500D01*
X142100Y2175399D02*
G01*
X160500Y2175399D01*
X166700Y2173400D01*
X168699Y2171300D01*
X170799Y2167199D01*
X170799Y2163099D01*
X168699Y2159000D01*
X166700Y2156999D01*
X160500Y2155000D01*
X142100Y2155000D02*
G01*
X160500Y2155000D01*
X166700Y2152899D01*
X168699Y2150900D01*
X170799Y2146799D01*
X170799Y2140599D01*
X168699Y2136500D01*
X166700Y2134499D01*
X160500Y2132500D01*
X142100Y2132500D01*
X184299Y2167199D02*
G01*
X188400Y2169299D01*
X194499Y2175399D01*
X194499Y2132500D01*
X100000Y2275399D02*
G01*
X100000Y2232500D01*
X100000Y2275399D02*
G01*
X118400Y2275399D01*
X124499Y2273400D01*
X126599Y2271300D01*
X128600Y2267199D01*
X128600Y2261100D01*
X126599Y2256999D01*
X124499Y2255000D01*
X118400Y2252899D01*
X100000Y2252899D01*
X142100Y2275399D02*
G01*
X142100Y2232500D01*
X142100Y2275399D02*
G01*
X160500Y2275399D01*
X166700Y2273400D01*
X168699Y2271300D01*
X170799Y2267199D01*
X170799Y2263099D01*
X168699Y2259000D01*
X166700Y2256999D01*
X160500Y2255000D01*
X142100Y2255000D02*
G01*
X160500Y2255000D01*
X166700Y2252899D01*
X168699Y2250900D01*
X170799Y2246799D01*
X170799Y2240599D01*
X168699Y2236500D01*
X166700Y2234499D01*
X160500Y2232500D01*
X142100Y2232500D01*
X196500Y2275399D02*
G01*
X190399Y2273400D01*
X186300Y2267199D01*
X184299Y2256999D01*
X184299Y2250900D01*
X186300Y2240599D01*
X190399Y2234499D01*
X196500Y2232500D01*
X200599Y2232500D01*
X206799Y2234499D01*
X210900Y2240599D01*
X212899Y2250900D01*
X212899Y2256999D01*
X210900Y2267199D01*
X206799Y2273400D01*
X200599Y2275399D01*
X196500Y2275399D01*
X100000Y1675399D02*
G01*
X100000Y1632500D01*
X100000Y1675399D02*
G01*
X118400Y1675399D01*
X124499Y1673400D01*
X126599Y1671300D01*
X128600Y1667199D01*
X128600Y1661100D01*
X126599Y1656999D01*
X124499Y1655000D01*
X118400Y1652899D01*
X100000Y1652899D01*
X142100Y1675399D02*
G01*
X142100Y1632500D01*
X142100Y1675399D02*
G01*
X160500Y1675399D01*
X166700Y1673400D01*
X168699Y1671300D01*
X170799Y1667199D01*
X170799Y1663099D01*
X168699Y1659000D01*
X166700Y1656999D01*
X160500Y1655000D01*
X142100Y1655000D02*
G01*
X160500Y1655000D01*
X166700Y1652899D01*
X168699Y1650900D01*
X170799Y1646799D01*
X170799Y1640599D01*
X168699Y1636500D01*
X166700Y1634499D01*
X160500Y1632500D01*
X142100Y1632500D01*
X208800Y1669299D02*
G01*
X206799Y1673400D01*
X200599Y1675399D01*
X196500Y1675399D01*
X190399Y1673400D01*
X186300Y1667199D01*
X184299Y1656999D01*
X184299Y1646799D01*
X186300Y1638600D01*
X190399Y1634499D01*
X196500Y1632500D01*
X198600Y1632500D01*
X204699Y1634499D01*
X208800Y1638600D01*
X210900Y1644699D01*
X210900Y1646799D01*
X208800Y1652899D01*
X204699Y1656999D01*
X198600Y1659000D01*
X196500Y1659000D01*
X190399Y1656999D01*
X186300Y1652899D01*
X184299Y1646799D01*
X100000Y1575399D02*
G01*
X100000Y1532500D01*
X100000Y1575399D02*
G01*
X118400Y1575399D01*
X124499Y1573400D01*
X126599Y1571300D01*
X128600Y1567199D01*
X128600Y1561100D01*
X126599Y1556999D01*
X124499Y1555000D01*
X118400Y1552899D01*
X100000Y1552899D01*
X142100Y1575399D02*
G01*
X142100Y1532500D01*
X142100Y1575399D02*
G01*
X160500Y1575399D01*
X166700Y1573400D01*
X168699Y1571300D01*
X170799Y1567199D01*
X170799Y1563099D01*
X168699Y1559000D01*
X166700Y1556999D01*
X160500Y1555000D01*
X142100Y1555000D02*
G01*
X160500Y1555000D01*
X166700Y1552899D01*
X168699Y1550900D01*
X170799Y1546799D01*
X170799Y1540599D01*
X168699Y1536500D01*
X166700Y1534499D01*
X160500Y1532500D01*
X142100Y1532500D01*
X212899Y1575399D02*
G01*
X192500Y1532500D01*
X184299Y1575399D02*
G01*
X212899Y1575399D01*
X100000Y1775399D02*
G01*
X100000Y1732500D01*
X100000Y1775399D02*
G01*
X118400Y1775399D01*
X124499Y1773400D01*
X126599Y1771300D01*
X128600Y1767199D01*
X128600Y1761100D01*
X126599Y1756999D01*
X124499Y1755000D01*
X118400Y1752899D01*
X100000Y1752899D01*
X142100Y1775399D02*
G01*
X142100Y1732500D01*
X142100Y1775399D02*
G01*
X160500Y1775399D01*
X166700Y1773400D01*
X168699Y1771300D01*
X170799Y1767199D01*
X170799Y1763099D01*
X168699Y1759000D01*
X166700Y1756999D01*
X160500Y1755000D01*
X142100Y1755000D02*
G01*
X160500Y1755000D01*
X166700Y1752899D01*
X168699Y1750900D01*
X170799Y1746799D01*
X170799Y1740599D01*
X168699Y1736500D01*
X166700Y1734499D01*
X160500Y1732500D01*
X142100Y1732500D01*
X208800Y1775399D02*
G01*
X188400Y1775399D01*
X186300Y1756999D01*
X188400Y1759000D01*
X194499Y1761100D01*
X200599Y1761100D01*
X206799Y1759000D01*
X210900Y1755000D01*
X212899Y1748800D01*
X212899Y1744699D01*
X210900Y1738600D01*
X206799Y1734499D01*
X200599Y1732500D01*
X194499Y1732500D01*
X188400Y1734499D01*
X186300Y1736500D01*
X184299Y1740599D01*
X100000Y1875399D02*
G01*
X100000Y1832500D01*
X100000Y1875399D02*
G01*
X118400Y1875399D01*
X124499Y1873400D01*
X126599Y1871300D01*
X128600Y1867199D01*
X128600Y1861100D01*
X126599Y1856999D01*
X124499Y1855000D01*
X118400Y1852899D01*
X100000Y1852899D01*
X142100Y1875399D02*
G01*
X142100Y1832500D01*
X142100Y1875399D02*
G01*
X160500Y1875399D01*
X166700Y1873400D01*
X168699Y1871300D01*
X170799Y1867199D01*
X170799Y1863099D01*
X168699Y1859000D01*
X166700Y1856999D01*
X160500Y1855000D01*
X142100Y1855000D02*
G01*
X160500Y1855000D01*
X166700Y1852899D01*
X168699Y1850900D01*
X170799Y1846799D01*
X170799Y1840599D01*
X168699Y1836500D01*
X166700Y1834499D01*
X160500Y1832500D01*
X142100Y1832500D01*
X204699Y1875399D02*
G01*
X184299Y1846799D01*
X215000Y1846799D01*
X204699Y1875399D02*
G01*
X204699Y1832500D01*
X3270000Y3800700D02*
G01*
X3270000Y3724400D01*
X3270000Y3800700D02*
G01*
X3302700Y3800700D01*
X3313599Y3797100D01*
X3317299Y3793499D01*
X3320900Y3786199D01*
X3320900Y3778899D01*
X3317299Y3771599D01*
X3313599Y3768000D01*
X3302700Y3764400D01*
X3270000Y3764400D01*
X3295500Y3764400D02*
G01*
X3320900Y3724400D01*
X3344899Y3753499D02*
G01*
X3388500Y3753499D01*
X3388500Y3760700D01*
X3384899Y3768000D01*
X3381300Y3771599D01*
X3373999Y3775300D01*
X3363100Y3775300D01*
X3355799Y3771599D01*
X3348500Y3764400D01*
X3344899Y3753499D01*
X3344899Y3746199D01*
X3348500Y3735300D01*
X3355799Y3728000D01*
X3363100Y3724400D01*
X3373999Y3724400D01*
X3381300Y3728000D01*
X3388500Y3735300D01*
X3452500Y3764400D02*
G01*
X3448900Y3771599D01*
X3438000Y3775300D01*
X3427100Y3775300D01*
X3416199Y3771599D01*
X3412500Y3764400D01*
X3416199Y3757100D01*
X3423500Y3753499D01*
X3441599Y3749800D01*
X3448900Y3746199D01*
X3452500Y3738899D01*
X3452500Y3735300D01*
X3448900Y3728000D01*
X3438000Y3724400D01*
X3427100Y3724400D01*
X3416199Y3728000D01*
X3412500Y3735300D01*
X3476499Y3753499D02*
G01*
X3520200Y3753499D01*
X3520200Y3760700D01*
X3516499Y3768000D01*
X3512899Y3771599D01*
X3505600Y3775300D01*
X3494700Y3775300D01*
X3487500Y3771599D01*
X3480200Y3764400D01*
X3476499Y3753499D01*
X3476499Y3746199D01*
X3480200Y3735300D01*
X3487500Y3728000D01*
X3494700Y3724400D01*
X3505600Y3724400D01*
X3512899Y3728000D01*
X3520200Y3735300D01*
X3555100Y3800700D02*
G01*
X3555100Y3738899D01*
X3558699Y3728000D01*
X3566000Y3724400D01*
X3573299Y3724400D01*
X3544200Y3775300D02*
G01*
X3569600Y3775300D01*
X3270000Y3680700D02*
G01*
X3270000Y3604400D01*
X3270000Y3644400D02*
G01*
X3277299Y3651599D01*
X3284499Y3655300D01*
X3295500Y3655300D01*
X3302700Y3651599D01*
X3310000Y3644400D01*
X3313599Y3633499D01*
X3313599Y3626199D01*
X3310000Y3615300D01*
X3302700Y3608000D01*
X3295500Y3604400D01*
X3284499Y3604400D01*
X3277299Y3608000D01*
X3270000Y3615300D01*
X3337600Y3655300D02*
G01*
X3337600Y3618899D01*
X3341300Y3608000D01*
X3348500Y3604400D01*
X3359499Y3604400D01*
X3366700Y3608000D01*
X3377600Y3618899D01*
X3377600Y3655300D02*
G01*
X3377600Y3604400D01*
X3412500Y3680700D02*
G01*
X3412500Y3618899D01*
X3416199Y3608000D01*
X3423500Y3604400D01*
X3430699Y3604400D01*
X3401599Y3655300D02*
G01*
X3427100Y3655300D01*
X3465600Y3680700D02*
G01*
X3465600Y3618899D01*
X3469300Y3608000D01*
X3476499Y3604400D01*
X3483800Y3604400D01*
X3454700Y3655300D02*
G01*
X3480200Y3655300D01*
X3526000Y3655300D02*
G01*
X3518699Y3651599D01*
X3511499Y3644400D01*
X3507799Y3633499D01*
X3507799Y3626199D01*
X3511499Y3615300D01*
X3518699Y3608000D01*
X3526000Y3604400D01*
X3536899Y3604400D01*
X3544200Y3608000D01*
X3551499Y3615300D01*
X3555100Y3626199D01*
X3555100Y3633499D01*
X3551499Y3644400D01*
X3544200Y3651599D01*
X3536899Y3655300D01*
X3526000Y3655300D01*
X3579099Y3655300D02*
G01*
X3579099Y3604400D01*
X3579099Y3640700D02*
G01*
X3590000Y3651599D01*
X3597299Y3655300D01*
X3608199Y3655300D01*
X3615500Y3651599D01*
X3619099Y3640700D01*
X3619099Y3604400D01*
X602087Y227301D02*
G01*
X594814Y234573D01*
X583906Y238209D01*
X569360Y238209D01*
X558452Y234573D01*
X551179Y227301D01*
X551179Y220028D01*
X554814Y212755D01*
X558452Y209119D01*
X565724Y205482D01*
X587543Y198209D01*
X594814Y194573D01*
X598452Y190938D01*
X602087Y183665D01*
X602087Y172755D01*
X594814Y165482D01*
X583906Y161846D01*
X569360Y161846D01*
X558452Y165482D01*
X551179Y172755D01*
X626087Y238209D02*
G01*
X626087Y161846D01*
X626087Y238209D02*
G01*
X676997Y161846D01*
X676997Y238209D02*
G01*
X676997Y161846D01*
X704634Y205482D02*
G01*
X700997Y201846D01*
X704634Y198209D01*
X708270Y201846D01*
X704634Y205482D01*
X704634Y180028D02*
G01*
X700997Y176392D01*
X704634Y172755D01*
X708270Y176392D01*
X704634Y180028D01*
X551179Y435059D02*
G01*
X551179Y358697D01*
X551179Y435059D02*
G01*
X576633Y435059D01*
X587543Y431424D01*
X594814Y424151D01*
X598452Y416878D01*
X602087Y405969D01*
X602087Y387788D01*
X598452Y376878D01*
X594814Y369605D01*
X587543Y362332D01*
X576633Y358697D01*
X551179Y358697D01*
X669724Y409605D02*
G01*
X669724Y358697D01*
X669724Y398697D02*
G01*
X662451Y405969D01*
X655178Y409605D01*
X644270Y409605D01*
X636997Y405969D01*
X629724Y398697D01*
X626087Y387788D01*
X626087Y380515D01*
X629724Y369605D01*
X636997Y362332D01*
X644270Y358697D01*
X655178Y358697D01*
X662451Y362332D01*
X669724Y369605D01*
X704634Y435059D02*
G01*
X704634Y373242D01*
X708270Y362332D01*
X715542Y358697D01*
X722815Y358697D01*
X693724Y409605D02*
G01*
X719178Y409605D01*
X746815Y387788D02*
G01*
X790451Y387788D01*
X790451Y395059D01*
X786814Y402332D01*
X783179Y405969D01*
X775906Y409605D01*
X764997Y409605D01*
X757723Y405969D01*
X750452Y398697D01*
X746815Y387788D01*
X746815Y380515D01*
X750452Y369605D01*
X757723Y362332D01*
X764997Y358697D01*
X775906Y358697D01*
X783179Y362332D01*
X790451Y369605D01*
X818087Y402332D02*
G01*
X814452Y398697D01*
X818087Y395059D01*
X821724Y398697D01*
X818087Y402332D01*
X818087Y376878D02*
G01*
X814452Y373242D01*
X818087Y369605D01*
X821724Y373242D01*
X818087Y376878D01*
X551199Y631900D02*
G01*
X580300Y555500D01*
X609400Y631900D02*
G01*
X580300Y555500D01*
X633400Y584600D02*
G01*
X676999Y584600D01*
X676999Y591900D01*
X673400Y599200D01*
X669699Y602800D01*
X662500Y606500D01*
X651500Y606500D01*
X644299Y602800D01*
X636999Y595500D01*
X633400Y584600D01*
X633400Y577399D01*
X636999Y566500D01*
X644299Y559200D01*
X651500Y555500D01*
X662500Y555500D01*
X669699Y559200D01*
X676999Y566500D01*
X700999Y606500D02*
G01*
X700999Y555500D01*
X700999Y584600D02*
G01*
X704600Y595500D01*
X711900Y602800D01*
X719200Y606500D01*
X730100Y606500D01*
X794099Y595500D02*
G01*
X790500Y602800D01*
X779499Y606500D01*
X768599Y606500D01*
X757699Y602800D01*
X754099Y595500D01*
X757699Y588299D01*
X765000Y584600D01*
X783199Y580999D01*
X790500Y577399D01*
X794099Y570100D01*
X794099Y566500D01*
X790500Y559200D01*
X779499Y555500D01*
X768599Y555500D01*
X757699Y559200D01*
X754099Y566500D01*
X818100Y631900D02*
G01*
X821700Y628299D01*
X825399Y631900D01*
X821700Y635500D01*
X818100Y631900D01*
X821700Y606500D02*
G01*
X821700Y555500D01*
X867500Y606500D02*
G01*
X860299Y602800D01*
X853000Y595500D01*
X849399Y584600D01*
X849399Y577399D01*
X853000Y566500D01*
X860299Y559200D01*
X867500Y555500D01*
X878500Y555500D01*
X885699Y559200D01*
X893000Y566500D01*
X896599Y577399D01*
X896599Y584600D01*
X893000Y595500D01*
X885699Y602800D01*
X878500Y606500D01*
X867500Y606500D01*
X920600Y606500D02*
G01*
X920600Y555500D01*
X920600Y591900D02*
G01*
X931499Y602800D01*
X938800Y606500D01*
X949700Y606500D01*
X956999Y602800D01*
X960600Y591900D01*
X960600Y555500D01*
X1040600Y617399D02*
G01*
X1047899Y620999D01*
X1058800Y631900D01*
X1058800Y555500D01*
X1086499Y573699D02*
G01*
X1082799Y570100D01*
X1086499Y566500D01*
X1090100Y570100D01*
X1086499Y573699D01*
X1114099Y617399D02*
G01*
X1121400Y620999D01*
X1132299Y631900D01*
X1132299Y555500D01*
X594780Y817829D02*
G01*
X591179Y825129D01*
X580279Y828730D01*
X572979Y828730D01*
X562080Y825129D01*
X554780Y814229D01*
X551179Y796030D01*
X551179Y777829D01*
X554780Y763330D01*
X562080Y756030D01*
X572979Y752429D01*
X576680Y752429D01*
X587579Y756030D01*
X594780Y763330D01*
X598479Y774229D01*
X598479Y777829D01*
X594780Y788730D01*
X587579Y796030D01*
X576680Y799630D01*
X572979Y799630D01*
X562080Y796030D01*
X554780Y788730D01*
X551179Y777829D01*
X666080Y828730D02*
G01*
X629679Y828730D01*
X626080Y796030D01*
X629679Y799630D01*
X640680Y803330D01*
X651579Y803330D01*
X662480Y799630D01*
X669679Y792429D01*
X673380Y781529D01*
X673380Y774229D01*
X669679Y763330D01*
X662480Y756030D01*
X651579Y752429D01*
X640680Y752429D01*
X629679Y756030D01*
X626080Y759630D01*
X622480Y766930D01*
X719180Y828730D02*
G01*
X708279Y825129D01*
X700979Y814229D01*
X697379Y796030D01*
X697379Y785129D01*
X700979Y766930D01*
X708279Y756030D01*
X719180Y752429D01*
X726480Y752429D01*
X737379Y756030D01*
X744679Y766930D01*
X748279Y785129D01*
X748279Y796030D01*
X744679Y814229D01*
X737379Y825129D01*
X726480Y828730D01*
X719180Y828730D01*
X775879Y810529D02*
G01*
X775879Y814229D01*
X779579Y821529D01*
X783180Y825129D01*
X790479Y828730D01*
X804979Y828730D01*
X812280Y825129D01*
X815879Y821529D01*
X819579Y814229D01*
X819579Y806930D01*
X815879Y799630D01*
X808680Y788730D01*
X772280Y752429D01*
X823180Y752429D01*
X946779Y792429D02*
G01*
X939579Y799630D01*
X932280Y803330D01*
X921379Y803330D01*
X914080Y799630D01*
X906779Y792429D01*
X903180Y781529D01*
X903180Y774229D01*
X906779Y763330D01*
X914080Y756030D01*
X921379Y752429D01*
X932280Y752429D01*
X939579Y756030D01*
X946779Y763330D01*
X988980Y803330D02*
G01*
X981679Y799630D01*
X974480Y792429D01*
X970780Y781529D01*
X970780Y774229D01*
X974480Y763330D01*
X981679Y756030D01*
X988980Y752429D01*
X999880Y752429D01*
X1007179Y756030D01*
X1014480Y763330D01*
X1018079Y774229D01*
X1018079Y781529D01*
X1014480Y792429D01*
X1007179Y799630D01*
X999880Y803330D01*
X988980Y803330D01*
X1042079Y803330D02*
G01*
X1042079Y752429D01*
X1042079Y788730D02*
G01*
X1052979Y799630D01*
X1060280Y803330D01*
X1071180Y803330D01*
X1078479Y799630D01*
X1082079Y788730D01*
X1082079Y752429D01*
X1082079Y788730D02*
G01*
X1092979Y799630D01*
X1100280Y803330D01*
X1111180Y803330D01*
X1118479Y799630D01*
X1122079Y788730D01*
X1122079Y752429D01*
X1146080Y803330D02*
G01*
X1146080Y726930D01*
X1146080Y792429D02*
G01*
X1153379Y799630D01*
X1160680Y803330D01*
X1171580Y803330D01*
X1178779Y799630D01*
X1186080Y792429D01*
X1189679Y781529D01*
X1189679Y774229D01*
X1186080Y763330D01*
X1178779Y756030D01*
X1171580Y752429D01*
X1160680Y752429D01*
X1153379Y756030D01*
X1146080Y763330D01*
X1213680Y803330D02*
G01*
X1213680Y766930D01*
X1217380Y756030D01*
X1224679Y752429D01*
X1235580Y752429D01*
X1242780Y756030D01*
X1253680Y766930D01*
X1253680Y803330D02*
G01*
X1253680Y752429D01*
X1288680Y828730D02*
G01*
X1288680Y766930D01*
X1292280Y756030D01*
X1299579Y752429D01*
X1306779Y752429D01*
X1277680Y803330D02*
G01*
X1303180Y803330D01*
X1330780Y781529D02*
G01*
X1374480Y781529D01*
X1374480Y788730D01*
X1370780Y796030D01*
X1367179Y799630D01*
X1359880Y803330D01*
X1348980Y803330D01*
X1341679Y799630D01*
X1334480Y792429D01*
X1330780Y781529D01*
X1330780Y774229D01*
X1334480Y763330D01*
X1341679Y756030D01*
X1348980Y752429D01*
X1359880Y752429D01*
X1367179Y756030D01*
X1374480Y763330D01*
X1398479Y803330D02*
G01*
X1398479Y752429D01*
X1398479Y781529D02*
G01*
X1402079Y792429D01*
X1409380Y799630D01*
X1416679Y803330D01*
X1427579Y803330D01*
X4114499Y3822500D02*
G01*
X4110900Y3829800D01*
X4103599Y3837100D01*
X4096400Y3840700D01*
X4081800Y3840700D01*
X4074499Y3837100D01*
X4067299Y3829800D01*
X4063599Y3822500D01*
X4060000Y3811599D01*
X4060000Y3793499D01*
X4063599Y3782500D01*
X4067299Y3775300D01*
X4074499Y3768000D01*
X4081800Y3764400D01*
X4096400Y3764400D01*
X4103599Y3768000D01*
X4110900Y3775300D01*
X4114499Y3782500D01*
X4114499Y3793499D01*
X4096400Y3793499D02*
G01*
X4114499Y3793499D01*
X4138500Y3840700D02*
G01*
X4138500Y3764400D01*
X4138500Y3840700D02*
G01*
X4189499Y3764400D01*
X4189499Y3840700D02*
G01*
X4189499Y3764400D01*
X4213500Y3840700D02*
G01*
X4213500Y3764400D01*
X4213500Y3840700D02*
G01*
X4238900Y3840700D01*
X4249799Y3837100D01*
X4257100Y3829800D01*
X4260699Y3822500D01*
X4264399Y3811599D01*
X4264399Y3793499D01*
X4260699Y3782500D01*
X4257100Y3775300D01*
X4249799Y3768000D01*
X4238900Y3764400D01*
X4213500Y3764400D01*
X4894499Y3822500D02*
G01*
X4890900Y3829800D01*
X4883599Y3837100D01*
X4876400Y3840700D01*
X4861800Y3840700D01*
X4854499Y3837100D01*
X4847299Y3829800D01*
X4843599Y3822500D01*
X4840000Y3811599D01*
X4840000Y3793499D01*
X4843599Y3782500D01*
X4847299Y3775300D01*
X4854499Y3768000D01*
X4861800Y3764400D01*
X4876400Y3764400D01*
X4883599Y3768000D01*
X4890900Y3775300D01*
X4894499Y3782500D01*
X4918500Y3840700D02*
G01*
X4918500Y3764400D01*
X4918500Y3764400D02*
G01*
X4962200Y3764400D01*
X5008000Y3840700D02*
G01*
X5000699Y3837100D01*
X4993500Y3829800D01*
X4989799Y3822500D01*
X4986199Y3811599D01*
X4986199Y3793499D01*
X4989799Y3782500D01*
X4993500Y3775300D01*
X5000699Y3768000D01*
X5008000Y3764400D01*
X5022500Y3764400D01*
X5029799Y3768000D01*
X5037100Y3775300D01*
X5040699Y3782500D01*
X5044399Y3793499D01*
X5044399Y3811599D01*
X5040699Y3822500D01*
X5037100Y3829800D01*
X5029799Y3837100D01*
X5022500Y3840700D01*
X5008000Y3840700D01*
X5122900Y3822500D02*
G01*
X5119300Y3829800D01*
X5111999Y3837100D01*
X5104700Y3840700D01*
X5090200Y3840700D01*
X5082900Y3837100D01*
X5075600Y3829800D01*
X5071999Y3822500D01*
X5068400Y3811599D01*
X5068400Y3793499D01*
X5071999Y3782500D01*
X5075600Y3775300D01*
X5082900Y3768000D01*
X5090200Y3764400D01*
X5104700Y3764400D01*
X5111999Y3768000D01*
X5119300Y3775300D01*
X5122900Y3782500D01*
X5146899Y3840700D02*
G01*
X5146899Y3764400D01*
X5197799Y3840700D02*
G01*
X5146899Y3789800D01*
X5165100Y3808000D02*
G01*
X5197799Y3764400D01*
D11*
X6330000Y865399D02*
G01*
X6330000Y822500D01*
X6330000Y865399D02*
G01*
X6348400Y865399D01*
X6354499Y863400D01*
X6356599Y861300D01*
X6358599Y857199D01*
X6358599Y853099D01*
X6356599Y849000D01*
X6354499Y846999D01*
X6348400Y845000D01*
X6330000Y845000D01*
X6344300Y845000D02*
G01*
X6358599Y822500D01*
X6396700Y859299D02*
G01*
X6394600Y863400D01*
X6388500Y865399D01*
X6384399Y865399D01*
X6378299Y863400D01*
X6374200Y857199D01*
X6372100Y846999D01*
X6372100Y836799D01*
X6374200Y828600D01*
X6378299Y824499D01*
X6384399Y822500D01*
X6386499Y822500D01*
X6392600Y824499D01*
X6396700Y828600D01*
X6398699Y834699D01*
X6398699Y836799D01*
X6396700Y842899D01*
X6392600Y846999D01*
X6386499Y849000D01*
X6384399Y849000D01*
X6378299Y846999D01*
X6374200Y842899D01*
X6372100Y836799D01*
X6438800Y851100D02*
G01*
X6436800Y845000D01*
X6432700Y840900D01*
X6426499Y838800D01*
X6424499Y838800D01*
X6418400Y840900D01*
X6414300Y845000D01*
X6412200Y851100D01*
X6412200Y853099D01*
X6414300Y859299D01*
X6418400Y863400D01*
X6424499Y865399D01*
X6426499Y865399D01*
X6432700Y863400D01*
X6436800Y859299D01*
X6438800Y851100D01*
X6438800Y840900D01*
X6436800Y830599D01*
X6432700Y824499D01*
X6426499Y822500D01*
X6422500Y822500D01*
X6416300Y824499D01*
X6414300Y828600D01*
X4080000Y995399D02*
G01*
X4080000Y952500D01*
X4080000Y995399D02*
G01*
X4098400Y995399D01*
X4104499Y993400D01*
X4106599Y991300D01*
X4108599Y987199D01*
X4108599Y983099D01*
X4106599Y979000D01*
X4104499Y976999D01*
X4098400Y975000D01*
X4080000Y975000D01*
X4094300Y975000D02*
G01*
X4108599Y952500D01*
X4126199Y995399D02*
G01*
X4148699Y995399D01*
X4136499Y979000D01*
X4142600Y979000D01*
X4146700Y976999D01*
X4148699Y975000D01*
X4150799Y968800D01*
X4150799Y964699D01*
X4148699Y958600D01*
X4144600Y954499D01*
X4138500Y952500D01*
X4132399Y952500D01*
X4126199Y954499D01*
X4124200Y956500D01*
X4122100Y960599D01*
X4188800Y995399D02*
G01*
X4168400Y995399D01*
X4166300Y976999D01*
X4168400Y979000D01*
X4174499Y981100D01*
X4180600Y981100D01*
X4186800Y979000D01*
X4190900Y975000D01*
X4192899Y968800D01*
X4192899Y964699D01*
X4190900Y958600D01*
X4186800Y954499D01*
X4180600Y952500D01*
X4174499Y952500D01*
X4168400Y954499D01*
X4166300Y956500D01*
X4164300Y960599D01*
X4282299Y1145399D02*
G01*
X4278199Y1143400D01*
X4274099Y1139299D01*
X4271999Y1135199D01*
X4270000Y1129000D01*
X4270000Y1118800D01*
X4271999Y1112699D01*
X4274099Y1108600D01*
X4278199Y1104499D01*
X4282299Y1102500D01*
X4290500Y1102500D01*
X4294499Y1104499D01*
X4298599Y1108600D01*
X4300699Y1112699D01*
X4302700Y1118800D01*
X4302700Y1129000D01*
X4300699Y1135199D01*
X4298599Y1139299D01*
X4294499Y1143400D01*
X4290500Y1145399D01*
X4282299Y1145399D01*
X4288400Y1110599D02*
G01*
X4300699Y1098400D01*
X4316199Y1137199D02*
G01*
X4320299Y1139299D01*
X4326499Y1145399D01*
X4326499Y1102500D01*
X4640500Y3865399D02*
G01*
X4640500Y3832700D01*
X4638400Y3826500D01*
X4636400Y3824499D01*
X4632299Y3822500D01*
X4628199Y3822500D01*
X4624099Y3824499D01*
X4621999Y3826500D01*
X4620000Y3832700D01*
X4620000Y3836799D01*
X4653999Y3857199D02*
G01*
X4658000Y3859299D01*
X4664200Y3865399D01*
X4664200Y3822500D01*
X4450500Y3855399D02*
G01*
X4450500Y3822700D01*
X4448400Y3816500D01*
X4446400Y3814499D01*
X4442299Y3812500D01*
X4438199Y3812500D01*
X4434099Y3814499D01*
X4431999Y3816500D01*
X4430000Y3822700D01*
X4430000Y3826799D01*
X4466000Y3845200D02*
G01*
X4466000Y3847199D01*
X4468000Y3851300D01*
X4470100Y3853400D01*
X4474200Y3855399D01*
X4482399Y3855399D01*
X4486499Y3853400D01*
X4488500Y3851300D01*
X4490500Y3847199D01*
X4490500Y3843099D01*
X4488500Y3839000D01*
X4484399Y3832899D01*
X4463999Y3812500D01*
X4492600Y3812500D01*
X4530000Y915399D02*
G01*
X4530000Y872500D01*
X4530000Y915399D02*
G01*
X4548400Y915399D01*
X4554499Y913400D01*
X4556599Y911300D01*
X4558599Y907199D01*
X4558599Y903099D01*
X4556599Y899000D01*
X4554499Y896999D01*
X4548400Y895000D01*
X4530000Y895000D01*
X4544300Y895000D02*
G01*
X4558599Y872500D01*
X4596700Y909299D02*
G01*
X4594600Y913400D01*
X4588500Y915399D01*
X4584399Y915399D01*
X4578299Y913400D01*
X4574200Y907199D01*
X4572100Y896999D01*
X4572100Y886799D01*
X4574200Y878600D01*
X4578299Y874499D01*
X4584399Y872500D01*
X4586499Y872500D01*
X4592600Y874499D01*
X4596700Y878600D01*
X4598699Y884699D01*
X4598699Y886799D01*
X4596700Y892899D01*
X4592600Y896999D01*
X4586499Y899000D01*
X4584399Y899000D01*
X4578299Y896999D01*
X4574200Y892899D01*
X4572100Y886799D01*
X4622500Y915399D02*
G01*
X4616300Y913400D01*
X4614300Y909299D01*
X4614300Y905199D01*
X4616300Y901100D01*
X4620400Y899000D01*
X4628599Y896999D01*
X4634700Y895000D01*
X4638800Y890900D01*
X4640900Y886799D01*
X4640900Y880599D01*
X4638800Y876500D01*
X4636800Y874499D01*
X4630600Y872500D01*
X4622500Y872500D01*
X4616300Y874499D01*
X4614300Y876500D01*
X4612200Y880599D01*
X4612200Y886799D01*
X4614300Y890900D01*
X4618400Y895000D01*
X4624499Y896999D01*
X4632700Y899000D01*
X4636800Y901100D01*
X4638800Y905199D01*
X4638800Y909299D01*
X4636800Y913400D01*
X4630600Y915399D01*
X4622500Y915399D01*
X5314600Y280000D02*
G01*
X5357500Y280000D01*
X5314600Y280000D02*
G01*
X5314600Y306599D01*
X5335000Y280000D02*
G01*
X5335000Y296399D01*
X5314600Y324200D02*
G01*
X5314600Y346700D01*
X5331000Y334400D01*
X5331000Y340500D01*
X5333000Y344600D01*
X5335000Y346700D01*
X5341199Y348699D01*
X5345299Y348699D01*
X5351400Y346700D01*
X5355500Y342600D01*
X5357500Y336500D01*
X5357500Y330300D01*
X5355500Y324200D01*
X5353500Y322100D01*
X5349399Y320100D01*
X5314600Y386799D02*
G01*
X5314600Y366300D01*
X5333000Y364299D01*
X5331000Y366300D01*
X5328900Y372500D01*
X5328900Y378600D01*
X5331000Y384699D01*
X5335000Y388800D01*
X5341199Y390900D01*
X5345299Y390900D01*
X5351400Y388800D01*
X5355500Y384699D01*
X5357500Y378600D01*
X5357500Y372500D01*
X5355500Y366300D01*
X5353500Y364299D01*
X5349399Y362199D01*
X4830000Y2665399D02*
G01*
X4830000Y2622500D01*
X4830000Y2665399D02*
G01*
X4848400Y2665399D01*
X4854499Y2663400D01*
X4856599Y2661300D01*
X4858599Y2657199D01*
X4858599Y2653099D01*
X4856599Y2649000D01*
X4854499Y2646999D01*
X4848400Y2645000D01*
X4830000Y2645000D01*
X4844300Y2645000D02*
G01*
X4858599Y2622500D01*
X4872100Y2657199D02*
G01*
X4876199Y2659299D01*
X4882399Y2665399D01*
X4882399Y2622500D01*
X4922500Y2651100D02*
G01*
X4920400Y2645000D01*
X4916300Y2640900D01*
X4910200Y2638800D01*
X4908100Y2638800D01*
X4901999Y2640900D01*
X4897900Y2645000D01*
X4895900Y2651100D01*
X4895900Y2653099D01*
X4897900Y2659299D01*
X4901999Y2663400D01*
X4908100Y2665399D01*
X4910200Y2665399D01*
X4916300Y2663400D01*
X4920400Y2659299D01*
X4922500Y2651100D01*
X4922500Y2640900D01*
X4920400Y2630599D01*
X4916300Y2624499D01*
X4910200Y2622500D01*
X4906099Y2622500D01*
X4900000Y2624499D01*
X4897900Y2628600D01*
X4830000Y2565399D02*
G01*
X4830000Y2522500D01*
X4830000Y2565399D02*
G01*
X4848400Y2565399D01*
X4854499Y2563400D01*
X4856599Y2561300D01*
X4858599Y2557199D01*
X4858599Y2553099D01*
X4856599Y2549000D01*
X4854499Y2546999D01*
X4848400Y2545000D01*
X4830000Y2545000D01*
X4844300Y2545000D02*
G01*
X4858599Y2522500D01*
X4874200Y2555200D02*
G01*
X4874200Y2557199D01*
X4876199Y2561300D01*
X4878299Y2563400D01*
X4882399Y2565399D01*
X4890500Y2565399D01*
X4894600Y2563400D01*
X4896700Y2561300D01*
X4898699Y2557199D01*
X4898699Y2553099D01*
X4896700Y2549000D01*
X4892600Y2542899D01*
X4872100Y2522500D01*
X4900799Y2522500D01*
X4926499Y2565399D02*
G01*
X4920400Y2563400D01*
X4916300Y2557199D01*
X4914300Y2546999D01*
X4914300Y2540900D01*
X4916300Y2530599D01*
X4920400Y2524499D01*
X4926499Y2522500D01*
X4930600Y2522500D01*
X4936800Y2524499D01*
X4940900Y2530599D01*
X4942900Y2540900D01*
X4942900Y2546999D01*
X4940900Y2557199D01*
X4936800Y2563400D01*
X4930600Y2565399D01*
X4926499Y2565399D01*
X4830000Y2365399D02*
G01*
X4830000Y2322500D01*
X4830000Y2365399D02*
G01*
X4848400Y2365399D01*
X4854499Y2363400D01*
X4856599Y2361300D01*
X4858599Y2357199D01*
X4858599Y2353099D01*
X4856599Y2349000D01*
X4854499Y2346999D01*
X4848400Y2345000D01*
X4830000Y2345000D01*
X4844300Y2345000D02*
G01*
X4858599Y2322500D01*
X4874200Y2355200D02*
G01*
X4874200Y2357199D01*
X4876199Y2361300D01*
X4878299Y2363400D01*
X4882399Y2365399D01*
X4890500Y2365399D01*
X4894600Y2363400D01*
X4896700Y2361300D01*
X4898699Y2357199D01*
X4898699Y2353099D01*
X4896700Y2349000D01*
X4892600Y2342899D01*
X4872100Y2322500D01*
X4900799Y2322500D01*
X4914300Y2357199D02*
G01*
X4918400Y2359299D01*
X4924499Y2365399D01*
X4924499Y2322500D01*
X4830000Y2265399D02*
G01*
X4830000Y2222500D01*
X4830000Y2265399D02*
G01*
X4848400Y2265399D01*
X4854499Y2263400D01*
X4856599Y2261300D01*
X4858599Y2257199D01*
X4858599Y2253099D01*
X4856599Y2249000D01*
X4854499Y2246999D01*
X4848400Y2245000D01*
X4830000Y2245000D01*
X4844300Y2245000D02*
G01*
X4858599Y2222500D01*
X4874200Y2255200D02*
G01*
X4874200Y2257199D01*
X4876199Y2261300D01*
X4878299Y2263400D01*
X4882399Y2265399D01*
X4890500Y2265399D01*
X4894600Y2263400D01*
X4896700Y2261300D01*
X4898699Y2257199D01*
X4898699Y2253099D01*
X4896700Y2249000D01*
X4892600Y2242899D01*
X4872100Y2222500D01*
X4900799Y2222500D01*
X4916300Y2255200D02*
G01*
X4916300Y2257199D01*
X4918400Y2261300D01*
X4920400Y2263400D01*
X4924499Y2265399D01*
X4932700Y2265399D01*
X4936800Y2263400D01*
X4938800Y2261300D01*
X4940900Y2257199D01*
X4940900Y2253099D01*
X4938800Y2249000D01*
X4934700Y2242899D01*
X4914300Y2222500D01*
X4942900Y2222500D01*
X4830000Y2165399D02*
G01*
X4830000Y2122500D01*
X4830000Y2165399D02*
G01*
X4848400Y2165399D01*
X4854499Y2163400D01*
X4856599Y2161300D01*
X4858599Y2157199D01*
X4858599Y2153099D01*
X4856599Y2149000D01*
X4854499Y2146999D01*
X4848400Y2145000D01*
X4830000Y2145000D01*
X4844300Y2145000D02*
G01*
X4858599Y2122500D01*
X4874200Y2155200D02*
G01*
X4874200Y2157199D01*
X4876199Y2161300D01*
X4878299Y2163400D01*
X4882399Y2165399D01*
X4890500Y2165399D01*
X4894600Y2163400D01*
X4896700Y2161300D01*
X4898699Y2157199D01*
X4898699Y2153099D01*
X4896700Y2149000D01*
X4892600Y2142899D01*
X4872100Y2122500D01*
X4900799Y2122500D01*
X4918400Y2165399D02*
G01*
X4940900Y2165399D01*
X4928599Y2149000D01*
X4934700Y2149000D01*
X4938800Y2146999D01*
X4940900Y2145000D01*
X4942900Y2138800D01*
X4942900Y2134699D01*
X4940900Y2128600D01*
X4936800Y2124499D01*
X4930600Y2122500D01*
X4924499Y2122500D01*
X4918400Y2124499D01*
X4916300Y2126500D01*
X4914300Y2130599D01*
X4830000Y2065399D02*
G01*
X4830000Y2022500D01*
X4830000Y2065399D02*
G01*
X4848400Y2065399D01*
X4854499Y2063400D01*
X4856599Y2061300D01*
X4858599Y2057199D01*
X4858599Y2053099D01*
X4856599Y2049000D01*
X4854499Y2046999D01*
X4848400Y2045000D01*
X4830000Y2045000D01*
X4844300Y2045000D02*
G01*
X4858599Y2022500D01*
X4874200Y2055199D02*
G01*
X4874200Y2057199D01*
X4876199Y2061300D01*
X4878299Y2063400D01*
X4882399Y2065399D01*
X4890500Y2065399D01*
X4894600Y2063400D01*
X4896700Y2061300D01*
X4898699Y2057199D01*
X4898699Y2053099D01*
X4896700Y2049000D01*
X4892600Y2042899D01*
X4872100Y2022500D01*
X4900799Y2022500D01*
X4934700Y2065399D02*
G01*
X4914300Y2036799D01*
X4945000Y2036799D01*
X4934700Y2065399D02*
G01*
X4934700Y2022500D01*
X4830000Y1865399D02*
G01*
X4830000Y1822500D01*
X4830000Y1865399D02*
G01*
X4848400Y1865399D01*
X4854499Y1863400D01*
X4856599Y1861300D01*
X4858599Y1857199D01*
X4858599Y1853099D01*
X4856599Y1849000D01*
X4854499Y1846999D01*
X4848400Y1845000D01*
X4830000Y1845000D01*
X4844300Y1845000D02*
G01*
X4858599Y1822500D01*
X4874200Y1855199D02*
G01*
X4874200Y1857199D01*
X4876199Y1861300D01*
X4878299Y1863400D01*
X4882399Y1865399D01*
X4890500Y1865399D01*
X4894600Y1863400D01*
X4896700Y1861300D01*
X4898699Y1857199D01*
X4898699Y1853099D01*
X4896700Y1849000D01*
X4892600Y1842899D01*
X4872100Y1822500D01*
X4900799Y1822500D01*
X4938800Y1865399D02*
G01*
X4918400Y1865399D01*
X4916300Y1846999D01*
X4918400Y1849000D01*
X4924499Y1851100D01*
X4930600Y1851100D01*
X4936800Y1849000D01*
X4940900Y1845000D01*
X4942900Y1838800D01*
X4942900Y1834699D01*
X4940900Y1828600D01*
X4936800Y1824499D01*
X4930600Y1822500D01*
X4924499Y1822500D01*
X4918400Y1824499D01*
X4916300Y1826500D01*
X4914300Y1830599D01*
X4830000Y1765399D02*
G01*
X4830000Y1722500D01*
X4830000Y1765399D02*
G01*
X4848400Y1765399D01*
X4854499Y1763400D01*
X4856599Y1761300D01*
X4858599Y1757199D01*
X4858599Y1753099D01*
X4856599Y1749000D01*
X4854499Y1746999D01*
X4848400Y1745000D01*
X4830000Y1745000D01*
X4844300Y1745000D02*
G01*
X4858599Y1722500D01*
X4874200Y1755199D02*
G01*
X4874200Y1757199D01*
X4876199Y1761300D01*
X4878299Y1763400D01*
X4882399Y1765399D01*
X4890500Y1765399D01*
X4894600Y1763400D01*
X4896700Y1761300D01*
X4898699Y1757199D01*
X4898699Y1753099D01*
X4896700Y1749000D01*
X4892600Y1742899D01*
X4872100Y1722500D01*
X4900799Y1722500D01*
X4938800Y1759299D02*
G01*
X4936800Y1763400D01*
X4930600Y1765399D01*
X4926499Y1765399D01*
X4920400Y1763400D01*
X4916300Y1757199D01*
X4914300Y1746999D01*
X4914300Y1736799D01*
X4916300Y1728600D01*
X4920400Y1724499D01*
X4926499Y1722500D01*
X4928599Y1722500D01*
X4934700Y1724499D01*
X4938800Y1728600D01*
X4940900Y1734699D01*
X4940900Y1736799D01*
X4938800Y1742899D01*
X4934700Y1746999D01*
X4928599Y1749000D01*
X4926499Y1749000D01*
X4920400Y1746999D01*
X4916300Y1742899D01*
X4914300Y1736799D01*
X4830000Y1665399D02*
G01*
X4830000Y1622500D01*
X4830000Y1665399D02*
G01*
X4848400Y1665399D01*
X4854499Y1663400D01*
X4856599Y1661300D01*
X4858599Y1657199D01*
X4858599Y1653099D01*
X4856599Y1649000D01*
X4854499Y1646999D01*
X4848400Y1645000D01*
X4830000Y1645000D01*
X4844300Y1645000D02*
G01*
X4858599Y1622500D01*
X4874200Y1655199D02*
G01*
X4874200Y1657199D01*
X4876199Y1661300D01*
X4878299Y1663400D01*
X4882399Y1665399D01*
X4890500Y1665399D01*
X4894600Y1663400D01*
X4896700Y1661300D01*
X4898699Y1657199D01*
X4898699Y1653099D01*
X4896700Y1649000D01*
X4892600Y1642899D01*
X4872100Y1622500D01*
X4900799Y1622500D01*
X4942900Y1665399D02*
G01*
X4922500Y1622500D01*
X4914300Y1665399D02*
G01*
X4942900Y1665399D01*
X4830000Y1565399D02*
G01*
X4830000Y1522500D01*
X4830000Y1565399D02*
G01*
X4848400Y1565399D01*
X4854499Y1563400D01*
X4856599Y1561300D01*
X4858599Y1557199D01*
X4858599Y1553099D01*
X4856599Y1549000D01*
X4854499Y1546999D01*
X4848400Y1545000D01*
X4830000Y1545000D01*
X4844300Y1545000D02*
G01*
X4858599Y1522500D01*
X4874200Y1555199D02*
G01*
X4874200Y1557199D01*
X4876199Y1561300D01*
X4878299Y1563400D01*
X4882399Y1565399D01*
X4890500Y1565399D01*
X4894600Y1563400D01*
X4896700Y1561300D01*
X4898699Y1557199D01*
X4898699Y1553099D01*
X4896700Y1549000D01*
X4892600Y1542899D01*
X4872100Y1522500D01*
X4900799Y1522500D01*
X4924499Y1565399D02*
G01*
X4918400Y1563400D01*
X4916300Y1559299D01*
X4916300Y1555199D01*
X4918400Y1551100D01*
X4922500Y1549000D01*
X4930600Y1546999D01*
X4936800Y1545000D01*
X4940900Y1540900D01*
X4942900Y1536799D01*
X4942900Y1530599D01*
X4940900Y1526500D01*
X4938800Y1524499D01*
X4932700Y1522500D01*
X4924499Y1522500D01*
X4918400Y1524499D01*
X4916300Y1526500D01*
X4914300Y1530599D01*
X4914300Y1536799D01*
X4916300Y1540900D01*
X4920400Y1545000D01*
X4926499Y1546999D01*
X4934700Y1549000D01*
X4938800Y1551100D01*
X4940900Y1555199D01*
X4940900Y1559299D01*
X4938800Y1563400D01*
X4932700Y1565399D01*
X4924499Y1565399D01*
X4830000Y1465399D02*
G01*
X4830000Y1422500D01*
X4830000Y1465399D02*
G01*
X4848400Y1465399D01*
X4854499Y1463400D01*
X4856599Y1461300D01*
X4858599Y1457199D01*
X4858599Y1453099D01*
X4856599Y1449000D01*
X4854499Y1446999D01*
X4848400Y1445000D01*
X4830000Y1445000D01*
X4844300Y1445000D02*
G01*
X4858599Y1422500D01*
X4874200Y1455199D02*
G01*
X4874200Y1457199D01*
X4876199Y1461300D01*
X4878299Y1463400D01*
X4882399Y1465399D01*
X4890500Y1465399D01*
X4894600Y1463400D01*
X4896700Y1461300D01*
X4898699Y1457199D01*
X4898699Y1453099D01*
X4896700Y1449000D01*
X4892600Y1442899D01*
X4872100Y1422500D01*
X4900799Y1422500D01*
X4940900Y1451100D02*
G01*
X4938800Y1445000D01*
X4934700Y1440900D01*
X4928599Y1438800D01*
X4926499Y1438800D01*
X4920400Y1440900D01*
X4916300Y1445000D01*
X4914300Y1451100D01*
X4914300Y1453099D01*
X4916300Y1459299D01*
X4920400Y1463400D01*
X4926499Y1465399D01*
X4928599Y1465399D01*
X4934700Y1463400D01*
X4938800Y1459299D01*
X4940900Y1451100D01*
X4940900Y1440900D01*
X4938800Y1430599D01*
X4934700Y1424499D01*
X4928599Y1422500D01*
X4924499Y1422500D01*
X4918400Y1424499D01*
X4916300Y1428600D01*
X4830000Y1365399D02*
G01*
X4830000Y1322500D01*
X4830000Y1365399D02*
G01*
X4848400Y1365399D01*
X4854499Y1363400D01*
X4856599Y1361300D01*
X4858599Y1357199D01*
X4858599Y1353099D01*
X4856599Y1349000D01*
X4854499Y1346999D01*
X4848400Y1345000D01*
X4830000Y1345000D01*
X4844300Y1345000D02*
G01*
X4858599Y1322500D01*
X4876199Y1365399D02*
G01*
X4898699Y1365399D01*
X4886499Y1349000D01*
X4892600Y1349000D01*
X4896700Y1346999D01*
X4898699Y1345000D01*
X4900799Y1338800D01*
X4900799Y1334699D01*
X4898699Y1328600D01*
X4894600Y1324499D01*
X4888500Y1322500D01*
X4882399Y1322500D01*
X4876199Y1324499D01*
X4874200Y1326500D01*
X4872100Y1330599D01*
X4926499Y1365399D02*
G01*
X4920400Y1363400D01*
X4916300Y1357199D01*
X4914300Y1346999D01*
X4914300Y1340900D01*
X4916300Y1330599D01*
X4920400Y1324499D01*
X4926499Y1322500D01*
X4930600Y1322500D01*
X4936800Y1324499D01*
X4940900Y1330599D01*
X4942900Y1340900D01*
X4942900Y1346999D01*
X4940900Y1357199D01*
X4936800Y1363400D01*
X4930600Y1365399D01*
X4926499Y1365399D01*
X4630000Y1165399D02*
G01*
X4630000Y1122500D01*
X4630000Y1165399D02*
G01*
X4648400Y1165399D01*
X4654499Y1163400D01*
X4656599Y1161300D01*
X4658599Y1157199D01*
X4658599Y1153099D01*
X4656599Y1149000D01*
X4654499Y1146999D01*
X4648400Y1145000D01*
X4630000Y1145000D01*
X4644300Y1145000D02*
G01*
X4658599Y1122500D01*
X4676199Y1165399D02*
G01*
X4698699Y1165399D01*
X4686499Y1149000D01*
X4692600Y1149000D01*
X4696700Y1146999D01*
X4698699Y1145000D01*
X4700799Y1138800D01*
X4700799Y1134699D01*
X4698699Y1128600D01*
X4694600Y1124499D01*
X4688500Y1122500D01*
X4682399Y1122500D01*
X4676199Y1124499D01*
X4674200Y1126500D01*
X4672100Y1130599D01*
X4714300Y1157199D02*
G01*
X4718400Y1159299D01*
X4724499Y1165399D01*
X4724499Y1122500D01*
X4650000Y1065399D02*
G01*
X4650000Y1022500D01*
X4650000Y1065399D02*
G01*
X4668400Y1065399D01*
X4674499Y1063400D01*
X4676599Y1061300D01*
X4678599Y1057199D01*
X4678599Y1053099D01*
X4676599Y1049000D01*
X4674499Y1046999D01*
X4668400Y1045000D01*
X4650000Y1045000D01*
X4664300Y1045000D02*
G01*
X4678599Y1022500D01*
X4696199Y1065399D02*
G01*
X4718699Y1065399D01*
X4706499Y1049000D01*
X4712600Y1049000D01*
X4716700Y1046999D01*
X4718699Y1045000D01*
X4720799Y1038800D01*
X4720799Y1034699D01*
X4718699Y1028600D01*
X4714600Y1024499D01*
X4708500Y1022500D01*
X4702399Y1022500D01*
X4696199Y1024499D01*
X4694200Y1026500D01*
X4692100Y1030599D01*
X4736300Y1055199D02*
G01*
X4736300Y1057199D01*
X4738400Y1061300D01*
X4740400Y1063400D01*
X4744499Y1065399D01*
X4752700Y1065399D01*
X4756800Y1063400D01*
X4758800Y1061300D01*
X4760900Y1057199D01*
X4760900Y1053099D01*
X4758800Y1049000D01*
X4754700Y1042899D01*
X4734300Y1022500D01*
X4762900Y1022500D01*
X4660000Y865399D02*
G01*
X4660000Y822500D01*
X4660000Y865399D02*
G01*
X4678400Y865399D01*
X4684499Y863400D01*
X4686599Y861300D01*
X4688599Y857199D01*
X4688599Y853099D01*
X4686599Y849000D01*
X4684499Y846999D01*
X4678400Y845000D01*
X4660000Y845000D01*
X4674300Y845000D02*
G01*
X4688599Y822500D01*
X4706199Y865399D02*
G01*
X4728699Y865399D01*
X4716499Y849000D01*
X4722600Y849000D01*
X4726700Y846999D01*
X4728699Y845000D01*
X4730799Y838800D01*
X4730799Y834699D01*
X4728699Y828600D01*
X4724600Y824499D01*
X4718500Y822500D01*
X4712399Y822500D01*
X4706199Y824499D01*
X4704200Y826500D01*
X4702100Y830599D01*
X4748400Y865399D02*
G01*
X4770900Y865399D01*
X4758599Y849000D01*
X4764700Y849000D01*
X4768800Y846999D01*
X4770900Y845000D01*
X4772900Y838800D01*
X4772900Y834699D01*
X4770900Y828600D01*
X4766800Y824499D01*
X4760600Y822500D01*
X4754499Y822500D01*
X4748400Y824499D01*
X4746300Y826500D01*
X4744300Y830599D01*
X4730000Y605399D02*
G01*
X4730000Y562500D01*
X4730000Y605399D02*
G01*
X4748400Y605399D01*
X4754499Y603400D01*
X4756599Y601300D01*
X4758599Y597199D01*
X4758599Y593099D01*
X4756599Y589000D01*
X4754499Y586999D01*
X4748400Y585000D01*
X4730000Y585000D01*
X4744300Y585000D02*
G01*
X4758599Y562500D01*
X4776199Y605399D02*
G01*
X4798699Y605399D01*
X4786499Y589000D01*
X4792600Y589000D01*
X4796700Y586999D01*
X4798699Y585000D01*
X4800799Y578800D01*
X4800799Y574699D01*
X4798699Y568600D01*
X4794600Y564499D01*
X4788500Y562500D01*
X4782399Y562500D01*
X4776199Y564499D01*
X4774200Y566500D01*
X4772100Y570599D01*
X4834700Y605399D02*
G01*
X4814300Y576799D01*
X4845000Y576799D01*
X4834700Y605399D02*
G01*
X4834700Y562500D01*
X4670000Y215399D02*
G01*
X4670000Y172500D01*
X4670000Y215399D02*
G01*
X4688400Y215399D01*
X4694499Y213400D01*
X4696599Y211300D01*
X4698599Y207199D01*
X4698599Y203099D01*
X4696599Y199000D01*
X4694499Y196999D01*
X4688400Y195000D01*
X4670000Y195000D01*
X4684300Y195000D02*
G01*
X4698599Y172500D01*
X4716199Y215399D02*
G01*
X4738699Y215399D01*
X4726499Y199000D01*
X4732600Y199000D01*
X4736700Y196999D01*
X4738699Y195000D01*
X4740799Y188800D01*
X4740799Y184699D01*
X4738699Y178600D01*
X4734600Y174499D01*
X4728500Y172500D01*
X4722399Y172500D01*
X4716199Y174499D01*
X4714200Y176500D01*
X4712100Y180599D01*
X4778800Y209299D02*
G01*
X4776800Y213400D01*
X4770600Y215399D01*
X4766499Y215399D01*
X4760400Y213400D01*
X4756300Y207199D01*
X4754300Y196999D01*
X4754300Y186799D01*
X4756300Y178600D01*
X4760400Y174499D01*
X4766499Y172500D01*
X4768599Y172500D01*
X4774700Y174499D01*
X4778800Y178600D01*
X4780900Y184699D01*
X4780900Y186799D01*
X4778800Y192899D01*
X4774700Y196999D01*
X4768599Y199000D01*
X4766499Y199000D01*
X4760400Y196999D01*
X4756300Y192899D01*
X4754300Y186799D01*
X4670000Y315399D02*
G01*
X4670000Y272500D01*
X4670000Y315399D02*
G01*
X4688400Y315399D01*
X4694499Y313400D01*
X4696599Y311300D01*
X4698599Y307199D01*
X4698599Y303099D01*
X4696599Y299000D01*
X4694499Y296999D01*
X4688400Y295000D01*
X4670000Y295000D01*
X4684300Y295000D02*
G01*
X4698599Y272500D01*
X4716199Y315399D02*
G01*
X4738699Y315399D01*
X4726499Y299000D01*
X4732600Y299000D01*
X4736700Y296999D01*
X4738699Y295000D01*
X4740799Y288800D01*
X4740799Y284699D01*
X4738699Y278600D01*
X4734600Y274499D01*
X4728500Y272500D01*
X4722399Y272500D01*
X4716199Y274499D01*
X4714200Y276500D01*
X4712100Y280599D01*
X4782900Y315399D02*
G01*
X4762500Y272500D01*
X4754300Y315399D02*
G01*
X4782900Y315399D01*
X4670000Y415399D02*
G01*
X4670000Y372500D01*
X4670000Y415399D02*
G01*
X4688400Y415399D01*
X4694499Y413400D01*
X4696599Y411300D01*
X4698599Y407199D01*
X4698599Y403099D01*
X4696599Y399000D01*
X4694499Y396999D01*
X4688400Y395000D01*
X4670000Y395000D01*
X4684300Y395000D02*
G01*
X4698599Y372500D01*
X4716199Y415399D02*
G01*
X4738699Y415399D01*
X4726499Y399000D01*
X4732600Y399000D01*
X4736700Y396999D01*
X4738699Y395000D01*
X4740799Y388800D01*
X4740799Y384699D01*
X4738699Y378600D01*
X4734600Y374499D01*
X4728500Y372500D01*
X4722399Y372500D01*
X4716199Y374499D01*
X4714200Y376500D01*
X4712100Y380599D01*
X4764499Y415399D02*
G01*
X4758400Y413400D01*
X4756300Y409299D01*
X4756300Y405199D01*
X4758400Y401100D01*
X4762500Y399000D01*
X4770600Y396999D01*
X4776800Y395000D01*
X4780900Y390900D01*
X4782900Y386799D01*
X4782900Y380599D01*
X4780900Y376500D01*
X4778800Y374499D01*
X4772700Y372500D01*
X4764499Y372500D01*
X4758400Y374499D01*
X4756300Y376500D01*
X4754300Y380599D01*
X4754300Y386799D01*
X4756300Y390900D01*
X4760400Y395000D01*
X4766499Y396999D01*
X4774700Y399000D01*
X4778800Y401100D01*
X4780900Y405199D01*
X4780900Y409299D01*
X4778800Y413400D01*
X4772700Y415399D01*
X4764499Y415399D01*
X4670000Y515399D02*
G01*
X4670000Y472500D01*
X4670000Y515399D02*
G01*
X4688400Y515399D01*
X4694499Y513400D01*
X4696599Y511300D01*
X4698599Y507199D01*
X4698599Y503099D01*
X4696599Y499000D01*
X4694499Y496999D01*
X4688400Y495000D01*
X4670000Y495000D01*
X4684300Y495000D02*
G01*
X4698599Y472500D01*
X4716199Y515399D02*
G01*
X4738699Y515399D01*
X4726499Y499000D01*
X4732600Y499000D01*
X4736700Y496999D01*
X4738699Y495000D01*
X4740799Y488800D01*
X4740799Y484699D01*
X4738699Y478600D01*
X4734600Y474499D01*
X4728500Y472500D01*
X4722399Y472500D01*
X4716199Y474499D01*
X4714200Y476500D01*
X4712100Y480599D01*
X4780900Y501100D02*
G01*
X4778800Y495000D01*
X4774700Y490900D01*
X4768599Y488800D01*
X4766499Y488800D01*
X4760400Y490900D01*
X4756300Y495000D01*
X4754300Y501100D01*
X4754300Y503099D01*
X4756300Y509299D01*
X4760400Y513400D01*
X4766499Y515399D01*
X4768599Y515399D01*
X4774700Y513400D01*
X4778800Y509299D01*
X4780900Y501100D01*
X4780900Y490900D01*
X4778800Y480599D01*
X4774700Y474499D01*
X4768599Y472500D01*
X4764499Y472500D01*
X4758400Y474499D01*
X4756300Y478600D01*
X4670000Y105399D02*
G01*
X4670000Y62500D01*
X4670000Y105399D02*
G01*
X4688400Y105399D01*
X4694499Y103400D01*
X4696599Y101300D01*
X4698599Y97199D01*
X4698599Y93099D01*
X4696599Y89000D01*
X4694499Y86999D01*
X4688400Y85000D01*
X4670000Y85000D01*
X4684300Y85000D02*
G01*
X4698599Y62500D01*
X4732600Y105399D02*
G01*
X4712100Y76799D01*
X4742799Y76799D01*
X4732600Y105399D02*
G01*
X4732600Y62500D01*
X4768599Y105399D02*
G01*
X4762500Y103400D01*
X4758400Y97199D01*
X4756300Y86999D01*
X4756300Y80900D01*
X4758400Y70599D01*
X4762500Y64499D01*
X4768599Y62500D01*
X4772700Y62500D01*
X4778800Y64499D01*
X4782900Y70599D01*
X4785000Y80900D01*
X4785000Y86999D01*
X4782900Y97199D01*
X4778800Y103400D01*
X4772700Y105399D01*
X4768599Y105399D01*
X4970000Y1465399D02*
G01*
X4970000Y1422500D01*
X4970000Y1465399D02*
G01*
X4988400Y1465399D01*
X4994499Y1463400D01*
X4996599Y1461300D01*
X4998599Y1457199D01*
X4998599Y1453099D01*
X4996599Y1449000D01*
X4994499Y1446999D01*
X4988400Y1445000D01*
X4970000Y1445000D01*
X4984300Y1445000D02*
G01*
X4998599Y1422500D01*
X5032600Y1465399D02*
G01*
X5012100Y1436799D01*
X5042799Y1436799D01*
X5032600Y1465399D02*
G01*
X5032600Y1422500D01*
X5056300Y1457199D02*
G01*
X5060400Y1459299D01*
X5066499Y1465399D01*
X5066499Y1422500D01*
X4970000Y1615399D02*
G01*
X4970000Y1572500D01*
X4970000Y1615399D02*
G01*
X4988400Y1615399D01*
X4994499Y1613400D01*
X4996599Y1611300D01*
X4998599Y1607199D01*
X4998599Y1603099D01*
X4996599Y1599000D01*
X4994499Y1596999D01*
X4988400Y1595000D01*
X4970000Y1595000D01*
X4984300Y1595000D02*
G01*
X4998599Y1572500D01*
X5032600Y1615399D02*
G01*
X5012100Y1586799D01*
X5042799Y1586799D01*
X5032600Y1615399D02*
G01*
X5032600Y1572500D01*
X5058400Y1605199D02*
G01*
X5058400Y1607199D01*
X5060400Y1611300D01*
X5062500Y1613400D01*
X5066499Y1615399D01*
X5074700Y1615399D01*
X5078800Y1613400D01*
X5080900Y1611300D01*
X5082900Y1607199D01*
X5082900Y1603099D01*
X5080900Y1599000D01*
X5076800Y1592899D01*
X5056300Y1572500D01*
X5085000Y1572500D01*
X4970000Y1715399D02*
G01*
X4970000Y1672500D01*
X4970000Y1715399D02*
G01*
X4988400Y1715399D01*
X4994499Y1713400D01*
X4996599Y1711300D01*
X4998599Y1707199D01*
X4998599Y1703099D01*
X4996599Y1699000D01*
X4994499Y1696999D01*
X4988400Y1695000D01*
X4970000Y1695000D01*
X4984300Y1695000D02*
G01*
X4998599Y1672500D01*
X5032600Y1715399D02*
G01*
X5012100Y1686799D01*
X5042799Y1686799D01*
X5032600Y1715399D02*
G01*
X5032600Y1672500D01*
X5060400Y1715399D02*
G01*
X5082900Y1715399D01*
X5070600Y1699000D01*
X5076800Y1699000D01*
X5080900Y1696999D01*
X5082900Y1695000D01*
X5085000Y1688800D01*
X5085000Y1684699D01*
X5082900Y1678600D01*
X5078800Y1674499D01*
X5072700Y1672500D01*
X5066499Y1672500D01*
X5060400Y1674499D01*
X5058400Y1676500D01*
X5056300Y1680599D01*
X6330000Y1965399D02*
G01*
X6330000Y1922500D01*
X6330000Y1965399D02*
G01*
X6348400Y1965399D01*
X6354499Y1963400D01*
X6356599Y1961300D01*
X6358599Y1957199D01*
X6358599Y1953099D01*
X6356599Y1949000D01*
X6354499Y1946999D01*
X6348400Y1945000D01*
X6330000Y1945000D01*
X6344300Y1945000D02*
G01*
X6358599Y1922500D01*
X6392600Y1965399D02*
G01*
X6372100Y1936799D01*
X6402799Y1936799D01*
X6392600Y1965399D02*
G01*
X6392600Y1922500D01*
X6436800Y1965399D02*
G01*
X6416300Y1936799D01*
X6446999Y1936799D01*
X6436800Y1965399D02*
G01*
X6436800Y1922500D01*
X6330000Y2155399D02*
G01*
X6330000Y2112500D01*
X6330000Y2155399D02*
G01*
X6348400Y2155399D01*
X6354499Y2153400D01*
X6356599Y2151300D01*
X6358599Y2147199D01*
X6358599Y2143099D01*
X6356599Y2139000D01*
X6354499Y2136999D01*
X6348400Y2135000D01*
X6330000Y2135000D01*
X6344300Y2135000D02*
G01*
X6358599Y2112500D01*
X6392600Y2155399D02*
G01*
X6372100Y2126799D01*
X6402799Y2126799D01*
X6392600Y2155399D02*
G01*
X6392600Y2112500D01*
X6440900Y2155399D02*
G01*
X6420400Y2155399D01*
X6418400Y2136999D01*
X6420400Y2139000D01*
X6426499Y2141100D01*
X6432700Y2141100D01*
X6438800Y2139000D01*
X6442900Y2135000D01*
X6445000Y2128800D01*
X6445000Y2124699D01*
X6442900Y2118600D01*
X6438800Y2114499D01*
X6432700Y2112500D01*
X6426499Y2112500D01*
X6420400Y2114499D01*
X6418400Y2116500D01*
X6416300Y2120599D01*
X6330000Y2255399D02*
G01*
X6330000Y2212500D01*
X6330000Y2255399D02*
G01*
X6348400Y2255399D01*
X6354499Y2253400D01*
X6356599Y2251300D01*
X6358599Y2247199D01*
X6358599Y2243099D01*
X6356599Y2239000D01*
X6354499Y2236999D01*
X6348400Y2235000D01*
X6330000Y2235000D01*
X6344300Y2235000D02*
G01*
X6358599Y2212500D01*
X6392600Y2255399D02*
G01*
X6372100Y2226799D01*
X6402799Y2226799D01*
X6392600Y2255399D02*
G01*
X6392600Y2212500D01*
X6440900Y2249299D02*
G01*
X6438800Y2253400D01*
X6432700Y2255399D01*
X6428599Y2255399D01*
X6422500Y2253400D01*
X6418400Y2247199D01*
X6416300Y2236999D01*
X6416300Y2226799D01*
X6418400Y2218600D01*
X6422500Y2214499D01*
X6428599Y2212500D01*
X6430600Y2212500D01*
X6436800Y2214499D01*
X6440900Y2218600D01*
X6442900Y2224699D01*
X6442900Y2226799D01*
X6440900Y2232899D01*
X6436800Y2236999D01*
X6430600Y2239000D01*
X6428599Y2239000D01*
X6422500Y2236999D01*
X6418400Y2232899D01*
X6416300Y2226799D01*
X6330000Y2355399D02*
G01*
X6330000Y2312500D01*
X6330000Y2355399D02*
G01*
X6348400Y2355399D01*
X6354499Y2353400D01*
X6356599Y2351300D01*
X6358599Y2347199D01*
X6358599Y2343099D01*
X6356599Y2339000D01*
X6354499Y2336999D01*
X6348400Y2335000D01*
X6330000Y2335000D01*
X6344300Y2335000D02*
G01*
X6358599Y2312500D01*
X6392600Y2355399D02*
G01*
X6372100Y2326799D01*
X6402799Y2326799D01*
X6392600Y2355399D02*
G01*
X6392600Y2312500D01*
X6445000Y2355399D02*
G01*
X6424499Y2312500D01*
X6416300Y2355399D02*
G01*
X6445000Y2355399D01*
X6330000Y2445399D02*
G01*
X6330000Y2402500D01*
X6330000Y2445399D02*
G01*
X6348400Y2445399D01*
X6354499Y2443400D01*
X6356599Y2441300D01*
X6358599Y2437199D01*
X6358599Y2433099D01*
X6356599Y2429000D01*
X6354499Y2426999D01*
X6348400Y2425000D01*
X6330000Y2425000D01*
X6344300Y2425000D02*
G01*
X6358599Y2402500D01*
X6392600Y2445399D02*
G01*
X6372100Y2416799D01*
X6402799Y2416799D01*
X6392600Y2445399D02*
G01*
X6392600Y2402500D01*
X6426499Y2445399D02*
G01*
X6420400Y2443400D01*
X6418400Y2439299D01*
X6418400Y2435200D01*
X6420400Y2431100D01*
X6424499Y2429000D01*
X6432700Y2426999D01*
X6438800Y2425000D01*
X6442900Y2420900D01*
X6445000Y2416799D01*
X6445000Y2410599D01*
X6442900Y2406500D01*
X6440900Y2404499D01*
X6434700Y2402500D01*
X6426499Y2402500D01*
X6420400Y2404499D01*
X6418400Y2406500D01*
X6416300Y2410599D01*
X6416300Y2416799D01*
X6418400Y2420900D01*
X6422500Y2425000D01*
X6428599Y2426999D01*
X6436800Y2429000D01*
X6440900Y2431100D01*
X6442900Y2435200D01*
X6442900Y2439299D01*
X6440900Y2443400D01*
X6434700Y2445399D01*
X6426499Y2445399D01*
X6330000Y2525399D02*
G01*
X6330000Y2482500D01*
X6330000Y2525399D02*
G01*
X6348400Y2525399D01*
X6354499Y2523400D01*
X6356599Y2521300D01*
X6358599Y2517199D01*
X6358599Y2513099D01*
X6356599Y2509000D01*
X6354499Y2506999D01*
X6348400Y2505000D01*
X6330000Y2505000D01*
X6344300Y2505000D02*
G01*
X6358599Y2482500D01*
X6392600Y2525399D02*
G01*
X6372100Y2496799D01*
X6402799Y2496799D01*
X6392600Y2525399D02*
G01*
X6392600Y2482500D01*
X6442900Y2511100D02*
G01*
X6440900Y2505000D01*
X6436800Y2500900D01*
X6430600Y2498800D01*
X6428599Y2498800D01*
X6422500Y2500900D01*
X6418400Y2505000D01*
X6416300Y2511100D01*
X6416300Y2513099D01*
X6418400Y2519299D01*
X6422500Y2523400D01*
X6428599Y2525399D01*
X6430600Y2525399D01*
X6436800Y2523400D01*
X6440900Y2519299D01*
X6442900Y2511100D01*
X6442900Y2500900D01*
X6440900Y2490599D01*
X6436800Y2484499D01*
X6430600Y2482500D01*
X6426499Y2482500D01*
X6420400Y2484499D01*
X6418400Y2488600D01*
X4850000Y2765399D02*
G01*
X4850000Y2722500D01*
X4850000Y2765399D02*
G01*
X4868400Y2765399D01*
X4874499Y2763400D01*
X4876599Y2761300D01*
X4878599Y2757199D01*
X4878599Y2753099D01*
X4876599Y2749000D01*
X4874499Y2746999D01*
X4868400Y2745000D01*
X4850000Y2745000D01*
X4864300Y2745000D02*
G01*
X4878599Y2722500D01*
X4916700Y2765399D02*
G01*
X4896199Y2765399D01*
X4894200Y2746999D01*
X4896199Y2749000D01*
X4902399Y2751100D01*
X4908500Y2751100D01*
X4914600Y2749000D01*
X4918699Y2745000D01*
X4920799Y2738800D01*
X4920799Y2734699D01*
X4918699Y2728600D01*
X4914600Y2724499D01*
X4908500Y2722500D01*
X4902399Y2722500D01*
X4896199Y2724499D01*
X4894200Y2726500D01*
X4892100Y2730599D01*
X4946499Y2765399D02*
G01*
X4940400Y2763400D01*
X4936300Y2757199D01*
X4934300Y2746999D01*
X4934300Y2740900D01*
X4936300Y2730599D01*
X4940400Y2724499D01*
X4946499Y2722500D01*
X4950600Y2722500D01*
X4956800Y2724499D01*
X4960900Y2730599D01*
X4962900Y2740900D01*
X4962900Y2746999D01*
X4960900Y2757199D01*
X4956800Y2763400D01*
X4950600Y2765399D01*
X4946499Y2765399D01*
X6330000Y765399D02*
G01*
X6330000Y722500D01*
X6330000Y765399D02*
G01*
X6348400Y765399D01*
X6354499Y763400D01*
X6356599Y761300D01*
X6358599Y757199D01*
X6358599Y753099D01*
X6356599Y749000D01*
X6354499Y746999D01*
X6348400Y745000D01*
X6330000Y745000D01*
X6344300Y745000D02*
G01*
X6358599Y722500D01*
X6396700Y765399D02*
G01*
X6376199Y765399D01*
X6374200Y746999D01*
X6376199Y749000D01*
X6382399Y751100D01*
X6388500Y751100D01*
X6394600Y749000D01*
X6398699Y745000D01*
X6400799Y738800D01*
X6400799Y734699D01*
X6398699Y728600D01*
X6394600Y724499D01*
X6388500Y722500D01*
X6382399Y722500D01*
X6376199Y724499D01*
X6374200Y726500D01*
X6372100Y730599D01*
X6414300Y757199D02*
G01*
X6418400Y759299D01*
X6424499Y765399D01*
X6424499Y722500D01*
X6330000Y1065399D02*
G01*
X6330000Y1022500D01*
X6330000Y1065399D02*
G01*
X6348400Y1065399D01*
X6354499Y1063400D01*
X6356599Y1061300D01*
X6358599Y1057199D01*
X6358599Y1053099D01*
X6356599Y1049000D01*
X6354499Y1046999D01*
X6348400Y1045000D01*
X6330000Y1045000D01*
X6344300Y1045000D02*
G01*
X6358599Y1022500D01*
X6396700Y1065399D02*
G01*
X6376199Y1065399D01*
X6374200Y1046999D01*
X6376199Y1049000D01*
X6382399Y1051100D01*
X6388500Y1051100D01*
X6394600Y1049000D01*
X6398699Y1045000D01*
X6400799Y1038800D01*
X6400799Y1034699D01*
X6398699Y1028600D01*
X6394600Y1024499D01*
X6388500Y1022500D01*
X6382399Y1022500D01*
X6376199Y1024499D01*
X6374200Y1026500D01*
X6372100Y1030599D01*
X6416300Y1055199D02*
G01*
X6416300Y1057199D01*
X6418400Y1061300D01*
X6420400Y1063400D01*
X6424499Y1065399D01*
X6432700Y1065399D01*
X6436800Y1063400D01*
X6438800Y1061300D01*
X6440900Y1057199D01*
X6440900Y1053099D01*
X6438800Y1049000D01*
X6434700Y1042899D01*
X6414300Y1022500D01*
X6442900Y1022500D01*
X6330000Y1165399D02*
G01*
X6330000Y1122500D01*
X6330000Y1165399D02*
G01*
X6348400Y1165399D01*
X6354499Y1163400D01*
X6356599Y1161300D01*
X6358599Y1157199D01*
X6358599Y1153099D01*
X6356599Y1149000D01*
X6354499Y1146999D01*
X6348400Y1145000D01*
X6330000Y1145000D01*
X6344300Y1145000D02*
G01*
X6358599Y1122500D01*
X6396700Y1165399D02*
G01*
X6376199Y1165399D01*
X6374200Y1146999D01*
X6376199Y1149000D01*
X6382399Y1151100D01*
X6388500Y1151100D01*
X6394600Y1149000D01*
X6398699Y1145000D01*
X6400799Y1138800D01*
X6400799Y1134699D01*
X6398699Y1128600D01*
X6394600Y1124499D01*
X6388500Y1122500D01*
X6382399Y1122500D01*
X6376199Y1124499D01*
X6374200Y1126500D01*
X6372100Y1130599D01*
X6418400Y1165399D02*
G01*
X6440900Y1165399D01*
X6428599Y1149000D01*
X6434700Y1149000D01*
X6438800Y1146999D01*
X6440900Y1145000D01*
X6442900Y1138800D01*
X6442900Y1134699D01*
X6440900Y1128600D01*
X6436800Y1124499D01*
X6430600Y1122500D01*
X6424499Y1122500D01*
X6418400Y1124499D01*
X6416300Y1126500D01*
X6414300Y1130599D01*
X6330000Y1265399D02*
G01*
X6330000Y1222500D01*
X6330000Y1265399D02*
G01*
X6348400Y1265399D01*
X6354499Y1263400D01*
X6356599Y1261300D01*
X6358599Y1257199D01*
X6358599Y1253099D01*
X6356599Y1249000D01*
X6354499Y1246999D01*
X6348400Y1245000D01*
X6330000Y1245000D01*
X6344300Y1245000D02*
G01*
X6358599Y1222500D01*
X6396700Y1265399D02*
G01*
X6376199Y1265399D01*
X6374200Y1246999D01*
X6376199Y1249000D01*
X6382399Y1251100D01*
X6388500Y1251100D01*
X6394600Y1249000D01*
X6398699Y1245000D01*
X6400799Y1238800D01*
X6400799Y1234699D01*
X6398699Y1228600D01*
X6394600Y1224499D01*
X6388500Y1222500D01*
X6382399Y1222500D01*
X6376199Y1224499D01*
X6374200Y1226500D01*
X6372100Y1230599D01*
X6434700Y1265399D02*
G01*
X6414300Y1236799D01*
X6445000Y1236799D01*
X6434700Y1265399D02*
G01*
X6434700Y1222500D01*
X6330000Y1365399D02*
G01*
X6330000Y1322500D01*
X6330000Y1365399D02*
G01*
X6348400Y1365399D01*
X6354499Y1363400D01*
X6356599Y1361300D01*
X6358599Y1357199D01*
X6358599Y1353099D01*
X6356599Y1349000D01*
X6354499Y1346999D01*
X6348400Y1345000D01*
X6330000Y1345000D01*
X6344300Y1345000D02*
G01*
X6358599Y1322500D01*
X6396700Y1365399D02*
G01*
X6376199Y1365399D01*
X6374200Y1346999D01*
X6376199Y1349000D01*
X6382399Y1351100D01*
X6388500Y1351100D01*
X6394600Y1349000D01*
X6398699Y1345000D01*
X6400799Y1338800D01*
X6400799Y1334699D01*
X6398699Y1328600D01*
X6394600Y1324499D01*
X6388500Y1322500D01*
X6382399Y1322500D01*
X6376199Y1324499D01*
X6374200Y1326500D01*
X6372100Y1330599D01*
X6438800Y1365399D02*
G01*
X6418400Y1365399D01*
X6416300Y1346999D01*
X6418400Y1349000D01*
X6424499Y1351100D01*
X6430600Y1351100D01*
X6436800Y1349000D01*
X6440900Y1345000D01*
X6442900Y1338800D01*
X6442900Y1334699D01*
X6440900Y1328600D01*
X6436800Y1324499D01*
X6430600Y1322500D01*
X6424499Y1322500D01*
X6418400Y1324499D01*
X6416300Y1326500D01*
X6414300Y1330599D01*
X6330000Y1565399D02*
G01*
X6330000Y1522500D01*
X6330000Y1565399D02*
G01*
X6348400Y1565399D01*
X6354499Y1563400D01*
X6356599Y1561300D01*
X6358599Y1557199D01*
X6358599Y1553099D01*
X6356599Y1549000D01*
X6354499Y1546999D01*
X6348400Y1545000D01*
X6330000Y1545000D01*
X6344300Y1545000D02*
G01*
X6358599Y1522500D01*
X6396700Y1565399D02*
G01*
X6376199Y1565399D01*
X6374200Y1546999D01*
X6376199Y1549000D01*
X6382399Y1551100D01*
X6388500Y1551100D01*
X6394600Y1549000D01*
X6398699Y1545000D01*
X6400799Y1538800D01*
X6400799Y1534699D01*
X6398699Y1528600D01*
X6394600Y1524499D01*
X6388500Y1522500D01*
X6382399Y1522500D01*
X6376199Y1524499D01*
X6374200Y1526500D01*
X6372100Y1530599D01*
X6438800Y1559299D02*
G01*
X6436800Y1563400D01*
X6430600Y1565399D01*
X6426499Y1565399D01*
X6420400Y1563400D01*
X6416300Y1557199D01*
X6414300Y1546999D01*
X6414300Y1536799D01*
X6416300Y1528600D01*
X6420400Y1524499D01*
X6426499Y1522500D01*
X6428599Y1522500D01*
X6434700Y1524499D01*
X6438800Y1528600D01*
X6440900Y1534699D01*
X6440900Y1536799D01*
X6438800Y1542899D01*
X6434700Y1546999D01*
X6428599Y1549000D01*
X6426499Y1549000D01*
X6420400Y1546999D01*
X6416300Y1542899D01*
X6414300Y1536799D01*
X6330000Y1765399D02*
G01*
X6330000Y1722500D01*
X6330000Y1765399D02*
G01*
X6348400Y1765399D01*
X6354499Y1763400D01*
X6356599Y1761300D01*
X6358599Y1757199D01*
X6358599Y1753099D01*
X6356599Y1749000D01*
X6354499Y1746999D01*
X6348400Y1745000D01*
X6330000Y1745000D01*
X6344300Y1745000D02*
G01*
X6358599Y1722500D01*
X6396700Y1765399D02*
G01*
X6376199Y1765399D01*
X6374200Y1746999D01*
X6376199Y1749000D01*
X6382399Y1751100D01*
X6388500Y1751100D01*
X6394600Y1749000D01*
X6398699Y1745000D01*
X6400799Y1738800D01*
X6400799Y1734699D01*
X6398699Y1728600D01*
X6394600Y1724499D01*
X6388500Y1722500D01*
X6382399Y1722500D01*
X6376199Y1724499D01*
X6374200Y1726500D01*
X6372100Y1730599D01*
X6442900Y1765399D02*
G01*
X6422500Y1722500D01*
X6414300Y1765399D02*
G01*
X6442900Y1765399D01*
X6330000Y1865399D02*
G01*
X6330000Y1822500D01*
X6330000Y1865399D02*
G01*
X6348400Y1865399D01*
X6354499Y1863400D01*
X6356599Y1861300D01*
X6358599Y1857199D01*
X6358599Y1853099D01*
X6356599Y1849000D01*
X6354499Y1846999D01*
X6348400Y1845000D01*
X6330000Y1845000D01*
X6344300Y1845000D02*
G01*
X6358599Y1822500D01*
X6396700Y1865399D02*
G01*
X6376199Y1865399D01*
X6374200Y1846999D01*
X6376199Y1849000D01*
X6382399Y1851100D01*
X6388500Y1851100D01*
X6394600Y1849000D01*
X6398699Y1845000D01*
X6400799Y1838800D01*
X6400799Y1834699D01*
X6398699Y1828600D01*
X6394600Y1824499D01*
X6388500Y1822500D01*
X6382399Y1822500D01*
X6376199Y1824499D01*
X6374200Y1826500D01*
X6372100Y1830599D01*
X6424499Y1865399D02*
G01*
X6418400Y1863400D01*
X6416300Y1859299D01*
X6416300Y1855199D01*
X6418400Y1851100D01*
X6422500Y1849000D01*
X6430600Y1846999D01*
X6436800Y1845000D01*
X6440900Y1840900D01*
X6442900Y1836799D01*
X6442900Y1830599D01*
X6440900Y1826500D01*
X6438800Y1824499D01*
X6432700Y1822500D01*
X6424499Y1822500D01*
X6418400Y1824499D01*
X6416300Y1826500D01*
X6414300Y1830599D01*
X6414300Y1836799D01*
X6416300Y1840900D01*
X6420400Y1845000D01*
X6426499Y1846999D01*
X6434700Y1849000D01*
X6438800Y1851100D01*
X6440900Y1855199D01*
X6440900Y1859299D01*
X6438800Y1863400D01*
X6432700Y1865399D01*
X6424499Y1865399D01*
X6330000Y2065399D02*
G01*
X6330000Y2022500D01*
X6330000Y2065399D02*
G01*
X6348400Y2065399D01*
X6354499Y2063400D01*
X6356599Y2061300D01*
X6358599Y2057199D01*
X6358599Y2053099D01*
X6356599Y2049000D01*
X6354499Y2046999D01*
X6348400Y2045000D01*
X6330000Y2045000D01*
X6344300Y2045000D02*
G01*
X6358599Y2022500D01*
X6396700Y2065399D02*
G01*
X6376199Y2065399D01*
X6374200Y2046999D01*
X6376199Y2049000D01*
X6382399Y2051100D01*
X6388500Y2051100D01*
X6394600Y2049000D01*
X6398699Y2045000D01*
X6400799Y2038800D01*
X6400799Y2034699D01*
X6398699Y2028600D01*
X6394600Y2024499D01*
X6388500Y2022500D01*
X6382399Y2022500D01*
X6376199Y2024499D01*
X6374200Y2026500D01*
X6372100Y2030599D01*
X6440900Y2051100D02*
G01*
X6438800Y2045000D01*
X6434700Y2040900D01*
X6428599Y2038800D01*
X6426499Y2038800D01*
X6420400Y2040900D01*
X6416300Y2045000D01*
X6414300Y2051100D01*
X6414300Y2053099D01*
X6416300Y2059299D01*
X6420400Y2063400D01*
X6426499Y2065399D01*
X6428599Y2065399D01*
X6434700Y2063400D01*
X6438800Y2059299D01*
X6440900Y2051100D01*
X6440900Y2040900D01*
X6438800Y2030599D01*
X6434700Y2024499D01*
X6428599Y2022500D01*
X6424499Y2022500D01*
X6418400Y2024499D01*
X6416300Y2028600D01*
X5130000Y2625399D02*
G01*
X5130000Y2582500D01*
X5130000Y2625399D02*
G01*
X5148400Y2625399D01*
X5154499Y2623400D01*
X5156599Y2621300D01*
X5158599Y2617199D01*
X5158599Y2613099D01*
X5156599Y2609000D01*
X5154499Y2606999D01*
X5148400Y2605000D01*
X5130000Y2605000D01*
X5144300Y2605000D02*
G01*
X5158599Y2582500D01*
X5196700Y2619299D02*
G01*
X5194600Y2623400D01*
X5188500Y2625399D01*
X5184399Y2625399D01*
X5178299Y2623400D01*
X5174200Y2617199D01*
X5172100Y2606999D01*
X5172100Y2596799D01*
X5174200Y2588600D01*
X5178299Y2584499D01*
X5184399Y2582500D01*
X5186499Y2582500D01*
X5192600Y2584499D01*
X5196700Y2588600D01*
X5198699Y2594699D01*
X5198699Y2596799D01*
X5196700Y2602899D01*
X5192600Y2606999D01*
X5186499Y2609000D01*
X5184399Y2609000D01*
X5178299Y2606999D01*
X5174200Y2602899D01*
X5172100Y2596799D01*
X5224499Y2625399D02*
G01*
X5218400Y2623400D01*
X5214300Y2617199D01*
X5212200Y2606999D01*
X5212200Y2600900D01*
X5214300Y2590599D01*
X5218400Y2584499D01*
X5224499Y2582500D01*
X5228599Y2582500D01*
X5234700Y2584499D01*
X5238800Y2590599D01*
X5240900Y2600900D01*
X5240900Y2606999D01*
X5238800Y2617199D01*
X5234700Y2623400D01*
X5228599Y2625399D01*
X5224499Y2625399D01*
X5130000Y2515399D02*
G01*
X5130000Y2472500D01*
X5130000Y2515399D02*
G01*
X5148400Y2515399D01*
X5154499Y2513400D01*
X5156599Y2511300D01*
X5158599Y2507199D01*
X5158599Y2503099D01*
X5156599Y2499000D01*
X5154499Y2496999D01*
X5148400Y2495000D01*
X5130000Y2495000D01*
X5144300Y2495000D02*
G01*
X5158599Y2472500D01*
X5196700Y2509299D02*
G01*
X5194600Y2513400D01*
X5188500Y2515399D01*
X5184399Y2515399D01*
X5178299Y2513400D01*
X5174200Y2507199D01*
X5172100Y2496999D01*
X5172100Y2486799D01*
X5174200Y2478600D01*
X5178299Y2474499D01*
X5184399Y2472500D01*
X5186499Y2472500D01*
X5192600Y2474499D01*
X5196700Y2478600D01*
X5198699Y2484699D01*
X5198699Y2486799D01*
X5196700Y2492899D01*
X5192600Y2496999D01*
X5186499Y2499000D01*
X5184399Y2499000D01*
X5178299Y2496999D01*
X5174200Y2492899D01*
X5172100Y2486799D01*
X5212200Y2507199D02*
G01*
X5216300Y2509299D01*
X5222500Y2515399D01*
X5222500Y2472500D01*
X5130000Y2415399D02*
G01*
X5130000Y2372500D01*
X5130000Y2415399D02*
G01*
X5148400Y2415399D01*
X5154499Y2413400D01*
X5156599Y2411300D01*
X5158599Y2407199D01*
X5158599Y2403099D01*
X5156599Y2399000D01*
X5154499Y2396999D01*
X5148400Y2395000D01*
X5130000Y2395000D01*
X5144300Y2395000D02*
G01*
X5158599Y2372500D01*
X5196700Y2409299D02*
G01*
X5194600Y2413400D01*
X5188500Y2415399D01*
X5184399Y2415399D01*
X5178299Y2413400D01*
X5174200Y2407199D01*
X5172100Y2396999D01*
X5172100Y2386799D01*
X5174200Y2378600D01*
X5178299Y2374499D01*
X5184399Y2372500D01*
X5186499Y2372500D01*
X5192600Y2374499D01*
X5196700Y2378600D01*
X5198699Y2384699D01*
X5198699Y2386799D01*
X5196700Y2392899D01*
X5192600Y2396999D01*
X5186499Y2399000D01*
X5184399Y2399000D01*
X5178299Y2396999D01*
X5174200Y2392899D01*
X5172100Y2386799D01*
X5214300Y2405200D02*
G01*
X5214300Y2407199D01*
X5216300Y2411300D01*
X5218400Y2413400D01*
X5222500Y2415399D01*
X5230600Y2415399D01*
X5234700Y2413400D01*
X5236800Y2411300D01*
X5238800Y2407199D01*
X5238800Y2403099D01*
X5236800Y2399000D01*
X5232700Y2392899D01*
X5212200Y2372500D01*
X5240900Y2372500D01*
X5130000Y2315399D02*
G01*
X5130000Y2272500D01*
X5130000Y2315399D02*
G01*
X5148400Y2315399D01*
X5154499Y2313400D01*
X5156599Y2311300D01*
X5158599Y2307199D01*
X5158599Y2303099D01*
X5156599Y2299000D01*
X5154499Y2296999D01*
X5148400Y2295000D01*
X5130000Y2295000D01*
X5144300Y2295000D02*
G01*
X5158599Y2272500D01*
X5196700Y2309299D02*
G01*
X5194600Y2313400D01*
X5188500Y2315399D01*
X5184399Y2315399D01*
X5178299Y2313400D01*
X5174200Y2307199D01*
X5172100Y2296999D01*
X5172100Y2286799D01*
X5174200Y2278600D01*
X5178299Y2274499D01*
X5184399Y2272500D01*
X5186499Y2272500D01*
X5192600Y2274499D01*
X5196700Y2278600D01*
X5198699Y2284699D01*
X5198699Y2286799D01*
X5196700Y2292899D01*
X5192600Y2296999D01*
X5186499Y2299000D01*
X5184399Y2299000D01*
X5178299Y2296999D01*
X5174200Y2292899D01*
X5172100Y2286799D01*
X5216300Y2315399D02*
G01*
X5238800Y2315399D01*
X5226499Y2299000D01*
X5232700Y2299000D01*
X5236800Y2296999D01*
X5238800Y2295000D01*
X5240900Y2288800D01*
X5240900Y2284699D01*
X5238800Y2278600D01*
X5234700Y2274499D01*
X5228599Y2272500D01*
X5222500Y2272500D01*
X5216300Y2274499D01*
X5214300Y2276500D01*
X5212200Y2280599D01*
X5130000Y2215399D02*
G01*
X5130000Y2172500D01*
X5130000Y2215399D02*
G01*
X5148400Y2215399D01*
X5154499Y2213400D01*
X5156599Y2211300D01*
X5158599Y2207199D01*
X5158599Y2203099D01*
X5156599Y2199000D01*
X5154499Y2196999D01*
X5148400Y2195000D01*
X5130000Y2195000D01*
X5144300Y2195000D02*
G01*
X5158599Y2172500D01*
X5196700Y2209299D02*
G01*
X5194600Y2213400D01*
X5188500Y2215399D01*
X5184399Y2215399D01*
X5178299Y2213400D01*
X5174200Y2207199D01*
X5172100Y2196999D01*
X5172100Y2186799D01*
X5174200Y2178600D01*
X5178299Y2174499D01*
X5184399Y2172500D01*
X5186499Y2172500D01*
X5192600Y2174499D01*
X5196700Y2178600D01*
X5198699Y2184699D01*
X5198699Y2186799D01*
X5196700Y2192899D01*
X5192600Y2196999D01*
X5186499Y2199000D01*
X5184399Y2199000D01*
X5178299Y2196999D01*
X5174200Y2192899D01*
X5172100Y2186799D01*
X5232700Y2215399D02*
G01*
X5212200Y2186799D01*
X5242900Y2186799D01*
X5232700Y2215399D02*
G01*
X5232700Y2172500D01*
X5130000Y2115399D02*
G01*
X5130000Y2072500D01*
X5130000Y2115399D02*
G01*
X5148400Y2115399D01*
X5154499Y2113400D01*
X5156599Y2111300D01*
X5158599Y2107199D01*
X5158599Y2103099D01*
X5156599Y2099000D01*
X5154499Y2096999D01*
X5148400Y2095000D01*
X5130000Y2095000D01*
X5144300Y2095000D02*
G01*
X5158599Y2072500D01*
X5196700Y2109299D02*
G01*
X5194600Y2113400D01*
X5188500Y2115399D01*
X5184399Y2115399D01*
X5178299Y2113400D01*
X5174200Y2107199D01*
X5172100Y2096999D01*
X5172100Y2086799D01*
X5174200Y2078600D01*
X5178299Y2074499D01*
X5184399Y2072500D01*
X5186499Y2072500D01*
X5192600Y2074499D01*
X5196700Y2078600D01*
X5198699Y2084699D01*
X5198699Y2086799D01*
X5196700Y2092899D01*
X5192600Y2096999D01*
X5186499Y2099000D01*
X5184399Y2099000D01*
X5178299Y2096999D01*
X5174200Y2092899D01*
X5172100Y2086799D01*
X5236800Y2115399D02*
G01*
X5216300Y2115399D01*
X5214300Y2096999D01*
X5216300Y2099000D01*
X5222500Y2101100D01*
X5228599Y2101100D01*
X5234700Y2099000D01*
X5238800Y2095000D01*
X5240900Y2088800D01*
X5240900Y2084699D01*
X5238800Y2078600D01*
X5234700Y2074499D01*
X5228599Y2072500D01*
X5222500Y2072500D01*
X5216300Y2074499D01*
X5214300Y2076500D01*
X5212200Y2080599D01*
X5130000Y2015399D02*
G01*
X5130000Y1972500D01*
X5130000Y2015399D02*
G01*
X5148400Y2015399D01*
X5154499Y2013400D01*
X5156599Y2011300D01*
X5158599Y2007199D01*
X5158599Y2003099D01*
X5156599Y1999000D01*
X5154499Y1996999D01*
X5148400Y1995000D01*
X5130000Y1995000D01*
X5144300Y1995000D02*
G01*
X5158599Y1972500D01*
X5196700Y2009299D02*
G01*
X5194600Y2013400D01*
X5188500Y2015399D01*
X5184399Y2015399D01*
X5178299Y2013400D01*
X5174200Y2007199D01*
X5172100Y1996999D01*
X5172100Y1986799D01*
X5174200Y1978600D01*
X5178299Y1974499D01*
X5184399Y1972500D01*
X5186499Y1972500D01*
X5192600Y1974499D01*
X5196700Y1978600D01*
X5198699Y1984699D01*
X5198699Y1986799D01*
X5196700Y1992899D01*
X5192600Y1996999D01*
X5186499Y1999000D01*
X5184399Y1999000D01*
X5178299Y1996999D01*
X5174200Y1992899D01*
X5172100Y1986799D01*
X5236800Y2009299D02*
G01*
X5234700Y2013400D01*
X5228599Y2015399D01*
X5224499Y2015399D01*
X5218400Y2013400D01*
X5214300Y2007199D01*
X5212200Y1996999D01*
X5212200Y1986799D01*
X5214300Y1978600D01*
X5218400Y1974499D01*
X5224499Y1972500D01*
X5226499Y1972500D01*
X5232700Y1974499D01*
X5236800Y1978600D01*
X5238800Y1984699D01*
X5238800Y1986799D01*
X5236800Y1992899D01*
X5232700Y1996999D01*
X5226499Y1999000D01*
X5224499Y1999000D01*
X5218400Y1996999D01*
X5214300Y1992899D01*
X5212200Y1986799D01*
X5130000Y1915399D02*
G01*
X5130000Y1872500D01*
X5130000Y1915399D02*
G01*
X5148400Y1915399D01*
X5154499Y1913400D01*
X5156599Y1911300D01*
X5158599Y1907199D01*
X5158599Y1903099D01*
X5156599Y1899000D01*
X5154499Y1896999D01*
X5148400Y1895000D01*
X5130000Y1895000D01*
X5144300Y1895000D02*
G01*
X5158599Y1872500D01*
X5196700Y1909299D02*
G01*
X5194600Y1913400D01*
X5188500Y1915399D01*
X5184399Y1915399D01*
X5178299Y1913400D01*
X5174200Y1907199D01*
X5172100Y1896999D01*
X5172100Y1886799D01*
X5174200Y1878600D01*
X5178299Y1874499D01*
X5184399Y1872500D01*
X5186499Y1872500D01*
X5192600Y1874499D01*
X5196700Y1878600D01*
X5198699Y1884699D01*
X5198699Y1886799D01*
X5196700Y1892899D01*
X5192600Y1896999D01*
X5186499Y1899000D01*
X5184399Y1899000D01*
X5178299Y1896999D01*
X5174200Y1892899D01*
X5172100Y1886799D01*
X5240900Y1915399D02*
G01*
X5220400Y1872500D01*
X5212200Y1915399D02*
G01*
X5240900Y1915399D01*
X3900699Y2785200D02*
G01*
X3898599Y2789299D01*
X3894499Y2793400D01*
X3890500Y2795399D01*
X3882299Y2795399D01*
X3878199Y2793400D01*
X3874099Y2789299D01*
X3871999Y2785200D01*
X3870000Y2779000D01*
X3870000Y2768800D01*
X3871999Y2762700D01*
X3874099Y2758600D01*
X3878199Y2754499D01*
X3882299Y2752500D01*
X3890500Y2752500D01*
X3894499Y2754499D01*
X3898599Y2758600D01*
X3900699Y2762700D01*
X3916199Y2785200D02*
G01*
X3916199Y2787199D01*
X3918299Y2791300D01*
X3920299Y2793400D01*
X3924399Y2795399D01*
X3932600Y2795399D01*
X3936700Y2793400D01*
X3938699Y2791300D01*
X3940799Y2787199D01*
X3940799Y2783099D01*
X3938699Y2779000D01*
X3934600Y2772899D01*
X3914200Y2752500D01*
X3942799Y2752500D01*
X2070699Y1595199D02*
G01*
X2068599Y1599299D01*
X2064499Y1603400D01*
X2060500Y1605399D01*
X2052299Y1605399D01*
X2048199Y1603400D01*
X2044099Y1599299D01*
X2041999Y1595199D01*
X2040000Y1589000D01*
X2040000Y1578800D01*
X2041999Y1572699D01*
X2044099Y1568600D01*
X2048199Y1564499D01*
X2052299Y1562500D01*
X2060500Y1562500D01*
X2064499Y1564499D01*
X2068599Y1568600D01*
X2070699Y1572699D01*
X2088299Y1605399D02*
G01*
X2110799Y1605399D01*
X2098500Y1589000D01*
X2104600Y1589000D01*
X2108699Y1586999D01*
X2110799Y1585000D01*
X2112799Y1578800D01*
X2112799Y1574699D01*
X2110799Y1568600D01*
X2106700Y1564499D01*
X2100500Y1562500D01*
X2094399Y1562500D01*
X2088299Y1564499D01*
X2086199Y1566500D01*
X2084200Y1570599D01*
X3170699Y1375199D02*
G01*
X3168599Y1379299D01*
X3164499Y1383400D01*
X3160500Y1385399D01*
X3152299Y1385399D01*
X3148199Y1383400D01*
X3144099Y1379299D01*
X3141999Y1375199D01*
X3140000Y1369000D01*
X3140000Y1358800D01*
X3141999Y1352699D01*
X3144099Y1348600D01*
X3148199Y1344499D01*
X3152299Y1342500D01*
X3160500Y1342500D01*
X3164499Y1344499D01*
X3168599Y1348600D01*
X3170699Y1352699D01*
X3204600Y1385399D02*
G01*
X3184200Y1356799D01*
X3214899Y1356799D01*
X3204600Y1385399D02*
G01*
X3204600Y1342500D01*
X1010699Y1415199D02*
G01*
X1008599Y1419299D01*
X1004499Y1423400D01*
X1000500Y1425399D01*
X992299Y1425399D01*
X988199Y1423400D01*
X984099Y1419299D01*
X981999Y1415199D01*
X980000Y1409000D01*
X980000Y1398800D01*
X981999Y1392699D01*
X984099Y1388600D01*
X988199Y1384499D01*
X992299Y1382500D01*
X1000500Y1382500D01*
X1004499Y1384499D01*
X1008599Y1388600D01*
X1010699Y1392699D01*
X1048699Y1425399D02*
G01*
X1028299Y1425399D01*
X1026199Y1406999D01*
X1028299Y1409000D01*
X1034399Y1411100D01*
X1040500Y1411100D01*
X1046700Y1409000D01*
X1050799Y1405000D01*
X1052799Y1398800D01*
X1052799Y1394699D01*
X1050799Y1388600D01*
X1046700Y1384499D01*
X1040500Y1382500D01*
X1034399Y1382500D01*
X1028299Y1384499D01*
X1026199Y1386500D01*
X1024200Y1390599D01*
X2860000Y3335399D02*
G01*
X2860000Y3292500D01*
X2888599Y3335399D02*
G01*
X2860000Y3306799D01*
X2870200Y3316999D02*
G01*
X2888599Y3292500D01*
X2902100Y3335399D02*
G01*
X2902100Y3292500D01*
X2902100Y3335399D02*
G01*
X2928699Y3335399D01*
X2902100Y3315000D02*
G01*
X2918500Y3315000D01*
X2902100Y3292500D02*
G01*
X2928699Y3292500D01*
X2942200Y3335399D02*
G01*
X2958599Y3315000D01*
X2958599Y3292500D01*
X2975000Y3335399D02*
G01*
X2958599Y3315000D01*
X2988500Y3327199D02*
G01*
X2992500Y3329299D01*
X2998699Y3335399D01*
X2998699Y3292500D01*
X610097Y2675405D02*
G01*
X610097Y2632406D01*
X610097Y2632406D02*
G01*
X634598Y2632406D01*
X648098Y2675405D02*
G01*
X648098Y2632406D01*
X648098Y2675405D02*
G01*
X674697Y2675405D01*
X648098Y2654906D02*
G01*
X664497Y2654906D01*
X648098Y2632406D02*
G01*
X674697Y2632406D01*
X688198Y2675405D02*
G01*
X688198Y2632406D01*
X688198Y2675405D02*
G01*
X702498Y2675405D01*
X708598Y2673305D01*
X712698Y2669205D01*
X714798Y2665106D01*
X716797Y2659005D01*
X716797Y2648805D01*
X714798Y2642606D01*
X712698Y2638506D01*
X708598Y2634405D01*
X702498Y2632406D01*
X688198Y2632406D01*
X754897Y2675405D02*
G01*
X734398Y2675405D01*
X732397Y2656905D01*
X734398Y2659005D01*
X740598Y2661006D01*
X746698Y2661006D01*
X752797Y2659005D01*
X756898Y2654906D01*
X758998Y2648805D01*
X758998Y2644706D01*
X756898Y2638506D01*
X752797Y2634405D01*
X746698Y2632406D01*
X740598Y2632406D01*
X734398Y2634405D01*
X732397Y2636505D01*
X730297Y2640605D01*
X610097Y2575405D02*
G01*
X610097Y2532406D01*
X610097Y2532406D02*
G01*
X634598Y2532406D01*
X648098Y2575405D02*
G01*
X648098Y2532406D01*
X648098Y2575405D02*
G01*
X674697Y2575405D01*
X648098Y2554906D02*
G01*
X664497Y2554906D01*
X648098Y2532406D02*
G01*
X674697Y2532406D01*
X688198Y2575405D02*
G01*
X688198Y2532406D01*
X688198Y2575405D02*
G01*
X702498Y2575405D01*
X708598Y2573305D01*
X712698Y2569205D01*
X714798Y2565106D01*
X716797Y2559005D01*
X716797Y2548805D01*
X714798Y2542606D01*
X712698Y2538506D01*
X708598Y2534405D01*
X702498Y2532406D01*
X688198Y2532406D01*
X754897Y2569205D02*
G01*
X752797Y2573305D01*
X746698Y2575405D01*
X742597Y2575405D01*
X736498Y2573305D01*
X732397Y2567206D01*
X730297Y2556905D01*
X730297Y2546705D01*
X732397Y2538506D01*
X736498Y2534405D01*
X742597Y2532406D01*
X744598Y2532406D01*
X750797Y2534405D01*
X754897Y2538506D01*
X756898Y2544706D01*
X756898Y2546705D01*
X754897Y2552905D01*
X750797Y2556905D01*
X744598Y2559005D01*
X742597Y2559005D01*
X736498Y2556905D01*
X732397Y2552905D01*
X730297Y2546705D01*
X610149Y2475353D02*
G01*
X610149Y2432352D01*
X610149Y2432352D02*
G01*
X634648Y2432352D01*
X648148Y2475353D02*
G01*
X648148Y2432352D01*
X648148Y2475353D02*
G01*
X674749Y2475353D01*
X648148Y2454852D02*
G01*
X664549Y2454852D01*
X648148Y2432352D02*
G01*
X674749Y2432352D01*
X688249Y2475353D02*
G01*
X688249Y2432352D01*
X688249Y2475353D02*
G01*
X702548Y2475353D01*
X708649Y2473252D01*
X712748Y2469153D01*
X714848Y2465052D01*
X716849Y2458953D01*
X716849Y2448753D01*
X714848Y2442552D01*
X712748Y2438452D01*
X708649Y2434353D01*
X702548Y2432352D01*
X688249Y2432352D01*
X759049Y2475353D02*
G01*
X738548Y2432352D01*
X730349Y2475353D02*
G01*
X759049Y2475353D01*
X610099Y2375302D02*
G01*
X610099Y2332402D01*
X610099Y2332402D02*
G01*
X634598Y2332402D01*
X648099Y2375302D02*
G01*
X648099Y2332402D01*
X648099Y2375302D02*
G01*
X674699Y2375302D01*
X648099Y2354902D02*
G01*
X664499Y2354902D01*
X648099Y2332402D02*
G01*
X674699Y2332402D01*
X688198Y2375302D02*
G01*
X688198Y2332402D01*
X688198Y2375302D02*
G01*
X702599Y2375302D01*
X708699Y2373303D01*
X712799Y2369203D01*
X714798Y2365102D01*
X716898Y2358903D01*
X716898Y2348703D01*
X714798Y2342602D01*
X712799Y2338503D01*
X708699Y2334403D01*
X702599Y2332402D01*
X688198Y2332402D01*
X740599Y2375302D02*
G01*
X734499Y2373303D01*
X732399Y2369203D01*
X732399Y2365102D01*
X734499Y2361003D01*
X738598Y2358903D01*
X746698Y2356903D01*
X752899Y2354902D01*
X756999Y2350803D01*
X758998Y2346703D01*
X758998Y2340502D01*
X756999Y2336403D01*
X754899Y2334403D01*
X748798Y2332402D01*
X740599Y2332402D01*
X734499Y2334403D01*
X732399Y2336403D01*
X730399Y2340502D01*
X730399Y2346703D01*
X732399Y2350803D01*
X736498Y2354902D01*
X742599Y2356903D01*
X750799Y2358903D01*
X754899Y2361003D01*
X756999Y2365102D01*
X756999Y2369203D01*
X754899Y2373303D01*
X748798Y2375302D01*
X740599Y2375302D01*
X610097Y2275405D02*
G01*
X610097Y2232406D01*
X610097Y2232406D02*
G01*
X634598Y2232406D01*
X648098Y2275405D02*
G01*
X648098Y2232406D01*
X648098Y2275405D02*
G01*
X674697Y2275405D01*
X648098Y2254906D02*
G01*
X664497Y2254906D01*
X648098Y2232406D02*
G01*
X674697Y2232406D01*
X688198Y2275405D02*
G01*
X688198Y2232406D01*
X688198Y2275405D02*
G01*
X702498Y2275405D01*
X708598Y2273305D01*
X712698Y2269205D01*
X714798Y2265106D01*
X716797Y2259005D01*
X716797Y2248805D01*
X714798Y2242606D01*
X712698Y2238506D01*
X708598Y2234405D01*
X702498Y2232406D01*
X688198Y2232406D01*
X756898Y2261006D02*
G01*
X754897Y2254906D01*
X750797Y2250805D01*
X744598Y2248805D01*
X742597Y2248805D01*
X736498Y2250805D01*
X732397Y2254906D01*
X730297Y2261006D01*
X730297Y2263105D01*
X732397Y2269205D01*
X736498Y2273305D01*
X742597Y2275405D01*
X744598Y2275405D01*
X750797Y2273305D01*
X754897Y2269205D01*
X756898Y2261006D01*
X756898Y2250805D01*
X754897Y2240605D01*
X750797Y2234405D01*
X744598Y2232406D01*
X740598Y2232406D01*
X734398Y2234405D01*
X732397Y2238506D01*
X610097Y2175405D02*
G01*
X610097Y2132406D01*
X610097Y2132406D02*
G01*
X634598Y2132406D01*
X648098Y2175405D02*
G01*
X648098Y2132406D01*
X648098Y2175405D02*
G01*
X674697Y2175405D01*
X648098Y2154906D02*
G01*
X664497Y2154906D01*
X648098Y2132406D02*
G01*
X674697Y2132406D01*
X688198Y2175405D02*
G01*
X688198Y2132406D01*
X688198Y2175405D02*
G01*
X702498Y2175405D01*
X708598Y2173305D01*
X712698Y2169205D01*
X714798Y2165106D01*
X716797Y2159005D01*
X716797Y2148805D01*
X714798Y2142606D01*
X712698Y2138506D01*
X708598Y2134405D01*
X702498Y2132406D01*
X688198Y2132406D01*
X730297Y2167206D02*
G01*
X734398Y2169205D01*
X740598Y2175405D01*
X740598Y2132406D01*
X766297Y2175405D02*
G01*
X760198Y2173305D01*
X756098Y2167206D01*
X754097Y2156905D01*
X754097Y2150805D01*
X756098Y2140605D01*
X760198Y2134405D01*
X766297Y2132406D01*
X770397Y2132406D01*
X776598Y2134405D01*
X780598Y2140605D01*
X782698Y2150805D01*
X782698Y2156905D01*
X780598Y2167206D01*
X776598Y2173305D01*
X770397Y2175405D01*
X766297Y2175405D01*
X610097Y2075405D02*
G01*
X610097Y2032406D01*
X610097Y2032406D02*
G01*
X634598Y2032406D01*
X648098Y2075405D02*
G01*
X648098Y2032406D01*
X648098Y2075405D02*
G01*
X674697Y2075405D01*
X648098Y2054906D02*
G01*
X664497Y2054906D01*
X648098Y2032406D02*
G01*
X674697Y2032406D01*
X688198Y2075405D02*
G01*
X688198Y2032406D01*
X688198Y2075405D02*
G01*
X702498Y2075405D01*
X708598Y2073305D01*
X712698Y2069205D01*
X714798Y2065106D01*
X716797Y2059005D01*
X716797Y2048805D01*
X714798Y2042606D01*
X712698Y2038506D01*
X708598Y2034405D01*
X702498Y2032406D01*
X688198Y2032406D01*
X730297Y2067206D02*
G01*
X734398Y2069205D01*
X740598Y2075405D01*
X740598Y2032406D01*
X754097Y2067206D02*
G01*
X758098Y2069205D01*
X764297Y2075405D01*
X764297Y2032406D01*
X610097Y1975405D02*
G01*
X610097Y1932406D01*
X610097Y1932406D02*
G01*
X634598Y1932406D01*
X648098Y1975405D02*
G01*
X648098Y1932406D01*
X648098Y1975405D02*
G01*
X674697Y1975405D01*
X648098Y1954906D02*
G01*
X664497Y1954906D01*
X648098Y1932406D02*
G01*
X674697Y1932406D01*
X688198Y1975405D02*
G01*
X688198Y1932406D01*
X688198Y1975405D02*
G01*
X702498Y1975405D01*
X708598Y1973305D01*
X712698Y1969205D01*
X714798Y1965106D01*
X716797Y1959005D01*
X716797Y1948805D01*
X714798Y1942606D01*
X712698Y1938506D01*
X708598Y1934405D01*
X702498Y1932406D01*
X688198Y1932406D01*
X730297Y1967206D02*
G01*
X734398Y1969205D01*
X740598Y1975405D01*
X740598Y1932406D01*
X756098Y1965106D02*
G01*
X756098Y1967206D01*
X758098Y1971305D01*
X760198Y1973305D01*
X764297Y1975405D01*
X772497Y1975405D01*
X776598Y1973305D01*
X778598Y1971305D01*
X780598Y1967206D01*
X780598Y1963105D01*
X778598Y1959005D01*
X774498Y1952905D01*
X754097Y1932406D01*
X782698Y1932406D01*
X610097Y1875405D02*
G01*
X610097Y1832406D01*
X610097Y1832406D02*
G01*
X634598Y1832406D01*
X648098Y1875405D02*
G01*
X648098Y1832406D01*
X648098Y1875405D02*
G01*
X674697Y1875405D01*
X648098Y1854906D02*
G01*
X664497Y1854906D01*
X648098Y1832406D02*
G01*
X674697Y1832406D01*
X688198Y1875405D02*
G01*
X688198Y1832406D01*
X688198Y1875405D02*
G01*
X702498Y1875405D01*
X708598Y1873305D01*
X712698Y1869205D01*
X714798Y1865106D01*
X716797Y1859005D01*
X716797Y1848805D01*
X714798Y1842606D01*
X712698Y1838506D01*
X708598Y1834405D01*
X702498Y1832406D01*
X688198Y1832406D01*
X730297Y1867206D02*
G01*
X734398Y1869205D01*
X740598Y1875405D01*
X740598Y1832406D01*
X758098Y1875405D02*
G01*
X780598Y1875405D01*
X768397Y1859005D01*
X774498Y1859005D01*
X778598Y1856905D01*
X780598Y1854906D01*
X782698Y1848805D01*
X782698Y1844706D01*
X780598Y1838506D01*
X776598Y1834405D01*
X770397Y1832406D01*
X764297Y1832406D01*
X758098Y1834405D01*
X756098Y1836505D01*
X754097Y1840605D01*
X610097Y1775405D02*
G01*
X610097Y1732406D01*
X610097Y1732406D02*
G01*
X634598Y1732406D01*
X648098Y1775405D02*
G01*
X648098Y1732406D01*
X648098Y1775405D02*
G01*
X674697Y1775405D01*
X648098Y1754906D02*
G01*
X664497Y1754906D01*
X648098Y1732406D02*
G01*
X674697Y1732406D01*
X688198Y1775405D02*
G01*
X688198Y1732406D01*
X688198Y1775405D02*
G01*
X702498Y1775405D01*
X708598Y1773305D01*
X712698Y1769205D01*
X714798Y1765106D01*
X716797Y1759005D01*
X716797Y1748805D01*
X714798Y1742606D01*
X712698Y1738506D01*
X708598Y1734405D01*
X702498Y1732406D01*
X688198Y1732406D01*
X730297Y1767206D02*
G01*
X734398Y1769205D01*
X740598Y1775405D01*
X740598Y1732406D01*
X774498Y1775405D02*
G01*
X754097Y1746705D01*
X784697Y1746705D01*
X774498Y1775405D02*
G01*
X774498Y1732406D01*
X610097Y1675405D02*
G01*
X610097Y1632406D01*
X610097Y1632406D02*
G01*
X634598Y1632406D01*
X648098Y1675405D02*
G01*
X648098Y1632406D01*
X648098Y1675405D02*
G01*
X674697Y1675405D01*
X648098Y1654906D02*
G01*
X664497Y1654906D01*
X648098Y1632406D02*
G01*
X674697Y1632406D01*
X688198Y1675405D02*
G01*
X688198Y1632406D01*
X688198Y1675405D02*
G01*
X702498Y1675405D01*
X708598Y1673305D01*
X712698Y1669205D01*
X714798Y1665106D01*
X716797Y1659005D01*
X716797Y1648805D01*
X714798Y1642606D01*
X712698Y1638506D01*
X708598Y1634405D01*
X702498Y1632406D01*
X688198Y1632406D01*
X730297Y1667206D02*
G01*
X734398Y1669205D01*
X740598Y1675405D01*
X740598Y1632406D01*
X778598Y1675405D02*
G01*
X758098Y1675405D01*
X756098Y1656905D01*
X758098Y1659005D01*
X764297Y1661006D01*
X770397Y1661006D01*
X776598Y1659005D01*
X780598Y1654906D01*
X782698Y1648805D01*
X782698Y1644706D01*
X780598Y1638506D01*
X776598Y1634405D01*
X770397Y1632406D01*
X764297Y1632406D01*
X758098Y1634405D01*
X756098Y1636505D01*
X754097Y1640605D01*
X610097Y1575405D02*
G01*
X610097Y1532406D01*
X610097Y1532406D02*
G01*
X634598Y1532406D01*
X648098Y1575405D02*
G01*
X648098Y1532406D01*
X648098Y1575405D02*
G01*
X674697Y1575405D01*
X648098Y1554906D02*
G01*
X664497Y1554906D01*
X648098Y1532406D02*
G01*
X674697Y1532406D01*
X688198Y1575405D02*
G01*
X688198Y1532406D01*
X688198Y1575405D02*
G01*
X702498Y1575405D01*
X708598Y1573305D01*
X712698Y1569205D01*
X714798Y1565106D01*
X716797Y1559005D01*
X716797Y1548805D01*
X714798Y1542606D01*
X712698Y1538506D01*
X708598Y1534405D01*
X702498Y1532406D01*
X688198Y1532406D01*
X730297Y1567206D02*
G01*
X734398Y1569205D01*
X740598Y1575405D01*
X740598Y1532406D01*
X778598Y1569205D02*
G01*
X776598Y1573305D01*
X770397Y1575405D01*
X766297Y1575405D01*
X760198Y1573305D01*
X756098Y1567206D01*
X754097Y1556905D01*
X754097Y1546705D01*
X756098Y1538506D01*
X760198Y1534405D01*
X766297Y1532406D01*
X768397Y1532406D01*
X774498Y1534405D01*
X778598Y1538506D01*
X780598Y1544706D01*
X780598Y1546705D01*
X778598Y1552905D01*
X774498Y1556905D01*
X768397Y1559005D01*
X766297Y1559005D01*
X760198Y1556905D01*
X756098Y1552905D01*
X754097Y1546705D01*
X819998Y2675403D02*
G01*
X819998Y2632503D01*
X819998Y2675403D02*
G01*
X838398Y2675403D01*
X844498Y2673402D01*
X846598Y2671302D01*
X848599Y2667202D01*
X848599Y2663103D01*
X846598Y2659002D01*
X844498Y2657002D01*
X838398Y2655003D01*
X819998Y2655003D01*
X834299Y2655003D02*
G01*
X848599Y2632503D01*
X890798Y2675403D02*
G01*
X870299Y2632503D01*
X862098Y2675403D02*
G01*
X890798Y2675403D01*
X819998Y2575403D02*
G01*
X819998Y2532503D01*
X819998Y2575403D02*
G01*
X838398Y2575403D01*
X844498Y2573402D01*
X846598Y2571302D01*
X848599Y2567202D01*
X848599Y2563103D01*
X846598Y2559002D01*
X844498Y2557002D01*
X838398Y2555003D01*
X819998Y2555003D01*
X834299Y2555003D02*
G01*
X848599Y2532503D01*
X872398Y2575403D02*
G01*
X866198Y2573402D01*
X864198Y2569303D01*
X864198Y2565203D01*
X866198Y2561102D01*
X870299Y2559002D01*
X878499Y2557002D01*
X884598Y2555003D01*
X888698Y2550902D01*
X890798Y2546803D01*
X890798Y2540603D01*
X888698Y2536502D01*
X886698Y2534502D01*
X880498Y2532503D01*
X872398Y2532503D01*
X866198Y2534502D01*
X864198Y2536502D01*
X862098Y2540603D01*
X862098Y2546803D01*
X864198Y2550902D01*
X868298Y2555003D01*
X874399Y2557002D01*
X882599Y2559002D01*
X886698Y2561102D01*
X888698Y2565203D01*
X888698Y2569303D01*
X886698Y2573402D01*
X880498Y2575403D01*
X872398Y2575403D01*
X819998Y2475403D02*
G01*
X819998Y2432503D01*
X819998Y2475403D02*
G01*
X838398Y2475403D01*
X844498Y2473402D01*
X846598Y2471302D01*
X848599Y2467202D01*
X848599Y2463103D01*
X846598Y2459002D01*
X844498Y2457002D01*
X838398Y2455003D01*
X819998Y2455003D01*
X834299Y2455003D02*
G01*
X848599Y2432503D01*
X888698Y2461102D02*
G01*
X886698Y2455003D01*
X882599Y2450902D01*
X876499Y2448802D01*
X874399Y2448802D01*
X868298Y2450902D01*
X864198Y2455003D01*
X862098Y2461102D01*
X862098Y2463103D01*
X864198Y2469303D01*
X868298Y2473402D01*
X874399Y2475403D01*
X876499Y2475403D01*
X882599Y2473402D01*
X886698Y2469303D01*
X888698Y2461102D01*
X888698Y2450902D01*
X886698Y2440603D01*
X882599Y2434502D01*
X876499Y2432503D01*
X872398Y2432503D01*
X866198Y2434502D01*
X864198Y2438602D01*
X820024Y2375405D02*
G01*
X820024Y2332404D01*
X820024Y2375405D02*
G01*
X838424Y2375405D01*
X844525Y2373305D01*
X846625Y2371305D01*
X848625Y2367204D01*
X848625Y2363105D01*
X846625Y2359005D01*
X844525Y2356905D01*
X838424Y2354904D01*
X820024Y2354904D01*
X834324Y2354904D02*
G01*
X848625Y2332404D01*
X862124Y2367204D02*
G01*
X866225Y2369205D01*
X872425Y2375405D01*
X872425Y2332404D01*
X898125Y2375405D02*
G01*
X892025Y2373305D01*
X887924Y2367204D01*
X885924Y2356905D01*
X885924Y2350805D01*
X887924Y2340605D01*
X892025Y2334405D01*
X898125Y2332404D01*
X902224Y2332404D01*
X908424Y2334405D01*
X912425Y2340605D01*
X914525Y2350805D01*
X914525Y2356905D01*
X912425Y2367204D01*
X908424Y2373305D01*
X902224Y2375405D01*
X898125Y2375405D01*
X819998Y2275403D02*
G01*
X819998Y2232503D01*
X819998Y2275403D02*
G01*
X838398Y2275403D01*
X844498Y2273402D01*
X846598Y2271302D01*
X848599Y2267202D01*
X848599Y2263103D01*
X846598Y2259002D01*
X844498Y2257002D01*
X838398Y2255003D01*
X819998Y2255003D01*
X834299Y2255003D02*
G01*
X848599Y2232503D01*
X862098Y2267202D02*
G01*
X866198Y2269303D01*
X872398Y2275403D01*
X872398Y2232503D01*
X885898Y2267202D02*
G01*
X889998Y2269303D01*
X896099Y2275403D01*
X896099Y2232503D01*
X819998Y2175403D02*
G01*
X819998Y2132503D01*
X819998Y2175403D02*
G01*
X838398Y2175403D01*
X844498Y2173402D01*
X846598Y2171302D01*
X848599Y2167202D01*
X848599Y2163103D01*
X846598Y2159002D01*
X844498Y2157002D01*
X838398Y2155003D01*
X819998Y2155003D01*
X834299Y2155003D02*
G01*
X848599Y2132503D01*
X862098Y2167202D02*
G01*
X866198Y2169303D01*
X872398Y2175403D01*
X872398Y2132503D01*
X887898Y2165203D02*
G01*
X887898Y2167202D01*
X889998Y2171302D01*
X891998Y2173402D01*
X896099Y2175403D01*
X904299Y2175403D01*
X908398Y2173402D01*
X910398Y2171302D01*
X912498Y2167202D01*
X912498Y2163103D01*
X910398Y2159002D01*
X906298Y2152903D01*
X885898Y2132503D01*
X914498Y2132503D01*
X819998Y2075403D02*
G01*
X819998Y2032503D01*
X819998Y2075403D02*
G01*
X838398Y2075403D01*
X844498Y2073402D01*
X846598Y2071302D01*
X848599Y2067202D01*
X848599Y2063103D01*
X846598Y2059002D01*
X844498Y2057002D01*
X838398Y2055003D01*
X819998Y2055003D01*
X834299Y2055003D02*
G01*
X848599Y2032503D01*
X862098Y2067202D02*
G01*
X866198Y2069303D01*
X872398Y2075403D01*
X872398Y2032503D01*
X889998Y2075403D02*
G01*
X912498Y2075403D01*
X900199Y2059002D01*
X906298Y2059002D01*
X910398Y2057002D01*
X912498Y2055003D01*
X914498Y2048802D01*
X914498Y2044702D01*
X912498Y2038602D01*
X908398Y2034502D01*
X902199Y2032503D01*
X896099Y2032503D01*
X889998Y2034502D01*
X887898Y2036502D01*
X885898Y2040603D01*
X819998Y1975403D02*
G01*
X819998Y1932503D01*
X819998Y1975403D02*
G01*
X838398Y1975403D01*
X844498Y1973402D01*
X846598Y1971302D01*
X848599Y1967202D01*
X848599Y1963103D01*
X846598Y1959002D01*
X844498Y1957002D01*
X838398Y1955003D01*
X819998Y1955003D01*
X834299Y1955003D02*
G01*
X848599Y1932503D01*
X862098Y1967202D02*
G01*
X866198Y1969303D01*
X872398Y1975403D01*
X872398Y1932503D01*
X906298Y1975403D02*
G01*
X885898Y1946803D01*
X916499Y1946803D01*
X906298Y1975403D02*
G01*
X906298Y1932503D01*
X819998Y1875403D02*
G01*
X819998Y1832503D01*
X819998Y1875403D02*
G01*
X838398Y1875403D01*
X844498Y1873402D01*
X846598Y1871302D01*
X848599Y1867202D01*
X848599Y1863103D01*
X846598Y1859002D01*
X844498Y1857002D01*
X838398Y1855003D01*
X819998Y1855003D01*
X834299Y1855003D02*
G01*
X848599Y1832503D01*
X862098Y1867202D02*
G01*
X866198Y1869303D01*
X872398Y1875403D01*
X872398Y1832503D01*
X910398Y1875403D02*
G01*
X889998Y1875403D01*
X887898Y1857002D01*
X889998Y1859002D01*
X896099Y1861102D01*
X902199Y1861102D01*
X908398Y1859002D01*
X912498Y1855003D01*
X914498Y1848802D01*
X914498Y1844702D01*
X912498Y1838602D01*
X908398Y1834502D01*
X902199Y1832503D01*
X896099Y1832503D01*
X889998Y1834502D01*
X887898Y1836502D01*
X885898Y1840603D01*
X819998Y1775403D02*
G01*
X819998Y1732503D01*
X819998Y1775403D02*
G01*
X838398Y1775403D01*
X844498Y1773402D01*
X846598Y1771302D01*
X848599Y1767202D01*
X848599Y1763103D01*
X846598Y1759002D01*
X844498Y1757002D01*
X838398Y1755003D01*
X819998Y1755003D01*
X834299Y1755003D02*
G01*
X848599Y1732503D01*
X862098Y1767202D02*
G01*
X866198Y1769303D01*
X872398Y1775403D01*
X872398Y1732503D01*
X910398Y1769303D02*
G01*
X908398Y1773402D01*
X902199Y1775403D01*
X898099Y1775403D01*
X891998Y1773402D01*
X887898Y1767202D01*
X885898Y1757002D01*
X885898Y1746803D01*
X887898Y1738602D01*
X891998Y1734502D01*
X898099Y1732503D01*
X900199Y1732503D01*
X906298Y1734502D01*
X910398Y1738602D01*
X912498Y1744702D01*
X912498Y1746803D01*
X910398Y1752903D01*
X906298Y1757002D01*
X900199Y1759002D01*
X898099Y1759002D01*
X891998Y1757002D01*
X887898Y1752903D01*
X885898Y1746803D01*
X819998Y1675403D02*
G01*
X819998Y1632503D01*
X819998Y1675403D02*
G01*
X838398Y1675403D01*
X844498Y1673402D01*
X846598Y1671302D01*
X848599Y1667202D01*
X848599Y1663103D01*
X846598Y1659002D01*
X844498Y1657002D01*
X838398Y1655003D01*
X819998Y1655003D01*
X834299Y1655003D02*
G01*
X848599Y1632503D01*
X862098Y1667202D02*
G01*
X866198Y1669303D01*
X872398Y1675403D01*
X872398Y1632503D01*
X914498Y1675403D02*
G01*
X893999Y1632503D01*
X885898Y1675403D02*
G01*
X914498Y1675403D01*
X819998Y1575403D02*
G01*
X819998Y1532503D01*
X819998Y1575403D02*
G01*
X838398Y1575403D01*
X844498Y1573402D01*
X846598Y1571302D01*
X848599Y1567202D01*
X848599Y1563103D01*
X846598Y1559002D01*
X844498Y1557002D01*
X838398Y1555003D01*
X819998Y1555003D01*
X834299Y1555003D02*
G01*
X848599Y1532503D01*
X862098Y1567202D02*
G01*
X866198Y1569303D01*
X872398Y1575403D01*
X872398Y1532503D01*
X896099Y1575403D02*
G01*
X889998Y1573402D01*
X887898Y1569303D01*
X887898Y1565203D01*
X889998Y1561102D01*
X893999Y1559002D01*
X902199Y1557002D01*
X908398Y1555003D01*
X912498Y1550902D01*
X914498Y1546803D01*
X914498Y1540603D01*
X912498Y1536502D01*
X910398Y1534502D01*
X904299Y1532503D01*
X896099Y1532503D01*
X889998Y1534502D01*
X887898Y1536502D01*
X885898Y1540603D01*
X885898Y1546803D01*
X887898Y1550902D01*
X891998Y1555003D01*
X898099Y1557002D01*
X906298Y1559002D01*
X910398Y1561102D01*
X912498Y1565203D01*
X912498Y1569303D01*
X910398Y1573402D01*
X904299Y1575403D01*
X896099Y1575403D01*
X5290000Y2775399D02*
G01*
X5290000Y2744699D01*
X5291999Y2738600D01*
X5296099Y2734499D01*
X5302299Y2732500D01*
X5306400Y2732500D01*
X5312500Y2734499D01*
X5316599Y2738600D01*
X5318599Y2744699D01*
X5318599Y2775399D01*
X5352600Y2775399D02*
G01*
X5332100Y2746799D01*
X5362799Y2746799D01*
X5352600Y2775399D02*
G01*
X5352600Y2732500D01*
X610048Y3075353D02*
G01*
X610048Y3032453D01*
X610048Y3032453D02*
G01*
X634549Y3032453D01*
X648049Y3075353D02*
G01*
X648049Y3032453D01*
X648049Y3075353D02*
G01*
X674648Y3075353D01*
X648049Y3054953D02*
G01*
X664448Y3054953D01*
X648049Y3032453D02*
G01*
X674648Y3032453D01*
X688148Y3075353D02*
G01*
X688148Y3032453D01*
X688148Y3075353D02*
G01*
X702548Y3075353D01*
X708649Y3073353D01*
X712748Y3069252D01*
X714749Y3065153D01*
X716849Y3058953D01*
X716849Y3048753D01*
X714749Y3042653D01*
X712748Y3038553D01*
X708649Y3034452D01*
X702548Y3032453D01*
X688148Y3032453D01*
X730349Y3067152D02*
G01*
X734448Y3069252D01*
X740549Y3075353D01*
X740549Y3032453D01*
X610000Y2975399D02*
G01*
X610000Y2932500D01*
X610000Y2932500D02*
G01*
X634499Y2932500D01*
X648000Y2975399D02*
G01*
X648000Y2932500D01*
X648000Y2975399D02*
G01*
X674600Y2975399D01*
X648000Y2955000D02*
G01*
X664400Y2955000D01*
X648000Y2932500D02*
G01*
X674600Y2932500D01*
X688099Y2975399D02*
G01*
X688099Y2932500D01*
X688099Y2975399D02*
G01*
X702500Y2975399D01*
X708600Y2973400D01*
X712699Y2969299D01*
X714699Y2965200D01*
X716799Y2959000D01*
X716799Y2948800D01*
X714699Y2942700D01*
X712699Y2938600D01*
X708600Y2934499D01*
X702500Y2932500D01*
X688099Y2932500D01*
X732300Y2965200D02*
G01*
X732300Y2967199D01*
X734400Y2971300D01*
X736399Y2973400D01*
X740500Y2975399D01*
X748699Y2975399D01*
X752800Y2973400D01*
X754800Y2971300D01*
X756900Y2967199D01*
X756900Y2963099D01*
X754800Y2959000D01*
X750700Y2952899D01*
X730300Y2932500D01*
X758899Y2932500D01*
X610048Y2875353D02*
G01*
X610048Y2832453D01*
X610048Y2832453D02*
G01*
X634549Y2832453D01*
X648049Y2875353D02*
G01*
X648049Y2832453D01*
X648049Y2875353D02*
G01*
X674648Y2875353D01*
X648049Y2854953D02*
G01*
X664448Y2854953D01*
X648049Y2832453D02*
G01*
X674648Y2832453D01*
X688148Y2875353D02*
G01*
X688148Y2832453D01*
X688148Y2875353D02*
G01*
X702548Y2875353D01*
X708649Y2873353D01*
X712748Y2869252D01*
X714749Y2865153D01*
X716849Y2858953D01*
X716849Y2848753D01*
X714749Y2842653D01*
X712748Y2838553D01*
X708649Y2834452D01*
X702548Y2832453D01*
X688148Y2832453D01*
X734448Y2875353D02*
G01*
X756948Y2875353D01*
X744648Y2858953D01*
X750749Y2858953D01*
X754848Y2856952D01*
X756948Y2854953D01*
X758948Y2848753D01*
X758948Y2844652D01*
X756948Y2838553D01*
X752849Y2834452D01*
X746649Y2832453D01*
X740549Y2832453D01*
X734448Y2834452D01*
X732348Y2836453D01*
X730349Y2840553D01*
X610000Y2775399D02*
G01*
X610000Y2732500D01*
X610000Y2732500D02*
G01*
X634499Y2732500D01*
X648000Y2775399D02*
G01*
X648000Y2732500D01*
X648000Y2775399D02*
G01*
X674600Y2775399D01*
X648000Y2755000D02*
G01*
X664400Y2755000D01*
X648000Y2732500D02*
G01*
X674600Y2732500D01*
X688099Y2775399D02*
G01*
X688099Y2732500D01*
X688099Y2775399D02*
G01*
X702500Y2775399D01*
X708600Y2773400D01*
X712699Y2769299D01*
X714699Y2765200D01*
X716799Y2759000D01*
X716799Y2748800D01*
X714699Y2742700D01*
X712699Y2738600D01*
X708600Y2734499D01*
X702500Y2732500D01*
X688099Y2732500D01*
X750700Y2775399D02*
G01*
X730300Y2746799D01*
X761000Y2746799D01*
X750700Y2775399D02*
G01*
X750700Y2732500D01*
X820002Y3075394D02*
G01*
X820002Y3032494D01*
X820002Y3075394D02*
G01*
X838401Y3075394D01*
X844502Y3073393D01*
X846602Y3071293D01*
X848602Y3067193D01*
X848602Y3063094D01*
X846602Y3058993D01*
X844502Y3056993D01*
X838401Y3054994D01*
X820002Y3054994D01*
X834301Y3054994D02*
G01*
X848602Y3032494D01*
X866202Y3075394D02*
G01*
X888702Y3075394D01*
X876502Y3058993D01*
X882601Y3058993D01*
X886701Y3056993D01*
X888702Y3054994D01*
X890802Y3048793D01*
X890802Y3044693D01*
X888702Y3038593D01*
X884602Y3034493D01*
X878501Y3032494D01*
X872402Y3032494D01*
X866202Y3034493D01*
X864201Y3036493D01*
X862102Y3040594D01*
X820001Y2975396D02*
G01*
X820001Y2932496D01*
X820001Y2975396D02*
G01*
X838401Y2975396D01*
X844501Y2973397D01*
X846601Y2971296D01*
X848600Y2967197D01*
X848600Y2963096D01*
X846601Y2958996D01*
X844501Y2956997D01*
X838401Y2954996D01*
X820001Y2954996D01*
X834300Y2954996D02*
G01*
X848600Y2932496D01*
X882601Y2975396D02*
G01*
X862101Y2946797D01*
X892800Y2946797D01*
X882601Y2975396D02*
G01*
X882601Y2932496D01*
X820001Y2875396D02*
G01*
X820001Y2832496D01*
X820001Y2875396D02*
G01*
X838401Y2875396D01*
X844501Y2873397D01*
X846601Y2871296D01*
X848600Y2867197D01*
X848600Y2863096D01*
X846601Y2858996D01*
X844501Y2856997D01*
X838401Y2854996D01*
X820001Y2854996D01*
X834300Y2854996D02*
G01*
X848600Y2832496D01*
X886701Y2875396D02*
G01*
X866201Y2875396D01*
X864201Y2856997D01*
X866201Y2858996D01*
X872400Y2861096D01*
X878500Y2861096D01*
X884601Y2858996D01*
X888701Y2854996D01*
X890801Y2848796D01*
X890801Y2844697D01*
X888701Y2838596D01*
X884601Y2834497D01*
X878500Y2832496D01*
X872400Y2832496D01*
X866201Y2834497D01*
X864201Y2836496D01*
X862101Y2840596D01*
X820001Y2775396D02*
G01*
X820001Y2732496D01*
X820001Y2775396D02*
G01*
X838401Y2775396D01*
X844501Y2773397D01*
X846601Y2771296D01*
X848600Y2767197D01*
X848600Y2763096D01*
X846601Y2758996D01*
X844501Y2756997D01*
X838401Y2754996D01*
X820001Y2754996D01*
X834300Y2754996D02*
G01*
X848600Y2732496D01*
X886701Y2769297D02*
G01*
X884601Y2773397D01*
X878500Y2775396D01*
X874400Y2775396D01*
X868301Y2773397D01*
X864201Y2767197D01*
X862101Y2756997D01*
X862101Y2746797D01*
X864201Y2738596D01*
X868301Y2734497D01*
X874400Y2732496D01*
X876500Y2732496D01*
X882601Y2734497D01*
X886701Y2738596D01*
X888701Y2744697D01*
X888701Y2746797D01*
X886701Y2752896D01*
X882601Y2756997D01*
X876500Y2758996D01*
X874400Y2758996D01*
X868301Y2756997D01*
X864201Y2752896D01*
X862101Y2746797D01*
X3950699Y3685200D02*
G01*
X3948599Y3689299D01*
X3944499Y3693400D01*
X3940500Y3695399D01*
X3932299Y3695399D01*
X3928199Y3693400D01*
X3924099Y3689299D01*
X3921999Y3685200D01*
X3920000Y3679000D01*
X3920000Y3668800D01*
X3921999Y3662700D01*
X3924099Y3658600D01*
X3928199Y3654499D01*
X3932299Y3652500D01*
X3940500Y3652500D01*
X3944499Y3654499D01*
X3948599Y3658600D01*
X3950699Y3662700D01*
X3964200Y3687199D02*
G01*
X3968299Y3689299D01*
X3974399Y3695399D01*
X3974399Y3652500D01*
X3700000Y3225399D02*
G01*
X3700000Y3182500D01*
X3700000Y3225399D02*
G01*
X3718400Y3225399D01*
X3724499Y3223400D01*
X3726599Y3221300D01*
X3728599Y3217199D01*
X3728599Y3213099D01*
X3726599Y3209000D01*
X3724499Y3206999D01*
X3718400Y3205000D01*
X3700000Y3205000D01*
X3714300Y3205000D02*
G01*
X3728599Y3182500D01*
X3742100Y3217199D02*
G01*
X3746199Y3219299D01*
X3752399Y3225399D01*
X3752399Y3182500D01*
X3760000Y3605399D02*
G01*
X3760000Y3562500D01*
X3760000Y3605399D02*
G01*
X3778400Y3605399D01*
X3784499Y3603400D01*
X3786599Y3601300D01*
X3788599Y3597199D01*
X3788599Y3593099D01*
X3786599Y3589000D01*
X3784499Y3586999D01*
X3778400Y3585000D01*
X3760000Y3585000D01*
X3774300Y3585000D02*
G01*
X3788599Y3562500D01*
X3804200Y3595200D02*
G01*
X3804200Y3597199D01*
X3806199Y3601300D01*
X3808299Y3603400D01*
X3812399Y3605399D01*
X3820500Y3605399D01*
X3824600Y3603400D01*
X3826700Y3601300D01*
X3828699Y3597199D01*
X3828699Y3593099D01*
X3826700Y3589000D01*
X3822600Y3582899D01*
X3802100Y3562500D01*
X3830799Y3562500D01*
X3200000Y64600D02*
G01*
X3200000Y95300D01*
X3198000Y101399D01*
X3193900Y105500D01*
X3187700Y107500D01*
X3183599Y107500D01*
X3177500Y105500D01*
X3173400Y101399D01*
X3171400Y95300D01*
X3171400Y64600D01*
X3129200Y64600D02*
G01*
X3149700Y107500D01*
X3157899Y64600D02*
G01*
X3129200Y64600D01*
X4280000Y1295399D02*
G01*
X4280000Y1264699D01*
X4281999Y1258600D01*
X4286099Y1254499D01*
X4292299Y1252500D01*
X4296400Y1252500D01*
X4302500Y1254499D01*
X4306599Y1258600D01*
X4308599Y1264699D01*
X4308599Y1295399D01*
X4322100Y1287199D02*
G01*
X4326199Y1289299D01*
X4332399Y1295399D01*
X4332399Y1252500D01*
X2470005Y1475399D02*
G01*
X2470005Y1444699D01*
X2472004Y1438600D01*
X2476104Y1434499D01*
X2482304Y1432500D01*
X2486405Y1432500D01*
X2492505Y1434499D01*
X2496604Y1438600D01*
X2498604Y1444699D01*
X2498604Y1475399D01*
X2514205Y1465199D02*
G01*
X2514205Y1467199D01*
X2516205Y1471300D01*
X2518305Y1473400D01*
X2522404Y1475399D01*
X2530505Y1475399D01*
X2534605Y1473400D01*
X2536705Y1471300D01*
X2538705Y1467199D01*
X2538705Y1463099D01*
X2536705Y1459000D01*
X2532605Y1452899D01*
X2512105Y1432500D01*
X2540805Y1432500D01*
X3350000Y1445399D02*
G01*
X3350000Y1414699D01*
X3351999Y1408598D01*
X3356099Y1404499D01*
X3362299Y1402498D01*
X3366400Y1402498D01*
X3372500Y1404499D01*
X3376599Y1408598D01*
X3378599Y1414699D01*
X3378599Y1445399D01*
X3396199Y1445399D02*
G01*
X3418699Y1445399D01*
X3406499Y1428998D01*
X3412600Y1428998D01*
X3416700Y1426999D01*
X3418699Y1424998D01*
X3420799Y1418798D01*
X3420799Y1414699D01*
X3418699Y1408598D01*
X3414600Y1404499D01*
X3408500Y1402498D01*
X3402399Y1402498D01*
X3396199Y1404499D01*
X3394200Y1406498D01*
X3392100Y1410599D01*
X1400000Y1125399D02*
G01*
X1400000Y1094699D01*
X1401999Y1088600D01*
X1406099Y1084499D01*
X1412299Y1082500D01*
X1416400Y1082500D01*
X1422500Y1084499D01*
X1426599Y1088600D01*
X1428599Y1094699D01*
X1428599Y1125399D01*
X1466700Y1125399D02*
G01*
X1446199Y1125399D01*
X1444200Y1106999D01*
X1446199Y1109000D01*
X1452399Y1111100D01*
X1458500Y1111100D01*
X1464600Y1109000D01*
X1468699Y1105000D01*
X1470799Y1098800D01*
X1470799Y1094699D01*
X1468699Y1088600D01*
X1464600Y1084499D01*
X1458500Y1082500D01*
X1452399Y1082500D01*
X1446199Y1084499D01*
X1444200Y1086500D01*
X1442100Y1090599D01*
G36*
X866140Y492120D02*
G01*
X866140Y334640D01*
X1732280Y334640D01*
X1732280Y492120D01*
G37*
G36*
X866140Y295280D02*
G01*
X866140Y137800D01*
X1732280Y137800D01*
X1732280Y295280D01*
G37*
G36*
X503940Y2665740D02*
G01*
X492140Y2650000D01*
X503940Y2634260D01*
G37*
G36*
X503940Y2565740D02*
G01*
X492140Y2550000D01*
X503940Y2534260D01*
G37*
G36*
X503940Y2465740D02*
G01*
X492140Y2450000D01*
X503940Y2434260D01*
G37*
G36*
X503940Y2365740D02*
G01*
X492140Y2350000D01*
X503940Y2334260D01*
G37*
G36*
X503940Y2265740D02*
G01*
X492140Y2250000D01*
X503940Y2234260D01*
G37*
G36*
X503940Y2165740D02*
G01*
X492140Y2150000D01*
X503940Y2134260D01*
G37*
G36*
X503940Y2065740D02*
G01*
X492140Y2050000D01*
X503940Y2034259D01*
G37*
G36*
X503940Y1965740D02*
G01*
X492140Y1950000D01*
X503940Y1934259D01*
G37*
G36*
X503940Y1865740D02*
G01*
X492140Y1850000D01*
X503940Y1834259D01*
G37*
G36*
X503940Y1765740D02*
G01*
X492140Y1750000D01*
X503940Y1734259D01*
G37*
G36*
X503940Y1665740D02*
G01*
X492140Y1650000D01*
X503940Y1634259D01*
G37*
G36*
X503940Y1565740D02*
G01*
X492140Y1550000D01*
X503940Y1534259D01*
G37*
G36*
X503940Y3065740D02*
G01*
X492140Y3050000D01*
X503940Y3034260D01*
G37*
G36*
X503940Y2965740D02*
G01*
X492140Y2950000D01*
X503940Y2934260D01*
G37*
G36*
X503940Y2865740D02*
G01*
X492140Y2850000D01*
X503940Y2834260D01*
G37*
G36*
X503940Y2765740D02*
G01*
X492140Y2750000D01*
X503940Y2734260D01*
G37*
D12*
X240000Y3050000D02*
G01*
X380000Y3050000D01*
X240000Y2950000D02*
G01*
X380000Y2950000D01*
X240000Y2850000D02*
G01*
X380000Y2850000D01*
X240000Y2750000D02*
G01*
X380000Y2750000D01*
X240000Y2650000D02*
G01*
X380000Y2650000D01*
X240000Y2550000D02*
G01*
X380000Y2550000D01*
X240000Y2450000D02*
G01*
X380000Y2450000D01*
X240000Y2350000D02*
G01*
X380000Y2350000D01*
X240000Y2250000D02*
G01*
X380000Y2250000D01*
X240000Y2150000D02*
G01*
X380000Y2150000D01*
X240000Y2050000D02*
G01*
X380000Y2050000D01*
X240000Y1950000D02*
G01*
X380000Y1950000D01*
X240000Y1850000D02*
G01*
X380000Y1850000D01*
X240000Y1750000D02*
G01*
X380000Y1750000D01*
X240000Y1650000D02*
G01*
X380000Y1650000D01*
X240000Y1550000D02*
G01*
X380000Y1550000D01*
D11*
X6231252Y886105D02*
G01*
X6180663Y886105D01*
X6180663Y813894D01*
X6231252Y813894D01*
X6268747Y886105D02*
G01*
X6319336Y886105D01*
X6319336Y813894D01*
X6268747Y813894D01*
X4131252Y1086105D02*
G01*
X4080663Y1086105D01*
X4080663Y1013894D01*
X4131252Y1013894D01*
X4168747Y1086105D02*
G01*
X4219336Y1086105D01*
X4219336Y1013894D01*
X4168747Y1013894D01*
D12*
X4374961Y1072440D02*
G01*
X4340945Y1072440D01*
X4340945Y1072440D02*
G01*
X4340945Y1111812D01*
X4412361Y1127559D02*
G01*
X4387638Y1127559D01*
X4459054Y1072440D02*
G01*
X4425038Y1072440D01*
X4459054Y1072440D02*
G01*
X4459054Y1111812D01*
D11*
X4431252Y936105D02*
G01*
X4380663Y936105D01*
X4380663Y863894D01*
X4431252Y863894D01*
X4468747Y936105D02*
G01*
X4519336Y936105D01*
X4519336Y863894D01*
X4468747Y863894D01*
X5366106Y498748D02*
G01*
X5366106Y549335D01*
X5293894Y549335D01*
X5293894Y498748D01*
X5366106Y461251D02*
G01*
X5366106Y410664D01*
X5293894Y410664D01*
X5293894Y461251D01*
X4768747Y2613894D02*
G01*
X4819336Y2613894D01*
X4819336Y2686106D01*
X4768747Y2686106D01*
X4731252Y2613894D02*
G01*
X4680663Y2613894D01*
X4680663Y2686106D01*
X4731252Y2686106D01*
X4768747Y2513894D02*
G01*
X4819336Y2513894D01*
X4819336Y2586106D01*
X4768747Y2586106D01*
X4731252Y2513894D02*
G01*
X4680663Y2513894D01*
X4680663Y2586106D01*
X4731252Y2586106D01*
X4768747Y2313894D02*
G01*
X4819336Y2313894D01*
X4819336Y2386106D01*
X4768747Y2386106D01*
X4731252Y2313894D02*
G01*
X4680663Y2313894D01*
X4680663Y2386106D01*
X4731252Y2386106D01*
X4768747Y2213894D02*
G01*
X4819336Y2213894D01*
X4819336Y2286106D01*
X4768747Y2286106D01*
X4731252Y2213894D02*
G01*
X4680663Y2213894D01*
X4680663Y2286106D01*
X4731252Y2286106D01*
X4768747Y2113894D02*
G01*
X4819336Y2113894D01*
X4819336Y2186106D01*
X4768747Y2186106D01*
X4731252Y2113894D02*
G01*
X4680663Y2113894D01*
X4680663Y2186106D01*
X4731252Y2186106D01*
X4768747Y2013894D02*
G01*
X4819336Y2013894D01*
X4819336Y2086105D01*
X4768747Y2086105D01*
X4731252Y2013894D02*
G01*
X4680663Y2013894D01*
X4680663Y2086105D01*
X4731252Y2086105D01*
X4768747Y1813894D02*
G01*
X4819336Y1813894D01*
X4819336Y1886105D01*
X4768747Y1886105D01*
X4731252Y1813894D02*
G01*
X4680663Y1813894D01*
X4680663Y1886105D01*
X4731252Y1886105D01*
X4768747Y1713894D02*
G01*
X4819336Y1713894D01*
X4819336Y1786105D01*
X4768747Y1786105D01*
X4731252Y1713894D02*
G01*
X4680663Y1713894D01*
X4680663Y1786105D01*
X4731252Y1786105D01*
X4768747Y1613894D02*
G01*
X4819336Y1613894D01*
X4819336Y1686105D01*
X4768747Y1686105D01*
X4731252Y1613894D02*
G01*
X4680663Y1613894D01*
X4680663Y1686105D01*
X4731252Y1686105D01*
X4768747Y1513894D02*
G01*
X4819336Y1513894D01*
X4819336Y1586105D01*
X4768747Y1586105D01*
X4731252Y1513894D02*
G01*
X4680663Y1513894D01*
X4680663Y1586105D01*
X4731252Y1586105D01*
X4768747Y1413894D02*
G01*
X4819336Y1413894D01*
X4819336Y1486105D01*
X4768747Y1486105D01*
X4731252Y1413894D02*
G01*
X4680663Y1413894D01*
X4680663Y1486105D01*
X4731252Y1486105D01*
X4768747Y1313894D02*
G01*
X4819336Y1313894D01*
X4819336Y1386105D01*
X4768747Y1386105D01*
X4731252Y1313894D02*
G01*
X4680663Y1313894D01*
X4680663Y1386105D01*
X4731252Y1386105D01*
X4868747Y1113894D02*
G01*
X4919336Y1113894D01*
X4919336Y1186105D01*
X4868747Y1186105D01*
X4831252Y1113894D02*
G01*
X4780663Y1113894D01*
X4780663Y1186105D01*
X4831252Y1186105D01*
X4868747Y1013894D02*
G01*
X4919336Y1013894D01*
X4919336Y1086105D01*
X4868747Y1086105D01*
X4831252Y1013894D02*
G01*
X4780663Y1013894D01*
X4780663Y1086105D01*
X4831252Y1086105D01*
X4878747Y813894D02*
G01*
X4929336Y813894D01*
X4929336Y886105D01*
X4878747Y886105D01*
X4841252Y813894D02*
G01*
X4790663Y813894D01*
X4790663Y886105D01*
X4841252Y886105D01*
X4863894Y611251D02*
G01*
X4863894Y560664D01*
X4936106Y560664D01*
X4936106Y611251D01*
X4863894Y648748D02*
G01*
X4863894Y699335D01*
X4936106Y699335D01*
X4936106Y648748D01*
X4888747Y163894D02*
G01*
X4939336Y163894D01*
X4939336Y236105D01*
X4888747Y236105D01*
X4851252Y163894D02*
G01*
X4800663Y163894D01*
X4800663Y236105D01*
X4851252Y236105D01*
X4888747Y263894D02*
G01*
X4939336Y263894D01*
X4939336Y336105D01*
X4888747Y336105D01*
X4851252Y263894D02*
G01*
X4800663Y263894D01*
X4800663Y336105D01*
X4851252Y336105D01*
X4888747Y363894D02*
G01*
X4939336Y363894D01*
X4939336Y436105D01*
X4888747Y436105D01*
X4851252Y363894D02*
G01*
X4800663Y363894D01*
X4800663Y436105D01*
X4851252Y436105D01*
X4888747Y463894D02*
G01*
X4939336Y463894D01*
X4939336Y536105D01*
X4888747Y536105D01*
X4851252Y463894D02*
G01*
X4800663Y463894D01*
X4800663Y536105D01*
X4851252Y536105D01*
X4888747Y53894D02*
G01*
X4939336Y53894D01*
X4939336Y126105D01*
X4888747Y126105D01*
X4851252Y53894D02*
G01*
X4800663Y53894D01*
X4800663Y126105D01*
X4851252Y126105D01*
X5188747Y1413894D02*
G01*
X5239336Y1413894D01*
X5239336Y1486105D01*
X5188747Y1486105D01*
X5151252Y1413894D02*
G01*
X5100663Y1413894D01*
X5100663Y1486105D01*
X5151252Y1486105D01*
X5188747Y1563894D02*
G01*
X5239336Y1563894D01*
X5239336Y1636105D01*
X5188747Y1636105D01*
X5151252Y1563894D02*
G01*
X5100663Y1563894D01*
X5100663Y1636105D01*
X5151252Y1636105D01*
X5188747Y1663894D02*
G01*
X5239336Y1663894D01*
X5239336Y1736105D01*
X5188747Y1736105D01*
X5151252Y1663894D02*
G01*
X5100663Y1663894D01*
X5100663Y1736105D01*
X5151252Y1736105D01*
X6231252Y1986105D02*
G01*
X6180663Y1986105D01*
X6180663Y1913894D01*
X6231252Y1913894D01*
X6268747Y1986105D02*
G01*
X6319336Y1986105D01*
X6319336Y1913894D01*
X6268747Y1913894D01*
X6231252Y2186106D02*
G01*
X6180663Y2186106D01*
X6180663Y2113894D01*
X6231252Y2113894D01*
X6268747Y2186106D02*
G01*
X6319336Y2186106D01*
X6319336Y2113894D01*
X6268747Y2113894D01*
X6231252Y2286106D02*
G01*
X6180663Y2286106D01*
X6180663Y2213894D01*
X6231252Y2213894D01*
X6268747Y2286106D02*
G01*
X6319336Y2286106D01*
X6319336Y2213894D01*
X6268747Y2213894D01*
X6231252Y2386106D02*
G01*
X6180663Y2386106D01*
X6180663Y2313894D01*
X6231252Y2313894D01*
X6268747Y2386106D02*
G01*
X6319336Y2386106D01*
X6319336Y2313894D01*
X6268747Y2313894D01*
X6231252Y2456106D02*
G01*
X6180663Y2456106D01*
X6180663Y2383894D01*
X6231252Y2383894D01*
X6268747Y2456106D02*
G01*
X6319336Y2456106D01*
X6319336Y2383894D01*
X6268747Y2383894D01*
X6231252Y2536106D02*
G01*
X6180663Y2536106D01*
X6180663Y2463894D01*
X6231252Y2463894D01*
X6268747Y2536106D02*
G01*
X6319336Y2536106D01*
X6319336Y2463894D01*
X6268747Y2463894D01*
X5068747Y2713894D02*
G01*
X5119336Y2713894D01*
X5119336Y2786106D01*
X5068747Y2786106D01*
X5031252Y2713894D02*
G01*
X4980663Y2713894D01*
X4980663Y2786106D01*
X5031252Y2786106D01*
X6231252Y786105D02*
G01*
X6180663Y786105D01*
X6180663Y713894D01*
X6231252Y713894D01*
X6268747Y786105D02*
G01*
X6319336Y786105D01*
X6319336Y713894D01*
X6268747Y713894D01*
X6231252Y1086105D02*
G01*
X6180663Y1086105D01*
X6180663Y1013894D01*
X6231252Y1013894D01*
X6268747Y1086105D02*
G01*
X6319336Y1086105D01*
X6319336Y1013894D01*
X6268747Y1013894D01*
X6231252Y1186105D02*
G01*
X6180663Y1186105D01*
X6180663Y1113894D01*
X6231252Y1113894D01*
X6268747Y1186105D02*
G01*
X6319336Y1186105D01*
X6319336Y1113894D01*
X6268747Y1113894D01*
X6231252Y1286105D02*
G01*
X6180663Y1286105D01*
X6180663Y1213894D01*
X6231252Y1213894D01*
X6268747Y1286105D02*
G01*
X6319336Y1286105D01*
X6319336Y1213894D01*
X6268747Y1213894D01*
X6231252Y1386105D02*
G01*
X6180663Y1386105D01*
X6180663Y1313894D01*
X6231252Y1313894D01*
X6268747Y1386105D02*
G01*
X6319336Y1386105D01*
X6319336Y1313894D01*
X6268747Y1313894D01*
X6231252Y1586105D02*
G01*
X6180663Y1586105D01*
X6180663Y1513894D01*
X6231252Y1513894D01*
X6268747Y1586105D02*
G01*
X6319336Y1586105D01*
X6319336Y1513894D01*
X6268747Y1513894D01*
X6231252Y1786105D02*
G01*
X6180663Y1786105D01*
X6180663Y1713894D01*
X6231252Y1713894D01*
X6268747Y1786105D02*
G01*
X6319336Y1786105D01*
X6319336Y1713894D01*
X6268747Y1713894D01*
X6231252Y1886105D02*
G01*
X6180663Y1886105D01*
X6180663Y1813894D01*
X6231252Y1813894D01*
X6268747Y1886105D02*
G01*
X6319336Y1886105D01*
X6319336Y1813894D01*
X6268747Y1813894D01*
X6231252Y2086105D02*
G01*
X6180663Y2086105D01*
X6180663Y2013894D01*
X6231252Y2013894D01*
X6268747Y2086105D02*
G01*
X6319336Y2086105D01*
X6319336Y2013894D01*
X6268747Y2013894D01*
X5031252Y2636106D02*
G01*
X4980663Y2636106D01*
X4980663Y2563894D01*
X5031252Y2563894D01*
X5068747Y2636106D02*
G01*
X5119336Y2636106D01*
X5119336Y2563894D01*
X5068747Y2563894D01*
X5031252Y2536106D02*
G01*
X4980663Y2536106D01*
X4980663Y2463894D01*
X5031252Y2463894D01*
X5068747Y2536106D02*
G01*
X5119336Y2536106D01*
X5119336Y2463894D01*
X5068747Y2463894D01*
X5031252Y2436106D02*
G01*
X4980663Y2436106D01*
X4980663Y2363894D01*
X5031252Y2363894D01*
X5068747Y2436106D02*
G01*
X5119336Y2436106D01*
X5119336Y2363894D01*
X5068747Y2363894D01*
X5031252Y2336106D02*
G01*
X4980663Y2336106D01*
X4980663Y2263894D01*
X5031252Y2263894D01*
X5068747Y2336106D02*
G01*
X5119336Y2336106D01*
X5119336Y2263894D01*
X5068747Y2263894D01*
X5031252Y2236106D02*
G01*
X4980663Y2236106D01*
X4980663Y2163894D01*
X5031252Y2163894D01*
X5068747Y2236106D02*
G01*
X5119336Y2236106D01*
X5119336Y2163894D01*
X5068747Y2163894D01*
X5031252Y2136106D02*
G01*
X4980663Y2136106D01*
X4980663Y2063894D01*
X5031252Y2063894D01*
X5068747Y2136106D02*
G01*
X5119336Y2136106D01*
X5119336Y2063894D01*
X5068747Y2063894D01*
X5031252Y2036105D02*
G01*
X4980663Y2036105D01*
X4980663Y1963894D01*
X5031252Y1963894D01*
X5068747Y2036105D02*
G01*
X5119336Y2036105D01*
X5119336Y1963894D01*
X5068747Y1963894D01*
X5031252Y1936105D02*
G01*
X4980663Y1936105D01*
X4980663Y1863894D01*
X5031252Y1863894D01*
X5068747Y1936105D02*
G01*
X5119336Y1936105D01*
X5119336Y1863894D01*
X5068747Y1863894D01*
X3951306Y2735574D02*
G01*
X3895794Y2735574D01*
X3895794Y2664425D02*
G01*
X3951306Y2664425D01*
X3957307Y2670425D02*
G01*
X3957307Y2729575D01*
X3808693Y2735574D02*
G01*
X3864205Y2735574D01*
X3864205Y2664425D02*
G01*
X3808693Y2664425D01*
X3802692Y2670425D02*
G01*
X3802692Y2729575D01*
X2038693Y1474425D02*
G01*
X2094205Y1474425D01*
X2094205Y1545574D02*
G01*
X2038693Y1545574D01*
X2032692Y1539574D02*
G01*
X2032692Y1480425D01*
X2181306Y1474425D02*
G01*
X2125794Y1474425D01*
X2125794Y1545574D02*
G01*
X2181306Y1545574D01*
X2187307Y1539574D02*
G01*
X2187307Y1480425D01*
X3125574Y1338692D02*
G01*
X3125574Y1394205D01*
X3054425Y1394205D02*
G01*
X3054425Y1338692D01*
X3060424Y1332692D02*
G01*
X3119575Y1332692D01*
X3125574Y1481307D02*
G01*
X3125574Y1425794D01*
X3054425Y1425794D02*
G01*
X3054425Y1481307D01*
X3060424Y1487307D02*
G01*
X3119575Y1487307D01*
X984425Y1361307D02*
G01*
X984425Y1305794D01*
X1055574Y1305794D02*
G01*
X1055574Y1361307D01*
X1049575Y1367307D02*
G01*
X990424Y1367307D01*
X984425Y1218692D02*
G01*
X984425Y1274205D01*
X1055574Y1274205D02*
G01*
X1055574Y1218692D01*
X1049575Y1212692D02*
G01*
X990424Y1212692D01*
D12*
X3146850Y3363780D02*
G01*
X2753149Y3363780D01*
X2753149Y3836219D02*
G01*
X3146850Y3836219D01*
X3158999Y3409000D02*
G01*
X3140000Y3390000D01*
X3146999Y3364000D02*
G01*
X3186000Y3403000D01*
X2753000Y3364000D02*
G01*
X2713999Y3403000D01*
X3186000Y3796999D02*
G01*
X3146999Y3835999D01*
X2713999Y3796999D02*
G01*
X2753000Y3835999D01*
X2713999Y3403000D02*
G01*
X2713999Y3448577D01*
X2713999Y3551423D02*
G01*
X2713999Y3648577D01*
X2713999Y3751423D02*
G01*
X2713999Y3796999D01*
X3140000Y3390000D02*
G01*
X2760000Y3390000D01*
X2741000Y3409000D01*
X2741000Y3409000D02*
G01*
X2741000Y3463027D01*
X2741000Y3536972D02*
G01*
X2741000Y3663027D01*
X2741000Y3736972D02*
G01*
X2741000Y3790999D01*
X2741000Y3790999D02*
G01*
X2760000Y3810000D01*
X3140000Y3810000D01*
X3158999Y3790999D01*
X3158999Y3409000D02*
G01*
X3158999Y3463027D01*
X3158999Y3536972D02*
G01*
X3158999Y3663027D01*
X3158999Y3736972D02*
G01*
X3158999Y3794520D01*
X3186000Y3403000D02*
G01*
X3186000Y3448577D01*
X3186000Y3551423D02*
G01*
X3186000Y3648577D01*
X3186000Y3751423D02*
G01*
X3186000Y3797500D01*
D13*
X484252Y2610630D02*
G01*
X421260Y2610630D01*
X421260Y2689369D01*
X484252Y2689369D01*
X515747Y2689369D02*
G01*
X578739Y2689369D01*
X578739Y2610630D01*
X515747Y2610630D01*
X421260Y2610630D02*
G01*
X421260Y2610630D01*
X409448Y2622440D01*
X409448Y2677559D01*
X409448Y2677559D01*
X421260Y2689369D01*
X484252Y2510630D02*
G01*
X421260Y2510630D01*
X421260Y2589369D01*
X484252Y2589369D01*
X515747Y2589369D02*
G01*
X578739Y2589369D01*
X578739Y2510630D01*
X515747Y2510630D01*
X421260Y2510630D02*
G01*
X421260Y2510630D01*
X409448Y2522440D01*
X409448Y2577559D01*
X409448Y2577559D01*
X421260Y2589369D01*
X484252Y2410630D02*
G01*
X421260Y2410630D01*
X421260Y2489369D01*
X484252Y2489369D01*
X515747Y2489369D02*
G01*
X578739Y2489369D01*
X578739Y2410630D01*
X515747Y2410630D01*
X421260Y2410630D02*
G01*
X421260Y2410630D01*
X409448Y2422440D01*
X409448Y2477559D01*
X409448Y2477559D01*
X421260Y2489369D01*
X484252Y2310630D02*
G01*
X421260Y2310630D01*
X421260Y2389369D01*
X484252Y2389369D01*
X515747Y2389369D02*
G01*
X578739Y2389369D01*
X578739Y2310630D01*
X515747Y2310630D01*
X421260Y2310630D02*
G01*
X421260Y2310630D01*
X409448Y2322440D01*
X409448Y2377559D01*
X409448Y2377559D01*
X421260Y2389369D01*
X484252Y2210630D02*
G01*
X421260Y2210630D01*
X421260Y2289369D01*
X484252Y2289369D01*
X515747Y2289369D02*
G01*
X578739Y2289369D01*
X578739Y2210630D01*
X515747Y2210630D01*
X421260Y2210630D02*
G01*
X421260Y2210630D01*
X409448Y2222440D01*
X409448Y2277559D01*
X409448Y2277559D01*
X421260Y2289369D01*
X484252Y2110630D02*
G01*
X421260Y2110630D01*
X421260Y2189369D01*
X484252Y2189369D01*
X515747Y2189369D02*
G01*
X578739Y2189369D01*
X578739Y2110630D01*
X515747Y2110630D01*
X421260Y2110630D02*
G01*
X421260Y2110630D01*
X409448Y2122440D01*
X409448Y2177559D01*
X409448Y2177559D01*
X421260Y2189369D01*
X484252Y2010630D02*
G01*
X421260Y2010630D01*
X421260Y2089369D01*
X484252Y2089369D01*
X515747Y2089369D02*
G01*
X578739Y2089369D01*
X578739Y2010630D01*
X515747Y2010630D01*
X421260Y2010630D02*
G01*
X421260Y2010630D01*
X409448Y2022440D01*
X409448Y2077559D01*
X409448Y2077559D01*
X421260Y2089369D01*
X484252Y1910630D02*
G01*
X421260Y1910630D01*
X421260Y1989369D01*
X484252Y1989369D01*
X515747Y1989369D02*
G01*
X578739Y1989369D01*
X578739Y1910630D01*
X515747Y1910630D01*
X421260Y1910630D02*
G01*
X421260Y1910630D01*
X409448Y1922440D01*
X409448Y1977559D01*
X409448Y1977559D01*
X421260Y1989369D01*
X484252Y1810630D02*
G01*
X421260Y1810630D01*
X421260Y1889369D01*
X484252Y1889369D01*
X515747Y1889369D02*
G01*
X578739Y1889369D01*
X578739Y1810630D01*
X515747Y1810630D01*
X421260Y1810630D02*
G01*
X421260Y1810630D01*
X409448Y1822440D01*
X409448Y1877559D01*
X409448Y1877559D01*
X421260Y1889369D01*
X484252Y1710630D02*
G01*
X421260Y1710630D01*
X421260Y1789369D01*
X484252Y1789369D01*
X515747Y1789369D02*
G01*
X578739Y1789369D01*
X578739Y1710630D01*
X515747Y1710630D01*
X421260Y1710630D02*
G01*
X421260Y1710630D01*
X409448Y1722440D01*
X409448Y1777559D01*
X409448Y1777559D01*
X421260Y1789369D01*
X484252Y1610630D02*
G01*
X421260Y1610630D01*
X421260Y1689369D01*
X484252Y1689369D01*
X515747Y1689369D02*
G01*
X578739Y1689369D01*
X578739Y1610630D01*
X515747Y1610630D01*
X421260Y1610630D02*
G01*
X421260Y1610630D01*
X409448Y1622440D01*
X409448Y1677559D01*
X409448Y1677559D01*
X421260Y1689369D01*
X484252Y1510630D02*
G01*
X421260Y1510630D01*
X421260Y1589369D01*
X484252Y1589369D01*
X515747Y1589369D02*
G01*
X578739Y1589369D01*
X578739Y1510630D01*
X515747Y1510630D01*
X421260Y1510630D02*
G01*
X421260Y1510630D01*
X409448Y1522440D01*
X409448Y1577559D01*
X409448Y1577559D01*
X421260Y1589369D01*
D11*
X981252Y2686106D02*
G01*
X930663Y2686106D01*
X930663Y2613894D01*
X981252Y2613894D01*
X1018747Y2686106D02*
G01*
X1069336Y2686106D01*
X1069336Y2613894D01*
X1018747Y2613894D01*
X981252Y2586106D02*
G01*
X930663Y2586106D01*
X930663Y2513894D01*
X981252Y2513894D01*
X1018747Y2586106D02*
G01*
X1069336Y2586106D01*
X1069336Y2513894D01*
X1018747Y2513894D01*
X981252Y2486106D02*
G01*
X930663Y2486106D01*
X930663Y2413894D01*
X981252Y2413894D01*
X1018747Y2486106D02*
G01*
X1069336Y2486106D01*
X1069336Y2413894D01*
X1018747Y2413894D01*
X981252Y2386106D02*
G01*
X930663Y2386106D01*
X930663Y2313894D01*
X981252Y2313894D01*
X1018747Y2386106D02*
G01*
X1069336Y2386106D01*
X1069336Y2313894D01*
X1018747Y2313894D01*
X981252Y2286106D02*
G01*
X930663Y2286106D01*
X930663Y2213894D01*
X981252Y2213894D01*
X1018747Y2286106D02*
G01*
X1069336Y2286106D01*
X1069336Y2213894D01*
X1018747Y2213894D01*
X981252Y2186106D02*
G01*
X930663Y2186106D01*
X930663Y2113894D01*
X981252Y2113894D01*
X1018747Y2186106D02*
G01*
X1069336Y2186106D01*
X1069336Y2113894D01*
X1018747Y2113894D01*
X981252Y2086105D02*
G01*
X930663Y2086105D01*
X930663Y2013894D01*
X981252Y2013894D01*
X1018747Y2086105D02*
G01*
X1069336Y2086105D01*
X1069336Y2013894D01*
X1018747Y2013894D01*
X981252Y1986105D02*
G01*
X930663Y1986105D01*
X930663Y1913894D01*
X981252Y1913894D01*
X1018747Y1986105D02*
G01*
X1069336Y1986105D01*
X1069336Y1913894D01*
X1018747Y1913894D01*
X981252Y1886105D02*
G01*
X930663Y1886105D01*
X930663Y1813894D01*
X981252Y1813894D01*
X1018747Y1886105D02*
G01*
X1069336Y1886105D01*
X1069336Y1813894D01*
X1018747Y1813894D01*
X981252Y1786105D02*
G01*
X930663Y1786105D01*
X930663Y1713894D01*
X981252Y1713894D01*
X1018747Y1786105D02*
G01*
X1069336Y1786105D01*
X1069336Y1713894D01*
X1018747Y1713894D01*
X981252Y1686105D02*
G01*
X930663Y1686105D01*
X930663Y1613894D01*
X981252Y1613894D01*
X1018747Y1686105D02*
G01*
X1069336Y1686105D01*
X1069336Y1613894D01*
X1018747Y1613894D01*
X981252Y1586105D02*
G01*
X930663Y1586105D01*
X930663Y1513894D01*
X981252Y1513894D01*
X1018747Y1586105D02*
G01*
X1069336Y1586105D01*
X1069336Y1513894D01*
X1018747Y1513894D01*
D14*
X5286610Y2703930D02*
G01*
X5542520Y2703930D01*
X5857479Y2703930D01*
X6113389Y2703930D01*
X6113389Y696060D01*
X5286610Y696060D01*
X5286610Y2703930D01*
X5857479Y2703930D02*
G01*
X5857479Y2526770D01*
X5542520Y2526770D01*
X5542520Y2703930D01*
X5542520Y2762990D01*
X5857479Y2762990D01*
X5857479Y2703930D01*
D13*
X484252Y3010630D02*
G01*
X421260Y3010630D01*
X421260Y3089369D01*
X484252Y3089369D01*
X515747Y3089369D02*
G01*
X578739Y3089369D01*
X578739Y3010630D01*
X515747Y3010630D01*
X421260Y3010630D02*
G01*
X421260Y3010630D01*
X409448Y3022440D01*
X409448Y3077559D01*
X409448Y3077559D01*
X421260Y3089369D01*
X484252Y2910630D02*
G01*
X421260Y2910630D01*
X421260Y2989369D01*
X484252Y2989369D01*
X515747Y2989369D02*
G01*
X578739Y2989369D01*
X578739Y2910630D01*
X515747Y2910630D01*
X421260Y2910630D02*
G01*
X421260Y2910630D01*
X409448Y2922440D01*
X409448Y2977559D01*
X409448Y2977559D01*
X421260Y2989369D01*
X484252Y2810630D02*
G01*
X421260Y2810630D01*
X421260Y2889369D01*
X484252Y2889369D01*
X515747Y2889369D02*
G01*
X578739Y2889369D01*
X578739Y2810630D01*
X515747Y2810630D01*
X421260Y2810630D02*
G01*
X421260Y2810630D01*
X409448Y2822440D01*
X409448Y2877559D01*
X409448Y2877559D01*
X421260Y2889369D01*
X484252Y2710630D02*
G01*
X421260Y2710630D01*
X421260Y2789369D01*
X484252Y2789369D01*
X515747Y2789369D02*
G01*
X578739Y2789369D01*
X578739Y2710630D01*
X515747Y2710630D01*
X421260Y2710630D02*
G01*
X421260Y2710630D01*
X409448Y2722440D01*
X409448Y2777559D01*
X409448Y2777559D01*
X421260Y2789369D01*
D11*
X981252Y3086106D02*
G01*
X930663Y3086106D01*
X930663Y3013894D01*
X981252Y3013894D01*
X1018747Y3086106D02*
G01*
X1069336Y3086106D01*
X1069336Y3013894D01*
X1018747Y3013894D01*
X981252Y2986106D02*
G01*
X930663Y2986106D01*
X930663Y2913894D01*
X981252Y2913894D01*
X1018747Y2986106D02*
G01*
X1069336Y2986106D01*
X1069336Y2913894D01*
X1018747Y2913894D01*
X981252Y2886106D02*
G01*
X930663Y2886106D01*
X930663Y2813894D01*
X981252Y2813894D01*
X1018747Y2886106D02*
G01*
X1069336Y2886106D01*
X1069336Y2813894D01*
X1018747Y2813894D01*
X981252Y2786106D02*
G01*
X930663Y2786106D01*
X930663Y2713894D01*
X981252Y2713894D01*
X1018747Y2786106D02*
G01*
X1069336Y2786106D01*
X1069336Y2713894D01*
X1018747Y2713894D01*
X3914425Y3621307D02*
G01*
X3914425Y3565794D01*
X3985574Y3565794D02*
G01*
X3985574Y3621307D01*
X3979575Y3627307D02*
G01*
X3920424Y3627307D01*
X3914425Y3478692D02*
G01*
X3914425Y3534205D01*
X3985574Y3534205D02*
G01*
X3985574Y3478692D01*
X3979575Y3472692D02*
G01*
X3920424Y3472692D01*
X3831252Y3236106D02*
G01*
X3780663Y3236106D01*
X3780663Y3163894D01*
X3831252Y3163894D01*
X3868747Y3236106D02*
G01*
X3919336Y3236106D01*
X3919336Y3163894D01*
X3868747Y3163894D01*
X3846106Y3478748D02*
G01*
X3846106Y3529335D01*
X3773894Y3529335D01*
X3773894Y3478748D01*
X3846106Y3441251D02*
G01*
X3846106Y3390664D01*
X3773894Y3390664D01*
X3773894Y3441251D01*
D15*
X3550000Y400000D02*
G01*
X2850000Y400000D01*
X2850000Y200000D01*
X3550000Y200000D01*
X3550000Y400000D01*
D12*
X4050000Y1350000D02*
G01*
X4550000Y1350000D01*
X4550000Y1350000D02*
G01*
X4550000Y3350000D01*
X4050000Y1350000D02*
G01*
X4050000Y3350000D01*
X4050000Y3350000D02*
G01*
X4225000Y3350000D01*
X4375000Y3350000D02*
G01*
X4550000Y3350000D01*
D11*
X2575787Y1552907D02*
G01*
X2756550Y1552907D01*
X2756550Y3047093D01*
X2243449Y3047093D01*
X2243449Y1552907D01*
X2424212Y1552907D01*
D12*
X3665748Y2916390D02*
G01*
X3665748Y2975000D01*
X3665748Y2816390D02*
G01*
X3665748Y2883609D01*
X3665748Y2716390D02*
G01*
X3665748Y2783609D01*
X3665748Y2616390D02*
G01*
X3665748Y2683609D01*
X3665748Y2516390D02*
G01*
X3665748Y2583609D01*
X3665748Y2416390D02*
G01*
X3665748Y2483609D01*
X3665748Y2316390D02*
G01*
X3665748Y2383609D01*
X3665748Y2216390D02*
G01*
X3665748Y2283609D01*
X3665748Y2116390D02*
G01*
X3665748Y2183609D01*
X3665748Y2016390D02*
G01*
X3665748Y2083609D01*
X3665748Y1916390D02*
G01*
X3665748Y1983609D01*
X3665748Y1816390D02*
G01*
X3665748Y1883609D01*
X3665748Y1716390D02*
G01*
X3665748Y1783609D01*
X3665748Y1642267D02*
G01*
X3665748Y1683609D01*
X3665748Y1521653D02*
G01*
X3665748Y1557732D01*
X3134251Y2916390D02*
G01*
X3134251Y2978346D01*
X3134251Y2816390D02*
G01*
X3134251Y2883609D01*
X3134251Y2716390D02*
G01*
X3134251Y2783609D01*
X3134251Y2616390D02*
G01*
X3134251Y2683609D01*
X3134251Y2516390D02*
G01*
X3134251Y2583609D01*
X3134251Y2416390D02*
G01*
X3134251Y2483609D01*
X3134251Y2316390D02*
G01*
X3134251Y2383609D01*
X3134251Y2216390D02*
G01*
X3134251Y2283609D01*
X3134251Y2116390D02*
G01*
X3134251Y2183609D01*
X3134251Y2016390D02*
G01*
X3134251Y2083609D01*
X3134251Y1916390D02*
G01*
X3134251Y1983609D01*
X3134251Y1816390D02*
G01*
X3134251Y1883609D01*
X3134251Y1716390D02*
G01*
X3134251Y1783609D01*
X3134251Y1616390D02*
G01*
X3134251Y1683609D01*
X3134251Y1521653D02*
G01*
X3134251Y1583609D01*
X3665748Y1521653D02*
G01*
X3477731Y1521653D01*
X3134251Y1521653D02*
G01*
X3320250Y1521653D01*
X3665748Y2978346D02*
G01*
X3134251Y2978346D01*
X1176999Y3230000D02*
G01*
X1415000Y3230000D01*
X1723000Y3230000D02*
G01*
X1485000Y3230000D01*
X1723000Y3230000D02*
G01*
X1723000Y3185389D01*
X1723000Y3114611D02*
G01*
X1723000Y3085389D01*
X1723000Y3014611D02*
G01*
X1723000Y2985389D01*
X1723000Y2914611D02*
G01*
X1723000Y2885389D01*
X1723000Y2814611D02*
G01*
X1723000Y2785389D01*
X1723000Y2714611D02*
G01*
X1723000Y2685389D01*
X1723000Y2614611D02*
G01*
X1723000Y2585389D01*
X1723000Y2514611D02*
G01*
X1723000Y2485389D01*
X1723000Y2414611D02*
G01*
X1723000Y2385389D01*
X1723000Y2314611D02*
G01*
X1723000Y2285389D01*
X1723000Y2214611D02*
G01*
X1723000Y2185389D01*
X1723000Y2114611D02*
G01*
X1723000Y2085389D01*
X1723000Y2014610D02*
G01*
X1723000Y1985389D01*
X1723000Y1914610D02*
G01*
X1723000Y1885389D01*
X1723000Y1814610D02*
G01*
X1723000Y1785389D01*
X1723000Y1714610D02*
G01*
X1723000Y1685389D01*
X1723000Y1614610D02*
G01*
X1723000Y1585389D01*
X1723000Y1514610D02*
G01*
X1723000Y1485389D01*
X1723000Y1414610D02*
G01*
X1723000Y1385389D01*
X1723000Y1314610D02*
G01*
X1723000Y1285389D01*
X1723000Y1214610D02*
G01*
X1723000Y1170000D01*
X1176999Y3230000D02*
G01*
X1176999Y3194533D01*
X1176999Y3105466D02*
G01*
X1176999Y3085389D01*
X1176999Y3014611D02*
G01*
X1176999Y2985389D01*
X1176999Y2914611D02*
G01*
X1176999Y2885389D01*
X1176999Y2814611D02*
G01*
X1176999Y2785389D01*
X1176999Y2714611D02*
G01*
X1176999Y2685389D01*
X1176999Y2614611D02*
G01*
X1176999Y2585389D01*
X1176999Y2514611D02*
G01*
X1176999Y2485389D01*
X1176999Y2414611D02*
G01*
X1176999Y2385389D01*
X1176999Y2314611D02*
G01*
X1176999Y2285389D01*
X1176999Y2214611D02*
G01*
X1176999Y2185389D01*
X1176999Y2114611D02*
G01*
X1176999Y2085389D01*
X1176999Y2014610D02*
G01*
X1176999Y1985389D01*
X1176999Y1914610D02*
G01*
X1176999Y1885389D01*
X1176999Y1814610D02*
G01*
X1176999Y1785389D01*
X1176999Y1714610D02*
G01*
X1176999Y1685389D01*
X1176999Y1614610D02*
G01*
X1176999Y1585389D01*
X1176999Y1514610D02*
G01*
X1176999Y1485389D01*
X1176999Y1414610D02*
G01*
X1176999Y1385389D01*
X1176999Y1314610D02*
G01*
X1176999Y1285389D01*
X1176999Y1214610D02*
G01*
X1176999Y1170000D01*
X1723000Y1170000D02*
G01*
X1176999Y1170000D01*
D11*
G75*
G01*
X3951307Y2664425D02*
G03*
X3957307Y2670425I0J6000D01*
G75*
G01*
X3957307Y2729575D02*
G03*
X3951307Y2735575I-6000J0D01*
G75*
G01*
X3808693Y2664425D02*
G02*
X3802693Y2670425I0J6000D01*
G75*
G01*
X3802693Y2729575D02*
G02*
X3808693Y2735575I6000J0D01*
G75*
G01*
X2038693Y1545575D02*
G03*
X2032693Y1539575I0J-6000D01*
G75*
G01*
X2032693Y1480425D02*
G03*
X2038693Y1474425I6000J0D01*
G75*
G01*
X2181307Y1545575D02*
G02*
X2187307Y1539575I0J-6000D01*
G75*
G01*
X2187307Y1480425D02*
G02*
X2181307Y1474425I-6000J0D01*
G75*
G01*
X3054425Y1338693D02*
G03*
X3060425Y1332693I6000J0D01*
G75*
G01*
X3119575Y1332693D02*
G03*
X3125575Y1338693I0J6000D01*
G75*
G01*
X3054425Y1481307D02*
G02*
X3060425Y1487307I6000J0D01*
G75*
G01*
X3119575Y1487307D02*
G02*
X3125575Y1481307I0J-6000D01*
G75*
G01*
X1055575Y1361307D02*
G03*
X1049575Y1367307I-6000J0D01*
G75*
G01*
X990425Y1367307D02*
G03*
X984425Y1361307I0J-6000D01*
G75*
G01*
X1055575Y1218693D02*
G02*
X1049575Y1212693I-6000J0D01*
G75*
G01*
X990425Y1212693D02*
G02*
X984425Y1218693I0J6000D01*
G75*
G01*
X3985575Y3621307D02*
G03*
X3979575Y3627307I-6000J0D01*
G75*
G01*
X3920425Y3627307D02*
G03*
X3914425Y3621307I0J-6000D01*
G75*
G01*
X3985575Y3478693D02*
G02*
X3979575Y3472693I-6000J0D01*
G75*
G01*
X3920425Y3472693D02*
G02*
X3914425Y3478693I0J6000D01*
D12*
G75*
G01*
X4375000Y3349998D02*
G02*
X4225000Y3349998I-75000J0D01*
D11*
G75*
G01*
X2575787Y1552907D02*
G03*
X2424213Y1552907I-75787J0D01*
D12*
G75*
G01*
X3320251Y1521653D02*
G02*
X3477731Y1521653I78740J0D01*
G75*
G01*
X1485000Y3230000D02*
G02*
X1415000Y3230000I-35000J0D01*
G75*
G01
X4812990Y3800000D02*
G03X4812990Y3800000I-62990J0D01*
G75*
G01
X4412990Y3800000D02*
G03X4412990Y3800000I-62990J0D01*
G75*
G01
X3140000Y3440000D02*
G03X3140000Y3440000I-30000J0D01*
G75*
G01
X2820000Y3440000D02*
G03X2820000Y3440000I-30000J0D01*
G75*
G01
X3140000Y3760000D02*
G03X3140000Y3760000I-30000J0D01*
G75*
G01
X2820000Y3760000D02*
G03X2820000Y3760000I-30000J0D01*
G75*
G01
X3090000Y3600000D02*
G03X3090000Y3600000I-140000J0D01*
G75*
G01
X3510000Y360000D02*
G03X3510000Y360000I-10000J0D01*
G75*
G01
X4150000Y3275000D02*
G03X4150000Y3275000I-25000J0D01*
D16*
G75*
G01
X2829820Y1532180D02*
G03X2829820Y1532180I-2950J0D01*
D17*
G75*
G01
X3714840Y1535000D02*
G03X3714840Y1535000I-9840J0D01*
D18*
G75*
G01
X1152750Y3210630D02*
G03X1152750Y3210630I-7870J0D01*
M02*
